G04*
G04 #@! TF.GenerationSoftware,Altium Limited,Altium Designer,21.6.1 (37)*
G04*
G04 Layer_Color=65535*
%FSLAX44Y44*%
%MOMM*%
G71*
G04*
G04 #@! TF.SameCoordinates,E457EF80-1144-4942-8A44-04504F566FFE*
G04*
G04*
G04 #@! TF.FilePolarity,Positive*
G04*
G01*
G75*
%ADD10C,0.2000*%
%ADD11C,0.2500*%
%ADD12C,0.4000*%
%ADD13C,0.6000*%
%ADD14C,0.7620*%
%ADD15C,0.1000*%
%ADD16C,0.2540*%
%ADD17C,0.2032*%
%ADD18C,0.2030*%
D10*
X423500Y290900D02*
G03*
X423500Y290900I-1000J0D01*
G01*
X98500Y405000D02*
Y435000D01*
X76500Y405000D02*
Y435000D01*
Y405000D02*
X98500D01*
X76500Y435000D02*
X98500D01*
X24800Y205200D02*
X50200D01*
Y154400D02*
Y205200D01*
X24800Y154400D02*
X50200D01*
X24800D02*
Y205200D01*
X505000Y101500D02*
X535000D01*
X505000Y123500D02*
X535000D01*
X505000Y101500D02*
Y123500D01*
X535000Y101500D02*
Y123500D01*
X570000Y279500D02*
Y355500D01*
X700000Y279500D02*
Y355500D01*
X570000Y279500D02*
X700000D01*
X570000Y355500D02*
X700000D01*
X455500Y321500D02*
Y358500D01*
X424500Y321500D02*
Y358500D01*
X455500D01*
X424500Y321500D02*
X455500D01*
X700000Y414500D02*
Y445500D01*
X690000Y414500D02*
Y445500D01*
Y414500D02*
X700000D01*
X690000Y445500D02*
X700000D01*
X349250Y376000D02*
X359250D01*
Y371750D02*
Y376000D01*
X349250Y354000D02*
X359250D01*
Y358250D01*
X163000Y101000D02*
X192000D01*
X163000Y109000D02*
X192000D01*
X163000Y101000D02*
Y109000D01*
X192000Y101000D02*
Y109000D01*
X527000Y302500D02*
X558000D01*
X527000Y312500D02*
X558000D01*
X527000Y302500D02*
Y312500D01*
X558000Y302500D02*
Y312500D01*
X159500Y222500D02*
X190500D01*
X159500Y232500D02*
X190500D01*
X159500Y222500D02*
Y232500D01*
X190500Y222500D02*
Y232500D01*
X52700Y224400D02*
Y300600D01*
X27300D02*
X52700D01*
X27300Y224400D02*
Y300600D01*
Y224400D02*
X52700D01*
X621750Y52000D02*
Y53000D01*
X633250Y52000D02*
Y53000D01*
X919250Y219500D02*
Y220500D01*
X930750Y219500D02*
Y220500D01*
X839250Y219500D02*
Y220500D01*
X850750Y219500D02*
Y220500D01*
X919250Y182000D02*
Y183000D01*
X930750Y182000D02*
Y183000D01*
X955750Y182000D02*
Y183000D01*
X944250Y182000D02*
Y183000D01*
X850750Y182000D02*
Y183000D01*
X839250Y182000D02*
Y183000D01*
X878250Y182000D02*
Y183000D01*
X866750Y182000D02*
Y183000D01*
X262000Y85750D02*
X263000D01*
X262000Y74250D02*
X263000D01*
X552000Y461750D02*
X553000D01*
X552000Y473250D02*
X553000D01*
X449500D02*
X450500D01*
X449500Y461750D02*
X450500D01*
X209500Y158250D02*
X210500D01*
X209500Y146750D02*
X210500D01*
X382000Y381750D02*
X383000D01*
X382000Y393250D02*
X383000D01*
X299500Y350750D02*
X300500D01*
X299500Y339250D02*
X300500D01*
X299500Y325750D02*
X300500D01*
X299500Y314250D02*
X300500D01*
X299500Y289250D02*
X300500D01*
X299500Y300750D02*
X300500D01*
X196750Y292000D02*
Y293000D01*
X208250Y292000D02*
Y293000D01*
X151750Y292750D02*
Y293750D01*
X163250Y292750D02*
Y293750D01*
X241750Y292000D02*
Y293000D01*
X253250Y292000D02*
Y293000D01*
X87000Y283250D02*
X88000D01*
X87000Y271750D02*
X88000D01*
X107000Y255750D02*
X108000D01*
X107000Y244250D02*
X108000D01*
X87000Y194250D02*
X88000D01*
X87000Y205750D02*
X88000D01*
X89500Y459250D02*
X90500D01*
X89500Y470750D02*
X90500D01*
X84500Y183250D02*
X85500D01*
X84500Y171750D02*
X85500D01*
X235750Y442000D02*
Y443000D01*
X224250Y442000D02*
Y443000D01*
X747300Y425600D02*
X772700D01*
Y298600D02*
Y425600D01*
X747300Y298600D02*
Y425600D01*
Y298600D02*
X772700D01*
X199350Y50200D02*
X434300D01*
X180300D02*
X199350D01*
X180300Y24800D02*
Y50200D01*
Y24800D02*
X434300D01*
Y50200D01*
X412400Y397300D02*
Y422700D01*
X641000D01*
Y397300D02*
Y422700D01*
X412400Y397300D02*
X641000D01*
X412400Y452700D02*
X590200D01*
X412400Y427300D02*
Y452700D01*
Y427300D02*
X590200D01*
Y452700D01*
X112300Y23200D02*
X137700D01*
X112300Y175600D02*
X137700D01*
Y23200D02*
Y175600D01*
X112300Y23200D02*
Y175600D01*
X474250Y127000D02*
Y128000D01*
X485750Y127000D02*
Y128000D01*
X541250Y41750D02*
X542250D01*
X541250Y53250D02*
X542250D01*
X944250Y219500D02*
Y220500D01*
X955750Y219500D02*
Y220500D01*
X866750Y219500D02*
Y220500D01*
X878250Y219500D02*
Y220500D01*
X485250Y53250D02*
X486250D01*
X485250Y41750D02*
X486250D01*
X387000Y355750D02*
X388000D01*
X387000Y344250D02*
X388000D01*
X754250Y457000D02*
Y458000D01*
X765750Y457000D02*
Y458000D01*
X714250Y379500D02*
Y380500D01*
X725750Y379500D02*
Y380500D01*
X692000Y456750D02*
X693000D01*
X692000Y468250D02*
X693000D01*
X174500Y146750D02*
X175500D01*
X174500Y158250D02*
X175500D01*
X385750Y312000D02*
Y313000D01*
X374250Y312000D02*
Y313000D01*
X209250Y107000D02*
Y108000D01*
X220750Y107000D02*
Y108000D01*
X384250Y82750D02*
Y83750D01*
X395750Y82750D02*
Y83750D01*
X477000Y240750D02*
X478000D01*
X477000Y229250D02*
X478000D01*
X264250Y226250D02*
Y227250D01*
X275750Y226250D02*
Y227250D01*
X107000Y219250D02*
X108000D01*
X107000Y230750D02*
X108000D01*
X59500Y386750D02*
X60500D01*
X59500Y398250D02*
X60500D01*
X145750Y448750D02*
Y449750D01*
X134250Y448750D02*
Y449750D01*
X167500Y421750D02*
X168500D01*
X167500Y433250D02*
X168500D01*
X542000Y273250D02*
X543000D01*
X542000Y261750D02*
X543000D01*
X162750Y200750D02*
X163750D01*
X162750Y189250D02*
X163750D01*
X558250Y357000D02*
Y358000D01*
X546750Y357000D02*
Y358000D01*
X211750Y229500D02*
Y230500D01*
X223250Y229500D02*
Y230500D01*
D11*
X110750Y402750D02*
G03*
X110750Y402750I-1250J0D01*
G01*
X503500Y90500D02*
G03*
X503500Y90500I-1250J0D01*
G01*
X704250Y360500D02*
G03*
X704250Y360500I-1250J0D01*
G01*
X423750Y310500D02*
G03*
X423750Y310500I-1250J0D01*
G01*
X682500Y448000D02*
G03*
X682500Y448000I-1250J0D01*
G01*
X343000Y379750D02*
G03*
X343000Y379750I-1250J0D01*
G01*
X196750Y118250D02*
G03*
X196750Y118250I-1250J0D01*
G01*
X561750Y321250D02*
G03*
X561750Y321250I-1250J0D01*
G01*
X194250Y241250D02*
G03*
X194250Y241250I-1250J0D01*
G01*
D12*
X92500Y413000D02*
G03*
X92500Y413000I-2000J0D01*
G01*
X515000Y109500D02*
G03*
X515000Y109500I-2000J0D01*
G01*
D13*
X694000Y346500D02*
G03*
X694000Y346500I-3000J0D01*
G01*
X437500Y331500D02*
G03*
X437500Y331500I-3000J0D01*
G01*
D14*
X783000Y269229D02*
G03*
X783000Y269229I-1000J0D01*
G01*
D15*
X658712Y34276D02*
G03*
X658712Y34276I-500J0D01*
G01*
X748712D02*
G03*
X748712Y34276I-500J0D01*
G01*
D16*
X24750Y144750D02*
X90750D01*
X24750Y24750D02*
X90750D01*
Y144750D01*
X24750Y24750D02*
Y144750D01*
X428450Y267500D02*
X432500D01*
X332500D02*
X336550D01*
X428450Y167500D02*
X432500D01*
X332500D02*
X336550D01*
X432500Y263450D02*
Y267500D01*
X332500Y263450D02*
Y267500D01*
X432500Y167500D02*
Y171550D01*
X332500Y167500D02*
Y171550D01*
X513732Y62093D02*
Y73093D01*
X950000Y265229D02*
Y458229D01*
X790000Y265229D02*
X950000D01*
X790000D02*
Y458229D01*
X950000D01*
X950000Y443229D02*
X964000D01*
X965000D01*
X972000Y450229D01*
X965000Y443229D02*
X972000Y436230D01*
Y450229D01*
X909250Y25250D02*
X975250D01*
X909250Y145250D02*
X975250D01*
X909250Y25250D02*
Y145250D01*
X975250Y25250D02*
Y145250D01*
X834250Y25250D02*
X900250D01*
X834250Y145250D02*
X900250D01*
X834250Y25250D02*
Y145250D01*
X900250Y25250D02*
Y145250D01*
X743000Y288250D02*
X752000D01*
X743000Y271750D02*
X752000D01*
X232750Y418250D02*
X241750D01*
X232750Y401750D02*
X241750D01*
X53000Y338250D02*
X62000D01*
X53000Y321750D02*
X62000D01*
X187500Y386500D02*
Y398500D01*
X107500Y324000D02*
Y336000D01*
X124000Y365000D02*
X136000D01*
D17*
X797848Y77020D02*
X822500D01*
X792500Y82368D02*
X797848Y77020D01*
X792500Y82368D02*
Y89000D01*
X822500Y77020D02*
Y126000D01*
X792500Y89000D02*
Y126000D01*
X775348Y149520D02*
X800000D01*
X770000Y154868D02*
X775348Y149520D01*
X770000Y154868D02*
Y161500D01*
X800000Y149520D02*
Y198500D01*
X770000Y161500D02*
Y198500D01*
X752848Y77020D02*
X777500D01*
X747500Y82368D02*
X752848Y77020D01*
X747500Y82368D02*
Y89000D01*
X777500Y77020D02*
Y126000D01*
X747500Y89000D02*
Y126000D01*
X730348Y149520D02*
X755000D01*
X725000Y154868D02*
X730348Y149520D01*
X725000Y154868D02*
Y161500D01*
X755000Y149520D02*
Y198500D01*
X725000Y161500D02*
Y198500D01*
X707848Y77020D02*
X732500D01*
X702500Y82368D02*
X707848Y77020D01*
X702500Y82368D02*
Y89000D01*
X732500Y77020D02*
Y126000D01*
X702500Y89000D02*
Y126000D01*
X617848Y77020D02*
X642500D01*
X612500Y82368D02*
X617848Y77020D01*
X612500Y82368D02*
Y89000D01*
X642500Y77020D02*
Y126000D01*
X612500Y89000D02*
Y126000D01*
X685348Y149520D02*
X710000D01*
X680000Y154868D02*
X685348Y149520D01*
X680000Y154868D02*
Y161500D01*
X710000Y149520D02*
Y198500D01*
X680000Y161500D02*
Y198500D01*
X662848Y77020D02*
X687500D01*
X657500Y82368D02*
X662848Y77020D01*
X657500Y82368D02*
Y89000D01*
X687500Y77020D02*
Y126000D01*
X657500Y89000D02*
Y126000D01*
X640348Y149520D02*
X665000D01*
X635000Y154868D02*
X640348Y149520D01*
X635000Y154868D02*
Y161500D01*
X665000Y149520D02*
Y198500D01*
X635000Y161500D02*
Y198500D01*
X282020Y65000D02*
Y89652D01*
X287368Y95000D01*
X294000D01*
X282020Y65000D02*
X331000D01*
X294000Y95000D02*
X331000D01*
X192848Y314520D02*
X217500D01*
X187500Y319868D02*
X192848Y314520D01*
X187500Y319868D02*
Y326500D01*
X217500Y314520D02*
Y363500D01*
X187500Y326500D02*
Y363500D01*
X147848Y314520D02*
X172500D01*
X142500Y319868D02*
X147848Y314520D01*
X142500Y319868D02*
Y326500D01*
X172500Y314520D02*
Y363500D01*
X142500Y326500D02*
Y363500D01*
X237848Y314520D02*
X262500D01*
X232500Y319868D02*
X237848Y314520D01*
X232500Y319868D02*
Y326500D01*
X262500Y314520D02*
Y363500D01*
X232500Y326500D02*
Y363500D01*
X217980Y450348D02*
Y475000D01*
X212632Y445000D02*
X217980Y450348D01*
X206000Y445000D02*
X212632D01*
X169000Y475000D02*
X217980D01*
X169000Y445000D02*
X206000D01*
X55834Y103332D02*
X54168Y104998D01*
X50835D01*
X49169Y103332D01*
Y101666D01*
X50835Y100000D01*
X54168D01*
X55834Y98334D01*
Y96668D01*
X54168Y95002D01*
X50835D01*
X49169Y96668D01*
X65831Y95002D02*
X59166D01*
X65831Y101666D01*
Y103332D01*
X64165Y104998D01*
X60832D01*
X59166Y103332D01*
X110002Y473331D02*
X119998D01*
Y468332D01*
X118332Y466666D01*
X115000D01*
X113334Y468332D01*
Y473331D01*
Y469998D02*
X110002Y466666D01*
X118332Y463334D02*
X119998Y461668D01*
Y458335D01*
X118332Y456669D01*
X116666D01*
X115000Y458335D01*
Y460002D01*
Y458335D01*
X113334Y456669D01*
X111668D01*
X110002Y458335D01*
Y461668D01*
X111668Y463334D01*
X902502Y195829D02*
X912498D01*
Y190831D01*
X910832Y189165D01*
X907500D01*
X905834Y190831D01*
Y195829D01*
Y192497D02*
X902502Y189165D01*
Y179168D02*
Y185832D01*
X909166Y179168D01*
X910832D01*
X912498Y180834D01*
Y184166D01*
X910832Y185832D01*
X902502Y169171D02*
Y175835D01*
X909166Y169171D01*
X910832D01*
X912498Y170837D01*
Y174169D01*
X910832Y175835D01*
X962502Y194163D02*
X972498D01*
Y189165D01*
X970832Y187498D01*
X967500D01*
X965834Y189165D01*
Y194163D01*
Y190831D02*
X962502Y187498D01*
Y177502D02*
Y184166D01*
X969166Y177502D01*
X970832D01*
X972498Y179168D01*
Y182500D01*
X970832Y184166D01*
X962502Y174169D02*
Y170837D01*
Y172503D01*
X972498D01*
X970832Y174169D01*
X822502Y195829D02*
X832498D01*
Y190831D01*
X830832Y189165D01*
X827500D01*
X825834Y190831D01*
Y195829D01*
Y192497D02*
X822502Y189165D01*
Y179168D02*
Y185832D01*
X829166Y179168D01*
X830832D01*
X832498Y180834D01*
Y184166D01*
X830832Y185832D01*
Y175835D02*
X832498Y174169D01*
Y170837D01*
X830832Y169171D01*
X824168D01*
X822502Y170837D01*
Y174169D01*
X824168Y175835D01*
X830832D01*
X885002Y194996D02*
X894998D01*
Y189998D01*
X893332Y188331D01*
X890000D01*
X888334Y189998D01*
Y194996D01*
Y191664D02*
X885002Y188331D01*
Y184999D02*
Y181667D01*
Y183333D01*
X894998D01*
X893332Y184999D01*
X886668Y176668D02*
X885002Y175002D01*
Y171670D01*
X886668Y170004D01*
X893332D01*
X894998Y171670D01*
Y175002D01*
X893332Y176668D01*
X891666D01*
X890000Y175002D01*
Y170004D01*
X96669Y349998D02*
Y340002D01*
X101668D01*
X103334Y341668D01*
Y348332D01*
X101668Y349998D01*
X96669D01*
X113331Y340002D02*
X106666D01*
X113331Y346666D01*
Y348332D01*
X111664Y349998D01*
X108332D01*
X106666Y348332D01*
X57500Y352498D02*
X50835D01*
Y347500D01*
X54168D01*
X50835D01*
Y342502D01*
X60832D02*
X64165D01*
X62498D01*
Y352498D01*
X60832Y350832D01*
X374169Y222498D02*
Y214168D01*
X375835Y212502D01*
X379168D01*
X380834Y214168D01*
Y222498D01*
X389165Y212502D02*
Y222498D01*
X384166Y217500D01*
X390831D01*
X152498Y135000D02*
Y138332D01*
Y136666D01*
X144168D01*
X142502Y138332D01*
Y139998D01*
X144168Y141664D01*
X142502Y131668D02*
Y128336D01*
Y130002D01*
X152498D01*
X150832Y131668D01*
X705004Y144998D02*
Y135002D01*
X710002D01*
X711668Y136668D01*
Y143332D01*
X710002Y144998D01*
X705004D01*
X715001Y135002D02*
X718333D01*
X716667D01*
Y144998D01*
X715001Y143332D01*
X723331D02*
X724998Y144998D01*
X728330D01*
X729996Y143332D01*
Y141666D01*
X728330Y140000D01*
X726664D01*
X728330D01*
X729996Y138334D01*
Y136668D01*
X728330Y135002D01*
X724998D01*
X723331Y136668D01*
X684170Y217498D02*
Y207502D01*
X689169D01*
X690835Y209168D01*
Y215832D01*
X689169Y217498D01*
X684170D01*
X694167Y207502D02*
X697499D01*
X695833D01*
Y217498D01*
X694167Y215832D01*
X702498Y207502D02*
X705830D01*
X704164D01*
Y217498D01*
X702498Y215832D01*
X660004Y144998D02*
Y135002D01*
X665002D01*
X666668Y136668D01*
Y143332D01*
X665002Y144998D01*
X660004D01*
X670001Y135002D02*
X673333D01*
X671667D01*
Y144998D01*
X670001Y143332D01*
X678332D02*
X679998Y144998D01*
X683330D01*
X684996Y143332D01*
Y136668D01*
X683330Y135002D01*
X679998D01*
X678332Y136668D01*
Y143332D01*
X641669Y217498D02*
Y207502D01*
X646668D01*
X648334Y209168D01*
Y215832D01*
X646668Y217498D01*
X641669D01*
X651666Y209168D02*
X653332Y207502D01*
X656665D01*
X658331Y209168D01*
Y215832D01*
X656665Y217498D01*
X653332D01*
X651666Y215832D01*
Y214166D01*
X653332Y212500D01*
X658331D01*
X863169Y362228D02*
Y353897D01*
X864836Y352231D01*
X868168D01*
X869834Y353897D01*
Y362228D01*
X873166Y360562D02*
X874832Y362228D01*
X878165D01*
X879831Y360562D01*
Y358895D01*
X878165Y357229D01*
X879831Y355563D01*
Y353897D01*
X878165Y352231D01*
X874832D01*
X873166Y353897D01*
Y355563D01*
X874832Y357229D01*
X873166Y358895D01*
Y360562D01*
X874832Y357229D02*
X878165D01*
X699002Y61829D02*
X708998D01*
Y56831D01*
X707332Y55164D01*
X704000D01*
X702334Y56831D01*
Y61829D01*
Y58497D02*
X699002Y55164D01*
Y45168D02*
Y51832D01*
X705666Y45168D01*
X707332D01*
X708998Y46834D01*
Y50166D01*
X707332Y51832D01*
X708998Y41835D02*
Y35171D01*
X707332D01*
X700668Y41835D01*
X699002D01*
X789002Y61829D02*
X798998D01*
Y56831D01*
X797332Y55164D01*
X794000D01*
X792334Y56831D01*
Y61829D01*
Y58497D02*
X789002Y55164D01*
Y45168D02*
Y51832D01*
X795666Y45168D01*
X797332D01*
X798998Y46834D01*
Y50166D01*
X797332Y51832D01*
X798998Y35171D02*
X797332Y38503D01*
X794000Y41835D01*
X790668D01*
X789002Y40169D01*
Y36837D01*
X790668Y35171D01*
X792334D01*
X794000Y36837D01*
Y41835D01*
X40000Y313332D02*
X38334Y314998D01*
X35002D01*
X33335Y313332D01*
Y311666D01*
X35002Y310000D01*
X38334D01*
X40000Y308334D01*
Y306668D01*
X38334Y305002D01*
X35002D01*
X33335Y306668D01*
X43332Y305002D02*
X46665D01*
X44998D01*
Y314998D01*
X43332Y313332D01*
X174169Y412498D02*
Y402502D01*
X179168D01*
X180834Y404168D01*
Y410832D01*
X179168Y412498D01*
X174169D01*
X189165Y402502D02*
Y412498D01*
X184166Y407500D01*
X190831D01*
X123336Y399998D02*
Y390002D01*
X128334D01*
X130000Y391668D01*
Y398332D01*
X128334Y399998D01*
X123336D01*
X133332Y390002D02*
X136664D01*
X134998D01*
Y399998D01*
X133332Y398332D01*
X742502Y267498D02*
X735837D01*
Y262500D01*
X739169D01*
X735837D01*
Y257502D01*
X745834Y267498D02*
Y257502D01*
X750832D01*
X752498Y259168D01*
Y260834D01*
X750832Y262500D01*
X745834D01*
X750832D01*
X752498Y264166D01*
Y265832D01*
X750832Y267498D01*
X745834D01*
X755831Y257502D02*
X759163D01*
X757497D01*
Y267498D01*
X755831Y265832D01*
X605002Y65829D02*
X614998D01*
Y60831D01*
X613332Y59165D01*
X610000D01*
X608334Y60831D01*
Y65829D01*
Y62497D02*
X605002Y59165D01*
Y49168D02*
Y55832D01*
X611666Y49168D01*
X613332D01*
X614998Y50834D01*
Y54166D01*
X613332Y55832D01*
X614998Y39171D02*
Y45835D01*
X610000D01*
X611666Y42503D01*
Y40837D01*
X610000Y39171D01*
X606668D01*
X605002Y40837D01*
Y44169D01*
X606668Y45835D01*
X902502Y233329D02*
X912498D01*
Y228331D01*
X910832Y226665D01*
X907500D01*
X905834Y228331D01*
Y233329D01*
Y229997D02*
X902502Y226665D01*
Y216668D02*
Y223332D01*
X909166Y216668D01*
X910832D01*
X912498Y218334D01*
Y221666D01*
X910832Y223332D01*
X902502Y208337D02*
X912498D01*
X907500Y213335D01*
Y206671D01*
X822502Y233329D02*
X832498D01*
Y228331D01*
X830832Y226665D01*
X827500D01*
X825834Y228331D01*
Y233329D01*
Y229997D02*
X822502Y226665D01*
Y216668D02*
Y223332D01*
X829166Y216668D01*
X830832D01*
X832498Y218334D01*
Y221666D01*
X830832Y223332D01*
Y213335D02*
X832498Y211669D01*
Y208337D01*
X830832Y206671D01*
X829166D01*
X827500Y208337D01*
Y210003D01*
Y208337D01*
X825834Y206671D01*
X824168D01*
X822502Y208337D01*
Y211669D01*
X824168Y213335D01*
X250004Y92502D02*
Y102498D01*
X255002D01*
X256669Y100832D01*
Y97500D01*
X255002Y95834D01*
X250004D01*
X253336D02*
X256669Y92502D01*
X260001D02*
X263333D01*
X261667D01*
Y102498D01*
X260001Y100832D01*
X268332D02*
X269998Y102498D01*
X273330D01*
X274996Y100832D01*
Y99166D01*
X273330Y97500D01*
X274996Y95834D01*
Y94168D01*
X273330Y92502D01*
X269998D01*
X268332Y94168D01*
Y95834D01*
X269998Y97500D01*
X268332Y99166D01*
Y100832D01*
X269998Y97500D02*
X273330D01*
X197504Y165002D02*
Y174998D01*
X202502D01*
X204169Y173332D01*
Y170000D01*
X202502Y168334D01*
X197504D01*
X200836D02*
X204169Y165002D01*
X207501D02*
X210833D01*
X209167D01*
Y174998D01*
X207501Y173332D01*
X222496Y174998D02*
X215832D01*
Y170000D01*
X219164Y171666D01*
X220830D01*
X222496Y170000D01*
Y166668D01*
X220830Y165002D01*
X217498D01*
X215832Y166668D01*
X571754Y462502D02*
Y472498D01*
X576752D01*
X578419Y470832D01*
Y467500D01*
X576752Y465834D01*
X571754D01*
X575086D02*
X578419Y462502D01*
X581751D02*
X585083D01*
X583417D01*
Y472498D01*
X581751Y470832D01*
X590081Y472498D02*
X596746D01*
Y470832D01*
X590081Y464168D01*
Y462502D01*
X405004D02*
Y472498D01*
X410002D01*
X411669Y470832D01*
Y467500D01*
X410002Y465834D01*
X405004D01*
X408336D02*
X411669Y462502D01*
X415001D02*
X418333D01*
X416667D01*
Y472498D01*
X415001Y470832D01*
X429996Y472498D02*
X426664Y470832D01*
X423331Y467500D01*
Y464168D01*
X424998Y462502D01*
X428330D01*
X429996Y464168D01*
Y465834D01*
X428330Y467500D01*
X423331D01*
X340004Y385002D02*
Y394998D01*
X345002D01*
X346669Y393332D01*
Y390000D01*
X345002Y388334D01*
X340004D01*
X343336D02*
X346669Y385002D01*
X350001D02*
X353333D01*
X351667D01*
Y394998D01*
X350001Y393332D01*
X363330Y385002D02*
Y394998D01*
X358331Y390000D01*
X364996D01*
X317504Y340002D02*
Y349998D01*
X322502D01*
X324169Y348332D01*
Y345000D01*
X322502Y343334D01*
X317504D01*
X320836D02*
X324169Y340002D01*
X327501D02*
X330833D01*
X329167D01*
Y349998D01*
X327501Y348332D01*
X335831D02*
X337498Y349998D01*
X340830D01*
X342496Y348332D01*
Y346666D01*
X340830Y345000D01*
X339164D01*
X340830D01*
X342496Y343334D01*
Y341668D01*
X340830Y340002D01*
X337498D01*
X335831Y341668D01*
X317504Y315002D02*
Y324998D01*
X322502D01*
X324169Y323332D01*
Y320000D01*
X322502Y318334D01*
X317504D01*
X320836D02*
X324169Y315002D01*
X327501D02*
X330833D01*
X329167D01*
Y324998D01*
X327501Y323332D01*
X342496Y315002D02*
X335831D01*
X342496Y321666D01*
Y323332D01*
X340830Y324998D01*
X337498D01*
X335831Y323332D01*
X287504Y275002D02*
Y284998D01*
X292502D01*
X294169Y283332D01*
Y280000D01*
X292502Y278334D01*
X287504D01*
X290836D02*
X294169Y275002D01*
X297501D02*
X300833D01*
X299167D01*
Y284998D01*
X297501Y283332D01*
X305832D02*
X307498Y284998D01*
X310830D01*
X312496Y283332D01*
Y276668D01*
X310830Y275002D01*
X307498D01*
X305832Y276668D01*
Y283332D01*
X107502Y208331D02*
X117498D01*
Y203332D01*
X115832Y201666D01*
X112500D01*
X110834Y203332D01*
Y208331D01*
Y204998D02*
X107502Y201666D01*
Y193335D02*
X117498D01*
X112500Y198334D01*
Y191669D01*
X215002Y300831D02*
X224998D01*
Y295832D01*
X223332Y294166D01*
X220000D01*
X218334Y295832D01*
Y300831D01*
Y297498D02*
X215002Y294166D01*
X216668Y290834D02*
X215002Y289168D01*
Y285835D01*
X216668Y284169D01*
X223332D01*
X224998Y285835D01*
Y289168D01*
X223332Y290834D01*
X221666D01*
X220000Y289168D01*
Y284169D01*
X170002Y300831D02*
X179998D01*
Y295832D01*
X178332Y294166D01*
X175000D01*
X173334Y295832D01*
Y300831D01*
Y297498D02*
X170002Y294166D01*
X178332Y290834D02*
X179998Y289168D01*
Y285835D01*
X178332Y284169D01*
X176666D01*
X175000Y285835D01*
X173334Y284169D01*
X171668D01*
X170002Y285835D01*
Y289168D01*
X171668Y290834D01*
X173334D01*
X175000Y289168D01*
X176666Y290834D01*
X178332D01*
X175000Y289168D02*
Y285835D01*
X260002Y300831D02*
X269998D01*
Y295832D01*
X268332Y294166D01*
X265000D01*
X263334Y295832D01*
Y300831D01*
Y297498D02*
X260002Y294166D01*
X269998Y290834D02*
Y284169D01*
X268332D01*
X261668Y290834D01*
X260002D01*
X55002Y185831D02*
X64998D01*
Y180832D01*
X63332Y179166D01*
X60000D01*
X58334Y180832D01*
Y185831D01*
Y182498D02*
X55002Y179166D01*
Y169169D02*
Y175834D01*
X61666Y169169D01*
X63332D01*
X64998Y170835D01*
Y174168D01*
X63332Y175834D01*
X106669Y272502D02*
Y282498D01*
X111668D01*
X113334Y280832D01*
Y277500D01*
X111668Y275834D01*
X106669D01*
X110002D02*
X113334Y272502D01*
X123331Y282498D02*
X119998Y280832D01*
X116666Y277500D01*
Y274168D01*
X118332Y272502D01*
X121664D01*
X123331Y274168D01*
Y275834D01*
X121664Y277500D01*
X116666D01*
X126669Y245002D02*
Y254998D01*
X131668D01*
X133334Y253332D01*
Y250000D01*
X131668Y248334D01*
X126669D01*
X130002D02*
X133334Y245002D01*
X143331Y254998D02*
X136666D01*
Y250000D01*
X139998Y251666D01*
X141664D01*
X143331Y250000D01*
Y246668D01*
X141664Y245002D01*
X138332D01*
X136666Y246668D01*
X223335Y460002D02*
Y469998D01*
X228334D01*
X230000Y468332D01*
Y465000D01*
X228334Y463334D01*
X223335D01*
X226668D02*
X230000Y460002D01*
X233332D02*
X236665D01*
X234998D01*
Y469998D01*
X233332Y468332D01*
X795004Y144998D02*
Y135002D01*
X800002D01*
X801669Y136668D01*
Y143332D01*
X800002Y144998D01*
X795004D01*
X805001Y135002D02*
X808333D01*
X806667D01*
Y144998D01*
X805001Y143332D01*
X813332Y144998D02*
X819996D01*
Y143332D01*
X813332Y136668D01*
Y135002D01*
X772504Y217498D02*
Y207502D01*
X777502D01*
X779168Y209168D01*
Y215832D01*
X777502Y217498D01*
X772504D01*
X782501Y207502D02*
X785833D01*
X784167D01*
Y217498D01*
X782501Y215832D01*
X797496Y217498D02*
X794164Y215832D01*
X790832Y212500D01*
Y209168D01*
X792498Y207502D01*
X795830D01*
X797496Y209168D01*
Y210834D01*
X795830Y212500D01*
X790832D01*
X750004Y144998D02*
Y135002D01*
X755002D01*
X756668Y136668D01*
Y143332D01*
X755002Y144998D01*
X750004D01*
X760001Y135002D02*
X763333D01*
X761667D01*
Y144998D01*
X760001Y143332D01*
X774996Y144998D02*
X768332D01*
Y140000D01*
X771664Y141666D01*
X773330D01*
X774996Y140000D01*
Y136668D01*
X773330Y135002D01*
X769998D01*
X768332Y136668D01*
X727504Y217498D02*
Y207502D01*
X732502D01*
X734168Y209168D01*
Y215832D01*
X732502Y217498D01*
X727504D01*
X737501Y207502D02*
X740833D01*
X739167D01*
Y217498D01*
X737501Y215832D01*
X750830Y207502D02*
Y217498D01*
X745832Y212500D01*
X752496D01*
X615004Y144998D02*
Y135002D01*
X620002D01*
X621669Y136668D01*
Y143332D01*
X620002Y144998D01*
X615004D01*
X625001Y135002D02*
X628333D01*
X626667D01*
Y144998D01*
X625001Y143332D01*
X639996Y135002D02*
X633331D01*
X639996Y141666D01*
Y143332D01*
X638330Y144998D01*
X634998D01*
X633331Y143332D01*
X304169Y109998D02*
Y100002D01*
X309168D01*
X310834Y101668D01*
Y108332D01*
X309168Y109998D01*
X304169D01*
X314166Y108332D02*
X315832Y109998D01*
X319165D01*
X320831Y108332D01*
Y106666D01*
X319165Y105000D01*
X320831Y103334D01*
Y101668D01*
X319165Y100002D01*
X315832D01*
X314166Y101668D01*
Y103334D01*
X315832Y105000D01*
X314166Y106666D01*
Y108332D01*
X315832Y105000D02*
X319165D01*
X194169Y382498D02*
Y372502D01*
X199168D01*
X200834Y374168D01*
Y380832D01*
X199168Y382498D01*
X194169D01*
X204166D02*
X210831D01*
Y380832D01*
X204166Y374168D01*
Y372502D01*
X149169Y382498D02*
Y372502D01*
X154168D01*
X155834Y374168D01*
Y380832D01*
X154168Y382498D01*
X149169D01*
X165831D02*
X162498Y380832D01*
X159166Y377500D01*
Y374168D01*
X160832Y372502D01*
X164165D01*
X165831Y374168D01*
Y375834D01*
X164165Y377500D01*
X159166D01*
X239169Y382498D02*
Y372502D01*
X244168D01*
X245834Y374168D01*
Y380832D01*
X244168Y382498D01*
X239169D01*
X255831D02*
X249166D01*
Y377500D01*
X252498Y379166D01*
X254165D01*
X255831Y377500D01*
Y374168D01*
X254165Y372502D01*
X250832D01*
X249166Y374168D01*
X143419Y477498D02*
Y467502D01*
X148418D01*
X150084Y469168D01*
Y475832D01*
X148418Y477498D01*
X143419D01*
X153416Y475832D02*
X155082Y477498D01*
X158414D01*
X160081Y475832D01*
Y474166D01*
X158414Y472500D01*
X156748D01*
X158414D01*
X160081Y470834D01*
Y469168D01*
X158414Y467502D01*
X155082D01*
X153416Y469168D01*
X384170Y405002D02*
Y414998D01*
X389169D01*
X390835Y413332D01*
Y410000D01*
X389169Y408334D01*
X384170D01*
X387502D02*
X390835Y405002D01*
X394167D02*
X397499D01*
X395833D01*
Y414998D01*
X394167Y413332D01*
X402498Y405002D02*
X405830D01*
X404164D01*
Y414998D01*
X402498Y413332D01*
X465832Y134164D02*
X467498Y135831D01*
Y139163D01*
X465832Y140829D01*
X459168D01*
X457502Y139163D01*
Y135831D01*
X459168Y134164D01*
X457502Y124168D02*
Y130832D01*
X464166Y124168D01*
X465832D01*
X467498Y125834D01*
Y129166D01*
X465832Y130832D01*
Y120835D02*
X467498Y119169D01*
Y115837D01*
X465832Y114171D01*
X464166D01*
X462500Y115837D01*
Y117503D01*
Y115837D01*
X460834Y114171D01*
X459168D01*
X457502Y115837D01*
Y119169D01*
X459168Y120835D01*
X534585Y32832D02*
X532919Y34499D01*
X529587D01*
X527921Y32832D01*
Y26168D01*
X529587Y24502D01*
X532919D01*
X534585Y26168D01*
X544582Y24502D02*
X537918D01*
X544582Y31166D01*
Y32832D01*
X542916Y34499D01*
X539584D01*
X537918Y32832D01*
X554579Y24502D02*
X547915D01*
X554579Y31166D01*
Y32832D01*
X552913Y34499D01*
X549581D01*
X547915Y32832D01*
X970832Y224998D02*
X972498Y226665D01*
Y229997D01*
X970832Y231663D01*
X964168D01*
X962502Y229997D01*
Y226665D01*
X964168Y224998D01*
X962502Y215002D02*
Y221666D01*
X969166Y215002D01*
X970832D01*
X972498Y216668D01*
Y220000D01*
X970832Y221666D01*
X962502Y211669D02*
Y208337D01*
Y210003D01*
X972498D01*
X970832Y211669D01*
X893332Y226665D02*
X894998Y228331D01*
Y231663D01*
X893332Y233329D01*
X886668D01*
X885002Y231663D01*
Y228331D01*
X886668Y226665D01*
X885002Y216668D02*
Y223332D01*
X891666Y216668D01*
X893332D01*
X894998Y218334D01*
Y221666D01*
X893332Y223332D01*
Y213335D02*
X894998Y211669D01*
Y208337D01*
X893332Y206671D01*
X886668D01*
X885002Y208337D01*
Y211669D01*
X886668Y213335D01*
X893332D01*
X477919Y32832D02*
X476252Y34499D01*
X472920D01*
X471254Y32832D01*
Y26168D01*
X472920Y24502D01*
X476252D01*
X477919Y26168D01*
X481251Y24502D02*
X484583D01*
X482917D01*
Y34499D01*
X481251Y32832D01*
X489581Y26168D02*
X491248Y24502D01*
X494580D01*
X496246Y26168D01*
Y32832D01*
X494580Y34499D01*
X491248D01*
X489581Y32832D01*
Y31166D01*
X491248Y29500D01*
X496246D01*
X779168Y470832D02*
X777502Y472498D01*
X774170D01*
X772504Y470832D01*
Y464168D01*
X774170Y462502D01*
X777502D01*
X779168Y464168D01*
X782501Y462502D02*
X785833D01*
X784167D01*
Y472498D01*
X782501Y470832D01*
X790832Y472498D02*
X797496D01*
Y470832D01*
X790832Y464168D01*
Y462502D01*
X716668Y355832D02*
X715002Y357498D01*
X711670D01*
X710004Y355832D01*
Y349168D01*
X711670Y347502D01*
X715002D01*
X716668Y349168D01*
X720001Y347502D02*
X723333D01*
X721667D01*
Y357498D01*
X720001Y355832D01*
X734996Y357498D02*
X731664Y355832D01*
X728332Y352500D01*
Y349168D01*
X729998Y347502D01*
X733330D01*
X734996Y349168D01*
Y350834D01*
X733330Y352500D01*
X728332D01*
X381669Y370832D02*
X380002Y372498D01*
X376670D01*
X375004Y370832D01*
Y364168D01*
X376670Y362502D01*
X380002D01*
X381669Y364168D01*
X385001Y362502D02*
X388333D01*
X386667D01*
Y372498D01*
X385001Y370832D01*
X393331D02*
X394998Y372498D01*
X398330D01*
X399996Y370832D01*
Y369166D01*
X398330Y367500D01*
X399996Y365834D01*
Y364168D01*
X398330Y362502D01*
X394998D01*
X393331Y364168D01*
Y365834D01*
X394998Y367500D01*
X393331Y369166D01*
Y370832D01*
X394998Y367500D02*
X398330D01*
X716668Y465832D02*
X715002Y467498D01*
X711670D01*
X710004Y465832D01*
Y459168D01*
X711670Y457502D01*
X715002D01*
X716668Y459168D01*
X720001Y457502D02*
X723333D01*
X721667D01*
Y467498D01*
X720001Y465832D01*
X734996Y467498D02*
X728332D01*
Y462500D01*
X731664Y464166D01*
X733330D01*
X734996Y462500D01*
Y459168D01*
X733330Y457502D01*
X729998D01*
X728332Y459168D01*
X169168Y173332D02*
X167502Y174998D01*
X164170D01*
X162504Y173332D01*
Y166668D01*
X164170Y165002D01*
X167502D01*
X169168Y166668D01*
X172501Y165002D02*
X175833D01*
X174167D01*
Y174998D01*
X172501Y173332D01*
X185830Y165002D02*
Y174998D01*
X180832Y170000D01*
X187496D01*
X235832Y115082D02*
X237498Y116748D01*
Y120080D01*
X235832Y121746D01*
X229168D01*
X227502Y120080D01*
Y116748D01*
X229168Y115082D01*
X227502Y111749D02*
Y108417D01*
Y110083D01*
X237498D01*
X235832Y111749D01*
X227502Y96754D02*
Y103419D01*
X234166Y96754D01*
X235832D01*
X237498Y98420D01*
Y101752D01*
X235832Y103419D01*
X365832Y318331D02*
X367498Y319998D01*
Y323330D01*
X365832Y324996D01*
X359168D01*
X357502Y323330D01*
Y319998D01*
X359168Y318331D01*
X357502Y314999D02*
Y311667D01*
Y313333D01*
X367498D01*
X365832Y314999D01*
Y306668D02*
X367498Y305002D01*
Y301670D01*
X365832Y300004D01*
X364166D01*
X362500Y301670D01*
Y303336D01*
Y301670D01*
X360834Y300004D01*
X359168D01*
X357502Y301670D01*
Y305002D01*
X359168Y306668D01*
X410832Y87415D02*
X412498Y89081D01*
Y92414D01*
X410832Y94080D01*
X404168D01*
X402502Y92414D01*
Y89081D01*
X404168Y87415D01*
X402502Y84083D02*
Y80751D01*
Y82417D01*
X412498D01*
X410832Y84083D01*
X402502Y75752D02*
Y72420D01*
Y74086D01*
X412498D01*
X410832Y75752D01*
X471669Y253332D02*
X470002Y254998D01*
X466670D01*
X465004Y253332D01*
Y246668D01*
X466670Y245002D01*
X470002D01*
X471669Y246668D01*
X475001Y245002D02*
X478333D01*
X476667D01*
Y254998D01*
X475001Y253332D01*
X483331D02*
X484998Y254998D01*
X488330D01*
X489996Y253332D01*
Y246668D01*
X488330Y245002D01*
X484998D01*
X483331Y246668D01*
Y253332D01*
X268334Y205832D02*
X266668Y207498D01*
X263335D01*
X261669Y205832D01*
Y199168D01*
X263335Y197502D01*
X266668D01*
X268334Y199168D01*
X271666D02*
X273332Y197502D01*
X276665D01*
X278331Y199168D01*
Y205832D01*
X276665Y207498D01*
X273332D01*
X271666Y205832D01*
Y204166D01*
X273332Y202500D01*
X278331D01*
X133334Y228332D02*
X131668Y229998D01*
X128336D01*
X126669Y228332D01*
Y221668D01*
X128336Y220002D01*
X131668D01*
X133334Y221668D01*
X136666Y228332D02*
X138332Y229998D01*
X141664D01*
X143331Y228332D01*
Y226666D01*
X141664Y225000D01*
X143331Y223334D01*
Y221668D01*
X141664Y220002D01*
X138332D01*
X136666Y221668D01*
Y223334D01*
X138332Y225000D01*
X136666Y226666D01*
Y228332D01*
X138332Y225000D02*
X141664D01*
X85834Y395832D02*
X84168Y397498D01*
X80836D01*
X79169Y395832D01*
Y389168D01*
X80836Y387502D01*
X84168D01*
X85834Y389168D01*
X89166Y397498D02*
X95831D01*
Y395832D01*
X89166Y389168D01*
Y387502D01*
X140832Y424166D02*
X142498Y425832D01*
Y429165D01*
X140832Y430831D01*
X134168D01*
X132502Y429165D01*
Y425832D01*
X134168Y424166D01*
X142498Y414169D02*
X140832Y417502D01*
X137500Y420834D01*
X134168D01*
X132502Y419168D01*
Y415835D01*
X134168Y414169D01*
X135834D01*
X137500Y415835D01*
Y420834D01*
X193334Y430832D02*
X191668Y432498D01*
X188335D01*
X186669Y430832D01*
Y424168D01*
X188335Y422502D01*
X191668D01*
X193334Y424168D01*
X203331Y432498D02*
X196666D01*
Y427500D01*
X199998Y429166D01*
X201665D01*
X203331Y427500D01*
Y424168D01*
X201665Y422502D01*
X198332D01*
X196666Y424168D01*
X515834Y270832D02*
X514168Y272498D01*
X510835D01*
X509169Y270832D01*
Y264168D01*
X510835Y262502D01*
X514168D01*
X515834Y264168D01*
X524165Y262502D02*
Y272498D01*
X519166Y267500D01*
X525831D01*
X135834Y198332D02*
X134168Y199998D01*
X130836D01*
X129169Y198332D01*
Y191668D01*
X130836Y190002D01*
X134168D01*
X135834Y191668D01*
X139166Y198332D02*
X140832Y199998D01*
X144164D01*
X145831Y198332D01*
Y196666D01*
X144164Y195000D01*
X142498D01*
X144164D01*
X145831Y193334D01*
Y191668D01*
X144164Y190002D01*
X140832D01*
X139166Y191668D01*
X550834Y385832D02*
X549168Y387498D01*
X545835D01*
X544169Y385832D01*
Y379168D01*
X545835Y377502D01*
X549168D01*
X550834Y379168D01*
X560831Y377502D02*
X554166D01*
X560831Y384166D01*
Y385832D01*
X559165Y387498D01*
X555832D01*
X554166Y385832D01*
X217500Y257582D02*
X215834Y259248D01*
X212502D01*
X210835Y257582D01*
Y250918D01*
X212502Y249252D01*
X215834D01*
X217500Y250918D01*
X220832Y249252D02*
X224165D01*
X222498D01*
Y259248D01*
X220832Y257582D01*
X316669Y369998D02*
Y361668D01*
X318335Y360002D01*
X321668D01*
X323334Y361668D01*
Y369998D01*
X333331D02*
X329998Y368332D01*
X326666Y365000D01*
Y361668D01*
X328332Y360002D01*
X331665D01*
X333331Y361668D01*
Y363334D01*
X331665Y365000D01*
X326666D01*
X157498Y113331D02*
X149168D01*
X147502Y111664D01*
Y108332D01*
X149168Y106666D01*
X157498D01*
Y96669D02*
Y103334D01*
X152500D01*
X154166Y100001D01*
Y98335D01*
X152500Y96669D01*
X149168D01*
X147502Y98335D01*
Y101668D01*
X149168Y103334D01*
X469998Y348331D02*
X461668D01*
X460002Y346665D01*
Y343332D01*
X461668Y341666D01*
X469998D01*
X461668Y338334D02*
X460002Y336668D01*
Y333335D01*
X461668Y331669D01*
X468332D01*
X469998Y333335D01*
Y336668D01*
X468332Y338334D01*
X466666D01*
X465000Y336668D01*
Y331669D01*
X549998Y115830D02*
X541668D01*
X540002Y114164D01*
Y110831D01*
X541668Y109165D01*
X549998D01*
X540002Y105833D02*
Y102501D01*
Y104167D01*
X549998D01*
X548332Y105833D01*
X540002Y97502D02*
Y94170D01*
Y95836D01*
X549998D01*
X548332Y97502D01*
X528317Y72091D02*
Y70425D01*
X531650Y67093D01*
X534982Y70425D01*
Y72091D01*
X531650Y67093D02*
Y62095D01*
X538314D02*
X541646D01*
X539980D01*
Y72091D01*
X538314Y70425D01*
X30835Y217498D02*
Y207502D01*
X34168Y210834D01*
X37500Y207502D01*
Y217498D01*
X40832Y207502D02*
X44165D01*
X42498D01*
Y217498D01*
X40832Y215832D01*
X716669Y434998D02*
Y426668D01*
X718335Y425002D01*
X721668D01*
X723334Y426668D01*
Y434998D01*
X726666D02*
X733331D01*
Y433332D01*
X726666Y426668D01*
Y425002D01*
X506669Y312498D02*
Y304168D01*
X508335Y302502D01*
X511668D01*
X513334Y304168D01*
Y312498D01*
X523331Y302502D02*
X516666D01*
X523331Y309166D01*
Y310832D01*
X521665Y312498D01*
X518332D01*
X516666Y310832D01*
X168335Y259998D02*
Y251668D01*
X170002Y250002D01*
X173334D01*
X175000Y251668D01*
Y259998D01*
X178332Y250002D02*
X181665D01*
X179998D01*
Y259998D01*
X178332Y258332D01*
X940834Y108332D02*
X939168Y109998D01*
X935835D01*
X934169Y108332D01*
Y106666D01*
X935835Y105000D01*
X939168D01*
X940834Y103334D01*
Y101668D01*
X939168Y100002D01*
X935835D01*
X934169Y101668D01*
X949165Y100002D02*
Y109998D01*
X944166Y105000D01*
X950831D01*
X865834Y108332D02*
X864168Y109998D01*
X860835D01*
X859169Y108332D01*
Y106666D01*
X860835Y105000D01*
X864168D01*
X865834Y103334D01*
Y101668D01*
X864168Y100002D01*
X860835D01*
X859169Y101668D01*
X869166Y108332D02*
X870832Y109998D01*
X874165D01*
X875831Y108332D01*
Y106666D01*
X874165Y105000D01*
X872498D01*
X874165D01*
X875831Y103334D01*
Y101668D01*
X874165Y100002D01*
X870832D01*
X869166Y101668D01*
X623774Y322168D02*
Y313838D01*
X625440Y312172D01*
X628772D01*
X630438Y313838D01*
Y322168D01*
X633771Y312172D02*
X637103D01*
X635437D01*
Y322168D01*
X633771Y320502D01*
X642101D02*
X643768Y322168D01*
X647100D01*
X648766Y320502D01*
Y313838D01*
X647100Y312172D01*
X643768D01*
X642101Y313838D01*
Y320502D01*
X79169Y449998D02*
Y441668D01*
X80836Y440002D01*
X84168D01*
X85834Y441668D01*
Y449998D01*
X89166Y448332D02*
X90832Y449998D01*
X94164D01*
X95831Y448332D01*
Y446666D01*
X94164Y445000D01*
X92498D01*
X94164D01*
X95831Y443334D01*
Y441668D01*
X94164Y440002D01*
X90832D01*
X89166Y441668D01*
X645002Y418331D02*
X654998D01*
Y413332D01*
X653332Y411666D01*
X650000D01*
X648334Y413332D01*
Y418331D01*
X645002Y401669D02*
Y408334D01*
X651666Y401669D01*
X653332D01*
X654998Y403335D01*
Y406668D01*
X653332Y408334D01*
X595002Y446665D02*
X604998D01*
Y441666D01*
X603332Y440000D01*
X600000D01*
X598334Y441666D01*
Y446665D01*
X595002Y436668D02*
Y433335D01*
Y435002D01*
X604998D01*
X603332Y436668D01*
X235584Y397498D02*
X228919D01*
Y392500D01*
X232252D01*
X228919D01*
Y387502D01*
X245581D02*
X238916D01*
X245581Y394166D01*
Y395832D01*
X243915Y397498D01*
X240582D01*
X238916Y395832D01*
X895000Y474998D02*
X888335D01*
Y465002D01*
X895000D01*
X888335Y470000D02*
X891668D01*
X898332Y465002D02*
X901665D01*
X899998D01*
Y474998D01*
X898332Y473332D01*
X751669Y427502D02*
Y437498D01*
X756668D01*
X758334Y435832D01*
Y432500D01*
X756668Y430834D01*
X751669D01*
X766665Y427502D02*
Y437498D01*
X761666Y432500D01*
X768331D01*
X166202Y45831D02*
X176198D01*
Y40832D01*
X174532Y39166D01*
X171200D01*
X169534Y40832D01*
Y45831D01*
X174532Y35834D02*
X176198Y34168D01*
Y30835D01*
X174532Y29169D01*
X172866D01*
X171200Y30835D01*
Y32502D01*
Y30835D01*
X169534Y29169D01*
X167868D01*
X166202Y30835D01*
Y34168D01*
X167868Y35834D01*
D18*
X59530Y149530D02*
Y159527D01*
X64528D01*
X66195Y157861D01*
Y154528D01*
X64528Y152862D01*
X59530D01*
X62862D02*
X66195Y149530D01*
X76191Y159527D02*
X69527D01*
Y149530D01*
X76191D01*
X69527Y154528D02*
X72859D01*
X86188Y157861D02*
X84522Y159527D01*
X81190D01*
X79524Y157861D01*
Y156194D01*
X81190Y154528D01*
X84522D01*
X86188Y152862D01*
Y151196D01*
X84522Y149530D01*
X81190D01*
X79524Y151196D01*
X96185Y159527D02*
X89520D01*
Y149530D01*
X96185D01*
X89520Y154528D02*
X92853D01*
X99517Y159527D02*
X106182D01*
X102849D01*
Y149530D01*
X852030Y159527D02*
X855362D01*
X853696D01*
Y149530D01*
X852030D01*
X855362D01*
X860361D02*
Y159527D01*
X867025Y149530D01*
Y159527D01*
X870357D02*
X877022D01*
X873690D01*
Y149530D01*
X880354Y157861D02*
X882020Y159527D01*
X885353D01*
X887019Y157861D01*
Y151196D01*
X885353Y149530D01*
X882020D01*
X880354Y151196D01*
Y157861D01*
X929530Y159527D02*
X932862D01*
X931196D01*
Y149530D01*
X929530D01*
X932862D01*
X937861D02*
Y159527D01*
X944525Y149530D01*
Y159527D01*
X947857D02*
X954522D01*
X951190D01*
Y149530D01*
X957854D02*
X961186D01*
X959520D01*
Y159527D01*
X957854Y157861D01*
X62030Y227030D02*
X65362D01*
X63696D01*
Y237027D01*
X62030Y235361D01*
X70361Y227030D02*
Y233694D01*
X73693Y237027D01*
X77025Y233694D01*
Y227030D01*
Y232028D01*
X70361D01*
X62030Y297861D02*
X63696Y299527D01*
X67028D01*
X68695Y297861D01*
Y296194D01*
X67028Y294528D01*
X65362D01*
X67028D01*
X68695Y292862D01*
Y291196D01*
X67028Y289530D01*
X63696D01*
X62030Y291196D01*
X72027Y297861D02*
X73693Y299527D01*
X77025D01*
X78691Y297861D01*
Y291196D01*
X77025Y289530D01*
X73693D01*
X72027Y291196D01*
Y297861D01*
X82023D02*
X83690Y299527D01*
X87022D01*
X88688Y297861D01*
Y291196D01*
X87022Y289530D01*
X83690D01*
X82023Y291196D01*
Y297861D01*
X92020Y289530D02*
Y296194D01*
X93687D01*
X95353Y294528D01*
Y289530D01*
Y294528D01*
X97019Y296194D01*
X98685Y294528D01*
Y289530D01*
X102017D02*
Y296194D01*
X105349Y299527D01*
X108682Y296194D01*
Y289530D01*
Y294528D01*
X102017D01*
M02*
