G04*
G04 #@! TF.GenerationSoftware,Altium Limited,Altium Designer,21.6.1 (37)*
G04*
G04 Layer_Physical_Order=2*
G04 Layer_Color=16711680*
%FSLAX44Y44*%
%MOMM*%
G71*
G04*
G04 #@! TF.SameCoordinates,E457EF80-1144-4942-8A44-04504F566FFE*
G04*
G04*
G04 #@! TF.FilePolarity,Positive*
G04*
G01*
G75*
%ADD16C,0.2540*%
%ADD39R,1.5240X3.1640*%
%ADD81C,0.5080*%
%ADD83C,1.0160*%
%ADD85C,1.5240*%
%ADD86R,1.5000X1.5000*%
%ADD87C,1.5000*%
%ADD88R,1.5000X1.5000*%
G04:AMPARAMS|DCode=89|XSize=1.8mm|YSize=1.1mm|CornerRadius=0.55mm|HoleSize=0mm|Usage=FLASHONLY|Rotation=270.000|XOffset=0mm|YOffset=0mm|HoleType=Round|Shape=RoundedRectangle|*
%AMROUNDEDRECTD89*
21,1,1.8000,0.0000,0,0,270.0*
21,1,0.7000,1.1000,0,0,270.0*
1,1,1.1000,0.0000,-0.3500*
1,1,1.1000,0.0000,0.3500*
1,1,1.1000,0.0000,0.3500*
1,1,1.1000,0.0000,-0.3500*
%
%ADD89ROUNDEDRECTD89*%
G04:AMPARAMS|DCode=90|XSize=2.2mm|YSize=1.1mm|CornerRadius=0.55mm|HoleSize=0mm|Usage=FLASHONLY|Rotation=270.000|XOffset=0mm|YOffset=0mm|HoleType=Round|Shape=RoundedRectangle|*
%AMROUNDEDRECTD90*
21,1,2.2000,0.0000,0,0,270.0*
21,1,1.1000,1.1000,0,0,270.0*
1,1,1.1000,0.0000,-0.5500*
1,1,1.1000,0.0000,0.5500*
1,1,1.1000,0.0000,0.5500*
1,1,1.1000,0.0000,-0.5500*
%
%ADD90ROUNDEDRECTD90*%
%ADD91C,0.6500*%
%ADD92C,1.3000*%
%ADD93R,3.2000X4.2000*%
G36*
X667320Y465931D02*
X666147Y465445D01*
X648296Y483296D01*
X646784Y484307D01*
X645000Y484662D01*
X402976D01*
X401192Y484307D01*
X399680Y483296D01*
X384204Y467820D01*
X383193Y466308D01*
X382839Y464524D01*
Y421931D01*
X346704Y385796D01*
X345693Y384284D01*
X345338Y382500D01*
Y349431D01*
X271006Y275098D01*
X269508Y274478D01*
X268022Y272992D01*
X267218Y271051D01*
Y268949D01*
X268022Y267008D01*
X269508Y265522D01*
X271449Y264718D01*
X273551D01*
X275492Y265522D01*
X276978Y267008D01*
X277598Y268506D01*
X353296Y344204D01*
X354307Y345716D01*
X354661Y347500D01*
Y380569D01*
X390796Y416704D01*
X391807Y418216D01*
X392162Y420000D01*
Y462593D01*
X404907Y475338D01*
X436281D01*
X436807Y474068D01*
X422719Y459981D01*
X421990Y458888D01*
X421733Y457600D01*
Y449532D01*
X415568D01*
Y430468D01*
X434632D01*
Y449532D01*
X428467D01*
Y456205D01*
X441395Y469133D01*
X563605D01*
X574133Y458605D01*
Y448966D01*
X573821Y448882D01*
X571647Y447627D01*
X569873Y445853D01*
X568618Y443679D01*
X567968Y441255D01*
Y438745D01*
X568618Y436321D01*
X569873Y434147D01*
X571647Y432373D01*
X573821Y431118D01*
X576245Y430468D01*
X578755D01*
X581179Y431118D01*
X583353Y432373D01*
X585127Y434147D01*
X586382Y436321D01*
X587032Y438745D01*
Y441255D01*
X586382Y443679D01*
X585127Y445853D01*
X583353Y447627D01*
X581179Y448882D01*
X580867Y448966D01*
Y460000D01*
X580610Y461288D01*
X579881Y462381D01*
X568193Y474068D01*
X568719Y475338D01*
X643069D01*
X662839Y455569D01*
Y442548D01*
X662218Y441051D01*
Y438949D01*
X662839Y437452D01*
Y411931D01*
X590569Y339662D01*
X555048D01*
X553551Y340282D01*
X551449D01*
X549508Y339478D01*
X548022Y337992D01*
X547218Y336051D01*
Y333949D01*
X548022Y332008D01*
X549508Y330522D01*
X551449Y329718D01*
X553551D01*
X555048Y330338D01*
X592500D01*
X594284Y330693D01*
X595796Y331704D01*
X661045Y396952D01*
X662218Y396466D01*
Y396449D01*
X663022Y394508D01*
X663765Y393765D01*
X529540Y259540D01*
X528367Y260026D01*
Y335897D01*
X529478Y337008D01*
X530282Y338949D01*
Y341051D01*
X529478Y342992D01*
X527992Y344478D01*
X526051Y345282D01*
X523949D01*
X522008Y344478D01*
X520522Y342992D01*
X519718Y341051D01*
Y338949D01*
X520522Y337008D01*
X521633Y335897D01*
Y258895D01*
X485119Y222381D01*
X484390Y221288D01*
X484133Y220000D01*
Y182860D01*
X468403Y167130D01*
X467326Y167850D01*
X467782Y168949D01*
Y171051D01*
X466978Y172992D01*
X465867Y174103D01*
Y278605D01*
X469479Y282218D01*
X471051D01*
X472992Y283022D01*
X474478Y284508D01*
X475282Y286449D01*
Y288551D01*
X474478Y290492D01*
X472992Y291978D01*
X471051Y292782D01*
X468949D01*
X467137Y292031D01*
X465867Y292496D01*
Y355734D01*
X465610Y357023D01*
X464881Y358115D01*
X444329Y378666D01*
X444627Y380164D01*
X445492Y380522D01*
X446978Y382008D01*
X447782Y383949D01*
Y385521D01*
X453895Y391633D01*
X542957D01*
X543342Y390363D01*
X542619Y389881D01*
X512619Y359881D01*
X511890Y358788D01*
X511633Y357500D01*
Y306395D01*
X473021Y267782D01*
X471449D01*
X469508Y266978D01*
X468022Y265492D01*
X467218Y263551D01*
Y261449D01*
X468022Y259508D01*
X469508Y258022D01*
X471449Y257218D01*
X473551D01*
X475492Y258022D01*
X476978Y259508D01*
X477782Y261449D01*
Y263021D01*
X517381Y302619D01*
X518110Y303712D01*
X518367Y305000D01*
Y356105D01*
X546395Y384133D01*
X578397D01*
X579508Y383022D01*
X581449Y382218D01*
X583551D01*
X585492Y383022D01*
X586978Y384508D01*
X587782Y386449D01*
Y388551D01*
X587031Y390363D01*
X587496Y391633D01*
X598605D01*
X602218Y388021D01*
Y386449D01*
X603022Y384508D01*
X604508Y383022D01*
X606449Y382218D01*
X608551D01*
X610492Y383022D01*
X611978Y384508D01*
X612782Y386449D01*
Y388551D01*
X611978Y390492D01*
X610492Y391978D01*
X608551Y392782D01*
X606979D01*
X602381Y397381D01*
X601288Y398110D01*
X600000Y398367D01*
X452500D01*
X451212Y398110D01*
X450119Y397381D01*
X443021Y390282D01*
X441449D01*
X439508Y389478D01*
X438022Y387992D01*
X437664Y387127D01*
X436166Y386829D01*
X428467Y394529D01*
Y401034D01*
X428779Y401118D01*
X430953Y402373D01*
X432728Y404147D01*
X433982Y406321D01*
X434632Y408745D01*
Y411255D01*
X433982Y413679D01*
X432728Y415853D01*
X430953Y417627D01*
X428779Y418882D01*
X426355Y419532D01*
X423845D01*
X421421Y418882D01*
X419247Y417627D01*
X417472Y415853D01*
X416218Y413679D01*
X415568Y411255D01*
Y408745D01*
X416218Y406321D01*
X417472Y404147D01*
X419247Y402373D01*
X421421Y401118D01*
X421733Y401034D01*
Y393134D01*
X421990Y391846D01*
X422719Y390754D01*
X437406Y376068D01*
X437406Y376067D01*
X459133Y354340D01*
Y291395D01*
X438605Y270867D01*
X402500D01*
X401212Y270610D01*
X400119Y269881D01*
X383021Y252782D01*
X381449D01*
X379508Y251978D01*
X378022Y250492D01*
X377449Y249108D01*
X376045Y248717D01*
X337782Y286979D01*
Y288551D01*
X337031Y290363D01*
X337496Y291633D01*
X438397D01*
X439508Y290522D01*
X441449Y289718D01*
X443551D01*
X445492Y290522D01*
X446978Y292008D01*
X447782Y293949D01*
Y296051D01*
X446978Y297992D01*
X445492Y299478D01*
X443551Y300282D01*
X441449D01*
X439508Y299478D01*
X438397Y298367D01*
X325000D01*
X323712Y298110D01*
X322619Y297381D01*
X307619Y282381D01*
X307137Y281658D01*
X305867Y282043D01*
Y283605D01*
X361395Y339133D01*
X408397D01*
X409508Y338022D01*
X411449Y337218D01*
X413551D01*
X415492Y338022D01*
X416978Y339508D01*
X417782Y341449D01*
Y343551D01*
X416978Y345492D01*
X415492Y346978D01*
X413551Y347782D01*
X411449D01*
X409508Y346978D01*
X408397Y345867D01*
X360000D01*
X358712Y345610D01*
X357619Y344881D01*
X300119Y287381D01*
X299390Y286288D01*
X299133Y285000D01*
Y259103D01*
X298022Y257992D01*
X297449Y256608D01*
X296045Y256217D01*
X289881Y262381D01*
X288788Y263110D01*
X287500Y263367D01*
X262173D01*
Y301633D01*
X273397D01*
X274508Y300522D01*
X276449Y299718D01*
X278551D01*
X280492Y300522D01*
X281978Y302008D01*
X282782Y303949D01*
Y306051D01*
X281978Y307992D01*
X280492Y309478D01*
X278551Y310282D01*
X276449D01*
X274508Y309478D01*
X273397Y308367D01*
X262173D01*
Y355000D01*
X261929Y356857D01*
X261212Y358587D01*
X260072Y360072D01*
X208353Y411792D01*
X207951Y413293D01*
X206827Y415239D01*
X205239Y416827D01*
X203293Y417951D01*
X201123Y418532D01*
X198877D01*
X196707Y417951D01*
X194761Y416827D01*
X193173Y415239D01*
X192050Y413293D01*
X191468Y411123D01*
Y408877D01*
X192050Y406707D01*
X193173Y404761D01*
X194761Y403173D01*
X196707Y402049D01*
X198208Y401647D01*
X247827Y352029D01*
Y305000D01*
Y260000D01*
Y255471D01*
X199928Y207572D01*
X198788Y206087D01*
X198071Y204357D01*
X197827Y202500D01*
Y67971D01*
X188294Y58439D01*
X187154Y56953D01*
X186437Y55223D01*
X186193Y53366D01*
Y47032D01*
X183468D01*
Y27968D01*
X185827D01*
Y20952D01*
X186071Y19095D01*
X186788Y17365D01*
X187928Y15879D01*
X193879Y9928D01*
X195365Y8788D01*
X197095Y8071D01*
X198952Y7827D01*
X397790D01*
X399647Y8071D01*
X401377Y8788D01*
X402863Y9928D01*
X420903Y27968D01*
X422855D01*
X425279Y28618D01*
X427453Y29873D01*
X429227Y31647D01*
X430363Y33614D01*
X431101Y33591D01*
X431633Y33393D01*
Y22500D01*
X431890Y21212D01*
X432619Y20119D01*
X445119Y7619D01*
X446212Y6890D01*
X447500Y6633D01*
X780000D01*
X781288Y6890D01*
X782381Y7619D01*
X846979Y72218D01*
X848551D01*
X850492Y73022D01*
X851978Y74508D01*
X852782Y76449D01*
Y78551D01*
X851978Y80492D01*
X850492Y81978D01*
X848551Y82782D01*
X846449D01*
X844508Y81978D01*
X843022Y80492D01*
X842218Y78551D01*
Y76979D01*
X778605Y13367D01*
X448895D01*
X438367Y23895D01*
Y103397D01*
X439478Y104508D01*
X440282Y106449D01*
Y108551D01*
X439478Y110492D01*
X437992Y111978D01*
X436051Y112782D01*
X433949D01*
X432008Y111978D01*
X430522Y110492D01*
X429718Y108551D01*
Y106449D01*
X430522Y104508D01*
X431633Y103397D01*
Y41607D01*
X431101Y41409D01*
X430363Y41385D01*
X429227Y43353D01*
X427453Y45128D01*
X425279Y46382D01*
X422855Y47032D01*
X420345D01*
X417921Y46382D01*
X415747Y45128D01*
X413973Y43353D01*
X412718Y41179D01*
X412312Y39667D01*
X404580Y31934D01*
X403563Y32714D01*
X404372Y34115D01*
X404970Y36345D01*
Y36865D01*
X396835D01*
Y28730D01*
X397355D01*
X399585Y29328D01*
X400986Y30137D01*
X401766Y29120D01*
X394819Y22173D01*
X201923D01*
X200173Y23923D01*
Y27968D01*
X202532D01*
Y47032D01*
X200540D01*
Y50395D01*
X210072Y59928D01*
X211212Y61413D01*
X211929Y63143D01*
X212173Y65000D01*
Y199529D01*
X260072Y247428D01*
X261212Y248913D01*
X261929Y250643D01*
X262173Y252500D01*
Y256633D01*
X286105D01*
X308783Y233956D01*
X308161Y232782D01*
X306449D01*
X304508Y231978D01*
X303022Y230492D01*
X302218Y228551D01*
Y227110D01*
X301239Y226277D01*
X300051Y226608D01*
X299478Y227992D01*
X297992Y229478D01*
X296051Y230282D01*
X293949D01*
X292008Y229478D01*
X290522Y227992D01*
X289718Y226051D01*
Y223949D01*
X290522Y222008D01*
X292008Y220522D01*
X293949Y219718D01*
X294133D01*
Y138895D01*
X262619Y107381D01*
X261890Y106288D01*
X261649Y105079D01*
X261518Y104882D01*
X261261Y103594D01*
Y59722D01*
X247759Y46221D01*
X247479Y46382D01*
X245055Y47032D01*
X242545D01*
X240121Y46382D01*
X237947Y45128D01*
X236173Y43353D01*
X234918Y41179D01*
X234268Y38755D01*
Y36245D01*
X234918Y33821D01*
X236173Y31647D01*
X237947Y29873D01*
X240121Y28618D01*
X242545Y27968D01*
X245055D01*
X247479Y28618D01*
X249653Y29873D01*
X251427Y31647D01*
X252682Y33821D01*
X253332Y36245D01*
Y38755D01*
X252682Y41179D01*
X252521Y41459D01*
X264660Y53599D01*
X265833Y53113D01*
Y46466D01*
X265521Y46382D01*
X263347Y45128D01*
X261572Y43353D01*
X260318Y41179D01*
X259668Y38755D01*
Y36245D01*
X260318Y33821D01*
X261572Y31647D01*
X263347Y29873D01*
X265521Y28618D01*
X267945Y27968D01*
X270455D01*
X272879Y28618D01*
X275053Y29873D01*
X276828Y31647D01*
X278082Y33821D01*
X278732Y36245D01*
Y38755D01*
X278082Y41179D01*
X276828Y43353D01*
X275053Y45128D01*
X272879Y46382D01*
X272567Y46466D01*
Y100306D01*
X304881Y132619D01*
X305610Y133712D01*
X305867Y135000D01*
Y221105D01*
X306979Y222218D01*
X308551D01*
X310492Y223022D01*
X311978Y224508D01*
X312782Y226449D01*
Y228483D01*
X313321Y229018D01*
X313818Y229368D01*
X315000Y229133D01*
X392500D01*
X393788Y229390D01*
X394881Y230119D01*
X406979Y242218D01*
X408551D01*
X410492Y243022D01*
X411978Y244508D01*
X412782Y246449D01*
Y248551D01*
X411978Y250492D01*
X410492Y251978D01*
X408551Y252782D01*
X408019D01*
X407465Y254020D01*
X408010Y254718D01*
X408551D01*
X410492Y255522D01*
X411978Y257008D01*
X412782Y258949D01*
Y261051D01*
X412031Y262863D01*
X412496Y264133D01*
X440000D01*
X441288Y264390D01*
X442381Y265119D01*
X457982Y280721D01*
X459152Y280095D01*
X459133Y280000D01*
Y262496D01*
X457863Y262031D01*
X456051Y262782D01*
X453949D01*
X452008Y261978D01*
X450522Y260492D01*
X449718Y258551D01*
Y256449D01*
X450522Y254508D01*
X451633Y253397D01*
Y167782D01*
X451449D01*
X449508Y166978D01*
X448022Y165492D01*
X447218Y163551D01*
Y161449D01*
X448022Y159508D01*
X449508Y158022D01*
X451449Y157218D01*
X453551D01*
X455492Y158022D01*
X456978Y159508D01*
X457782Y161449D01*
Y163551D01*
X457619Y163944D01*
X458110Y164680D01*
X458184Y165050D01*
X459492Y165516D01*
X459568Y165497D01*
X461449Y164718D01*
X463551D01*
X464650Y165174D01*
X465370Y164097D01*
X457140Y155867D01*
X408988D01*
X407700Y155610D01*
X406607Y154881D01*
X405119Y153393D01*
X404390Y152301D01*
X404133Y151012D01*
Y139103D01*
X403022Y137992D01*
X402218Y136051D01*
Y133949D01*
X402948Y132187D01*
X402394Y131052D01*
X401327Y130934D01*
X388746Y143516D01*
Y199621D01*
X388489Y200910D01*
X387760Y202002D01*
X372782Y216979D01*
Y218551D01*
X371978Y220492D01*
X370492Y221978D01*
X368551Y222782D01*
X366449D01*
X364508Y221978D01*
X363022Y220492D01*
X362218Y218551D01*
Y216449D01*
X363022Y214508D01*
X364508Y213022D01*
X366449Y212218D01*
X368021D01*
X382012Y198227D01*
Y142121D01*
X382268Y140833D01*
X382998Y139740D01*
X397619Y125119D01*
X398712Y124390D01*
X400000Y124133D01*
X505000D01*
X506288Y124390D01*
X507381Y125119D01*
X551395Y169133D01*
X891105D01*
X907619Y152619D01*
X908712Y151890D01*
X910000Y151633D01*
X920897D01*
X922008Y150522D01*
X923949Y149718D01*
X926051D01*
X927992Y150522D01*
X929478Y152008D01*
X930282Y153949D01*
Y156051D01*
X929478Y157992D01*
X927992Y159478D01*
X926051Y160282D01*
X923949D01*
X922008Y159478D01*
X920897Y158367D01*
X911395D01*
X894881Y174881D01*
X893788Y175610D01*
X892500Y175867D01*
X550000D01*
X548712Y175610D01*
X547619Y174881D01*
X503605Y130867D01*
X457043D01*
X456658Y132137D01*
X457381Y132619D01*
X508895Y184133D01*
X516839D01*
X517406Y183567D01*
X518498Y182838D01*
X519786Y182581D01*
X525214D01*
X526502Y182838D01*
X527594Y183567D01*
X528161Y184133D01*
X797500D01*
X798788Y184390D01*
X799881Y185119D01*
X856395Y241633D01*
X887500D01*
X888788Y241890D01*
X889549Y242398D01*
X890258Y241338D01*
X890258Y241338D01*
X891938Y240215D01*
X893921Y239820D01*
X997410D01*
Y2590D01*
X2590D01*
Y497410D01*
X252088D01*
X252171Y496140D01*
X251833Y496096D01*
X250186Y495414D01*
X248772Y494328D01*
X247686Y492914D01*
X247004Y491267D01*
X246772Y489500D01*
Y484635D01*
X253600D01*
Y484000D01*
X254235D01*
Y471755D01*
X255367Y471904D01*
X257014Y472586D01*
X258428Y473672D01*
X259140Y474599D01*
X260410Y474168D01*
Y451832D01*
X259140Y451401D01*
X258428Y452328D01*
X257014Y453414D01*
X255367Y454096D01*
X254235Y454245D01*
Y444000D01*
Y433755D01*
X255367Y433904D01*
X257014Y434586D01*
X258428Y435672D01*
X259514Y437086D01*
X259584Y437255D01*
X261017Y437396D01*
X261169Y437169D01*
X262009Y436608D01*
X263000Y436410D01*
X356000D01*
X356991Y436608D01*
X357831Y437169D01*
X358354Y437951D01*
X358687Y438015D01*
X359693Y438036D01*
X360086Y437086D01*
X361172Y435672D01*
X362586Y434586D01*
X364233Y433904D01*
X365365Y433755D01*
Y444000D01*
Y454245D01*
X364233Y454096D01*
X362586Y453414D01*
X361172Y452328D01*
X360086Y450914D01*
X359860Y450367D01*
X358590Y450619D01*
Y475381D01*
X359860Y475633D01*
X360086Y475086D01*
X361172Y473672D01*
X362586Y472586D01*
X364233Y471904D01*
X365365Y471755D01*
Y484000D01*
X366000D01*
Y484635D01*
X372828D01*
Y489500D01*
X372596Y491267D01*
X371914Y492914D01*
X370828Y494328D01*
X369414Y495414D01*
X367767Y496096D01*
X367429Y496140D01*
X367512Y497410D01*
X667320D01*
Y465931D01*
D02*
G37*
G36*
X327394Y291448D02*
X327948Y290313D01*
X327218Y288551D01*
Y286449D01*
X328022Y284508D01*
X329508Y283022D01*
X331449Y282218D01*
X333021D01*
X377619Y237619D01*
X378342Y237137D01*
X377957Y235867D01*
X316395D01*
X303717Y248545D01*
X304108Y249949D01*
X305492Y250522D01*
X306978Y252008D01*
X307782Y253949D01*
Y256051D01*
X307644Y256384D01*
X308616Y257356D01*
X308949Y257218D01*
X311051D01*
X312992Y258022D01*
X314478Y259508D01*
X315282Y261449D01*
Y263551D01*
X314478Y265492D01*
X313367Y266603D01*
Y278605D01*
X326327Y291566D01*
X327394Y291448D01*
D02*
G37*
G36*
X997410Y245000D02*
X893921D01*
X893435Y246173D01*
X899479Y252218D01*
X901051D01*
X902992Y253022D01*
X904478Y254508D01*
X905282Y256449D01*
Y258551D01*
X904478Y260492D01*
X902992Y261978D01*
X901051Y262782D01*
X898949D01*
X897008Y261978D01*
X895522Y260492D01*
X894718Y258551D01*
Y256979D01*
X886105Y248367D01*
X877287D01*
X876801Y249540D01*
X879479Y252218D01*
X881051D01*
X882992Y253022D01*
X884478Y254508D01*
X885282Y256449D01*
Y258551D01*
X884478Y260492D01*
X882992Y261978D01*
X881051Y262782D01*
X878949D01*
X877008Y261978D01*
X875522Y260492D01*
X874718Y258551D01*
Y256979D01*
X871105Y253367D01*
X864996D01*
X864531Y254637D01*
X865282Y256449D01*
Y258551D01*
X864478Y260492D01*
X862992Y261978D01*
X861051Y262782D01*
X858949D01*
X857008Y261978D01*
X855897Y260867D01*
X852500D01*
X851212Y260610D01*
X850119Y259881D01*
X846456Y256217D01*
X845282Y256839D01*
Y258551D01*
X844478Y260492D01*
X842992Y261978D01*
X841051Y262782D01*
X838949D01*
X837008Y261978D01*
X835522Y260492D01*
X834718Y258551D01*
Y256979D01*
X822739Y245000D01*
X813921D01*
X813435Y246173D01*
X819479Y252218D01*
X821051D01*
X822992Y253022D01*
X824478Y254508D01*
X825282Y256449D01*
Y258551D01*
X824478Y260492D01*
X822992Y261978D01*
X821051Y262782D01*
X818949D01*
X817008Y261978D01*
X815522Y260492D01*
X814718Y258551D01*
Y256979D01*
X802739Y245000D01*
X796421D01*
X795935Y246173D01*
X842381Y292619D01*
X843110Y293712D01*
X843367Y295000D01*
Y418397D01*
X844478Y419508D01*
X845282Y421449D01*
Y423551D01*
X844478Y425492D01*
X842992Y426978D01*
X841051Y427782D01*
X838949D01*
X837008Y426978D01*
X835522Y425492D01*
X834718Y423551D01*
Y421449D01*
X835522Y419508D01*
X836633Y418397D01*
Y296395D01*
X785239Y245000D01*
X747500D01*
Y295000D01*
X707500Y332500D01*
Y382500D01*
X672500Y417500D01*
Y438269D01*
X672782Y438949D01*
Y441051D01*
X672500Y441731D01*
Y497410D01*
X997410D01*
Y245000D01*
D02*
G37*
G36*
X702320Y380355D02*
Y332500D01*
X702337Y332417D01*
X702323Y332333D01*
X702534Y331429D01*
X702715Y330518D01*
X702762Y330447D01*
X702781Y330365D01*
X703322Y329610D01*
X703838Y328838D01*
X703908Y328790D01*
X703958Y328721D01*
X742320Y292756D01*
Y245000D01*
X742715Y243018D01*
X743838Y241338D01*
X745518Y240215D01*
X747500Y239820D01*
X778400D01*
X778886Y238647D01*
X766105Y225867D01*
X544103D01*
X542992Y226978D01*
X541051Y227782D01*
X538949D01*
X537008Y226978D01*
X535522Y225492D01*
X534718Y223551D01*
Y221449D01*
X535469Y219637D01*
X535004Y218367D01*
X504103D01*
X502992Y219478D01*
X501440Y220121D01*
X500978Y221455D01*
X669809Y390287D01*
X670539Y391379D01*
X670795Y392667D01*
Y393325D01*
X671978Y394508D01*
X672782Y396449D01*
Y398551D01*
X671978Y400492D01*
X670492Y401978D01*
X668551Y402782D01*
X668534D01*
X668048Y403955D01*
X670796Y406704D01*
X671807Y408216D01*
X671949Y408930D01*
X673327Y409348D01*
X702320Y380355D01*
D02*
G37*
%LPC*%
G36*
X252965Y483365D02*
X246772D01*
Y478500D01*
X247004Y476733D01*
X247686Y475086D01*
X248772Y473672D01*
X250186Y472586D01*
X251833Y471904D01*
X252965Y471755D01*
Y483365D01*
D02*
G37*
G36*
X372828D02*
X366635D01*
Y471755D01*
X367767Y471904D01*
X369414Y472586D01*
X370828Y473672D01*
X371914Y475086D01*
X372596Y476733D01*
X372828Y478500D01*
Y483365D01*
D02*
G37*
G36*
X61655Y474532D02*
X59145D01*
X56721Y473882D01*
X54547Y472627D01*
X52772Y470853D01*
X51518Y468679D01*
X50868Y466255D01*
Y463745D01*
X51518Y461321D01*
X52772Y459147D01*
X54547Y457373D01*
X56721Y456118D01*
X59145Y455468D01*
X61655D01*
X64079Y456118D01*
X66253Y457373D01*
X68028Y459147D01*
X69282Y461321D01*
X69932Y463745D01*
Y466255D01*
X69282Y468679D01*
X68028Y470853D01*
X66253Y472627D01*
X64079Y473882D01*
X61655Y474532D01*
D02*
G37*
G36*
X44532D02*
X25468D01*
Y455468D01*
X44532D01*
Y474532D01*
D02*
G37*
G36*
X366635Y454245D02*
Y444635D01*
X372828D01*
Y447500D01*
X372596Y449267D01*
X371914Y450914D01*
X370828Y452328D01*
X369414Y453414D01*
X367767Y454096D01*
X366635Y454245D01*
D02*
G37*
G36*
X252965D02*
X251833Y454096D01*
X250186Y453414D01*
X248772Y452328D01*
X247686Y450914D01*
X247004Y449267D01*
X246772Y447500D01*
Y444635D01*
X252965D01*
Y454245D01*
D02*
G37*
G36*
X553255Y448770D02*
X552735D01*
Y440635D01*
X560870D01*
Y441155D01*
X560272Y443385D01*
X559118Y445385D01*
X557485Y447018D01*
X555485Y448172D01*
X553255Y448770D01*
D02*
G37*
G36*
X551465D02*
X550945D01*
X548715Y448172D01*
X546715Y447018D01*
X545082Y445385D01*
X543928Y443385D01*
X543330Y441155D01*
Y440635D01*
X551465D01*
Y448770D01*
D02*
G37*
G36*
X502454D02*
X501935D01*
Y440635D01*
X510070D01*
Y441155D01*
X509472Y443385D01*
X508318Y445385D01*
X506685Y447018D01*
X504685Y448172D01*
X502454Y448770D01*
D02*
G37*
G36*
X500665D02*
X500145D01*
X497915Y448172D01*
X495915Y447018D01*
X494282Y445385D01*
X493128Y443385D01*
X492530Y441155D01*
Y440635D01*
X500665D01*
Y448770D01*
D02*
G37*
G36*
X451655D02*
X451135D01*
Y440635D01*
X459270D01*
Y441155D01*
X458672Y443385D01*
X457518Y445385D01*
X455885Y447018D01*
X453885Y448172D01*
X451655Y448770D01*
D02*
G37*
G36*
X449865D02*
X449345D01*
X447115Y448172D01*
X445115Y447018D01*
X443482Y445385D01*
X442328Y443385D01*
X441730Y441155D01*
Y440635D01*
X449865D01*
Y448770D01*
D02*
G37*
G36*
X252965Y443365D02*
X246772D01*
Y440500D01*
X247004Y438733D01*
X247686Y437086D01*
X248772Y435672D01*
X250186Y434586D01*
X251833Y433904D01*
X252965Y433755D01*
Y443365D01*
D02*
G37*
G36*
X372828D02*
X366635D01*
Y433755D01*
X367767Y433904D01*
X369414Y434586D01*
X370828Y435672D01*
X371914Y437086D01*
X372596Y438733D01*
X372828Y440500D01*
Y443365D01*
D02*
G37*
G36*
X560870Y439365D02*
X552735D01*
Y431230D01*
X553255D01*
X555485Y431828D01*
X557485Y432982D01*
X559118Y434615D01*
X560272Y436615D01*
X560870Y438845D01*
Y439365D01*
D02*
G37*
G36*
X551465D02*
X543330D01*
Y438845D01*
X543928Y436615D01*
X545082Y434615D01*
X546715Y432982D01*
X548715Y431828D01*
X550945Y431230D01*
X551465D01*
Y439365D01*
D02*
G37*
G36*
X510070D02*
X501935D01*
Y431230D01*
X502454D01*
X504685Y431828D01*
X506685Y432982D01*
X508318Y434615D01*
X509472Y436615D01*
X510070Y438845D01*
Y439365D01*
D02*
G37*
G36*
X500665D02*
X492530D01*
Y438845D01*
X493128Y436615D01*
X494282Y434615D01*
X495915Y432982D01*
X497915Y431828D01*
X500145Y431230D01*
X500665D01*
Y439365D01*
D02*
G37*
G36*
X459270D02*
X451135D01*
Y431230D01*
X451655D01*
X453885Y431828D01*
X455885Y432982D01*
X457518Y434615D01*
X458672Y436615D01*
X459270Y438845D01*
Y439365D01*
D02*
G37*
G36*
X449865D02*
X441730D01*
Y438845D01*
X442328Y436615D01*
X443482Y434615D01*
X445115Y432982D01*
X447115Y431828D01*
X449345Y431230D01*
X449865D01*
Y439365D01*
D02*
G37*
G36*
X527955Y449532D02*
X525445D01*
X523021Y448882D01*
X520847Y447627D01*
X519072Y445853D01*
X517818Y443679D01*
X517168Y441255D01*
Y438745D01*
X517818Y436321D01*
X519072Y434147D01*
X520847Y432373D01*
X523021Y431118D01*
X525445Y430468D01*
X527955D01*
X530379Y431118D01*
X532553Y432373D01*
X534328Y434147D01*
X535582Y436321D01*
X536232Y438745D01*
Y441255D01*
X535582Y443679D01*
X534328Y445853D01*
X532553Y447627D01*
X530379Y448882D01*
X527955Y449532D01*
D02*
G37*
G36*
X477155D02*
X474645D01*
X472221Y448882D01*
X470047Y447627D01*
X468273Y445853D01*
X467018Y443679D01*
X466368Y441255D01*
Y438745D01*
X467018Y436321D01*
X468273Y434147D01*
X470047Y432373D01*
X472221Y431118D01*
X474645Y430468D01*
X477155D01*
X479579Y431118D01*
X481753Y432373D01*
X483527Y434147D01*
X484782Y436321D01*
X485432Y438745D01*
Y441255D01*
X484782Y443679D01*
X483527Y445853D01*
X481753Y447627D01*
X479579Y448882D01*
X477155Y449532D01*
D02*
G37*
G36*
X341123Y418532D02*
X338877D01*
X336707Y417951D01*
X335361Y417173D01*
X284639D01*
X283293Y417951D01*
X281123Y418532D01*
X278877D01*
X276707Y417951D01*
X274761Y416827D01*
X273173Y415239D01*
X272049Y413293D01*
X271468Y411123D01*
Y408877D01*
X272049Y406707D01*
X273173Y404761D01*
X274761Y403173D01*
X276707Y402049D01*
X278877Y401468D01*
X281123D01*
X283293Y402049D01*
X284639Y402827D01*
X335361D01*
X336707Y402049D01*
X338877Y401468D01*
X341123D01*
X343293Y402049D01*
X345239Y403173D01*
X346827Y404761D01*
X347951Y406707D01*
X348532Y408877D01*
Y411123D01*
X347951Y413293D01*
X346827Y415239D01*
X345239Y416827D01*
X343293Y417951D01*
X341123Y418532D01*
D02*
G37*
G36*
X502454Y418770D02*
X501935D01*
Y410635D01*
X510070D01*
Y411155D01*
X509472Y413385D01*
X508318Y415385D01*
X506685Y417018D01*
X504685Y418172D01*
X502454Y418770D01*
D02*
G37*
G36*
X604054D02*
X603535D01*
Y410635D01*
X611670D01*
Y411155D01*
X611072Y413385D01*
X609918Y415385D01*
X608285Y417018D01*
X606285Y418172D01*
X604054Y418770D01*
D02*
G37*
G36*
X553255D02*
X552735D01*
Y410635D01*
X560870D01*
Y411155D01*
X560272Y413385D01*
X559118Y415385D01*
X557485Y417018D01*
X555485Y418172D01*
X553255Y418770D01*
D02*
G37*
G36*
X451655D02*
X451135D01*
Y410635D01*
X459270D01*
Y411155D01*
X458672Y413385D01*
X457518Y415385D01*
X455885Y417018D01*
X453885Y418172D01*
X451655Y418770D01*
D02*
G37*
G36*
X500665D02*
X500145D01*
X497915Y418172D01*
X495915Y417018D01*
X494282Y415385D01*
X493128Y413385D01*
X492530Y411155D01*
Y410635D01*
X500665D01*
Y418770D01*
D02*
G37*
G36*
X602265D02*
X601745D01*
X599515Y418172D01*
X597515Y417018D01*
X595882Y415385D01*
X594728Y413385D01*
X594130Y411155D01*
Y410635D01*
X602265D01*
Y418770D01*
D02*
G37*
G36*
X551465D02*
X550945D01*
X548715Y418172D01*
X546715Y417018D01*
X545082Y415385D01*
X543928Y413385D01*
X543330Y411155D01*
Y410635D01*
X551465D01*
Y418770D01*
D02*
G37*
G36*
X449865D02*
X449345D01*
X447115Y418172D01*
X445115Y417018D01*
X443482Y415385D01*
X442328Y413385D01*
X441730Y411155D01*
Y410635D01*
X449865D01*
Y418770D01*
D02*
G37*
G36*
X611670Y409365D02*
X603535D01*
Y401230D01*
X604054D01*
X606285Y401828D01*
X608285Y402982D01*
X609918Y404615D01*
X611072Y406615D01*
X611670Y408845D01*
Y409365D01*
D02*
G37*
G36*
X602265D02*
X594130D01*
Y408845D01*
X594728Y406615D01*
X595882Y404615D01*
X597515Y402982D01*
X599515Y401828D01*
X601745Y401230D01*
X602265D01*
Y409365D01*
D02*
G37*
G36*
X560870D02*
X552735D01*
Y401230D01*
X553255D01*
X555485Y401828D01*
X557485Y402982D01*
X559118Y404615D01*
X560272Y406615D01*
X560870Y408845D01*
Y409365D01*
D02*
G37*
G36*
X551465D02*
X543330D01*
Y408845D01*
X543928Y406615D01*
X545082Y404615D01*
X546715Y402982D01*
X548715Y401828D01*
X550945Y401230D01*
X551465D01*
Y409365D01*
D02*
G37*
G36*
X510070D02*
X501935D01*
Y401230D01*
X502454D01*
X504685Y401828D01*
X506685Y402982D01*
X508318Y404615D01*
X509472Y406615D01*
X510070Y408845D01*
Y409365D01*
D02*
G37*
G36*
X500665D02*
X492530D01*
Y408845D01*
X493128Y406615D01*
X494282Y404615D01*
X495915Y402982D01*
X497915Y401828D01*
X500145Y401230D01*
X500665D01*
Y409365D01*
D02*
G37*
G36*
X459270D02*
X451135D01*
Y401230D01*
X451655D01*
X453885Y401828D01*
X455885Y402982D01*
X457518Y404615D01*
X458672Y406615D01*
X459270Y408845D01*
Y409365D01*
D02*
G37*
G36*
X449865D02*
X441730D01*
Y408845D01*
X442328Y406615D01*
X443482Y404615D01*
X445115Y402982D01*
X447115Y401828D01*
X449345Y401230D01*
X449865D01*
Y409365D01*
D02*
G37*
G36*
X637832Y419532D02*
X618768D01*
Y400468D01*
X637832D01*
Y419532D01*
D02*
G37*
G36*
X578755D02*
X576245D01*
X573821Y418882D01*
X571647Y417627D01*
X569873Y415853D01*
X568618Y413679D01*
X567968Y411255D01*
Y408745D01*
X568618Y406321D01*
X569873Y404147D01*
X571647Y402373D01*
X573821Y401118D01*
X576245Y400468D01*
X578755D01*
X581179Y401118D01*
X583353Y402373D01*
X585127Y404147D01*
X586382Y406321D01*
X587032Y408745D01*
Y411255D01*
X586382Y413679D01*
X585127Y415853D01*
X583353Y417627D01*
X581179Y418882D01*
X578755Y419532D01*
D02*
G37*
G36*
X527955D02*
X525445D01*
X523021Y418882D01*
X520847Y417627D01*
X519072Y415853D01*
X517818Y413679D01*
X517168Y411255D01*
Y408745D01*
X517818Y406321D01*
X519072Y404147D01*
X520847Y402373D01*
X523021Y401118D01*
X525445Y400468D01*
X527955D01*
X530379Y401118D01*
X532553Y402373D01*
X534328Y404147D01*
X535582Y406321D01*
X536232Y408745D01*
Y411255D01*
X535582Y413679D01*
X534328Y415853D01*
X532553Y417627D01*
X530379Y418882D01*
X527955Y419532D01*
D02*
G37*
G36*
X477155D02*
X474645D01*
X472221Y418882D01*
X470047Y417627D01*
X468273Y415853D01*
X467018Y413679D01*
X466368Y411255D01*
Y408745D01*
X467018Y406321D01*
X468273Y404147D01*
X470047Y402373D01*
X472221Y401118D01*
X474645Y400468D01*
X477155D01*
X479579Y401118D01*
X481753Y402373D01*
X483527Y404147D01*
X484782Y406321D01*
X485432Y408745D01*
Y411255D01*
X484782Y413679D01*
X483527Y415853D01*
X481753Y417627D01*
X479579Y418882D01*
X477155Y419532D01*
D02*
G37*
G36*
X323551Y400282D02*
X321449D01*
X319508Y399478D01*
X318397Y398367D01*
X303468D01*
X302180Y398110D01*
X301444Y397619D01*
X301051Y397782D01*
X298949D01*
X297008Y396978D01*
X295522Y395492D01*
X294718Y393551D01*
Y391449D01*
X295522Y389508D01*
X294595Y388680D01*
X293304Y389971D01*
Y391543D01*
X292500Y393484D01*
X291014Y394970D01*
X289073Y395774D01*
X286971D01*
X285030Y394970D01*
X283544Y393484D01*
X282740Y391543D01*
Y389441D01*
X283544Y387500D01*
X285030Y386014D01*
X286971Y385210D01*
X288543D01*
X295186Y378567D01*
X296278Y377838D01*
X297566Y377581D01*
X308448D01*
X309736Y377838D01*
X310829Y378567D01*
X314479Y382218D01*
X316051D01*
X317992Y383022D01*
X319478Y384508D01*
X320282Y386449D01*
Y388551D01*
X320144Y388884D01*
X321116Y389856D01*
X321449Y389718D01*
X323551D01*
X325492Y390522D01*
X326978Y392008D01*
X327782Y393949D01*
Y396051D01*
X326978Y397992D01*
X325492Y399478D01*
X323551Y400282D01*
D02*
G37*
G36*
X103655Y376270D02*
X103135D01*
Y368135D01*
X111270D01*
Y368655D01*
X110672Y370885D01*
X109518Y372885D01*
X107885Y374518D01*
X105885Y375672D01*
X103655Y376270D01*
D02*
G37*
G36*
X101865D02*
X101345D01*
X99115Y375672D01*
X97115Y374518D01*
X95482Y372885D01*
X94328Y370885D01*
X93730Y368655D01*
Y368135D01*
X101865D01*
Y376270D01*
D02*
G37*
G36*
X111270Y366865D02*
X103135D01*
Y358730D01*
X103655D01*
X105885Y359328D01*
X107885Y360482D01*
X109518Y362115D01*
X110672Y364115D01*
X111270Y366345D01*
Y366865D01*
D02*
G37*
G36*
X101865D02*
X93730D01*
Y366345D01*
X94328Y364115D01*
X95482Y362115D01*
X97115Y360482D01*
X99115Y359328D01*
X101345Y358730D01*
X101865D01*
Y366865D01*
D02*
G37*
G36*
X86632Y377032D02*
X67568D01*
Y357968D01*
X86632D01*
Y377032D01*
D02*
G37*
G36*
X41255Y297432D02*
X38745D01*
X36321Y296782D01*
X34147Y295527D01*
X32373Y293753D01*
X31118Y291579D01*
X30468Y289155D01*
Y286645D01*
X31118Y284221D01*
X32373Y282047D01*
X34147Y280273D01*
X36321Y279018D01*
X38745Y278368D01*
X41255D01*
X43679Y279018D01*
X45853Y280273D01*
X47628Y282047D01*
X48882Y284221D01*
X49532Y286645D01*
Y289155D01*
X48882Y291579D01*
X47628Y293753D01*
X45853Y295527D01*
X43679Y296782D01*
X41255Y297432D01*
D02*
G37*
G36*
X122500Y463367D02*
X85000D01*
X83712Y463110D01*
X82619Y462381D01*
X52902Y432663D01*
X48400D01*
X47289Y433774D01*
X45940Y434333D01*
X45791Y434730D01*
X45722Y435752D01*
X46978Y437008D01*
X47782Y438949D01*
Y441051D01*
X46978Y442992D01*
X45492Y444478D01*
X43551Y445282D01*
X41449D01*
X39508Y444478D01*
X38022Y442992D01*
X37218Y441051D01*
Y439479D01*
X20119Y422381D01*
X19390Y421288D01*
X19133Y420000D01*
Y280000D01*
X19390Y278712D01*
X20119Y277619D01*
X31279Y266459D01*
X31118Y266179D01*
X30468Y263755D01*
Y261245D01*
X31118Y258821D01*
X32373Y256647D01*
X34147Y254872D01*
X36321Y253618D01*
X38745Y252968D01*
X41255D01*
X43679Y253618D01*
X45853Y254872D01*
X47628Y256647D01*
X48882Y258821D01*
X49532Y261245D01*
Y263755D01*
X48882Y266179D01*
X47628Y268353D01*
X45853Y270128D01*
X43679Y271382D01*
X41255Y272032D01*
X38745D01*
X36321Y271382D01*
X36041Y271221D01*
X25867Y281395D01*
Y418605D01*
X37841Y430580D01*
X39015Y429957D01*
Y428246D01*
X39819Y426305D01*
X41305Y424819D01*
X43246Y424015D01*
X45347D01*
X47289Y424819D01*
X48400Y425930D01*
X54297D01*
X55585Y426186D01*
X56677Y426916D01*
X86395Y456633D01*
X119940D01*
X119989Y456552D01*
X119271Y455282D01*
X118949D01*
X117008Y454478D01*
X115522Y452992D01*
X114718Y451051D01*
Y448949D01*
X115522Y447008D01*
X117008Y445522D01*
X118949Y444718D01*
X120521D01*
X184133Y381105D01*
Y274103D01*
X183022Y272992D01*
X182218Y271051D01*
Y268949D01*
X183022Y267008D01*
X184508Y265522D01*
X186449Y264718D01*
X188551D01*
X190492Y265522D01*
X191978Y267008D01*
X192782Y268949D01*
Y271051D01*
X191978Y272992D01*
X190867Y274103D01*
Y382500D01*
X190610Y383788D01*
X189881Y384881D01*
X125282Y449479D01*
Y450661D01*
X126456Y451283D01*
X231633Y346105D01*
Y274103D01*
X230522Y272992D01*
X229718Y271051D01*
Y268949D01*
X230522Y267008D01*
X232008Y265522D01*
X233949Y264718D01*
X236051D01*
X237992Y265522D01*
X239478Y267008D01*
X240282Y268949D01*
Y271051D01*
X239478Y272992D01*
X238367Y274103D01*
Y347500D01*
X238110Y348788D01*
X237381Y349881D01*
X124881Y462381D01*
X123788Y463110D01*
X122500Y463367D01*
D02*
G37*
G36*
X111051Y447782D02*
X108949D01*
X107008Y446978D01*
X105522Y445492D01*
X104718Y443551D01*
Y441449D01*
X105522Y439508D01*
X107008Y438022D01*
X108949Y437218D01*
X110521D01*
X139133Y408605D01*
Y274103D01*
X138022Y272992D01*
X137218Y271051D01*
Y268949D01*
X138022Y267008D01*
X139508Y265522D01*
X141449Y264718D01*
X143551D01*
X145492Y265522D01*
X146978Y267008D01*
X147782Y268949D01*
Y271051D01*
X146978Y272992D01*
X145867Y274103D01*
Y410000D01*
X145610Y411288D01*
X144881Y412381D01*
X115282Y441979D01*
Y443551D01*
X114478Y445492D01*
X112992Y446978D01*
X111051Y447782D01*
D02*
G37*
G36*
X49532Y246632D02*
X30468D01*
Y227568D01*
X49532D01*
Y246632D01*
D02*
G37*
G36*
X38755Y202032D02*
X36245D01*
X33821Y201382D01*
X31647Y200128D01*
X29873Y198353D01*
X28618Y196179D01*
X27968Y193755D01*
Y191245D01*
X28618Y188821D01*
X29873Y186647D01*
X31647Y184872D01*
X33821Y183618D01*
X36245Y182968D01*
X38755D01*
X41179Y183618D01*
X43353Y184872D01*
X45128Y186647D01*
X46382Y188821D01*
X47032Y191245D01*
Y193755D01*
X46382Y196179D01*
X45128Y198353D01*
X43353Y200128D01*
X41179Y201382D01*
X38755Y202032D01*
D02*
G37*
G36*
X47032Y176632D02*
X27968D01*
Y157568D01*
X47032D01*
Y176632D01*
D02*
G37*
G36*
X134532Y172432D02*
X115468D01*
Y153368D01*
X134532D01*
Y172432D01*
D02*
G37*
G36*
X186051Y200282D02*
X183949D01*
X182008Y199478D01*
X180522Y197992D01*
X179718Y196051D01*
Y194479D01*
X130544Y145306D01*
X128679Y146382D01*
X126255Y147032D01*
X123745D01*
X121321Y146382D01*
X119147Y145127D01*
X117373Y143353D01*
X116118Y141179D01*
X115468Y138755D01*
Y136245D01*
X116118Y133821D01*
X117373Y131647D01*
X119147Y129873D01*
X121321Y128618D01*
X123745Y127968D01*
X126255D01*
X128679Y128618D01*
X128959Y128779D01*
X181862Y75877D01*
X182682Y75329D01*
X183022Y74508D01*
X184508Y73022D01*
X186449Y72218D01*
X188551D01*
X190492Y73022D01*
X191978Y74508D01*
X192782Y76449D01*
Y78551D01*
X191978Y80492D01*
X190492Y81978D01*
X188551Y82782D01*
X186449D01*
X185056Y82205D01*
X133721Y133541D01*
X133882Y133821D01*
X134532Y136245D01*
Y138755D01*
X134317Y139556D01*
X184479Y189718D01*
X186051D01*
X187992Y190522D01*
X189478Y192008D01*
X190282Y193949D01*
Y196051D01*
X189478Y197992D01*
X187992Y199478D01*
X186051Y200282D01*
D02*
G37*
G36*
X590532Y145532D02*
X554468D01*
Y125867D01*
X549103D01*
X547992Y126978D01*
X546051Y127782D01*
X543949D01*
X542008Y126978D01*
X540522Y125492D01*
X539718Y123551D01*
Y121449D01*
X540522Y119508D01*
X542008Y118022D01*
X543949Y117218D01*
X546051D01*
X547992Y118022D01*
X549103Y119133D01*
X554468D01*
Y99468D01*
X590532D01*
Y145532D01*
D02*
G37*
G36*
X882770Y144770D02*
X866135D01*
Y123135D01*
X882770D01*
Y144770D01*
D02*
G37*
G36*
X864865D02*
X848230D01*
Y123135D01*
X864865D01*
Y144770D01*
D02*
G37*
G36*
X126155Y120870D02*
X125635D01*
Y112735D01*
X133770D01*
Y113255D01*
X133172Y115485D01*
X132018Y117485D01*
X130385Y119118D01*
X128385Y120272D01*
X126155Y120870D01*
D02*
G37*
G36*
X124365D02*
X123845D01*
X121615Y120272D01*
X119615Y119118D01*
X117982Y117485D01*
X116828Y115485D01*
X116230Y113255D01*
Y112735D01*
X124365D01*
Y120870D01*
D02*
G37*
G36*
X133770Y111465D02*
X125635D01*
Y103330D01*
X126155D01*
X128385Y103928D01*
X130385Y105082D01*
X132018Y106715D01*
X133172Y108715D01*
X133770Y110945D01*
Y111465D01*
D02*
G37*
G36*
X124365D02*
X116230D01*
Y110945D01*
X116828Y108715D01*
X117982Y106715D01*
X119615Y105082D01*
X121615Y103928D01*
X123845Y103330D01*
X124365D01*
Y111465D01*
D02*
G37*
G36*
X882770Y121865D02*
X866135D01*
Y100230D01*
X882770D01*
Y121865D01*
D02*
G37*
G36*
X864865D02*
X848230D01*
Y100230D01*
X864865D01*
Y121865D01*
D02*
G37*
G36*
X178551Y110282D02*
X176449D01*
X174508Y109478D01*
X173022Y107992D01*
X172218Y106051D01*
Y103949D01*
X173022Y102008D01*
X174508Y100522D01*
X176449Y99718D01*
X178551D01*
X180492Y100522D01*
X181978Y102008D01*
X182782Y103949D01*
Y106051D01*
X181978Y107992D01*
X180492Y109478D01*
X178551Y110282D01*
D02*
G37*
G36*
X774000Y159572D02*
X664000D01*
X663207Y159414D01*
X662535Y158965D01*
X662086Y158293D01*
X661928Y157500D01*
Y87500D01*
X662086Y86707D01*
X662535Y86035D01*
X663207Y85586D01*
X664000Y85428D01*
X774000D01*
X774793Y85586D01*
X775465Y86035D01*
X775914Y86707D01*
X776072Y87500D01*
Y157500D01*
X775914Y158293D01*
X775465Y158965D01*
X774793Y159414D01*
X774000Y159572D01*
D02*
G37*
G36*
X126255Y96232D02*
X123745D01*
X121321Y95582D01*
X119147Y94327D01*
X117373Y92553D01*
X116118Y90379D01*
X115468Y87955D01*
Y85445D01*
X116118Y83021D01*
X117373Y80847D01*
X119147Y79072D01*
X121321Y77818D01*
X123745Y77168D01*
X126255D01*
X128679Y77818D01*
X130853Y79072D01*
X132627Y80847D01*
X133882Y83021D01*
X134532Y85445D01*
Y87955D01*
X133882Y90379D01*
X132627Y92553D01*
X130853Y94327D01*
X128679Y95582D01*
X126255Y96232D01*
D02*
G37*
G36*
Y70832D02*
X123745D01*
X121321Y70182D01*
X119147Y68927D01*
X117373Y67153D01*
X116118Y64979D01*
X115468Y62555D01*
Y60045D01*
X116118Y57621D01*
X117373Y55447D01*
X119147Y53672D01*
X121321Y52418D01*
X123745Y51768D01*
X126255D01*
X128679Y52418D01*
X130853Y53672D01*
X132627Y55447D01*
X133882Y57621D01*
X134532Y60045D01*
Y62555D01*
X133882Y64979D01*
X132627Y67153D01*
X130853Y68927D01*
X128679Y70182D01*
X126255Y70832D01*
D02*
G37*
G36*
X397355Y46270D02*
X396835D01*
Y38135D01*
X404970D01*
Y38655D01*
X404372Y40885D01*
X403218Y42885D01*
X401585Y44518D01*
X399585Y45672D01*
X397355Y46270D01*
D02*
G37*
G36*
X395565D02*
X395045D01*
X392815Y45672D01*
X390815Y44518D01*
X389182Y42885D01*
X388028Y40885D01*
X387430Y38655D01*
Y38135D01*
X395565D01*
Y46270D01*
D02*
G37*
G36*
X219555D02*
X219035D01*
Y38135D01*
X227170D01*
Y38655D01*
X226572Y40885D01*
X225418Y42885D01*
X223785Y44518D01*
X221785Y45672D01*
X219555Y46270D01*
D02*
G37*
G36*
X217765D02*
X217245D01*
X215015Y45672D01*
X213015Y44518D01*
X211382Y42885D01*
X210228Y40885D01*
X209630Y38655D01*
Y38135D01*
X217765D01*
Y46270D01*
D02*
G37*
G36*
X395565Y36865D02*
X387430D01*
Y36345D01*
X388028Y34115D01*
X389182Y32115D01*
X390815Y30482D01*
X392815Y29328D01*
X395045Y28730D01*
X395565D01*
Y36865D01*
D02*
G37*
G36*
X227170D02*
X219035D01*
Y28730D01*
X219555D01*
X221785Y29328D01*
X223785Y30482D01*
X225418Y32115D01*
X226572Y34115D01*
X227170Y36345D01*
Y36865D01*
D02*
G37*
G36*
X217765D02*
X209630D01*
Y36345D01*
X210228Y34115D01*
X211382Y32115D01*
X213015Y30482D01*
X215015Y29328D01*
X217245Y28730D01*
X217765D01*
Y36865D01*
D02*
G37*
G36*
X372055Y47032D02*
X369545D01*
X367121Y46382D01*
X364947Y45128D01*
X363172Y43353D01*
X361918Y41179D01*
X361268Y38755D01*
Y36245D01*
X361918Y33821D01*
X363172Y31647D01*
X364947Y29873D01*
X367121Y28618D01*
X369545Y27968D01*
X372055D01*
X374479Y28618D01*
X376653Y29873D01*
X378428Y31647D01*
X379682Y33821D01*
X380332Y36245D01*
Y38755D01*
X379682Y41179D01*
X378428Y43353D01*
X376653Y45128D01*
X374479Y46382D01*
X372055Y47032D01*
D02*
G37*
G36*
X346655D02*
X344145D01*
X341721Y46382D01*
X339547Y45128D01*
X337772Y43353D01*
X336518Y41179D01*
X335868Y38755D01*
Y36245D01*
X336518Y33821D01*
X337772Y31647D01*
X339547Y29873D01*
X341721Y28618D01*
X344145Y27968D01*
X346655D01*
X349079Y28618D01*
X351253Y29873D01*
X353027Y31647D01*
X354282Y33821D01*
X354932Y36245D01*
Y38755D01*
X354282Y41179D01*
X353027Y43353D01*
X351253Y45128D01*
X349079Y46382D01*
X346655Y47032D01*
D02*
G37*
G36*
X321255D02*
X318745D01*
X316321Y46382D01*
X314147Y45128D01*
X312372Y43353D01*
X311118Y41179D01*
X310468Y38755D01*
Y36245D01*
X311118Y33821D01*
X312372Y31647D01*
X314147Y29873D01*
X316321Y28618D01*
X318745Y27968D01*
X321255D01*
X323679Y28618D01*
X325853Y29873D01*
X327627Y31647D01*
X328882Y33821D01*
X329532Y36245D01*
Y38755D01*
X328882Y41179D01*
X327627Y43353D01*
X325853Y45128D01*
X323679Y46382D01*
X321255Y47032D01*
D02*
G37*
G36*
X343551Y150282D02*
X341449D01*
X339508Y149478D01*
X338022Y147992D01*
X337218Y146051D01*
Y144479D01*
X292219Y99481D01*
X291490Y98388D01*
X291233Y97100D01*
Y46466D01*
X290921Y46382D01*
X288747Y45128D01*
X286973Y43353D01*
X285718Y41179D01*
X285068Y38755D01*
Y36245D01*
X285718Y33821D01*
X286973Y31647D01*
X288747Y29873D01*
X290921Y28618D01*
X293345Y27968D01*
X295855D01*
X298279Y28618D01*
X300453Y29873D01*
X302227Y31647D01*
X303482Y33821D01*
X304132Y36245D01*
Y38755D01*
X303482Y41179D01*
X302227Y43353D01*
X300453Y45128D01*
X298279Y46382D01*
X297967Y46466D01*
Y95705D01*
X341979Y139718D01*
X343551D01*
X345492Y140522D01*
X346978Y142008D01*
X347782Y143949D01*
Y146051D01*
X346978Y147992D01*
X345492Y149478D01*
X343551Y150282D01*
D02*
G37*
G36*
X126255Y45432D02*
X123745D01*
X121321Y44782D01*
X119147Y43527D01*
X117373Y41753D01*
X116118Y39579D01*
X115468Y37155D01*
Y34645D01*
X116118Y32221D01*
X117373Y30047D01*
X119147Y28273D01*
X121321Y27018D01*
X123745Y26368D01*
X126255D01*
X128679Y27018D01*
X130853Y28273D01*
X132627Y30047D01*
X133882Y32221D01*
X134532Y34645D01*
Y37155D01*
X133882Y39579D01*
X132627Y41753D01*
X130853Y43527D01*
X128679Y44782D01*
X126255Y45432D01*
D02*
G37*
%LPD*%
G36*
X774000Y87500D02*
X664000D01*
Y157500D01*
X774000D01*
Y87500D01*
D02*
G37*
%LPC*%
G36*
X974290Y495250D02*
X966035D01*
Y478795D01*
X974290D01*
Y495250D01*
D02*
G37*
G36*
X964765D02*
X956510D01*
Y478795D01*
X964765D01*
Y495250D01*
D02*
G37*
G36*
X923490D02*
X915235D01*
Y478795D01*
X923490D01*
Y495250D01*
D02*
G37*
G36*
X913965D02*
X905710D01*
Y478795D01*
X913965D01*
Y495250D01*
D02*
G37*
G36*
X974290Y477525D02*
X966035D01*
Y461070D01*
X974290D01*
Y477525D01*
D02*
G37*
G36*
X964765D02*
X956510D01*
Y461070D01*
X964765D01*
Y477525D01*
D02*
G37*
G36*
X923490D02*
X915235D01*
Y461070D01*
X923490D01*
Y477525D01*
D02*
G37*
G36*
X913965D02*
X905710D01*
Y461070D01*
X913965D01*
Y477525D01*
D02*
G37*
G36*
X769532Y422432D02*
X750468D01*
Y403368D01*
X769532D01*
Y422432D01*
D02*
G37*
G36*
X761255Y397032D02*
X758745D01*
X756321Y396382D01*
X754147Y395127D01*
X752373Y393353D01*
X751118Y391179D01*
X750468Y388755D01*
Y386245D01*
X751118Y383821D01*
X752373Y381647D01*
X754147Y379873D01*
X756321Y378618D01*
X758745Y377968D01*
X761255D01*
X763679Y378618D01*
X765853Y379873D01*
X767627Y381647D01*
X768882Y383821D01*
X769532Y386245D01*
Y388755D01*
X768882Y391179D01*
X767627Y393353D01*
X765853Y395127D01*
X763679Y396382D01*
X761255Y397032D01*
D02*
G37*
G36*
Y371632D02*
X758745D01*
X756321Y370982D01*
X754147Y369728D01*
X752373Y367953D01*
X751118Y365779D01*
X750468Y363355D01*
Y360845D01*
X751118Y358421D01*
X752373Y356247D01*
X754147Y354473D01*
X756321Y353218D01*
X758745Y352568D01*
X761255D01*
X763679Y353218D01*
X765853Y354473D01*
X767627Y356247D01*
X768882Y358421D01*
X769532Y360845D01*
Y363355D01*
X768882Y365779D01*
X767627Y367953D01*
X765853Y369728D01*
X763679Y370982D01*
X761255Y371632D01*
D02*
G37*
G36*
Y346232D02*
X758745D01*
X756321Y345582D01*
X754147Y344328D01*
X752373Y342553D01*
X751118Y340379D01*
X750468Y337955D01*
Y335445D01*
X751118Y333021D01*
X752373Y330847D01*
X754147Y329072D01*
X756321Y327818D01*
X758745Y327168D01*
X761255D01*
X763679Y327818D01*
X765853Y329072D01*
X767627Y330847D01*
X768882Y333021D01*
X769532Y335445D01*
Y337955D01*
X768882Y340379D01*
X767627Y342553D01*
X765853Y344328D01*
X763679Y345582D01*
X761255Y346232D01*
D02*
G37*
G36*
Y320832D02*
X758745D01*
X756321Y320182D01*
X754147Y318927D01*
X752373Y317153D01*
X751118Y314979D01*
X750468Y312555D01*
Y310045D01*
X751118Y307621D01*
X752373Y305447D01*
X754147Y303673D01*
X756321Y302418D01*
X758745Y301768D01*
X761255D01*
X763679Y302418D01*
X765853Y303673D01*
X767627Y305447D01*
X768882Y307621D01*
X769532Y310045D01*
Y312555D01*
X768882Y314979D01*
X767627Y317153D01*
X765853Y318927D01*
X763679Y320182D01*
X761255Y320832D01*
D02*
G37*
%LPD*%
D16*
X303468Y395000D02*
X322500D01*
X300000Y392500D02*
X300968D01*
X303468Y395000D01*
X297566Y380948D02*
X308448D01*
X288022Y390492D02*
X297566Y380948D01*
X455000Y165968D02*
Y257500D01*
X452500Y162500D02*
Y163468D01*
X455000Y165968D01*
X462500Y280000D02*
X470000Y287500D01*
X462500Y170000D02*
Y280000D01*
X295000Y224032D02*
Y225000D01*
Y224032D02*
X297500Y221532D01*
Y137500D02*
Y221532D01*
X308448Y380948D02*
X315000Y387500D01*
X54297Y429297D02*
X85000Y460000D01*
X44297Y429297D02*
X54297D01*
X22500Y420000D02*
X42500Y440000D01*
X22500Y280000D02*
Y420000D01*
X315000Y232500D02*
X392500D01*
X407500Y247500D01*
X388204Y240000D02*
X407500Y259296D01*
X380000Y240000D02*
X388204D01*
X407500Y259296D02*
Y260000D01*
Y135000D02*
Y151012D01*
X408988Y152500D01*
X458534D01*
X415000Y145000D02*
X457500D01*
X422500Y135000D02*
X455000D01*
X507500Y187500D01*
X458534Y152500D02*
X487500Y181466D01*
Y220000D02*
X525000Y257500D01*
X487500Y181466D02*
Y220000D01*
X492500Y217739D02*
X667429Y392667D01*
X492500Y180000D02*
Y217739D01*
X457500Y145000D02*
X492500Y180000D01*
X400000Y127500D02*
X505000D01*
X550000Y172500D02*
X892500D01*
X505000Y127500D02*
X550000Y172500D01*
X526766Y187500D02*
X797500D01*
X518234D02*
X519786Y185948D01*
X507500Y187500D02*
X518234D01*
X519786Y185948D02*
X525214D01*
X526766Y187500D01*
X797500D02*
X855000Y245000D01*
X887500D01*
X852500Y250000D02*
X872500D01*
X795000Y192500D02*
X852500Y250000D01*
X522500Y192500D02*
X795000D01*
X887500Y245000D02*
X900000Y257500D01*
X872500Y250000D02*
X880000Y257500D01*
X852500D02*
X860000D01*
X795000Y200000D02*
X852500Y257500D01*
X515000Y200000D02*
X795000D01*
X525000Y257500D02*
Y340000D01*
X667429Y397428D02*
X667500Y397500D01*
X667429Y392667D02*
Y397428D01*
X385379Y142121D02*
Y199621D01*
Y142121D02*
X400000Y127500D01*
X545000Y122500D02*
X572500D01*
X910000Y155000D02*
X925000D01*
X780000Y10000D02*
X847500Y77500D01*
X447500Y10000D02*
X780000D01*
X565000Y472500D02*
X577500Y460000D01*
X440000Y472500D02*
X565000D01*
X425100Y457600D02*
X440000Y472500D01*
X243800Y37500D02*
X264628Y58328D01*
X265000Y103966D02*
Y105000D01*
X264628Y103594D02*
X265000Y103966D01*
X264628Y58328D02*
Y103594D01*
X265000Y105000D02*
X297500Y137500D01*
X302500Y135000D02*
Y222500D01*
X269200Y101700D02*
X302500Y135000D01*
X269200Y37500D02*
Y101700D01*
X302500Y222500D02*
X307500Y227500D01*
X472500Y262500D02*
X515000Y305000D01*
Y357500D02*
X545000Y387500D01*
X515000Y305000D02*
Y357500D01*
X892500Y172500D02*
X910000Y155000D01*
X545000Y387500D02*
X582500D01*
X462500Y290000D02*
Y355734D01*
X440000Y267500D02*
X462500Y290000D01*
X402500Y267500D02*
X440000D01*
X442500Y385000D02*
X452500Y395000D01*
X600000D01*
X607500Y387500D01*
X325000Y295000D02*
X442500D01*
X310000Y280000D02*
X325000Y295000D01*
X310000Y262500D02*
Y280000D01*
X439786Y378448D02*
X462500Y355734D01*
X360000Y342500D02*
X412500D01*
X302500Y285000D02*
X360000Y342500D01*
X302500Y255000D02*
Y285000D01*
X332500Y287500D02*
X380000Y240000D01*
X382500Y247500D02*
X402500Y267500D01*
X425100Y393134D02*
X439786Y378448D01*
X425100Y393134D02*
Y410000D01*
X439786Y378448D02*
X439786D01*
X255000Y260000D02*
X287500D01*
X315000Y232500D01*
X367500Y217500D02*
X385379Y199621D01*
X435000Y22500D02*
Y107500D01*
Y22500D02*
X447500Y10000D01*
X507500Y207500D02*
X790000D01*
X840000Y257500D01*
X500000Y215000D02*
X777500D01*
X820000Y257500D01*
X540000Y222500D02*
X767500D01*
X840000Y295000D01*
Y422500D01*
X85000Y460000D02*
X122500D01*
X235000Y270000D02*
Y347500D01*
X122500Y460000D02*
X235000Y347500D01*
X425100Y440000D02*
Y457600D01*
X577500Y440000D02*
Y460000D01*
X255000Y305000D02*
X277500D01*
X294600Y97100D02*
X342500Y145000D01*
X294600Y37500D02*
Y97100D01*
X142500Y270000D02*
Y410000D01*
X110000Y442500D02*
X142500Y410000D01*
X120000Y450000D02*
X187500Y382500D01*
Y270000D02*
Y382500D01*
X125000Y137500D02*
X127500D01*
X184242Y194242D01*
Y78258D02*
X186742D01*
X187500Y77500D01*
X125000Y137500D02*
X184242Y78258D01*
X22500Y280000D02*
X40000Y262500D01*
D39*
X965400Y478160D02*
D03*
X914600D02*
D03*
D81*
X272500Y270000D02*
X350000Y347500D01*
Y382500D01*
X552500Y335000D02*
X592500D01*
X667500Y410000D01*
X645000Y480000D02*
X667500Y457500D01*
Y440000D02*
Y457500D01*
X402976Y480000D02*
X645000D01*
X387500Y420000D02*
Y464524D01*
X402976Y480000D01*
X350000Y382500D02*
X387500Y420000D01*
X667500Y410000D02*
Y440000D01*
D83*
X193000Y37500D02*
Y39554D01*
Y20952D02*
Y37500D01*
X255000Y252500D02*
Y260000D01*
Y305000D01*
X205000Y202500D02*
X255000Y252500D01*
X205000Y65000D02*
Y202500D01*
X255000Y305000D02*
Y355000D01*
X200000Y410000D02*
X255000Y355000D01*
X193366Y53366D02*
X205000Y65000D01*
X280000Y410000D02*
X340000D01*
X193000Y39554D02*
X193366Y39920D01*
Y53366D01*
X193000Y20952D02*
X198952Y15000D01*
X397790D01*
X420290Y37500D01*
X421600D01*
D85*
X57500Y67500D02*
D03*
X927500Y412500D02*
D03*
X942500Y42500D02*
D03*
D86*
X37500Y167100D02*
D03*
X40000Y237100D02*
D03*
X760000Y412900D02*
D03*
X125000Y162900D02*
D03*
D87*
X37500Y192500D02*
D03*
X40000Y262500D02*
D03*
Y287900D02*
D03*
X60400Y465000D02*
D03*
X760000Y311300D02*
D03*
Y336700D02*
D03*
Y362100D02*
D03*
Y387500D02*
D03*
X243800Y37500D02*
D03*
X421600D02*
D03*
X396200D02*
D03*
X370800D02*
D03*
X345400D02*
D03*
X320000D02*
D03*
X294600D02*
D03*
X269200D02*
D03*
X218400D02*
D03*
X577500Y410000D02*
D03*
X552100D02*
D03*
X526700D02*
D03*
X501300D02*
D03*
X475900D02*
D03*
X450500D02*
D03*
X425100D02*
D03*
X602900D02*
D03*
X577500Y440000D02*
D03*
X552100D02*
D03*
X526700D02*
D03*
X501300D02*
D03*
X450500D02*
D03*
X475900D02*
D03*
X102500Y367500D02*
D03*
X125000Y137500D02*
D03*
Y112100D02*
D03*
Y86700D02*
D03*
Y61300D02*
D03*
Y35900D02*
D03*
D88*
X35000Y465000D02*
D03*
X193000Y37500D02*
D03*
X628300Y410000D02*
D03*
X425100Y440000D02*
D03*
X77100Y367500D02*
D03*
D89*
X366000Y444000D02*
D03*
X253600D02*
D03*
D90*
X366000Y484000D02*
D03*
X253600D02*
D03*
D91*
X300000Y392500D02*
D03*
X288022Y390492D02*
D03*
X455000Y257500D02*
D03*
X295000Y225000D02*
D03*
X315000Y387500D02*
D03*
X44297Y429297D02*
D03*
X42500Y440000D02*
D03*
X407500Y247500D02*
D03*
Y260000D02*
D03*
X415000Y145000D02*
D03*
X422500Y135000D02*
D03*
X407500D02*
D03*
X894997Y70560D02*
D03*
X915000Y90000D02*
D03*
X629781Y179590D02*
D03*
X593878Y179887D02*
D03*
X527152Y171731D02*
D03*
X497161Y138446D02*
D03*
X635872Y229929D02*
D03*
X650285Y234963D02*
D03*
X663984Y240155D02*
D03*
X677619Y247619D02*
D03*
X624498Y290370D02*
D03*
X180113Y332888D02*
D03*
X405377Y390777D02*
D03*
X419636Y372334D02*
D03*
X365413Y332604D02*
D03*
X396399Y329567D02*
D03*
X791730Y142291D02*
D03*
X643377Y138075D02*
D03*
X149815Y387392D02*
D03*
X177275Y368646D02*
D03*
X222362Y311268D02*
D03*
X275000Y290000D02*
D03*
X291352Y270376D02*
D03*
X282500Y250000D02*
D03*
X435000Y277500D02*
D03*
X982500Y232500D02*
D03*
X858594Y237675D02*
D03*
X822733Y201300D02*
D03*
X858844Y164290D02*
D03*
X858855Y193242D02*
D03*
X357500Y425000D02*
D03*
X265000Y427500D02*
D03*
X390000Y487500D02*
D03*
X462500Y490000D02*
D03*
X557500D02*
D03*
X630000D02*
D03*
X660000Y487500D02*
D03*
X577500Y347500D02*
D03*
X530000Y357500D02*
D03*
X542500Y282500D02*
D03*
X575000Y320000D02*
D03*
X525000Y382500D02*
D03*
X490000Y265000D02*
D03*
X472500Y217500D02*
D03*
X775000Y257500D02*
D03*
X392192Y119853D02*
D03*
X424692Y117353D02*
D03*
X827500Y147500D02*
D03*
X897500Y202500D02*
D03*
X545000Y122500D02*
D03*
X925000Y155000D02*
D03*
X847500Y77500D02*
D03*
X972500Y267500D02*
D03*
X781625Y324045D02*
D03*
X732500Y337500D02*
D03*
X680000Y482500D02*
D03*
X695000Y430000D02*
D03*
X177500Y105000D02*
D03*
X318759Y332389D02*
D03*
X365000Y350000D02*
D03*
X520000Y112500D02*
D03*
X87500Y420000D02*
D03*
X175000Y227500D02*
D03*
X450000Y332500D02*
D03*
X487500Y462500D02*
D03*
X517500D02*
D03*
X615000D02*
D03*
X642500Y447500D02*
D03*
X740000Y367500D02*
D03*
Y397500D02*
D03*
X702500Y395000D02*
D03*
X707500Y482500D02*
D03*
X720000Y450000D02*
D03*
X742500Y445000D02*
D03*
X737500Y482500D02*
D03*
X782500D02*
D03*
X815000D02*
D03*
X855000D02*
D03*
X890000D02*
D03*
X880000Y467500D02*
D03*
X780000Y437500D02*
D03*
X782500Y372500D02*
D03*
Y400000D02*
D03*
X810000Y425000D02*
D03*
X872500Y405000D02*
D03*
X805000Y347500D02*
D03*
X817500Y390000D02*
D03*
X877500Y375000D02*
D03*
X907500Y390000D02*
D03*
X967500Y415000D02*
D03*
X847500Y340000D02*
D03*
X927500Y362500D02*
D03*
X965000Y375000D02*
D03*
X930000Y335000D02*
D03*
X967500D02*
D03*
X972500Y300000D02*
D03*
X935000Y307500D02*
D03*
X900000Y335000D02*
D03*
X810000Y300000D02*
D03*
X902500D02*
D03*
X860000D02*
D03*
X865000Y325000D02*
D03*
X807500Y322500D02*
D03*
X782500Y292500D02*
D03*
X982500Y165000D02*
D03*
Y20000D02*
D03*
X942004Y126697D02*
D03*
X942615Y88189D02*
D03*
X867648Y119450D02*
D03*
X867500Y40000D02*
D03*
X805000Y15000D02*
D03*
X827500Y42500D02*
D03*
X805000Y65000D02*
D03*
X737500Y35000D02*
D03*
X717500D02*
D03*
X720000Y65000D02*
D03*
X740000D02*
D03*
X647500Y62500D02*
D03*
X640000Y27500D02*
D03*
X730000Y50000D02*
D03*
X597500Y77500D02*
D03*
X552500Y70000D02*
D03*
X570000Y35000D02*
D03*
X512500Y30000D02*
D03*
X452500Y37500D02*
D03*
X460000Y97500D02*
D03*
X487500Y67500D02*
D03*
X457500Y72500D02*
D03*
X487500Y95000D02*
D03*
X545000Y87500D02*
D03*
X597500Y30000D02*
D03*
X600000Y145000D02*
D03*
X547500Y155000D02*
D03*
X707500Y255000D02*
D03*
X692500Y320000D02*
D03*
X647500Y335000D02*
D03*
X590000Y297500D02*
D03*
Y235000D02*
D03*
X565000Y245000D02*
D03*
X532500Y240000D02*
D03*
X290000Y370000D02*
D03*
X275000Y330000D02*
D03*
X342500Y305000D02*
D03*
X377500Y257500D02*
D03*
X352500Y245000D02*
D03*
X345000Y190000D02*
D03*
X370000Y185000D02*
D03*
X402500Y182500D02*
D03*
X412500Y207500D02*
D03*
X420000Y80000D02*
D03*
X212500Y427500D02*
D03*
X265000Y390000D02*
D03*
X225000Y482500D02*
D03*
X130000D02*
D03*
X400000Y440000D02*
D03*
X490000Y327500D02*
D03*
X482500Y382500D02*
D03*
X84768Y237378D02*
D03*
X145000Y237500D02*
D03*
X137500Y212500D02*
D03*
X145000Y177500D02*
D03*
X170000Y132500D02*
D03*
X152500Y82500D02*
D03*
Y37500D02*
D03*
X240000Y60000D02*
D03*
X337500Y112500D02*
D03*
X242500Y165000D02*
D03*
Y217500D02*
D03*
X225000Y185000D02*
D03*
X255000Y195000D02*
D03*
X260000Y122500D02*
D03*
X287500Y145000D02*
D03*
X102500Y115000D02*
D03*
Y50000D02*
D03*
X57500Y42500D02*
D03*
X55000Y122500D02*
D03*
X77500Y82500D02*
D03*
X102500Y15000D02*
D03*
X17500Y17500D02*
D03*
X15000Y95000D02*
D03*
Y177500D02*
D03*
Y245000D02*
D03*
Y322500D02*
D03*
Y422500D02*
D03*
Y485000D02*
D03*
X35000Y382500D02*
D03*
X72500Y310000D02*
D03*
X115000Y385000D02*
D03*
X117500Y352500D02*
D03*
X77500Y350000D02*
D03*
X35000D02*
D03*
X117500Y305000D02*
D03*
X272500Y270000D02*
D03*
X582500Y387500D02*
D03*
X472500Y262500D02*
D03*
X442500Y295000D02*
D03*
X310000Y262500D02*
D03*
X470000Y287500D02*
D03*
X412500Y342500D02*
D03*
X332500Y287500D02*
D03*
X462500Y170000D02*
D03*
X302500Y255000D02*
D03*
X880000Y257500D02*
D03*
X900000D02*
D03*
X860000D02*
D03*
X367500Y217500D02*
D03*
X435000Y107500D02*
D03*
X607500Y387500D02*
D03*
X442500Y385000D02*
D03*
X840000Y257500D02*
D03*
X820000D02*
D03*
X667500Y397500D02*
D03*
X525000Y340000D02*
D03*
X452500Y162500D02*
D03*
X522500Y192500D02*
D03*
X515000Y200000D02*
D03*
X507500Y207500D02*
D03*
X540000Y222500D02*
D03*
X500000Y215000D02*
D03*
X840000Y422500D02*
D03*
X552500Y335000D02*
D03*
X667500Y440000D02*
D03*
X277500Y305000D02*
D03*
X382500Y247500D02*
D03*
X142500Y270000D02*
D03*
X187500D02*
D03*
X235000D02*
D03*
X120000Y450000D02*
D03*
X342500Y145000D02*
D03*
X307500Y227500D02*
D03*
X185000Y195000D02*
D03*
X187500Y77500D02*
D03*
X110000Y442500D02*
D03*
X322500Y395000D02*
D03*
D92*
X340000Y410000D02*
D03*
X200000D02*
D03*
X280000D02*
D03*
D93*
X572500Y122500D02*
D03*
X865500D02*
D03*
M02*
