M48
;Layer_Color=9474304
;FILE_FORMAT=4:4
METRIC,TZ
;TYPE=PLATED
T1F00S00C0.3500
T2F00S00C0.7000
T4F00S00C0.9000
T5F00S00C1.0500
%
T01
X17500Y17500
X57500Y42500
X77500Y82500
X15000Y95000
X102500Y50000
Y15000
X152500Y37500
Y82500
X187500Y77500
X240000Y60000
X420000Y80000
X457500Y72500
X487500Y67500
Y95000
X452500Y37500
X512500Y30000
X570000Y35000
X597500Y30000
X640000Y27500
X647500Y62500
X597500Y77500
X552500Y70000
X545000Y87500
X720000Y65000
X740000
X730000Y50000
X737500Y35000
X717500
X805000Y15000
X827500Y42500
X867500Y40000
X847500Y77500
X805000Y65000
X894997Y70560
X915000Y90000
X942615Y88189
X982500Y20000
Y165000
Y232500
X972500Y267500
Y300000
X967500Y335000
X930000
X900000
X902500Y300000
X935000Y307500
X927500Y362500
X907500Y390000
X965000Y375000
X967500Y415000
X900000Y257500
X897500Y202500
X925000Y155000
X942004Y126697
X867648Y119450
X858844Y164290
X858855Y193242
X822733Y201300
X827500Y147500
X791730Y142291
X775000Y257500
X782500Y292500
X781625Y324045
X807500Y322500
X810000Y300000
X860000
X865000Y325000
X847500Y340000
X805000Y347500
X782500Y372500
Y400000
X780000Y437500
X810000Y425000
X840000Y422500
X872500Y405000
X877500Y375000
X817500Y390000
X740000Y397500
Y367500
X732500Y337500
X692500Y320000
X647500Y335000
X624498Y290370
X590000Y297500
X575000Y320000
X577500Y347500
X552500Y335000
X525000Y340000
X530000Y357500
X525000Y382500
X582500Y387500
X607500
X667500Y397500
X702500Y395000
X695000Y430000
X667500Y440000
X642500Y447500
X615000Y462500
X630000Y490000
X660000Y487500
X680000Y482500
X707500
X737500
X742500Y445000
X720000Y450000
X782500Y482500
X815000
X855000
X890000
X880000Y467500
Y257500
X860000
X840000
X820000
X858594Y237675
X707500Y255000
X677619Y247619
X663984Y240155
X650285Y234963
X635872Y229929
X590000Y235000
X565000Y245000
X532500Y240000
X540000Y222500
X515000Y200000
X522500Y192500
X527152Y171731
X547500Y155000
X545000Y122500
X520000Y112500
X497161Y138446
X507500Y207500
X500000Y215000
X542500Y282500
X593878Y179887
X629781Y179590
X643377Y138075
X600000Y145000
X557500Y490000
X517500Y462500
X487500
X462500Y490000
X390000Y487500
X400000Y440000
X405377Y390777
X419636Y372334
X442500Y385000
X482500Y382500
X490000Y327500
X450000Y332500
X442500Y295000
X435000Y277500
X455000Y257500
X472500Y262500
X490000Y265000
X470000Y287500
X472500Y217500
X462500Y170000
X452500Y162500
X415000Y145000
X422500Y135000
X407500
X392192Y119853
X424692Y117353
X435000Y107500
X460000Y97500
X337500Y112500
X342500Y145000
X345000Y190000
X370000Y185000
X367500Y217500
X352500Y245000
X382500Y247500
X377500Y257500
X407500Y260000
Y247500
X412500Y207500
X402500Y182500
X307500Y227500
X295000Y225000
X282500Y250000
X302500Y255000
X310000Y262500
X291352Y270376
X272500Y270000
X275000Y290000
X277500Y305000
X275000Y330000
X318759Y332389
X365413Y332604
X365000Y350000
X396399Y329567
X412500Y342500
X342500Y305000
X332500Y287500
X235000Y270000
X187500
X142500
X145000Y237500
X137500Y212500
X145000Y177500
X185000Y195000
X175000Y227500
X242500Y217500
X255000Y195000
X225000Y185000
X242500Y165000
X260000Y122500
X287500Y145000
X170000Y132500
X177500Y105000
X102500Y115000
X117500Y305000
Y352500
X115000Y385000
X149815Y387392
X177275Y368646
X180113Y332888
X222362Y311268
X265000Y390000
X288022Y390492
X300000Y392500
X315000Y387500
X322500Y395000
X290000Y370000
X265000Y427500
X212500
X225000Y482500
X130000
X120000Y450000
X110000Y442500
X357500Y425000
X87500Y420000
X44297Y429297
X42500Y440000
X15000Y422500
X35000Y382500
Y350000
X77500
X72500Y310000
X15000Y322500
Y245000
Y177500
X55000Y122500
X84768Y237378
X15000Y485000
T02
X200000Y410000
X280000
X340000
T04
X125000Y35900
Y61300
Y86700
X193000Y37500
X218400
X243800
X269200
X294600
X320000
X345400
X370800
X396200
X421600
X501300Y410000
X526700
X552100
X577500
X602900
X628300
X577500Y440000
X552100
X526700
X501300
X760000Y412900
Y387500
Y362100
Y336700
Y311300
X475900Y410000
X450500
X425100
Y440000
X450500
X475900
X102500Y367500
X125000Y162900
Y137500
Y112100
X37500Y167100
Y192500
X40000Y237100
Y262500
Y287900
X77100Y367500
X60400Y465000
T05
X57500Y67500
X942500Y42500
X927500Y412500
X35000Y465000
M30
