G04*
G04 #@! TF.GenerationSoftware,Altium Limited,Altium Designer,21.6.1 (37)*
G04*
G04 Layer_Color=16711935*
%FSLAX44Y44*%
%MOMM*%
G71*
G04*
G04 #@! TF.SameCoordinates,E457EF80-1144-4942-8A44-04504F566FFE*
G04*
G04*
G04 #@! TF.FilePolarity,Negative*
G04*
G01*
G75*
%ADD65R,1.6740X3.3140*%
%ADD71C,1.6740*%
%ADD72R,1.6500X1.6500*%
%ADD73C,1.6500*%
%ADD74R,1.6500X1.6500*%
G04:AMPARAMS|DCode=75|XSize=1.95mm|YSize=1.25mm|CornerRadius=0.625mm|HoleSize=0mm|Usage=FLASHONLY|Rotation=270.000|XOffset=0mm|YOffset=0mm|HoleType=Round|Shape=RoundedRectangle|*
%AMROUNDEDRECTD75*
21,1,1.9500,0.0000,0,0,270.0*
21,1,0.7000,1.2500,0,0,270.0*
1,1,1.2500,0.0000,-0.3500*
1,1,1.2500,0.0000,0.3500*
1,1,1.2500,0.0000,0.3500*
1,1,1.2500,0.0000,-0.3500*
%
%ADD75ROUNDEDRECTD75*%
G04:AMPARAMS|DCode=76|XSize=2.35mm|YSize=1.25mm|CornerRadius=0.625mm|HoleSize=0mm|Usage=FLASHONLY|Rotation=270.000|XOffset=0mm|YOffset=0mm|HoleType=Round|Shape=RoundedRectangle|*
%AMROUNDEDRECTD76*
21,1,2.3500,0.0000,0,0,270.0*
21,1,1.1000,1.2500,0,0,270.0*
1,1,1.2500,0.0000,-0.5500*
1,1,1.2500,0.0000,0.5500*
1,1,1.2500,0.0000,0.5500*
1,1,1.2500,0.0000,-0.5500*
%
%ADD76ROUNDEDRECTD76*%
%ADD77C,0.8000*%
%ADD78C,1.4500*%
%ADD94R,3.3500X4.3500*%
G36*
X775000Y158500D02*
X663000D01*
Y86500D01*
X775000D01*
Y158500D01*
D02*
G37*
D65*
X965400Y478160D02*
D03*
X914600D02*
D03*
D71*
X57500Y67500D02*
D03*
X927500Y412500D02*
D03*
X942500Y42500D02*
D03*
D72*
X37500Y167100D02*
D03*
X40000Y237100D02*
D03*
X760000Y412900D02*
D03*
X125000Y162900D02*
D03*
D73*
X37500Y192500D02*
D03*
X40000Y262500D02*
D03*
Y287900D02*
D03*
X60400Y465000D02*
D03*
X760000Y311300D02*
D03*
Y336700D02*
D03*
Y362100D02*
D03*
Y387500D02*
D03*
X243800Y37500D02*
D03*
X421600D02*
D03*
X396200D02*
D03*
X370800D02*
D03*
X345400D02*
D03*
X320000D02*
D03*
X294600D02*
D03*
X269200D02*
D03*
X218400D02*
D03*
X577500Y410000D02*
D03*
X552100D02*
D03*
X526700D02*
D03*
X501300D02*
D03*
X475900D02*
D03*
X450500D02*
D03*
X425100D02*
D03*
X602900D02*
D03*
X577500Y440000D02*
D03*
X552100D02*
D03*
X526700D02*
D03*
X501300D02*
D03*
X450500D02*
D03*
X475900D02*
D03*
X102500Y367500D02*
D03*
X125000Y137500D02*
D03*
Y112100D02*
D03*
Y86700D02*
D03*
Y61300D02*
D03*
Y35900D02*
D03*
D74*
X35000Y465000D02*
D03*
X193000Y37500D02*
D03*
X628300Y410000D02*
D03*
X425100Y440000D02*
D03*
X77100Y367500D02*
D03*
D75*
X366000Y444000D02*
D03*
X253600D02*
D03*
D76*
X366000Y484000D02*
D03*
X253600D02*
D03*
D77*
X300000Y392500D02*
D03*
X288022Y390492D02*
D03*
X455000Y257500D02*
D03*
X295000Y225000D02*
D03*
X315000Y387500D02*
D03*
X44297Y429297D02*
D03*
X42500Y440000D02*
D03*
X407500Y247500D02*
D03*
Y260000D02*
D03*
X415000Y145000D02*
D03*
X422500Y135000D02*
D03*
X407500D02*
D03*
X894997Y70560D02*
D03*
X915000Y90000D02*
D03*
X629781Y179590D02*
D03*
X593878Y179887D02*
D03*
X527152Y171731D02*
D03*
X497161Y138446D02*
D03*
X635872Y229929D02*
D03*
X650285Y234963D02*
D03*
X663984Y240155D02*
D03*
X677619Y247619D02*
D03*
X624498Y290370D02*
D03*
X180113Y332888D02*
D03*
X405377Y390777D02*
D03*
X419636Y372334D02*
D03*
X365413Y332604D02*
D03*
X396399Y329567D02*
D03*
X791730Y142291D02*
D03*
X643377Y138075D02*
D03*
X149815Y387392D02*
D03*
X177275Y368646D02*
D03*
X222362Y311268D02*
D03*
X275000Y290000D02*
D03*
X291352Y270376D02*
D03*
X282500Y250000D02*
D03*
X435000Y277500D02*
D03*
X982500Y232500D02*
D03*
X858594Y237675D02*
D03*
X822733Y201300D02*
D03*
X858844Y164290D02*
D03*
X858855Y193242D02*
D03*
X357500Y425000D02*
D03*
X265000Y427500D02*
D03*
X390000Y487500D02*
D03*
X462500Y490000D02*
D03*
X557500D02*
D03*
X630000D02*
D03*
X660000Y487500D02*
D03*
X577500Y347500D02*
D03*
X530000Y357500D02*
D03*
X542500Y282500D02*
D03*
X575000Y320000D02*
D03*
X525000Y382500D02*
D03*
X490000Y265000D02*
D03*
X472500Y217500D02*
D03*
X775000Y257500D02*
D03*
X392192Y119853D02*
D03*
X424692Y117353D02*
D03*
X827500Y147500D02*
D03*
X897500Y202500D02*
D03*
X545000Y122500D02*
D03*
X925000Y155000D02*
D03*
X847500Y77500D02*
D03*
X972500Y267500D02*
D03*
X781625Y324045D02*
D03*
X732500Y337500D02*
D03*
X680000Y482500D02*
D03*
X695000Y430000D02*
D03*
X177500Y105000D02*
D03*
X318759Y332389D02*
D03*
X365000Y350000D02*
D03*
X520000Y112500D02*
D03*
X87500Y420000D02*
D03*
X175000Y227500D02*
D03*
X450000Y332500D02*
D03*
X487500Y462500D02*
D03*
X517500D02*
D03*
X615000D02*
D03*
X642500Y447500D02*
D03*
X740000Y367500D02*
D03*
Y397500D02*
D03*
X702500Y395000D02*
D03*
X707500Y482500D02*
D03*
X720000Y450000D02*
D03*
X742500Y445000D02*
D03*
X737500Y482500D02*
D03*
X782500D02*
D03*
X815000D02*
D03*
X855000D02*
D03*
X890000D02*
D03*
X880000Y467500D02*
D03*
X780000Y437500D02*
D03*
X782500Y372500D02*
D03*
Y400000D02*
D03*
X810000Y425000D02*
D03*
X872500Y405000D02*
D03*
X805000Y347500D02*
D03*
X817500Y390000D02*
D03*
X877500Y375000D02*
D03*
X907500Y390000D02*
D03*
X967500Y415000D02*
D03*
X847500Y340000D02*
D03*
X927500Y362500D02*
D03*
X965000Y375000D02*
D03*
X930000Y335000D02*
D03*
X967500D02*
D03*
X972500Y300000D02*
D03*
X935000Y307500D02*
D03*
X900000Y335000D02*
D03*
X810000Y300000D02*
D03*
X902500D02*
D03*
X860000D02*
D03*
X865000Y325000D02*
D03*
X807500Y322500D02*
D03*
X782500Y292500D02*
D03*
X982500Y165000D02*
D03*
Y20000D02*
D03*
X942004Y126697D02*
D03*
X942615Y88189D02*
D03*
X867648Y119450D02*
D03*
X867500Y40000D02*
D03*
X805000Y15000D02*
D03*
X827500Y42500D02*
D03*
X805000Y65000D02*
D03*
X737500Y35000D02*
D03*
X717500D02*
D03*
X720000Y65000D02*
D03*
X740000D02*
D03*
X647500Y62500D02*
D03*
X640000Y27500D02*
D03*
X730000Y50000D02*
D03*
X597500Y77500D02*
D03*
X552500Y70000D02*
D03*
X570000Y35000D02*
D03*
X512500Y30000D02*
D03*
X452500Y37500D02*
D03*
X460000Y97500D02*
D03*
X487500Y67500D02*
D03*
X457500Y72500D02*
D03*
X487500Y95000D02*
D03*
X545000Y87500D02*
D03*
X597500Y30000D02*
D03*
X600000Y145000D02*
D03*
X547500Y155000D02*
D03*
X707500Y255000D02*
D03*
X692500Y320000D02*
D03*
X647500Y335000D02*
D03*
X590000Y297500D02*
D03*
Y235000D02*
D03*
X565000Y245000D02*
D03*
X532500Y240000D02*
D03*
X290000Y370000D02*
D03*
X275000Y330000D02*
D03*
X342500Y305000D02*
D03*
X377500Y257500D02*
D03*
X352500Y245000D02*
D03*
X345000Y190000D02*
D03*
X370000Y185000D02*
D03*
X402500Y182500D02*
D03*
X412500Y207500D02*
D03*
X420000Y80000D02*
D03*
X212500Y427500D02*
D03*
X265000Y390000D02*
D03*
X225000Y482500D02*
D03*
X130000D02*
D03*
X400000Y440000D02*
D03*
X490000Y327500D02*
D03*
X482500Y382500D02*
D03*
X84768Y237378D02*
D03*
X145000Y237500D02*
D03*
X137500Y212500D02*
D03*
X145000Y177500D02*
D03*
X170000Y132500D02*
D03*
X152500Y82500D02*
D03*
Y37500D02*
D03*
X240000Y60000D02*
D03*
X337500Y112500D02*
D03*
X242500Y165000D02*
D03*
Y217500D02*
D03*
X225000Y185000D02*
D03*
X255000Y195000D02*
D03*
X260000Y122500D02*
D03*
X287500Y145000D02*
D03*
X102500Y115000D02*
D03*
Y50000D02*
D03*
X57500Y42500D02*
D03*
X55000Y122500D02*
D03*
X77500Y82500D02*
D03*
X102500Y15000D02*
D03*
X17500Y17500D02*
D03*
X15000Y95000D02*
D03*
Y177500D02*
D03*
Y245000D02*
D03*
Y322500D02*
D03*
Y422500D02*
D03*
Y485000D02*
D03*
X35000Y382500D02*
D03*
X72500Y310000D02*
D03*
X115000Y385000D02*
D03*
X117500Y352500D02*
D03*
X77500Y350000D02*
D03*
X35000D02*
D03*
X117500Y305000D02*
D03*
X272500Y270000D02*
D03*
X582500Y387500D02*
D03*
X472500Y262500D02*
D03*
X442500Y295000D02*
D03*
X310000Y262500D02*
D03*
X470000Y287500D02*
D03*
X412500Y342500D02*
D03*
X332500Y287500D02*
D03*
X462500Y170000D02*
D03*
X302500Y255000D02*
D03*
X880000Y257500D02*
D03*
X900000D02*
D03*
X860000D02*
D03*
X367500Y217500D02*
D03*
X435000Y107500D02*
D03*
X607500Y387500D02*
D03*
X442500Y385000D02*
D03*
X840000Y257500D02*
D03*
X820000D02*
D03*
X667500Y397500D02*
D03*
X525000Y340000D02*
D03*
X452500Y162500D02*
D03*
X522500Y192500D02*
D03*
X515000Y200000D02*
D03*
X507500Y207500D02*
D03*
X540000Y222500D02*
D03*
X500000Y215000D02*
D03*
X840000Y422500D02*
D03*
X552500Y335000D02*
D03*
X667500Y440000D02*
D03*
X277500Y305000D02*
D03*
X382500Y247500D02*
D03*
X142500Y270000D02*
D03*
X187500D02*
D03*
X235000D02*
D03*
X120000Y450000D02*
D03*
X342500Y145000D02*
D03*
X307500Y227500D02*
D03*
X185000Y195000D02*
D03*
X187500Y77500D02*
D03*
X110000Y442500D02*
D03*
X322500Y395000D02*
D03*
D78*
X340000Y410000D02*
D03*
X200000D02*
D03*
X280000D02*
D03*
D94*
X572500Y122500D02*
D03*
X865500D02*
D03*
M02*
