G04*
G04 #@! TF.GenerationSoftware,Altium Limited,Altium Designer,21.6.1 (37)*
G04*
G04 Layer_Physical_Order=1*
G04 Layer_Color=255*
%FSLAX44Y44*%
%MOMM*%
G71*
G04*
G04 #@! TF.SameCoordinates,E457EF80-1144-4942-8A44-04504F566FFE*
G04*
G04*
G04 #@! TF.FilePolarity,Positive*
G04*
G01*
G75*
%ADD14C,0.7620*%
%ADD16C,0.2540*%
%ADD17C,0.2032*%
G04:AMPARAMS|DCode=19|XSize=2.7mm|YSize=1.59mm|CornerRadius=0.1988mm|HoleSize=0mm|Usage=FLASHONLY|Rotation=90.000|XOffset=0mm|YOffset=0mm|HoleType=Round|Shape=RoundedRectangle|*
%AMROUNDEDRECTD19*
21,1,2.7000,1.1925,0,0,90.0*
21,1,2.3025,1.5900,0,0,90.0*
1,1,0.3975,0.5963,1.1513*
1,1,0.3975,0.5963,-1.1513*
1,1,0.3975,-0.5963,-1.1513*
1,1,0.3975,-0.5963,1.1513*
%
%ADD19ROUNDEDRECTD19*%
G04:AMPARAMS|DCode=20|XSize=1.47mm|YSize=0.45mm|CornerRadius=0.0563mm|HoleSize=0mm|Usage=FLASHONLY|Rotation=270.000|XOffset=0mm|YOffset=0mm|HoleType=Round|Shape=RoundedRectangle|*
%AMROUNDEDRECTD20*
21,1,1.4700,0.3375,0,0,270.0*
21,1,1.3575,0.4500,0,0,270.0*
1,1,0.1125,-0.1688,-0.6788*
1,1,0.1125,-0.1688,0.6788*
1,1,0.1125,0.1688,0.6788*
1,1,0.1125,0.1688,-0.6788*
%
%ADD20ROUNDEDRECTD20*%
G04:AMPARAMS|DCode=21|XSize=1.47mm|YSize=0.45mm|CornerRadius=0.0563mm|HoleSize=0mm|Usage=FLASHONLY|Rotation=0.000|XOffset=0mm|YOffset=0mm|HoleType=Round|Shape=RoundedRectangle|*
%AMROUNDEDRECTD21*
21,1,1.4700,0.3375,0,0,0.0*
21,1,1.3575,0.4500,0,0,0.0*
1,1,0.1125,0.6788,-0.1688*
1,1,0.1125,-0.6788,-0.1688*
1,1,0.1125,-0.6788,0.1688*
1,1,0.1125,0.6788,0.1688*
%
%ADD21ROUNDEDRECTD21*%
%ADD22O,1.4000X0.2450*%
G04:AMPARAMS|DCode=23|XSize=1.1mm|YSize=0.6mm|CornerRadius=0.03mm|HoleSize=0mm|Usage=FLASHONLY|Rotation=270.000|XOffset=0mm|YOffset=0mm|HoleType=Round|Shape=RoundedRectangle|*
%AMROUNDEDRECTD23*
21,1,1.1000,0.5400,0,0,270.0*
21,1,1.0400,0.6000,0,0,270.0*
1,1,0.0600,-0.2700,-0.5200*
1,1,0.0600,-0.2700,0.5200*
1,1,0.0600,0.2700,0.5200*
1,1,0.0600,0.2700,-0.5200*
%
%ADD23ROUNDEDRECTD23*%
%ADD24O,0.3500X1.4000*%
%ADD25O,0.5500X1.6000*%
%ADD26O,0.3800X1.4000*%
%ADD27R,1.0000X2.0000*%
%ADD28R,0.9500X0.6000*%
%ADD29R,0.8000X0.5500*%
%ADD30R,0.6000X1.0500*%
%ADD31R,0.6000X0.9500*%
%ADD32R,0.4500X0.9500*%
%ADD33R,1.3500X0.9500*%
%ADD34R,0.9500X1.3500*%
%ADD35R,1.0500X1.0000*%
G04:AMPARAMS|DCode=36|XSize=1.3mm|YSize=0.5mm|CornerRadius=0.0625mm|HoleSize=0mm|Usage=FLASHONLY|Rotation=270.000|XOffset=0mm|YOffset=0mm|HoleType=Round|Shape=RoundedRectangle|*
%AMROUNDEDRECTD36*
21,1,1.3000,0.3750,0,0,270.0*
21,1,1.1750,0.5000,0,0,270.0*
1,1,0.1250,-0.1875,-0.5875*
1,1,0.1250,-0.1875,0.5875*
1,1,0.1250,0.1875,0.5875*
1,1,0.1250,0.1875,-0.5875*
%
%ADD36ROUNDEDRECTD36*%
G04:AMPARAMS|DCode=37|XSize=1.3mm|YSize=0.23mm|CornerRadius=0.0288mm|HoleSize=0mm|Usage=FLASHONLY|Rotation=270.000|XOffset=0mm|YOffset=0mm|HoleType=Round|Shape=RoundedRectangle|*
%AMROUNDEDRECTD37*
21,1,1.3000,0.1725,0,0,270.0*
21,1,1.2425,0.2300,0,0,270.0*
1,1,0.0575,-0.0863,-0.6213*
1,1,0.0575,-0.0863,0.6213*
1,1,0.0575,0.0863,0.6213*
1,1,0.0575,0.0863,-0.6213*
%
%ADD37ROUNDEDRECTD37*%
%ADD38R,1.3500X1.8500*%
%ADD39R,1.5240X3.1640*%
%ADD40R,1.0160X2.0320*%
%ADD41R,2.3000X1.8500*%
%ADD42R,1.8500X2.3000*%
G04:AMPARAMS|DCode=43|XSize=0.8mm|YSize=0.9mm|CornerRadius=0.04mm|HoleSize=0mm|Usage=FLASHONLY|Rotation=180.000|XOffset=0mm|YOffset=0mm|HoleType=Round|Shape=RoundedRectangle|*
%AMROUNDEDRECTD43*
21,1,0.8000,0.8200,0,0,180.0*
21,1,0.7200,0.9000,0,0,180.0*
1,1,0.0800,-0.3600,0.4100*
1,1,0.0800,0.3600,0.4100*
1,1,0.0800,0.3600,-0.4100*
1,1,0.0800,-0.3600,-0.4100*
%
%ADD43ROUNDEDRECTD43*%
G04:AMPARAMS|DCode=44|XSize=0.8mm|YSize=0.9mm|CornerRadius=0.04mm|HoleSize=0mm|Usage=FLASHONLY|Rotation=90.000|XOffset=0mm|YOffset=0mm|HoleType=Round|Shape=RoundedRectangle|*
%AMROUNDEDRECTD44*
21,1,0.8000,0.8200,0,0,90.0*
21,1,0.7200,0.9000,0,0,90.0*
1,1,0.0800,0.4100,0.3600*
1,1,0.0800,0.4100,-0.3600*
1,1,0.0800,-0.4100,-0.3600*
1,1,0.0800,-0.4100,0.3600*
%
%ADD44ROUNDEDRECTD44*%
%ADD79C,0.2286*%
%ADD80C,0.3810*%
%ADD81C,0.5080*%
%ADD82C,0.9652*%
%ADD83C,1.0160*%
%ADD84C,1.0000*%
%ADD85C,1.5240*%
%ADD86R,1.5000X1.5000*%
%ADD87C,1.5000*%
%ADD88R,1.5000X1.5000*%
G04:AMPARAMS|DCode=89|XSize=1.8mm|YSize=1.1mm|CornerRadius=0.55mm|HoleSize=0mm|Usage=FLASHONLY|Rotation=270.000|XOffset=0mm|YOffset=0mm|HoleType=Round|Shape=RoundedRectangle|*
%AMROUNDEDRECTD89*
21,1,1.8000,0.0000,0,0,270.0*
21,1,0.7000,1.1000,0,0,270.0*
1,1,1.1000,0.0000,-0.3500*
1,1,1.1000,0.0000,0.3500*
1,1,1.1000,0.0000,0.3500*
1,1,1.1000,0.0000,-0.3500*
%
%ADD89ROUNDEDRECTD89*%
G04:AMPARAMS|DCode=90|XSize=2.2mm|YSize=1.1mm|CornerRadius=0.55mm|HoleSize=0mm|Usage=FLASHONLY|Rotation=270.000|XOffset=0mm|YOffset=0mm|HoleType=Round|Shape=RoundedRectangle|*
%AMROUNDEDRECTD90*
21,1,2.2000,0.0000,0,0,270.0*
21,1,1.1000,1.1000,0,0,270.0*
1,1,1.1000,0.0000,-0.5500*
1,1,1.1000,0.0000,0.5500*
1,1,1.1000,0.0000,0.5500*
1,1,1.1000,0.0000,-0.5500*
%
%ADD90ROUNDEDRECTD90*%
%ADD91C,0.6500*%
%ADD92C,1.3000*%
G36*
X252171Y496140D02*
X251833Y496096D01*
X250186Y495414D01*
X248772Y494328D01*
X247686Y492914D01*
X247004Y491267D01*
X246772Y489500D01*
Y484635D01*
X253600D01*
Y484000D01*
X254235D01*
Y471755D01*
X255367Y471904D01*
X257014Y472586D01*
X258428Y473672D01*
X259140Y474599D01*
X260410Y474168D01*
Y451832D01*
X259140Y451401D01*
X258428Y452328D01*
X257014Y453414D01*
X255367Y454096D01*
X254235Y454245D01*
Y444000D01*
Y433755D01*
X255367Y433904D01*
X257014Y434586D01*
X258428Y435672D01*
X259514Y437086D01*
X259584Y437255D01*
X261017Y437396D01*
X261169Y437169D01*
X262009Y436608D01*
X263000Y436410D01*
X273993D01*
Y432135D01*
X277800D01*
Y431500D01*
X278435D01*
Y423693D01*
X279675D01*
X279868Y423731D01*
X280993Y423007D01*
X281138Y422796D01*
Y418544D01*
X281123Y418532D01*
X278877D01*
X276707Y417951D01*
X275361Y417173D01*
X261282D01*
Y421282D01*
X243718D01*
Y398718D01*
X261282D01*
Y402827D01*
X275361D01*
X276707Y402049D01*
X278877Y401468D01*
X281123D01*
X281969Y401695D01*
X283431Y400772D01*
X283472Y400550D01*
X272711Y389789D01*
X272009Y388739D01*
X271763Y387500D01*
Y350000D01*
X272009Y348761D01*
X272711Y347711D01*
X277711Y342711D01*
X278761Y342009D01*
X280000Y341763D01*
X283968D01*
Y336218D01*
X297532D01*
Y353782D01*
X283968D01*
Y348237D01*
X281341D01*
X278237Y351341D01*
Y386159D01*
X281567Y389489D01*
X282909Y389035D01*
X283544Y387500D01*
X285030Y386014D01*
X286971Y385210D01*
X289073D01*
X291014Y386014D01*
X292500Y387500D01*
X293304Y389441D01*
Y390180D01*
X293738Y390496D01*
X295294Y390059D01*
X295522Y389508D01*
X296633Y388397D01*
Y377500D01*
X296890Y376212D01*
X297619Y375119D01*
X355133Y317605D01*
Y283535D01*
X354615Y283209D01*
X353863Y282988D01*
X353200Y283431D01*
X352187Y283633D01*
X348812D01*
X347800Y283431D01*
X347387Y283155D01*
X346500Y282957D01*
X345613Y283155D01*
X345200Y283431D01*
X344187Y283633D01*
X340812D01*
X339800Y283431D01*
X338942Y282858D01*
X338368Y282000D01*
X338167Y280987D01*
Y267412D01*
X338368Y266400D01*
X338942Y265542D01*
X339133Y265414D01*
Y242500D01*
X339390Y241212D01*
X340119Y240119D01*
X362218Y218021D01*
Y216449D01*
X363022Y214508D01*
X364508Y213022D01*
X366449Y212218D01*
X368551D01*
X370492Y213022D01*
X371978Y214508D01*
X372782Y216449D01*
Y218551D01*
X371978Y220492D01*
X370492Y221978D01*
X368551Y222782D01*
X366979D01*
X345867Y243895D01*
Y259492D01*
X347133Y259500D01*
X347390Y258212D01*
X348119Y257119D01*
X360119Y245119D01*
X361212Y244390D01*
X362500Y244133D01*
X378397D01*
X379133Y243397D01*
Y217500D01*
X379133Y217500D01*
Y205867D01*
X356395D01*
X342381Y219881D01*
X341288Y220610D01*
X340000Y220867D01*
X334586D01*
X334458Y221058D01*
X334254Y221194D01*
X334144Y221608D01*
X334071Y222734D01*
X334314Y223097D01*
X334456Y223813D01*
Y224865D01*
X325800D01*
Y226135D01*
X334456D01*
Y227188D01*
X334314Y227903D01*
X334071Y228266D01*
X334144Y229392D01*
X334254Y229806D01*
X334458Y229942D01*
X335031Y230800D01*
X335233Y231812D01*
Y235187D01*
X335031Y236200D01*
X334458Y237058D01*
Y237942D01*
X335031Y238800D01*
X335233Y239813D01*
Y243188D01*
X335031Y244200D01*
X334458Y245058D01*
Y245942D01*
X335031Y246800D01*
X335233Y247812D01*
Y251187D01*
X335031Y252200D01*
X334458Y253058D01*
Y253942D01*
X335031Y254800D01*
X335233Y255812D01*
Y259188D01*
X335031Y260200D01*
X334458Y261058D01*
X333600Y261631D01*
X332588Y261833D01*
X319013D01*
X318000Y261631D01*
X317142Y261058D01*
X315914Y261348D01*
X315282Y261979D01*
Y263551D01*
X314478Y265492D01*
X312992Y266978D01*
X311051Y267782D01*
X308949D01*
X307008Y266978D01*
X305522Y265492D01*
X304718Y263551D01*
Y261449D01*
X304856Y261116D01*
X303884Y260144D01*
X303551Y260282D01*
X301449D01*
X299508Y259478D01*
X298022Y257992D01*
X297218Y256051D01*
Y253949D01*
X298022Y252008D01*
X299508Y250522D01*
X301449Y249718D01*
X303021D01*
X305619Y247119D01*
X306712Y246390D01*
X308000Y246133D01*
X311492D01*
X311500Y244867D01*
X310212Y244610D01*
X309119Y243881D01*
X295521Y230282D01*
X293949D01*
X292008Y229478D01*
X290522Y227992D01*
X289718Y226051D01*
Y223949D01*
X290469Y222137D01*
X290004Y220867D01*
X278782D01*
Y224282D01*
X261218D01*
Y220867D01*
X255000D01*
X253712Y220610D01*
X252619Y219881D01*
X231105Y198367D01*
X189103D01*
X188367Y199103D01*
Y206968D01*
X189532D01*
Y220532D01*
X179468D01*
Y206968D01*
X181633D01*
Y199103D01*
X180897Y198367D01*
X179282D01*
Y203782D01*
X165718D01*
Y186218D01*
X179282D01*
Y191633D01*
X180897D01*
X182008Y190522D01*
X183949Y189718D01*
X186051D01*
X187992Y190522D01*
X189103Y191633D01*
X232500D01*
X233788Y191890D01*
X234881Y192619D01*
X256395Y214133D01*
X261218D01*
Y210718D01*
X278782D01*
Y214133D01*
X315141D01*
X315609Y213417D01*
X315261Y212815D01*
X299448D01*
X298160Y212558D01*
X297067Y211829D01*
X263605Y178367D01*
X162500D01*
X161212Y178110D01*
X160119Y177381D01*
X149005Y166267D01*
X134532D01*
Y172432D01*
X128367D01*
Y187500D01*
X128110Y188788D01*
X127381Y189881D01*
X114881Y202381D01*
X113788Y203110D01*
X112500Y203367D01*
X103532D01*
Y208782D01*
X89968D01*
Y191218D01*
X103532D01*
Y196633D01*
X111105D01*
X121633Y186105D01*
Y172432D01*
X115468D01*
Y154617D01*
X115468Y153589D01*
X114413Y152848D01*
X113367Y153895D01*
Y170000D01*
X113110Y171288D01*
X112381Y172381D01*
X104881Y179881D01*
X103788Y180610D01*
X102500Y180867D01*
X101032D01*
Y186282D01*
X87468D01*
Y168718D01*
X101032D01*
Y172411D01*
X102302Y172937D01*
X106633Y168605D01*
Y152500D01*
X106890Y151212D01*
X107619Y150119D01*
X116279Y141459D01*
X116118Y141179D01*
X115468Y138755D01*
Y136245D01*
X116118Y133821D01*
X117373Y131647D01*
X119147Y129873D01*
X121321Y128618D01*
X123745Y127968D01*
X126255D01*
X128679Y128618D01*
X130853Y129873D01*
X132627Y131647D01*
X133882Y133821D01*
X134532Y136245D01*
Y138755D01*
X133882Y141179D01*
X132627Y143353D01*
X130853Y145127D01*
X128679Y146382D01*
X126255Y147032D01*
X123745D01*
X121321Y146382D01*
X121041Y146221D01*
X114948Y152313D01*
X115689Y153368D01*
X116646Y153368D01*
X134532D01*
Y159533D01*
X150400D01*
X151688Y159790D01*
X152781Y160519D01*
X163895Y171633D01*
X262713D01*
X263199Y170460D01*
X242500Y149761D01*
X237381Y154881D01*
X236288Y155610D01*
X235000Y155867D01*
X226032D01*
Y161282D01*
X212468D01*
Y143718D01*
X226032D01*
Y149133D01*
X233605D01*
X237739Y145000D01*
X231105Y138367D01*
X195000D01*
X193712Y138110D01*
X192619Y137381D01*
X184619Y129381D01*
X183890Y128288D01*
X183633Y127000D01*
Y126430D01*
X182735Y125532D01*
X181968D01*
X181014Y124770D01*
X178135D01*
Y118250D01*
Y111730D01*
X181014D01*
X181968Y110968D01*
X182724Y110968D01*
X192032D01*
Y125532D01*
X192032D01*
X191563Y126802D01*
X196395Y131633D01*
X230213D01*
X230699Y130460D01*
X227619Y127381D01*
X226890Y126288D01*
X226633Y125000D01*
Y91395D01*
X219518Y84279D01*
X218348Y84905D01*
X218367Y85000D01*
Y91468D01*
X223782D01*
Y105032D01*
X206218D01*
Y91468D01*
X211633D01*
Y86395D01*
X206105Y80867D01*
X191603D01*
X190617Y81853D01*
Y84468D01*
X192032D01*
Y99032D01*
X181968Y99032D01*
X181014Y98270D01*
X180698D01*
X178135D01*
Y91750D01*
X176865D01*
Y98270D01*
X173986D01*
X173032Y99032D01*
X172276Y99032D01*
X162968D01*
Y84468D01*
X164955D01*
Y79178D01*
X165212Y77889D01*
X165942Y76797D01*
X172771Y69968D01*
X172285Y68795D01*
X147667D01*
X133721Y82741D01*
X133882Y83021D01*
X134532Y85445D01*
Y87955D01*
X133882Y90379D01*
X132627Y92553D01*
X130853Y94327D01*
X128679Y95582D01*
X126255Y96232D01*
X123745D01*
X121321Y95582D01*
X119147Y94327D01*
X117373Y92553D01*
X116118Y90379D01*
X115468Y87955D01*
Y85445D01*
X116118Y83021D01*
X117373Y80847D01*
X119147Y79072D01*
X121321Y77818D01*
X123745Y77168D01*
X126255D01*
X128679Y77818D01*
X128959Y77979D01*
X141543Y65396D01*
X141057Y64223D01*
X134085D01*
X133882Y64979D01*
X132627Y67153D01*
X130853Y68927D01*
X128679Y70182D01*
X126255Y70832D01*
X123745D01*
X121321Y70182D01*
X119147Y68927D01*
X117373Y67153D01*
X116118Y64979D01*
X115468Y62555D01*
Y60045D01*
X116118Y57621D01*
X117373Y55447D01*
X119147Y53672D01*
X121321Y52418D01*
X123745Y51768D01*
X126255D01*
X128679Y52418D01*
X130853Y53672D01*
X132627Y55447D01*
X133806Y57489D01*
X215856D01*
X217144Y57746D01*
X218237Y58475D01*
X242381Y82619D01*
X243110Y83712D01*
X243367Y85000D01*
Y120674D01*
X296826Y174133D01*
X317014D01*
X317142Y173942D01*
X318000Y173369D01*
X319013Y173167D01*
X332588D01*
X333600Y173369D01*
X334458Y173942D01*
X335031Y174800D01*
X335233Y175812D01*
Y179188D01*
X335031Y180200D01*
X334458Y181058D01*
Y181942D01*
X335031Y182800D01*
X335233Y183813D01*
Y187188D01*
X335031Y188200D01*
X334458Y189058D01*
Y189942D01*
X335031Y190800D01*
X335233Y191812D01*
Y195187D01*
X335031Y196200D01*
X334458Y197058D01*
Y197942D01*
X335031Y198800D01*
X335233Y199813D01*
Y203188D01*
X335031Y204200D01*
X334755Y204613D01*
X334557Y205500D01*
X334755Y206387D01*
X335031Y206800D01*
X335233Y207812D01*
Y211187D01*
X335031Y212200D01*
X334588Y212863D01*
X334809Y213615D01*
X335135Y214133D01*
X338605D01*
X352619Y200119D01*
X353712Y199390D01*
X355000Y199133D01*
X379133D01*
Y170135D01*
X378615Y169809D01*
X377863Y169588D01*
X377200Y170032D01*
X376187Y170233D01*
X372812D01*
X371800Y170032D01*
X370942Y169458D01*
X370058D01*
X369200Y170032D01*
X368187Y170233D01*
X364813D01*
X363800Y170032D01*
X362942Y169458D01*
X362058D01*
X361200Y170032D01*
X360187Y170233D01*
X356813D01*
X355800Y170032D01*
X354942Y169458D01*
X354058D01*
X353200Y170032D01*
X352187Y170233D01*
X348812D01*
X347800Y170032D01*
X346942Y169458D01*
X346058D01*
X345200Y170032D01*
X344187Y170233D01*
X340812D01*
X339800Y170032D01*
X338942Y169458D01*
X338368Y168600D01*
X338167Y167588D01*
Y154012D01*
X338368Y153000D01*
X338942Y152142D01*
X339133Y152014D01*
Y149103D01*
X338022Y147992D01*
X337218Y146051D01*
Y143949D01*
X338022Y142008D01*
X339508Y140522D01*
X341449Y139718D01*
X343551D01*
X345492Y140522D01*
X345863Y140893D01*
X347133Y140367D01*
Y89395D01*
X341105Y83367D01*
X338032D01*
Y93532D01*
X315468D01*
Y66468D01*
X338032D01*
Y76633D01*
X342500D01*
X343788Y76890D01*
X344881Y77619D01*
X352881Y85619D01*
X353610Y86712D01*
X353867Y88000D01*
X355133Y87992D01*
Y77394D01*
X323959Y46221D01*
X323679Y46382D01*
X321255Y47032D01*
X318745D01*
X316321Y46382D01*
X314147Y45128D01*
X312372Y43353D01*
X311118Y41179D01*
X310468Y38755D01*
Y36245D01*
X311118Y33821D01*
X312372Y31647D01*
X314147Y29873D01*
X316321Y28618D01*
X318745Y27968D01*
X321255D01*
X323679Y28618D01*
X325853Y29873D01*
X327627Y31647D01*
X328882Y33821D01*
X329532Y36245D01*
Y38755D01*
X328882Y41179D01*
X328721Y41459D01*
X360881Y73619D01*
X361610Y74712D01*
X361867Y76000D01*
X363133Y75992D01*
Y59995D01*
X349359Y46221D01*
X349079Y46382D01*
X346655Y47032D01*
X344145D01*
X341721Y46382D01*
X339547Y45128D01*
X337772Y43353D01*
X336518Y41179D01*
X335868Y38755D01*
Y36245D01*
X336518Y33821D01*
X337772Y31647D01*
X339547Y29873D01*
X341721Y28618D01*
X344145Y27968D01*
X346655D01*
X349079Y28618D01*
X351253Y29873D01*
X353027Y31647D01*
X354282Y33821D01*
X354932Y36245D01*
Y38755D01*
X354282Y41179D01*
X354121Y41459D01*
X368881Y56219D01*
X369610Y57312D01*
X369867Y58600D01*
X369867Y58600D01*
X371133Y58592D01*
Y47032D01*
X369545D01*
X367121Y46382D01*
X364947Y45128D01*
X363172Y43353D01*
X361918Y41179D01*
X361268Y38755D01*
Y36245D01*
X361918Y33821D01*
X363172Y31647D01*
X364947Y29873D01*
X367121Y28618D01*
X369545Y27968D01*
X372055D01*
X374479Y28618D01*
X376653Y29873D01*
X378428Y31647D01*
X379682Y33821D01*
X380332Y36245D01*
Y38755D01*
X379682Y41179D01*
X378428Y43353D01*
X377757Y44023D01*
X377867Y44572D01*
Y114992D01*
X379133Y115000D01*
X379390Y113712D01*
X380119Y112619D01*
X386633Y106105D01*
Y99282D01*
X381218D01*
Y85718D01*
X398782D01*
Y99282D01*
X393367D01*
Y104133D01*
X430897D01*
X432008Y103022D01*
X433949Y102218D01*
X436051D01*
X437992Y103022D01*
X439478Y104508D01*
X440282Y106449D01*
Y108021D01*
X449881Y117619D01*
X450610Y118712D01*
X450867Y120000D01*
Y133605D01*
X461395Y144133D01*
X470197D01*
X471218Y143532D01*
Y129968D01*
X488782D01*
Y143532D01*
X489803Y144133D01*
X506105D01*
X506883Y143355D01*
Y141519D01*
X506688Y141226D01*
X506394Y139750D01*
Y129250D01*
X506688Y127774D01*
X507523Y126523D01*
X508774Y125687D01*
X510250Y125394D01*
X511726Y125687D01*
X512977Y126523D01*
X514023D01*
X515274Y125687D01*
X516750Y125394D01*
X518226Y125687D01*
X519477Y126523D01*
X520523D01*
X521774Y125687D01*
X523250Y125394D01*
X524726Y125687D01*
X525977Y126523D01*
X527023D01*
X528274Y125687D01*
X529750Y125394D01*
X531226Y125687D01*
X532477Y126523D01*
X533313Y127774D01*
X533606Y129250D01*
Y139750D01*
X533313Y141226D01*
X533117Y141519D01*
Y154216D01*
X532860Y155504D01*
X532131Y156596D01*
X516346Y172381D01*
X515624Y172863D01*
X516009Y174133D01*
X517500D01*
X518788Y174390D01*
X519881Y175119D01*
X542381Y197619D01*
X543110Y198712D01*
X543367Y200000D01*
Y218397D01*
X544478Y219508D01*
X545282Y221449D01*
Y223551D01*
X544478Y225492D01*
X542992Y226978D01*
X541051Y227782D01*
X538949D01*
X537008Y226978D01*
X535522Y225492D01*
X534718Y223551D01*
Y221449D01*
X535522Y219508D01*
X536633Y218397D01*
Y201395D01*
X528955Y193717D01*
X527551Y194108D01*
X526978Y195492D01*
X525492Y196978D01*
X523551Y197782D01*
X521449D01*
X521116Y197644D01*
X520144Y198616D01*
X520282Y198949D01*
Y201051D01*
X519478Y202992D01*
X518367Y204103D01*
Y388605D01*
X521395Y391633D01*
X562500D01*
X563788Y391890D01*
X564881Y392619D01*
X573541Y401279D01*
X573821Y401118D01*
X576245Y400468D01*
X578755D01*
X581179Y401118D01*
X581459Y401279D01*
X590119Y392619D01*
X591212Y391890D01*
X592500Y391633D01*
X602504D01*
X602969Y390363D01*
X602218Y388551D01*
Y386449D01*
X603022Y384508D01*
X604508Y383022D01*
X606449Y382218D01*
X608021D01*
X612583Y377655D01*
Y376252D01*
X612502Y376198D01*
X611446Y374616D01*
X611074Y372750D01*
Y362250D01*
X611446Y360384D01*
X612502Y358802D01*
X614084Y357746D01*
X615950Y357374D01*
X617816Y357746D01*
X619398Y358802D01*
X620454Y360384D01*
X620826Y362250D01*
Y372750D01*
X620454Y374616D01*
X619398Y376198D01*
X619317Y376252D01*
Y379050D01*
X619298Y379145D01*
X620468Y379771D01*
X624737Y375502D01*
X624146Y374616D01*
X623774Y372750D01*
Y362250D01*
X624146Y360384D01*
X625202Y358802D01*
X626784Y357746D01*
X628650Y357374D01*
X630516Y357746D01*
X632098Y358802D01*
X633154Y360384D01*
X633526Y362250D01*
Y372750D01*
X633154Y374616D01*
X632098Y376198D01*
X631718Y376451D01*
Y376649D01*
X631462Y377937D01*
X630732Y379029D01*
X619280Y390482D01*
X619905Y391652D01*
X620000Y391633D01*
X628605D01*
X637983Y382256D01*
Y376252D01*
X637902Y376198D01*
X636846Y374616D01*
X636474Y372750D01*
Y362250D01*
X636846Y360384D01*
X637902Y358802D01*
X639484Y357746D01*
X641350Y357374D01*
X643216Y357746D01*
X644798Y358802D01*
X645854Y360384D01*
X646226Y362250D01*
Y372750D01*
X645854Y374616D01*
X644798Y376198D01*
X644717Y376252D01*
Y383650D01*
X644460Y384938D01*
X643731Y386031D01*
X632381Y397381D01*
X631288Y398110D01*
X630000Y398367D01*
X621395D01*
X620466Y399295D01*
X620953Y400468D01*
X637832D01*
Y406633D01*
X641105D01*
X650683Y397056D01*
Y376252D01*
X650602Y376198D01*
X649546Y374616D01*
X649174Y372750D01*
Y362250D01*
X649546Y360384D01*
X650602Y358802D01*
X652184Y357746D01*
X654050Y357374D01*
X655916Y357746D01*
X657498Y358802D01*
X658555Y360384D01*
X658926Y362250D01*
Y372750D01*
X658555Y374616D01*
X657498Y376198D01*
X657417Y376252D01*
Y383526D01*
X658687Y384052D01*
X663383Y379356D01*
Y376252D01*
X663302Y376198D01*
X662245Y374616D01*
X661874Y372750D01*
Y362250D01*
X662245Y360384D01*
X663302Y358802D01*
X664884Y357746D01*
X666750Y357374D01*
X668616Y357746D01*
X670198Y358802D01*
X671255Y360384D01*
X671626Y362250D01*
Y372750D01*
X671255Y374616D01*
X670198Y376198D01*
X670117Y376252D01*
Y380750D01*
X669860Y382038D01*
X669131Y383131D01*
X663367Y388895D01*
Y392504D01*
X664637Y392969D01*
X666449Y392218D01*
X668551D01*
X670492Y393022D01*
X671978Y394508D01*
X672782Y396449D01*
Y398551D01*
X671978Y400492D01*
X670867Y401603D01*
Y410106D01*
X671740Y410497D01*
X672137Y410538D01*
X680999Y401676D01*
X680101Y400778D01*
X676612Y397288D01*
X675741Y395986D01*
X675436Y394450D01*
Y375350D01*
X674946Y374616D01*
X674574Y372750D01*
Y362250D01*
X674946Y360384D01*
X676002Y358802D01*
X677584Y357746D01*
X679450Y357374D01*
X681316Y357746D01*
X682898Y358802D01*
X683954Y360384D01*
X684326Y362250D01*
Y372750D01*
X683954Y374616D01*
X683464Y375350D01*
Y392787D01*
X686676Y395999D01*
X702320Y380355D01*
Y332500D01*
X702337Y332417D01*
X702323Y332333D01*
X702534Y331429D01*
X702715Y330518D01*
X702762Y330447D01*
X702781Y330365D01*
X703322Y329610D01*
X703838Y328838D01*
X703908Y328790D01*
X703958Y328721D01*
X742320Y292756D01*
Y258727D01*
X732500D01*
X699274Y291953D01*
X698182Y292682D01*
X696894Y292939D01*
X654323D01*
X606617Y340645D01*
Y358748D01*
X606698Y358802D01*
X607755Y360384D01*
X608126Y362250D01*
Y372750D01*
X607755Y374616D01*
X606698Y376198D01*
X605116Y377254D01*
X603250Y377626D01*
X601384Y377254D01*
X599802Y376198D01*
X598745Y374616D01*
X598374Y372750D01*
Y362250D01*
X598745Y360384D01*
X599802Y358802D01*
X599883Y358748D01*
Y341537D01*
X598710Y341051D01*
X593917Y345844D01*
Y358748D01*
X593998Y358802D01*
X595055Y360384D01*
X595426Y362250D01*
Y372750D01*
X595055Y374616D01*
X593998Y376198D01*
X593917Y376252D01*
Y379450D01*
X593660Y380738D01*
X592931Y381831D01*
X587782Y386979D01*
Y388551D01*
X586978Y390492D01*
X585492Y391978D01*
X583551Y392782D01*
X581449D01*
X579508Y391978D01*
X578022Y390492D01*
X577218Y388551D01*
Y386449D01*
X578022Y384508D01*
X579508Y383022D01*
X581449Y382218D01*
X583021D01*
X587183Y378055D01*
Y376252D01*
X587102Y376198D01*
X586045Y374616D01*
X585674Y372750D01*
Y362250D01*
X586045Y360384D01*
X587102Y358802D01*
X587183Y358748D01*
Y344450D01*
X587440Y343162D01*
X588169Y342069D01*
X647619Y282619D01*
X648712Y281890D01*
X650000Y281633D01*
X693605D01*
X724483Y250756D01*
X723997Y249583D01*
X702679D01*
X695517Y256744D01*
Y258748D01*
X695598Y258802D01*
X696655Y260384D01*
X697026Y262250D01*
Y272750D01*
X696655Y274616D01*
X695598Y276198D01*
X694016Y277255D01*
X692150Y277626D01*
X690284Y277255D01*
X688702Y276198D01*
X687645Y274616D01*
X687274Y272750D01*
Y262250D01*
X687645Y260384D01*
X688702Y258802D01*
X688783Y258748D01*
Y255350D01*
X689040Y254062D01*
X689769Y252969D01*
X696555Y246184D01*
X696069Y245011D01*
X694751D01*
X683367Y256395D01*
Y259504D01*
X683954Y260384D01*
X684326Y262250D01*
Y272750D01*
X683954Y274616D01*
X682898Y276198D01*
X681316Y277255D01*
X679450Y277626D01*
X677584Y277255D01*
X676002Y276198D01*
X674946Y274616D01*
X674574Y272750D01*
Y262250D01*
X674946Y260384D01*
X676002Y258802D01*
X676633Y258381D01*
Y255000D01*
X676890Y253712D01*
X677619Y252619D01*
X688627Y241612D01*
X688141Y240439D01*
X679084D01*
X670117Y249406D01*
Y258748D01*
X670198Y258802D01*
X671255Y260384D01*
X671626Y262250D01*
Y272750D01*
X671255Y274616D01*
X670198Y276198D01*
X668616Y277255D01*
X666750Y277626D01*
X664884Y277255D01*
X663302Y276198D01*
X662245Y274616D01*
X661874Y272750D01*
Y262250D01*
X662245Y260384D01*
X663302Y258802D01*
X663383Y258748D01*
Y248011D01*
X663640Y246723D01*
X664369Y245631D01*
X672960Y237040D01*
X672474Y235867D01*
X663895D01*
X663778Y235984D01*
X663395Y236239D01*
X660068Y239566D01*
X659813Y239949D01*
X657417Y242345D01*
Y258748D01*
X657498Y258802D01*
X658555Y260384D01*
X658926Y262250D01*
Y272750D01*
X658555Y274616D01*
X657498Y276198D01*
X655916Y277255D01*
X654050Y277626D01*
X652184Y277255D01*
X650602Y276198D01*
X649546Y274616D01*
X649174Y272750D01*
Y262250D01*
X649546Y260384D01*
X650602Y258802D01*
X650683Y258748D01*
Y240950D01*
X650940Y239662D01*
X651669Y238569D01*
X654796Y235443D01*
X655051Y235060D01*
X657975Y232137D01*
X657449Y230867D01*
X648895D01*
X644717Y235045D01*
Y258748D01*
X644798Y258802D01*
X645854Y260384D01*
X646226Y262250D01*
Y272750D01*
X645854Y274616D01*
X644798Y276198D01*
X643216Y277255D01*
X641350Y277626D01*
X639484Y277255D01*
X637902Y276198D01*
X636846Y274616D01*
X636474Y272750D01*
Y262250D01*
X636846Y260384D01*
X637902Y258802D01*
X637983Y258748D01*
Y233650D01*
X638240Y232362D01*
X638969Y231269D01*
X643199Y227040D01*
X642713Y225867D01*
X633895D01*
X632017Y227745D01*
Y258748D01*
X632098Y258802D01*
X633154Y260384D01*
X633526Y262250D01*
Y272750D01*
X633154Y274616D01*
X632098Y276198D01*
X630516Y277255D01*
X628650Y277626D01*
X626784Y277255D01*
X625202Y276198D01*
X624146Y274616D01*
X623774Y272750D01*
Y262250D01*
X624146Y260384D01*
X625202Y258802D01*
X625283Y258748D01*
Y228637D01*
X624110Y228151D01*
X619317Y232945D01*
Y258748D01*
X619398Y258802D01*
X620454Y260384D01*
X620826Y262250D01*
Y272750D01*
X620454Y274616D01*
X619398Y276198D01*
X617816Y277255D01*
X615950Y277626D01*
X614084Y277255D01*
X612502Y276198D01*
X611446Y274616D01*
X611074Y272750D01*
Y262250D01*
X611446Y260384D01*
X612502Y258802D01*
X612583Y258748D01*
Y233837D01*
X611410Y233351D01*
X606617Y238145D01*
Y258748D01*
X606698Y258802D01*
X607755Y260384D01*
X608126Y262250D01*
Y272750D01*
X607755Y274616D01*
X606698Y276198D01*
X605116Y277255D01*
X603250Y277626D01*
X601384Y277255D01*
X599802Y276198D01*
X598745Y274616D01*
X598374Y272750D01*
Y262250D01*
X598745Y260384D01*
X599802Y258802D01*
X599883Y258748D01*
Y236750D01*
X600140Y235462D01*
X600869Y234369D01*
X625119Y210119D01*
X626212Y209390D01*
X627500Y209133D01*
X643605D01*
X645937Y206802D01*
X645411Y205532D01*
X636468D01*
Y182968D01*
X663532D01*
Y204911D01*
X664802Y205437D01*
X669133Y201105D01*
Y133032D01*
X658968D01*
Y110468D01*
X686032D01*
Y133032D01*
X675867D01*
Y202500D01*
X675610Y203788D01*
X674881Y204881D01*
X661801Y217960D01*
X662287Y219133D01*
X678605D01*
X690937Y206802D01*
X690411Y205532D01*
X681468D01*
Y182968D01*
X708532D01*
Y205532D01*
X698367D01*
Y207500D01*
X698110Y208788D01*
X697381Y209881D01*
X684301Y222960D01*
X684787Y224133D01*
X696105D01*
X714133Y206105D01*
Y133032D01*
X703968D01*
Y110468D01*
X731032D01*
Y133032D01*
X720867D01*
Y207500D01*
X720610Y208788D01*
X719881Y209881D01*
X701801Y227960D01*
X702287Y229133D01*
X718605D01*
X736633Y211105D01*
Y205532D01*
X726468D01*
Y182968D01*
X753532D01*
Y204911D01*
X754802Y205437D01*
X759133Y201105D01*
Y133032D01*
X748968D01*
Y110468D01*
X776032D01*
Y133032D01*
X765867D01*
Y202500D01*
X765610Y203788D01*
X764881Y204881D01*
X732657Y237104D01*
X733143Y238277D01*
X751962D01*
X781633Y208605D01*
Y205532D01*
X771468D01*
Y182968D01*
X798532D01*
Y199717D01*
X799705Y200203D01*
X804133Y195775D01*
Y133032D01*
X793968D01*
Y110468D01*
X821032D01*
Y133032D01*
X810867D01*
Y160213D01*
X812040Y160699D01*
X815119Y157619D01*
X816212Y156890D01*
X817500Y156633D01*
X840000D01*
X841288Y156890D01*
X842381Y157619D01*
X847381Y162619D01*
X848110Y163712D01*
X848367Y165000D01*
Y166468D01*
X853782D01*
Y180032D01*
X836218D01*
Y166468D01*
X839911D01*
X840437Y165198D01*
X838605Y163367D01*
X818895D01*
X815439Y166822D01*
Y199063D01*
X815182Y200352D01*
X814453Y201444D01*
X775437Y240460D01*
X775923Y241633D01*
X891105D01*
X901633Y231105D01*
Y190000D01*
X901890Y188712D01*
X902619Y187619D01*
X910119Y180119D01*
X911212Y179390D01*
X912500Y179133D01*
X916218D01*
Y166468D01*
X921633D01*
Y159103D01*
X920522Y157992D01*
X919718Y156051D01*
Y153949D01*
X920522Y152008D01*
X922008Y150522D01*
X923949Y149718D01*
X926051D01*
X927992Y150522D01*
X929478Y152008D01*
X930282Y153949D01*
Y156051D01*
X929478Y157992D01*
X928367Y159103D01*
Y166468D01*
X933782D01*
Y180032D01*
X928360D01*
X928110Y181288D01*
X927381Y182381D01*
X926063Y183698D01*
X926589Y184968D01*
X933782D01*
Y197883D01*
X941218D01*
Y184968D01*
X958782D01*
Y198532D01*
X953367D01*
Y203968D01*
X958782D01*
Y217532D01*
X941218D01*
Y204617D01*
X933782D01*
Y217532D01*
X916218D01*
Y203968D01*
X921633D01*
Y198532D01*
X916218D01*
Y185867D01*
X913895D01*
X908367Y191395D01*
Y232500D01*
X908110Y233788D01*
X907381Y234881D01*
X903614Y238647D01*
X904100Y239820D01*
X997410D01*
Y2590D01*
X2590D01*
Y497410D01*
X252088D01*
X252171Y496140D01*
D02*
G37*
G36*
X997410Y245000D02*
X897261D01*
X894881Y247381D01*
X893788Y248110D01*
X892500Y248367D01*
X773996D01*
X764622Y257741D01*
X763530Y258470D01*
X762241Y258727D01*
X747500D01*
Y295000D01*
X707500Y332500D01*
Y382500D01*
X690338Y399662D01*
X691663Y400986D01*
X715986D01*
Y396032D01*
X711218D01*
Y382468D01*
X728782D01*
Y396032D01*
X724014D01*
Y403337D01*
X732838Y412162D01*
X733709Y413464D01*
X734014Y415000D01*
Y439500D01*
X734014Y439500D01*
Y458337D01*
X739163Y463486D01*
X751218D01*
Y459968D01*
X768782D01*
Y463486D01*
X853337D01*
X855986Y460837D01*
Y454532D01*
X852968D01*
Y430468D01*
X867032D01*
Y454532D01*
X864014D01*
Y462500D01*
X863709Y464036D01*
X862839Y465338D01*
X857838Y470338D01*
X856536Y471209D01*
X855000Y471514D01*
X768782D01*
Y473532D01*
X751218D01*
Y471514D01*
X737500D01*
X735964Y471209D01*
X734662Y470338D01*
X727162Y462839D01*
X726292Y461536D01*
X725986Y460000D01*
Y443514D01*
X715532D01*
Y444532D01*
X701968D01*
Y434468D01*
X715532D01*
Y435486D01*
X725986D01*
Y416663D01*
X718337Y409014D01*
X690000D01*
X688464Y408709D01*
X687162Y407838D01*
X684662Y405338D01*
X675705Y414295D01*
X676191Y415468D01*
X688032D01*
X688032Y425532D01*
X687270Y426486D01*
Y426802D01*
Y429365D01*
X681250D01*
Y430635D01*
X687270D01*
Y433514D01*
X688032Y434468D01*
X688032Y435224D01*
Y444532D01*
X674468D01*
Y444162D01*
X672500D01*
Y455908D01*
X674431Y457838D01*
X676468D01*
Y453718D01*
X690032D01*
Y471282D01*
X676468D01*
Y467161D01*
X672500D01*
Y497410D01*
X997410D01*
Y245000D01*
D02*
G37*
G36*
X539319Y422619D02*
X540412Y421890D01*
X541700Y421633D01*
X606105D01*
X611597Y416142D01*
X611482Y415103D01*
X610284Y414750D01*
X609918Y415385D01*
X608285Y417018D01*
X606285Y418172D01*
X604054Y418770D01*
X603535D01*
Y410000D01*
Y401230D01*
X604054D01*
X606285Y401828D01*
X608285Y402982D01*
X609918Y404615D01*
X610363Y405387D01*
X611633Y405047D01*
Y400000D01*
X611791Y399207D01*
X611766Y399153D01*
X610847Y398234D01*
X610793Y398209D01*
X610000Y398367D01*
X593895D01*
X586221Y406041D01*
X586382Y406321D01*
X587032Y408745D01*
Y411255D01*
X586382Y413679D01*
X585127Y415853D01*
X583353Y417627D01*
X581179Y418882D01*
X578755Y419532D01*
X576245D01*
X573821Y418882D01*
X571647Y417627D01*
X569873Y415853D01*
X568618Y413679D01*
X567968Y411255D01*
Y408745D01*
X568618Y406321D01*
X568779Y406041D01*
X561105Y398367D01*
X521624D01*
X521098Y399637D01*
X522741Y401279D01*
X523021Y401118D01*
X525445Y400468D01*
X527955D01*
X530379Y401118D01*
X532553Y402373D01*
X534328Y404147D01*
X535582Y406321D01*
X536232Y408745D01*
Y411255D01*
X535582Y413679D01*
X534328Y415853D01*
X532553Y417627D01*
X530379Y418882D01*
X527955Y419532D01*
X525445D01*
X523021Y418882D01*
X520847Y417627D01*
X519072Y415853D01*
X517818Y413679D01*
X517168Y411255D01*
Y408745D01*
X517818Y406321D01*
X517979Y406041D01*
X505119Y393181D01*
X504390Y392088D01*
X504133Y390800D01*
Y387943D01*
X502863Y387558D01*
X502381Y388281D01*
X484621Y406041D01*
X484782Y406321D01*
X485432Y408745D01*
Y411255D01*
X484782Y413679D01*
X483527Y415853D01*
X481753Y417627D01*
X479579Y418882D01*
X478717Y419113D01*
X478885Y420383D01*
X511250D01*
X512538Y420640D01*
X513631Y421369D01*
X523303Y431042D01*
X525445Y430468D01*
X527955D01*
X530379Y431118D01*
X530659Y431279D01*
X539319Y422619D01*
D02*
G37*
G36*
X667320Y467161D02*
X667715Y465179D01*
X668064Y464657D01*
X664204Y460796D01*
X663193Y459284D01*
X662839Y457500D01*
Y442548D01*
X662218Y441051D01*
Y439479D01*
X657619Y434881D01*
X656890Y433788D01*
X656633Y432500D01*
Y402424D01*
X655363Y401898D01*
X644881Y412381D01*
X643788Y413110D01*
X642500Y413367D01*
X637832D01*
Y419532D01*
X631667D01*
Y424200D01*
X631410Y425488D01*
X630681Y426581D01*
X614881Y442381D01*
X613788Y443110D01*
X612500Y443367D01*
X586466D01*
X586382Y443679D01*
X585127Y445853D01*
X583353Y447627D01*
X581179Y448882D01*
X580867Y448966D01*
Y460000D01*
X580610Y461288D01*
X579881Y462381D01*
X572381Y469881D01*
X571288Y470610D01*
X570000Y470867D01*
X568532D01*
Y476282D01*
X554968D01*
Y458718D01*
X568532D01*
Y462411D01*
X569802Y462937D01*
X574133Y458605D01*
Y448966D01*
X573821Y448882D01*
X571647Y447627D01*
X569873Y445853D01*
X568618Y443679D01*
X567968Y441255D01*
Y438745D01*
X568618Y436321D01*
X569873Y434147D01*
X571647Y432373D01*
X573821Y431118D01*
X576245Y430468D01*
X578755D01*
X581179Y431118D01*
X583353Y432373D01*
X585127Y434147D01*
X586382Y436321D01*
X586466Y436633D01*
X611105D01*
X624933Y422805D01*
Y419532D01*
X618768D01*
X618768Y419532D01*
Y419532D01*
X617542Y419639D01*
X617381Y419881D01*
X609881Y427381D01*
X608788Y428110D01*
X607500Y428367D01*
X543094D01*
X535421Y436041D01*
X535582Y436321D01*
X536232Y438745D01*
Y441255D01*
X535582Y443679D01*
X534328Y445853D01*
X532553Y447627D01*
X530379Y448882D01*
X530067Y448966D01*
Y457805D01*
X535198Y462937D01*
X536468Y462411D01*
Y458718D01*
X550032D01*
Y476282D01*
X536468D01*
Y470867D01*
X535000D01*
X533712Y470610D01*
X532619Y469881D01*
X524319Y461581D01*
X523590Y460488D01*
X523333Y459200D01*
Y448966D01*
X523021Y448882D01*
X520847Y447627D01*
X519072Y445853D01*
X517818Y443679D01*
X517168Y441255D01*
Y438745D01*
X517818Y436321D01*
X518272Y435533D01*
X509855Y427117D01*
X471250D01*
X471155Y427098D01*
X470530Y428268D01*
X473134Y430873D01*
X474645Y430468D01*
X477155D01*
X479579Y431118D01*
X481753Y432373D01*
X483527Y434147D01*
X484782Y436321D01*
X485432Y438745D01*
Y441255D01*
X484782Y443679D01*
X483527Y445853D01*
X481753Y447627D01*
X479579Y448882D01*
X479267Y448966D01*
Y459100D01*
X479010Y460388D01*
X478281Y461481D01*
X469881Y469881D01*
X468788Y470610D01*
X467500Y470867D01*
X466032D01*
Y476282D01*
X452468D01*
Y458718D01*
X466032D01*
Y462411D01*
X467302Y462937D01*
X472533Y457705D01*
Y448966D01*
X472221Y448882D01*
X470047Y447627D01*
X468273Y445853D01*
X467018Y443679D01*
X466368Y441255D01*
Y438745D01*
X467018Y436321D01*
X467765Y435026D01*
X461105Y428367D01*
X445000D01*
X443712Y428110D01*
X442619Y427381D01*
X435119Y419881D01*
X434390Y418788D01*
X434133Y417500D01*
Y415958D01*
X432863Y415617D01*
X432728Y415853D01*
X430953Y417627D01*
X428779Y418882D01*
X428467Y418966D01*
Y430468D01*
X434632D01*
Y449532D01*
X428467D01*
Y458705D01*
X432573Y462811D01*
X433968D01*
Y458718D01*
X447532D01*
Y476282D01*
X433968D01*
Y469545D01*
X431178D01*
X429890Y469288D01*
X428797Y468559D01*
X422719Y462481D01*
X421990Y461388D01*
X421733Y460100D01*
Y449532D01*
X415568D01*
Y430468D01*
X421733D01*
Y418966D01*
X421421Y418882D01*
X419247Y417627D01*
X417472Y415853D01*
X416218Y413679D01*
X415568Y411255D01*
Y408745D01*
X416218Y406321D01*
X417472Y404147D01*
X419247Y402373D01*
X421421Y401118D01*
X421733Y401034D01*
Y388267D01*
X414900D01*
X413612Y388010D01*
X412519Y387281D01*
X407619Y382381D01*
X406890Y381288D01*
X406633Y380000D01*
Y356395D01*
X404802Y354563D01*
X403532Y355089D01*
Y358782D01*
X389968D01*
Y341218D01*
X403532D01*
Y346633D01*
X405000D01*
X406288Y346890D01*
X407381Y347619D01*
X412381Y352619D01*
X413110Y353712D01*
X413367Y355000D01*
Y378605D01*
X416295Y381533D01*
X423705D01*
X426883Y378355D01*
Y376639D01*
X426546Y376134D01*
X426241Y374600D01*
Y364400D01*
X426546Y362866D01*
X427415Y361565D01*
X428716Y360696D01*
X429069Y360626D01*
X429487Y359248D01*
X416863Y346624D01*
X415845D01*
X415492Y346978D01*
X413551Y347782D01*
X411449D01*
X409508Y346978D01*
X408022Y345492D01*
X407218Y343551D01*
Y341449D01*
X408022Y339508D01*
X409508Y338022D01*
X411449Y337218D01*
X413161D01*
X413783Y336044D01*
X388119Y310381D01*
X387887Y310032D01*
X371218D01*
Y296468D01*
X376633D01*
Y293554D01*
X372119Y289041D01*
X371390Y287948D01*
X371133Y286660D01*
X369867Y286668D01*
Y318500D01*
X369610Y319788D01*
X368881Y320881D01*
X337216Y352545D01*
X337703Y353718D01*
X347782D01*
Y363282D01*
X335718D01*
Y363282D01*
X334448Y362813D01*
X325867Y371395D01*
Y372957D01*
X327137Y373342D01*
X327619Y372619D01*
X330547Y369692D01*
X331640Y368962D01*
X332928Y368705D01*
X335718D01*
Y366718D01*
X347782D01*
Y376282D01*
X335718D01*
Y375439D01*
X334322D01*
X333367Y376395D01*
Y387500D01*
X333110Y388788D01*
X332381Y389881D01*
X327782Y394479D01*
Y396051D01*
X326978Y397992D01*
X325492Y399478D01*
X323551Y400282D01*
X321796D01*
X320537Y401541D01*
Y405725D01*
X321711Y406211D01*
X342711Y385211D01*
X343761Y384509D01*
X345000Y384263D01*
X366468D01*
Y378718D01*
X380032D01*
Y396282D01*
X366468D01*
Y390737D01*
X346341D01*
X336528Y400550D01*
X336569Y400772D01*
X338031Y401695D01*
X338877Y401468D01*
X341123D01*
X343293Y402049D01*
X345083Y403083D01*
X352968D01*
Y402968D01*
X367532Y402968D01*
X368486Y403730D01*
X368802Y403730D01*
X374115D01*
Y410000D01*
Y416270D01*
X368486Y416270D01*
X367532Y417032D01*
X367276Y417032D01*
X352968D01*
Y416917D01*
X345083D01*
X343293Y417951D01*
X341123Y418532D01*
X338877D01*
X338462Y418851D01*
Y422796D01*
X338607Y423007D01*
X339732Y423731D01*
X339925Y423693D01*
X341165D01*
Y431500D01*
X341800D01*
Y432135D01*
X345607D01*
Y436410D01*
X356000D01*
X356991Y436608D01*
X357831Y437169D01*
X358354Y437951D01*
X358687Y438015D01*
X359693Y438036D01*
X360086Y437086D01*
X361172Y435672D01*
X362586Y434586D01*
X364233Y433904D01*
X365365Y433755D01*
Y444000D01*
Y454245D01*
X364233Y454096D01*
X362586Y453414D01*
X361172Y452328D01*
X360086Y450914D01*
X359860Y450367D01*
X358590Y450619D01*
Y475381D01*
X359860Y475633D01*
X360086Y475086D01*
X361172Y473672D01*
X362586Y472586D01*
X364233Y471904D01*
X365365Y471755D01*
Y484000D01*
X366000D01*
Y484635D01*
X372828D01*
Y489500D01*
X372596Y491267D01*
X371914Y492914D01*
X370828Y494328D01*
X369414Y495414D01*
X367767Y496096D01*
X367429Y496140D01*
X367512Y497410D01*
X667320D01*
Y467161D01*
D02*
G37*
G36*
X451135Y401230D02*
X451655D01*
X453885Y401828D01*
X455885Y402982D01*
X457518Y404615D01*
X457863Y405214D01*
X459133Y404873D01*
Y385000D01*
X459152Y384905D01*
X457982Y384280D01*
X440867Y401395D01*
Y407160D01*
X442137Y407328D01*
X442328Y406615D01*
X443482Y404615D01*
X445115Y402982D01*
X447115Y401828D01*
X449345Y401230D01*
X449865D01*
Y410000D01*
X451135D01*
Y401230D01*
D02*
G37*
G36*
X466633Y366105D02*
Y291603D01*
X465897Y290867D01*
X447496D01*
X447031Y292137D01*
X447782Y293949D01*
Y296051D01*
X446978Y297992D01*
X446376Y298594D01*
Y302171D01*
X447459Y302908D01*
X447820Y302877D01*
X448513Y302414D01*
X449115Y302294D01*
Y310500D01*
Y318706D01*
X448513Y318586D01*
X447820Y318123D01*
X446515Y318174D01*
X446194Y318271D01*
X446085Y318435D01*
X444784Y319304D01*
X443250Y319609D01*
X441716Y319304D01*
X440415Y318435D01*
X439585D01*
X438284Y319304D01*
X436750Y319609D01*
X435216Y319304D01*
X434646Y318923D01*
X433376Y319602D01*
Y319991D01*
X433119Y321279D01*
X432390Y322372D01*
X429881Y324881D01*
X428788Y325610D01*
X427500Y325867D01*
X422287D01*
X421801Y327040D01*
X452131Y357369D01*
X452860Y358462D01*
X453117Y359750D01*
Y362361D01*
X453454Y362866D01*
X453759Y364400D01*
Y374600D01*
X453454Y376134D01*
X452585Y377435D01*
X451284Y378304D01*
X449750Y378609D01*
X448216Y378304D01*
X447646Y377923D01*
X446376Y378602D01*
Y381406D01*
X446978Y382008D01*
X447551Y383392D01*
X448955Y383783D01*
X466633Y366105D01*
D02*
G37*
G36*
X383135Y265544D02*
X384187D01*
X384902Y265686D01*
X385266Y265929D01*
X386392Y265856D01*
X386805Y265746D01*
X386942Y265542D01*
X387800Y264968D01*
X388812Y264767D01*
X392188D01*
X393200Y264968D01*
X393613Y265245D01*
X394500Y265443D01*
X395387Y265245D01*
X395800Y264968D01*
X396813Y264767D01*
X400187D01*
X401200Y264968D01*
X402058Y265542D01*
X402942D01*
X403442Y265208D01*
X403740Y264018D01*
X403720Y263690D01*
X403022Y262992D01*
X402218Y261051D01*
Y258949D01*
X403022Y257008D01*
X404508Y255522D01*
X406449Y254718D01*
X406990D01*
X407535Y254020D01*
X406981Y252782D01*
X406449D01*
X404508Y251978D01*
X403022Y250492D01*
X402218Y248551D01*
Y246449D01*
X403022Y244508D01*
X404508Y243022D01*
X406449Y242218D01*
X407317D01*
X408773Y240761D01*
Y240360D01*
X409030Y239071D01*
X409760Y237979D01*
X416619Y231119D01*
X417712Y230390D01*
X419000Y230133D01*
X418992Y228867D01*
X413395D01*
X392381Y249881D01*
X391288Y250610D01*
X390000Y250867D01*
X386603D01*
X385492Y251978D01*
X383551Y252782D01*
X381449D01*
X379508Y251978D01*
X378397Y250867D01*
X363895D01*
X353867Y260895D01*
Y264865D01*
X354385Y265191D01*
X355137Y265412D01*
X355800Y264968D01*
X356813Y264767D01*
X360187D01*
X361200Y264968D01*
X362058Y265542D01*
X362942D01*
X363800Y264968D01*
X364813Y264767D01*
X368187D01*
X369200Y264968D01*
X369613Y265245D01*
X370500Y265443D01*
X371387Y265245D01*
X371800Y264968D01*
X372812Y264767D01*
X376187D01*
X377200Y264968D01*
X378058Y265542D01*
X378195Y265746D01*
X378608Y265856D01*
X379734Y265929D01*
X380098Y265686D01*
X380812Y265544D01*
X381865D01*
Y274200D01*
X383135D01*
Y265544D01*
D02*
G37*
G36*
X467008Y283022D02*
X468949Y282218D01*
X471051D01*
X472863Y282969D01*
X474133Y282504D01*
Y280447D01*
X456346Y262659D01*
X456051Y262782D01*
X453949D01*
X452008Y261978D01*
X450897Y260867D01*
X447986D01*
X447858Y261058D01*
X447000Y261631D01*
X445987Y261833D01*
X432412D01*
X431400Y261631D01*
X430542Y261058D01*
X429968Y260200D01*
X429767Y259188D01*
Y255812D01*
X429968Y254800D01*
X430542Y253942D01*
Y253058D01*
X429968Y252200D01*
X429767Y251187D01*
Y247812D01*
X429968Y246800D01*
X430412Y246137D01*
X430191Y245385D01*
X429865Y244867D01*
X424894D01*
X415507Y254254D01*
Y254656D01*
X415251Y255944D01*
X414521Y257036D01*
X412731Y258826D01*
X412782Y258949D01*
Y261051D01*
X411978Y262992D01*
X410982Y263988D01*
X411792Y264974D01*
X411800Y264968D01*
X412812Y264767D01*
X416188D01*
X417200Y264968D01*
X417613Y265245D01*
X418500Y265443D01*
X419387Y265245D01*
X419800Y264968D01*
X420812Y264767D01*
X424187D01*
X425200Y264968D01*
X426058Y265542D01*
X426631Y266400D01*
X426833Y267412D01*
Y280987D01*
X426653Y281892D01*
X428895Y284133D01*
X465897D01*
X467008Y283022D01*
D02*
G37*
G36*
X468273Y404147D02*
X470047Y402373D01*
X472221Y401118D01*
X474645Y400468D01*
X477155D01*
X479579Y401118D01*
X479859Y401279D01*
X496633Y384505D01*
Y219103D01*
X495522Y217992D01*
X494718Y216051D01*
Y214479D01*
X493105Y212867D01*
X447986D01*
X447858Y213058D01*
X447654Y213195D01*
X447544Y213608D01*
X447471Y214734D01*
X447714Y215098D01*
X447856Y215812D01*
Y216865D01*
X430544D01*
Y215812D01*
X430686Y215098D01*
X430929Y214734D01*
X430856Y213608D01*
X430746Y213195D01*
X430542Y213058D01*
X429968Y212200D01*
X429767Y211187D01*
Y207812D01*
X429968Y206800D01*
X430542Y205942D01*
Y205058D01*
X429968Y204200D01*
X429767Y203188D01*
Y199813D01*
X429968Y198800D01*
X430542Y197942D01*
Y197058D01*
X429968Y196200D01*
X429767Y195187D01*
Y191812D01*
X429968Y190800D01*
X430542Y189942D01*
Y189058D01*
X429968Y188200D01*
X429767Y187188D01*
Y183813D01*
X429968Y182800D01*
X430245Y182387D01*
X430443Y181500D01*
X430245Y180613D01*
X429968Y180200D01*
X429767Y179188D01*
Y175812D01*
X429968Y174800D01*
X430542Y173942D01*
X431400Y173369D01*
X432412Y173167D01*
X445987D01*
X447000Y173369D01*
X447858Y173942D01*
X447986Y174133D01*
X457504D01*
X457969Y172863D01*
X457218Y171051D01*
Y168949D01*
X457811Y167518D01*
X457175Y166271D01*
X456318Y166152D01*
X455492Y166978D01*
X453551Y167782D01*
X451449D01*
X449508Y166978D01*
X448022Y165492D01*
X447218Y163551D01*
Y161449D01*
X448022Y159508D01*
X449508Y158022D01*
X451449Y157218D01*
X453551D01*
X455492Y158022D01*
X456603Y159133D01*
X513605D01*
X519381Y153357D01*
X519382Y153357D01*
X519883Y152855D01*
Y149174D01*
X518613Y148648D01*
X512381Y154881D01*
X511288Y155610D01*
X510000Y155867D01*
X457500D01*
X457500Y155867D01*
X456212Y155610D01*
X455119Y154881D01*
X431105Y130867D01*
X427496D01*
X427031Y132137D01*
X427782Y133949D01*
Y136051D01*
X426978Y137992D01*
X425867Y139103D01*
Y152014D01*
X426058Y152142D01*
X426631Y153000D01*
X426833Y154012D01*
Y167588D01*
X426631Y168600D01*
X426058Y169458D01*
X425200Y170032D01*
X424187Y170233D01*
X420812D01*
X419800Y170032D01*
X419387Y169755D01*
X418500Y169557D01*
X417613Y169755D01*
X417200Y170032D01*
X416188Y170233D01*
X412812D01*
X411800Y170032D01*
X410942Y169458D01*
X410058D01*
X409200Y170032D01*
X408187Y170233D01*
X404813D01*
X403800Y170032D01*
X402942Y169458D01*
X402058D01*
X401200Y170032D01*
X400187Y170233D01*
X396813D01*
X395800Y170032D01*
X394942Y169458D01*
X394805Y169254D01*
X394392Y169144D01*
X393266Y169071D01*
X392902Y169314D01*
X392188Y169456D01*
X391135D01*
Y160800D01*
Y152144D01*
X392188D01*
X392902Y152286D01*
X393266Y152529D01*
X394392Y152456D01*
X394805Y152346D01*
X394942Y152142D01*
X395133Y152014D01*
Y134000D01*
X395390Y132712D01*
X396119Y131619D01*
X402619Y125119D01*
X403712Y124390D01*
X405000Y124133D01*
X432500D01*
X433788Y124390D01*
X434881Y125119D01*
X442960Y133199D01*
X444133Y132713D01*
Y121395D01*
X435521Y112782D01*
X433949D01*
X432008Y111978D01*
X430897Y110867D01*
X391395D01*
X385867Y116395D01*
Y152014D01*
X386058Y152142D01*
X386194Y152346D01*
X386608Y152456D01*
X387734Y152529D01*
X388097Y152286D01*
X388812Y152144D01*
X389865D01*
Y160800D01*
Y169456D01*
X388812D01*
X388097Y169314D01*
X387734Y169071D01*
X386608Y169144D01*
X386194Y169254D01*
X386058Y169458D01*
X385867Y169586D01*
Y202500D01*
Y217500D01*
X385867Y217500D01*
Y243397D01*
X386603Y244133D01*
X388605D01*
X409619Y223119D01*
X410712Y222390D01*
X412000Y222133D01*
X430414D01*
X430542Y221942D01*
X430746Y221805D01*
X430856Y221392D01*
X430929Y220266D01*
X430686Y219902D01*
X430544Y219188D01*
Y218135D01*
X447856D01*
Y219188D01*
X447714Y219902D01*
X447471Y220266D01*
X447544Y221392D01*
X447654Y221805D01*
X447858Y221942D01*
X447986Y222133D01*
X449777D01*
X451066Y222390D01*
X452158Y223119D01*
X460198Y231159D01*
X461468Y230633D01*
Y226218D01*
X475032D01*
Y243782D01*
X461468D01*
Y238367D01*
X459277D01*
X457989Y238110D01*
X456897Y237381D01*
X449239Y229723D01*
X448252Y230532D01*
X448431Y230800D01*
X448633Y231812D01*
Y235187D01*
X448431Y236200D01*
X447858Y237058D01*
Y237942D01*
X448431Y238800D01*
X448633Y239813D01*
Y243188D01*
X448431Y244200D01*
X447988Y244863D01*
X448209Y245615D01*
X448535Y246133D01*
X459500D01*
X460788Y246390D01*
X461881Y247119D01*
X471979Y257218D01*
X473551D01*
X475492Y258022D01*
X476978Y259508D01*
X477782Y261449D01*
Y263551D01*
X476978Y265492D01*
X475492Y266978D01*
X473551Y267782D01*
X472787D01*
X472261Y269052D01*
X479881Y276671D01*
X480610Y277764D01*
X480867Y279052D01*
Y370000D01*
X480610Y371288D01*
X479881Y372381D01*
X465867Y386395D01*
Y405893D01*
X466398Y406091D01*
X467137Y406115D01*
X468273Y404147D01*
D02*
G37*
%LPC*%
G36*
X252965Y483365D02*
X246772D01*
Y478500D01*
X247004Y476733D01*
X247686Y475086D01*
X248772Y473672D01*
X250186Y472586D01*
X251833Y471904D01*
X252965Y471755D01*
Y483365D01*
D02*
G37*
G36*
X105270Y473020D02*
X99885D01*
Y465635D01*
X105270D01*
Y473020D01*
D02*
G37*
G36*
X98615D02*
X93230D01*
Y465635D01*
X98615D01*
Y473020D01*
D02*
G37*
G36*
X148020Y464520D02*
X140635D01*
Y459135D01*
X148020D01*
Y464520D01*
D02*
G37*
G36*
X139365D02*
X131980D01*
Y459135D01*
X139365D01*
Y464520D01*
D02*
G37*
G36*
X105270Y464365D02*
X99885D01*
Y456980D01*
X105270D01*
Y464365D01*
D02*
G37*
G36*
X98615D02*
X93230D01*
Y456980D01*
X98615D01*
Y464365D01*
D02*
G37*
G36*
X61655Y474532D02*
X59145D01*
X56721Y473882D01*
X54547Y472627D01*
X52772Y470853D01*
X51518Y468679D01*
X50868Y466255D01*
Y463745D01*
X51518Y461321D01*
X52772Y459147D01*
X54547Y457373D01*
X56721Y456118D01*
X59145Y455468D01*
X61655D01*
X64079Y456118D01*
X66253Y457373D01*
X68028Y459147D01*
X69282Y461321D01*
X69366Y461633D01*
X73968D01*
Y456218D01*
X87532D01*
Y473782D01*
X73968D01*
Y468367D01*
X69366D01*
X69282Y468679D01*
X68028Y470853D01*
X66253Y472627D01*
X64079Y473882D01*
X61655Y474532D01*
D02*
G37*
G36*
X148020Y457865D02*
X140635D01*
Y452480D01*
X148020D01*
Y457865D01*
D02*
G37*
G36*
X139365D02*
X131980D01*
Y452480D01*
X139365D01*
Y457865D01*
D02*
G37*
G36*
X213032Y473532D02*
X190468D01*
Y446468D01*
X213032D01*
Y461633D01*
X223605D01*
X225437Y459802D01*
X224911Y458532D01*
X221218D01*
Y444968D01*
X238782D01*
Y458532D01*
X233367D01*
Y460000D01*
X233367Y460000D01*
X233110Y461288D01*
X232381Y462381D01*
X227381Y467381D01*
X226288Y468110D01*
X225000Y468367D01*
X213032D01*
Y473532D01*
D02*
G37*
G36*
X252965Y454245D02*
X251833Y454096D01*
X250186Y453414D01*
X248772Y452328D01*
X247686Y450914D01*
X247004Y449267D01*
X246772Y447500D01*
Y444635D01*
X252965D01*
Y454245D01*
D02*
G37*
G36*
X238020Y439270D02*
X230635D01*
Y433885D01*
X238020D01*
Y439270D01*
D02*
G37*
G36*
X229365D02*
X221980D01*
Y433885D01*
X229365D01*
Y439270D01*
D02*
G37*
G36*
X252965Y443365D02*
X246772D01*
Y440500D01*
X247004Y438733D01*
X247686Y437086D01*
X248772Y435672D01*
X250186Y434586D01*
X251833Y433904D01*
X252965Y433755D01*
Y443365D01*
D02*
G37*
G36*
X108865Y432544D02*
X103725D01*
X102752Y432350D01*
X101926Y431799D01*
X101375Y430974D01*
X101307Y430635D01*
X108865D01*
Y432544D01*
D02*
G37*
G36*
X183270Y435520D02*
X177885D01*
Y428135D01*
X183270D01*
Y435520D01*
D02*
G37*
G36*
X176615D02*
X171230D01*
Y428135D01*
X176615D01*
Y435520D01*
D02*
G37*
G36*
X238020Y432615D02*
X230635D01*
Y427230D01*
X238020D01*
Y432615D01*
D02*
G37*
G36*
X229365D02*
X221980D01*
Y427230D01*
X229365D01*
Y432615D01*
D02*
G37*
G36*
X277165Y430865D02*
X273993D01*
Y425625D01*
X274140Y424886D01*
X274559Y424259D01*
X275186Y423840D01*
X275925Y423693D01*
X277165D01*
Y430865D01*
D02*
G37*
G36*
X183270Y426865D02*
X177885D01*
Y419480D01*
X183270D01*
Y426865D01*
D02*
G37*
G36*
X176615D02*
X171230D01*
Y419480D01*
X176615D01*
Y426865D01*
D02*
G37*
G36*
X184532Y473532D02*
X161968D01*
Y462545D01*
X161678D01*
X160389Y462288D01*
X159297Y461558D01*
X156369Y458631D01*
X155640Y457538D01*
X155383Y456250D01*
Y436282D01*
X151968D01*
Y418718D01*
X155383D01*
Y417173D01*
X145000D01*
X144552Y417114D01*
X144492Y417126D01*
X144337Y417095D01*
X144179Y417103D01*
X140076Y416475D01*
X139503Y417608D01*
X142198Y420303D01*
X142871Y421311D01*
X143108Y422500D01*
Y433218D01*
X148782D01*
Y446782D01*
X131218D01*
Y444836D01*
X130045Y444350D01*
X125282Y449113D01*
Y451051D01*
X124478Y452992D01*
X122992Y454478D01*
X121051Y455282D01*
X118949D01*
X117008Y454478D01*
X115522Y452992D01*
X114718Y451051D01*
Y448949D01*
X115409Y447280D01*
X115025Y446322D01*
X114767Y445967D01*
X114090Y445880D01*
X112992Y446978D01*
X111051Y447782D01*
X108949D01*
X107008Y446978D01*
X105522Y445492D01*
X104718Y443551D01*
Y441449D01*
X105522Y439508D01*
X107008Y438022D01*
X108949Y437218D01*
X111051D01*
X112992Y438022D01*
X114362Y439392D01*
X118713D01*
X121892Y436213D01*
Y431287D01*
X119488Y428884D01*
X119302Y428807D01*
X118787Y428900D01*
X117819Y430000D01*
X117625Y430974D01*
X117074Y431799D01*
X116249Y432350D01*
X115275Y432544D01*
X110135D01*
Y430000D01*
X109500D01*
Y429365D01*
X101307D01*
X101375Y429026D01*
X101445Y428921D01*
X101377Y427348D01*
X100657Y426271D01*
X100404Y425000D01*
X100657Y423729D01*
X101377Y422652D01*
Y422348D01*
X100657Y421271D01*
X100404Y420000D01*
X100657Y418729D01*
X100812Y418498D01*
X101302Y417500D01*
X100812Y416502D01*
X100657Y416271D01*
X100404Y415000D01*
X100657Y413729D01*
X101377Y412652D01*
Y412348D01*
X100657Y411271D01*
X100404Y410000D01*
X100657Y408729D01*
X101377Y407652D01*
X102454Y406932D01*
X103725Y406679D01*
X109269D01*
X109500Y406633D01*
X119766D01*
X140689Y403432D01*
X140592Y402162D01*
X140000D01*
X138216Y401807D01*
X136704Y400796D01*
X126704Y390796D01*
X125693Y389284D01*
X125338Y387500D01*
Y386968D01*
X124951Y386891D01*
X124147Y386353D01*
X123609Y385549D01*
X123420Y384600D01*
Y377400D01*
X123609Y376451D01*
X124147Y375647D01*
X124951Y375109D01*
X125900Y374920D01*
X134100D01*
X135049Y375109D01*
X135853Y375647D01*
X136391Y376451D01*
X136580Y377400D01*
Y384600D01*
X136391Y385549D01*
X135853Y386353D01*
X135817Y386724D01*
X141931Y392838D01*
X150069D01*
X153704Y389204D01*
X155216Y388193D01*
X157000Y387838D01*
X165532D01*
X165609Y387451D01*
X166147Y386647D01*
X166951Y386109D01*
X167900Y385920D01*
X175100D01*
X176049Y386109D01*
X176853Y386647D01*
X177391Y387451D01*
X177580Y388400D01*
Y396600D01*
X177391Y397549D01*
X176853Y398353D01*
X176049Y398891D01*
X175100Y399080D01*
X167900D01*
X166951Y398891D01*
X166147Y398353D01*
X165609Y397549D01*
X165532Y397162D01*
X158931D01*
X156662Y399431D01*
Y402827D01*
X158750D01*
X158750Y402827D01*
X195361D01*
X196707Y402049D01*
X198877Y401468D01*
X201123D01*
X203293Y402049D01*
X204639Y402827D01*
X213218D01*
Y398718D01*
X230782D01*
Y421282D01*
X213218D01*
Y417173D01*
X204639D01*
X203293Y417951D01*
X201123Y418532D01*
X198877D01*
X196707Y417951D01*
X195361Y417173D01*
X162117D01*
Y418718D01*
X165532D01*
Y436282D01*
X162117D01*
Y446468D01*
X184532D01*
Y473532D01*
D02*
G37*
G36*
X44532Y474532D02*
X25468D01*
Y455468D01*
X31892D01*
Y427500D01*
X32129Y426311D01*
X32803Y425303D01*
X40975Y417130D01*
X40489Y415956D01*
X35000D01*
X32720Y415503D01*
X30788Y414212D01*
X24538Y407962D01*
X18288Y401712D01*
X16997Y399780D01*
X16544Y397500D01*
Y388750D01*
Y380000D01*
X16997Y377721D01*
X18288Y375788D01*
X21242Y372834D01*
X16704Y368296D01*
X15693Y366784D01*
X15338Y365000D01*
Y337500D01*
X15693Y335716D01*
X16704Y334204D01*
X24204Y326704D01*
X25716Y325693D01*
X27500Y325338D01*
X33468D01*
Y318718D01*
X51032D01*
Y341282D01*
X33468D01*
Y334662D01*
X29431D01*
X24662Y339431D01*
Y363069D01*
X27834Y366242D01*
X30788Y363288D01*
X32721Y361997D01*
X35000Y361544D01*
X35000Y361544D01*
X67568D01*
Y357968D01*
X86632D01*
Y377032D01*
X67568D01*
Y373456D01*
X37467D01*
X32962Y377962D01*
X28456Y382467D01*
Y395033D01*
X30581Y397158D01*
X37619Y390119D01*
X38712Y389390D01*
X40000Y389133D01*
X43968D01*
Y383718D01*
X57532D01*
Y401282D01*
X43968D01*
Y395867D01*
X41395D01*
X35343Y401919D01*
X37467Y404044D01*
X42500D01*
X43089Y404161D01*
X43161Y404156D01*
X61291Y406633D01*
X65500D01*
X65731Y406679D01*
X71275D01*
X72546Y406932D01*
X73623Y407652D01*
X74343Y408729D01*
X74596Y410000D01*
X74343Y411271D01*
X73623Y412348D01*
Y412652D01*
X74343Y413729D01*
X74596Y415000D01*
X74343Y416271D01*
X74188Y416502D01*
X73698Y417500D01*
X74188Y418498D01*
X74343Y418729D01*
X74596Y420000D01*
X74343Y421271D01*
X73623Y422348D01*
X73555Y423921D01*
X73625Y424026D01*
X73693Y424365D01*
X65500D01*
Y425635D01*
X73693D01*
X73625Y425974D01*
X73555Y426079D01*
X73623Y427652D01*
X74343Y428729D01*
X74596Y430000D01*
X74343Y431271D01*
X73623Y432348D01*
X72546Y433068D01*
X71275Y433321D01*
X59725D01*
X58654Y433108D01*
X53787D01*
X47782Y439113D01*
Y441051D01*
X46978Y442992D01*
X45492Y444478D01*
X43551Y445282D01*
X41449D01*
X39508Y444478D01*
X39281Y444251D01*
X38108Y444737D01*
Y455468D01*
X44532D01*
Y474532D01*
D02*
G37*
G36*
X75270Y400520D02*
X69885D01*
Y393135D01*
X75270D01*
Y400520D01*
D02*
G37*
G36*
X68615D02*
X63230D01*
Y393135D01*
X68615D01*
Y400520D01*
D02*
G37*
G36*
X75270Y391865D02*
X69885D01*
Y384480D01*
X75270D01*
Y391865D01*
D02*
G37*
G36*
X68615D02*
X63230D01*
Y384480D01*
X68615D01*
Y391865D01*
D02*
G37*
G36*
X692785Y376722D02*
Y368135D01*
X696249D01*
Y372750D01*
X695937Y374319D01*
X695048Y375648D01*
X693718Y376537D01*
X692785Y376722D01*
D02*
G37*
G36*
X691515D02*
X690582Y376537D01*
X689252Y375648D01*
X688363Y374319D01*
X688051Y372750D01*
Y368135D01*
X691515D01*
Y376722D01*
D02*
G37*
G36*
X578485D02*
Y368135D01*
X581949D01*
Y372750D01*
X581637Y374319D01*
X580748Y375648D01*
X579418Y376537D01*
X578485Y376722D01*
D02*
G37*
G36*
X577215D02*
X576282Y376537D01*
X574952Y375648D01*
X574063Y374319D01*
X573751Y372750D01*
Y368135D01*
X577215D01*
Y376722D01*
D02*
G37*
G36*
X103655Y376270D02*
X103135D01*
Y368135D01*
X111270D01*
Y368655D01*
X110672Y370885D01*
X109518Y372885D01*
X107885Y374518D01*
X105885Y375672D01*
X103655Y376270D01*
D02*
G37*
G36*
X101865D02*
X101345D01*
X99115Y375672D01*
X97115Y374518D01*
X95482Y372885D01*
X94328Y370885D01*
X93730Y368655D01*
Y368135D01*
X101865D01*
Y376270D01*
D02*
G37*
G36*
X560520Y372770D02*
X553135D01*
Y367385D01*
X560520D01*
Y372770D01*
D02*
G37*
G36*
X551865D02*
X544480D01*
Y367385D01*
X551865D01*
Y372770D01*
D02*
G37*
G36*
X560520Y366115D02*
X553135D01*
Y360730D01*
X560520D01*
Y366115D01*
D02*
G37*
G36*
X551865D02*
X544480D01*
Y360730D01*
X551865D01*
Y366115D01*
D02*
G37*
G36*
X111270Y366865D02*
X103135D01*
Y358730D01*
X103655D01*
X105885Y359328D01*
X107885Y360482D01*
X109518Y362115D01*
X110672Y364115D01*
X111270Y366345D01*
Y366865D01*
D02*
G37*
G36*
X101865D02*
X93730D01*
Y366345D01*
X94328Y364115D01*
X95482Y362115D01*
X97115Y360482D01*
X99115Y359328D01*
X101345Y358730D01*
X101865D01*
Y366865D01*
D02*
G37*
G36*
X696249D02*
X692785D01*
Y358278D01*
X693718Y358463D01*
X695048Y359352D01*
X695937Y360681D01*
X696249Y362250D01*
Y366865D01*
D02*
G37*
G36*
X691515D02*
X688051D01*
Y362250D01*
X688363Y360681D01*
X689252Y359352D01*
X690582Y358463D01*
X691515Y358278D01*
Y366865D01*
D02*
G37*
G36*
X581949D02*
X578485D01*
Y358278D01*
X579418Y358463D01*
X580748Y359352D01*
X581637Y360681D01*
X581949Y362250D01*
Y366865D01*
D02*
G37*
G36*
X577215D02*
X573751D01*
Y362250D01*
X574063Y360681D01*
X574952Y359352D01*
X576282Y358463D01*
X577215Y358278D01*
Y366865D01*
D02*
G37*
G36*
X198100Y399080D02*
X190900D01*
X189951Y398891D01*
X189147Y398353D01*
X188609Y397549D01*
X188420Y396600D01*
Y388400D01*
X188609Y387451D01*
X189147Y386647D01*
X189951Y386109D01*
X190900Y385920D01*
X198100D01*
X199049Y386109D01*
X199853Y386647D01*
X200391Y387451D01*
X200580Y388400D01*
Y389133D01*
X208605D01*
X211633Y386105D01*
Y380867D01*
X162500D01*
X161212Y380610D01*
X160119Y379881D01*
X155119Y374881D01*
X154390Y373788D01*
X154133Y372500D01*
Y370532D01*
X143968D01*
Y347968D01*
X171032D01*
Y370532D01*
X162089D01*
X161563Y371802D01*
X163895Y374133D01*
X199133D01*
Y370532D01*
X188968D01*
Y347968D01*
X216032D01*
Y370532D01*
X205867D01*
Y374133D01*
X241105D01*
X243437Y371802D01*
X242911Y370532D01*
X233968D01*
Y347968D01*
X261032D01*
Y370532D01*
X250867D01*
Y372500D01*
X250867Y372500D01*
X250610Y373788D01*
X249881Y374881D01*
X244881Y379881D01*
X243788Y380610D01*
X242500Y380867D01*
X218367D01*
Y387500D01*
X218367Y387500D01*
X218110Y388788D01*
X217381Y389881D01*
X212381Y394881D01*
X211288Y395610D01*
X210000Y395867D01*
X200580D01*
Y396600D01*
X200391Y397549D01*
X199853Y398353D01*
X199049Y398891D01*
X198100Y399080D01*
D02*
G37*
G36*
X315270Y353020D02*
X309885D01*
Y345635D01*
X315270D01*
Y353020D01*
D02*
G37*
G36*
X308615D02*
X303230D01*
Y345635D01*
X308615D01*
Y353020D01*
D02*
G37*
G36*
X315270Y344365D02*
X309885D01*
Y336980D01*
X315270D01*
Y344365D01*
D02*
G37*
G36*
X308615D02*
X303230D01*
Y336980D01*
X308615D01*
Y344365D01*
D02*
G37*
G36*
X134100Y364080D02*
X125900D01*
X124951Y363891D01*
X124147Y363353D01*
X123609Y362549D01*
X123420Y361600D01*
Y354400D01*
X123609Y353451D01*
X124147Y352647D01*
X124951Y352109D01*
X125338Y352032D01*
Y334662D01*
X120468D01*
X120391Y335049D01*
X119853Y335853D01*
X119049Y336391D01*
X118100Y336580D01*
X110900D01*
X109951Y336391D01*
X109147Y335853D01*
X108609Y335049D01*
X108420Y334100D01*
Y325900D01*
X108609Y324951D01*
X109147Y324147D01*
X109951Y323609D01*
X110900Y323420D01*
X118100D01*
X119049Y323609D01*
X119853Y324147D01*
X120391Y324951D01*
X120468Y325338D01*
X125338D01*
Y265000D01*
X125693Y263216D01*
X126704Y261704D01*
X135991Y252417D01*
X137503Y251406D01*
X139287Y251051D01*
X160839D01*
Y248032D01*
X160468D01*
Y234468D01*
X170532Y234468D01*
X171486Y235230D01*
X171802D01*
X174365D01*
Y241250D01*
X175635D01*
Y235230D01*
X178514D01*
X179468Y234468D01*
X180224Y234468D01*
X189532D01*
Y248032D01*
X189162D01*
Y251051D01*
X212838D01*
Y246032D01*
X208718D01*
Y232468D01*
X226282D01*
Y246032D01*
X222162D01*
Y251051D01*
X258213D01*
X259997Y251406D01*
X261509Y252417D01*
X273994Y264902D01*
X275492Y265522D01*
X276978Y267008D01*
X277782Y268949D01*
Y271051D01*
X276978Y272992D01*
X275492Y274478D01*
X273551Y275282D01*
X271449D01*
X269508Y274478D01*
X268022Y272992D01*
X267402Y271494D01*
X256282Y260375D01*
X141218D01*
X134662Y266931D01*
Y330000D01*
Y352032D01*
X135049Y352109D01*
X135853Y352647D01*
X136391Y353451D01*
X136580Y354400D01*
Y361600D01*
X136391Y362549D01*
X135853Y363353D01*
X135049Y363891D01*
X134100Y364080D01*
D02*
G37*
G36*
X561282Y355032D02*
X543718D01*
Y341468D01*
X547839D01*
Y337548D01*
X547218Y336051D01*
Y333949D01*
X547839Y332452D01*
Y328902D01*
X546968Y328032D01*
X546014Y327270D01*
X545698D01*
X543135D01*
Y321250D01*
Y315230D01*
X546014D01*
X546968Y314468D01*
X547724Y314468D01*
X557032D01*
Y323769D01*
X557162Y324420D01*
Y332452D01*
X557782Y333949D01*
Y336051D01*
X557162Y337548D01*
Y341468D01*
X561282D01*
Y355032D01*
D02*
G37*
G36*
X81532Y341282D02*
X63968D01*
Y318718D01*
X81532D01*
Y325338D01*
X85532D01*
X85609Y324951D01*
X86147Y324147D01*
X86951Y323609D01*
X87900Y323420D01*
X95100D01*
X96049Y323609D01*
X96853Y324147D01*
X97391Y324951D01*
X97580Y325900D01*
Y334100D01*
X97391Y335049D01*
X96853Y335853D01*
X96049Y336391D01*
X95100Y336580D01*
X87900D01*
X86951Y336391D01*
X86147Y335853D01*
X85609Y335049D01*
X85532Y334662D01*
X81532D01*
Y341282D01*
D02*
G37*
G36*
X315270Y328020D02*
X309885D01*
Y320635D01*
X315270D01*
Y328020D01*
D02*
G37*
G36*
X308615D02*
X303230D01*
Y320635D01*
X308615D01*
Y328020D01*
D02*
G37*
G36*
X526051Y345282D02*
X523949D01*
X522008Y344478D01*
X520522Y342992D01*
X519718Y341051D01*
Y338949D01*
X520522Y337008D01*
X522008Y335522D01*
X523949Y334718D01*
X525521D01*
X529633Y330605D01*
Y328032D01*
X527968D01*
Y314468D01*
X538032Y314468D01*
X538986Y315230D01*
X539302D01*
X541865D01*
Y321250D01*
Y327270D01*
X538986D01*
X538032Y328032D01*
X537265Y328032D01*
X536367Y328930D01*
Y332000D01*
X536110Y333288D01*
X535381Y334381D01*
X530282Y339479D01*
Y341051D01*
X529478Y342992D01*
X527992Y344478D01*
X526051Y345282D01*
D02*
G37*
G36*
X315270Y319365D02*
X309885D01*
Y311980D01*
X315270D01*
Y319365D01*
D02*
G37*
G36*
X308615D02*
X303230D01*
Y311980D01*
X308615D01*
Y319365D01*
D02*
G37*
G36*
X297532Y328782D02*
X283968D01*
Y323367D01*
X282500D01*
X281212Y323110D01*
X280119Y322381D01*
X275119Y317381D01*
X274390Y316288D01*
X274133Y315000D01*
Y309103D01*
X273022Y307992D01*
X272218Y306051D01*
Y303949D01*
X273022Y302008D01*
X274133Y300897D01*
Y300000D01*
X274390Y298712D01*
X275119Y297619D01*
X280119Y292619D01*
X281212Y291890D01*
X282500Y291633D01*
X283968D01*
Y286218D01*
X297532D01*
Y303782D01*
X285223D01*
X283968Y303782D01*
X282782Y303985D01*
X282782Y306051D01*
X281978Y307992D01*
X280867Y309103D01*
Y313605D01*
X282698Y315437D01*
X283968Y314911D01*
Y311218D01*
X297532D01*
Y328782D01*
D02*
G37*
G36*
X171032Y342032D02*
X143968D01*
Y319468D01*
X154133D01*
Y309282D01*
X148718D01*
Y295718D01*
X166282D01*
Y309282D01*
X160867D01*
Y319468D01*
X171032D01*
Y342032D01*
D02*
G37*
G36*
X261032D02*
X233968D01*
Y319468D01*
X244133D01*
Y308532D01*
X238718D01*
Y294968D01*
X256282D01*
Y308532D01*
X250867D01*
Y319468D01*
X261032D01*
Y342032D01*
D02*
G37*
G36*
X216032D02*
X188968D01*
Y319468D01*
X199133D01*
Y308532D01*
X193718D01*
Y294968D01*
X211282D01*
Y308532D01*
X205867D01*
Y319468D01*
X216032D01*
Y342032D01*
D02*
G37*
G36*
X538032Y300532D02*
X527968D01*
Y286968D01*
X538032D01*
Y300532D01*
D02*
G37*
G36*
X316032Y303782D02*
X302468D01*
Y286218D01*
X316032D01*
Y291633D01*
X323605D01*
X327218Y288021D01*
Y286449D01*
X328022Y284508D01*
X329508Y283022D01*
X331449Y282218D01*
X333551D01*
X335492Y283022D01*
X336978Y284508D01*
X337782Y286449D01*
Y288551D01*
X336978Y290492D01*
X335492Y291978D01*
X333551Y292782D01*
X331979D01*
X327381Y297381D01*
X326288Y298110D01*
X325000Y298367D01*
X316032D01*
Y303782D01*
D02*
G37*
G36*
X740270Y290520D02*
X732885D01*
Y280635D01*
X740270D01*
Y290520D01*
D02*
G37*
G36*
X731615D02*
X724230D01*
Y280635D01*
X731615D01*
Y290520D01*
D02*
G37*
G36*
X102770Y285520D02*
X97385D01*
Y278135D01*
X102770D01*
Y285520D01*
D02*
G37*
G36*
X96115D02*
X90730D01*
Y278135D01*
X96115D01*
Y285520D01*
D02*
G37*
G36*
X256282Y290032D02*
X238718D01*
Y276468D01*
X242411D01*
X242937Y275198D01*
X241105Y273367D01*
X239103D01*
X237992Y274478D01*
X236051Y275282D01*
X233949D01*
X232008Y274478D01*
X230522Y272992D01*
X229718Y271051D01*
Y268949D01*
X230522Y267008D01*
X232008Y265522D01*
X233949Y264718D01*
X236051D01*
X237992Y265522D01*
X239103Y266633D01*
X242500D01*
X243788Y266890D01*
X244881Y267619D01*
X249881Y272619D01*
X250610Y273712D01*
X250867Y275000D01*
Y276468D01*
X256282D01*
Y290032D01*
D02*
G37*
G36*
X211282D02*
X193718D01*
Y276468D01*
X197411D01*
X197937Y275198D01*
X196105Y273367D01*
X191603D01*
X190492Y274478D01*
X188551Y275282D01*
X186449D01*
X184508Y274478D01*
X183022Y272992D01*
X182218Y271051D01*
Y268949D01*
X183022Y267008D01*
X184508Y265522D01*
X186449Y264718D01*
X188551D01*
X190492Y265522D01*
X191603Y266633D01*
X197500D01*
X198788Y266890D01*
X199881Y267619D01*
X204881Y272619D01*
X205610Y273712D01*
X205867Y275000D01*
Y276468D01*
X211282D01*
Y290032D01*
D02*
G37*
G36*
X166282Y290782D02*
X148718D01*
Y277218D01*
X153161D01*
X153687Y275948D01*
X151105Y273367D01*
X146603D01*
X145492Y274478D01*
X143551Y275282D01*
X141449D01*
X139508Y274478D01*
X138022Y272992D01*
X137218Y271051D01*
Y268949D01*
X138022Y267008D01*
X139508Y265522D01*
X141449Y264718D01*
X143551D01*
X145492Y265522D01*
X146603Y266633D01*
X152500D01*
X153788Y266890D01*
X154881Y267619D01*
X159881Y272619D01*
X160610Y273712D01*
X160867Y275000D01*
Y277218D01*
X166282D01*
Y290782D01*
D02*
G37*
G36*
X740270Y279365D02*
X732885D01*
Y269480D01*
X740270D01*
Y279365D01*
D02*
G37*
G36*
X731615D02*
X724230D01*
Y269480D01*
X731615D01*
Y279365D01*
D02*
G37*
G36*
X102770Y276865D02*
X97385D01*
Y269480D01*
X102770D01*
Y276865D01*
D02*
G37*
G36*
X96115D02*
X90730D01*
Y269480D01*
X96115D01*
Y276865D01*
D02*
G37*
G36*
X41255Y297432D02*
X38745D01*
X36321Y296782D01*
X34147Y295527D01*
X32373Y293753D01*
X31118Y291579D01*
X30468Y289155D01*
Y286645D01*
X31118Y284221D01*
X32373Y282047D01*
X34147Y280273D01*
X36321Y279018D01*
X38745Y278368D01*
X41255D01*
X43679Y279018D01*
X43959Y279179D01*
X48019Y275119D01*
X49112Y274390D01*
X50400Y274133D01*
X71468D01*
Y268718D01*
X85032D01*
Y286282D01*
X71468D01*
Y280867D01*
X51795D01*
X48721Y283941D01*
X48882Y284221D01*
X49532Y286645D01*
Y289155D01*
X48882Y291579D01*
X47628Y293753D01*
X45853Y295527D01*
X43679Y296782D01*
X41255Y297432D01*
D02*
G37*
G36*
X591185Y276722D02*
Y268135D01*
X594649D01*
Y272750D01*
X594337Y274319D01*
X593448Y275648D01*
X592118Y276537D01*
X591185Y276722D01*
D02*
G37*
G36*
X589915D02*
X588982Y276537D01*
X587652Y275648D01*
X586763Y274319D01*
X586451Y272750D01*
Y268135D01*
X589915D01*
Y276722D01*
D02*
G37*
G36*
X539270Y275520D02*
X533885D01*
Y268135D01*
X539270D01*
Y275520D01*
D02*
G37*
G36*
X532615D02*
X527230D01*
Y268135D01*
X532615D01*
Y275520D01*
D02*
G37*
G36*
X539270Y266865D02*
X533885D01*
Y259480D01*
X539270D01*
Y266865D01*
D02*
G37*
G36*
X532615D02*
X527230D01*
Y259480D01*
X532615D01*
Y266865D01*
D02*
G37*
G36*
X594649Y266865D02*
X591185D01*
Y258278D01*
X592118Y258463D01*
X593448Y259352D01*
X594337Y260681D01*
X594649Y262250D01*
Y266865D01*
D02*
G37*
G36*
X589915D02*
X586451D01*
Y262250D01*
X586763Y260681D01*
X587652Y259352D01*
X588982Y258463D01*
X589915Y258278D01*
Y266865D01*
D02*
G37*
G36*
X41255Y272032D02*
X38745D01*
X36321Y271382D01*
X34147Y270128D01*
X32373Y268353D01*
X31118Y266179D01*
X30468Y263755D01*
Y261245D01*
X31118Y258821D01*
X32373Y256647D01*
X34147Y254872D01*
X36321Y253618D01*
X38745Y252968D01*
X41255D01*
X43679Y253618D01*
X45853Y254872D01*
X47628Y256647D01*
X48882Y258821D01*
X49532Y261245D01*
Y263755D01*
X48882Y266179D01*
X47628Y268353D01*
X45853Y270128D01*
X43679Y271382D01*
X41255Y272032D01*
D02*
G37*
G36*
X122770Y258020D02*
X117385D01*
Y250635D01*
X122770D01*
Y258020D01*
D02*
G37*
G36*
X116115D02*
X110730D01*
Y250635D01*
X116115D01*
Y258020D01*
D02*
G37*
G36*
X122770Y249365D02*
X117385D01*
Y241980D01*
X122770D01*
Y249365D01*
D02*
G37*
G36*
X116115D02*
X110730D01*
Y241980D01*
X116115D01*
Y249365D01*
D02*
G37*
G36*
X105032Y258782D02*
X91468D01*
Y253367D01*
X65000D01*
X63712Y253110D01*
X62619Y252381D01*
X50802Y240563D01*
X49532Y240700D01*
Y246632D01*
X30468D01*
Y227568D01*
X49532D01*
Y233733D01*
X52100D01*
X53388Y233990D01*
X54481Y234719D01*
X66395Y246633D01*
X91468D01*
Y241218D01*
X105032D01*
Y258782D01*
D02*
G37*
G36*
X278020Y242020D02*
X270635D01*
Y236635D01*
X278020D01*
Y242020D01*
D02*
G37*
G36*
X269365D02*
X261980D01*
Y236635D01*
X269365D01*
Y242020D01*
D02*
G37*
G36*
X278020Y235365D02*
X270635D01*
Y229980D01*
X278020D01*
Y235365D01*
D02*
G37*
G36*
X269365D02*
X261980D01*
Y229980D01*
X269365D01*
Y235365D01*
D02*
G37*
G36*
X933020Y235270D02*
X925635D01*
Y229885D01*
X933020D01*
Y235270D01*
D02*
G37*
G36*
X958020D02*
X950635D01*
Y229885D01*
X958020D01*
Y235270D01*
D02*
G37*
G36*
X853020D02*
X845635D01*
Y229885D01*
X853020D01*
Y235270D01*
D02*
G37*
G36*
X880520D02*
X873135D01*
Y229885D01*
X880520D01*
Y235270D01*
D02*
G37*
G36*
X871865D02*
X864480D01*
Y229885D01*
X871865D01*
Y235270D01*
D02*
G37*
G36*
X844365D02*
X836980D01*
Y229885D01*
X844365D01*
Y235270D01*
D02*
G37*
G36*
X949365D02*
X941980D01*
Y229885D01*
X949365D01*
Y235270D01*
D02*
G37*
G36*
X924365D02*
X916980D01*
Y229885D01*
X924365D01*
Y235270D01*
D02*
G37*
G36*
X122770Y233020D02*
X117385D01*
Y225635D01*
X122770D01*
Y233020D01*
D02*
G37*
G36*
X116115D02*
X110730D01*
Y225635D01*
X116115D01*
Y233020D01*
D02*
G37*
G36*
X958020Y228615D02*
X950635D01*
Y223230D01*
X958020D01*
Y228615D01*
D02*
G37*
G36*
X949365D02*
X941980D01*
Y223230D01*
X949365D01*
Y228615D01*
D02*
G37*
G36*
X933020D02*
X925635D01*
Y223230D01*
X933020D01*
Y228615D01*
D02*
G37*
G36*
X924365D02*
X916980D01*
Y223230D01*
X924365D01*
Y228615D01*
D02*
G37*
G36*
X880520D02*
X873135D01*
Y223230D01*
X880520D01*
Y228615D01*
D02*
G37*
G36*
X871865D02*
X864480D01*
Y223230D01*
X871865D01*
Y228615D01*
D02*
G37*
G36*
X853020D02*
X845635D01*
Y223230D01*
X853020D01*
Y228615D01*
D02*
G37*
G36*
X844365D02*
X836980D01*
Y223230D01*
X844365D01*
Y228615D01*
D02*
G37*
G36*
X225520Y226770D02*
X218135D01*
Y221385D01*
X225520D01*
Y226770D01*
D02*
G37*
G36*
X216865D02*
X209480D01*
Y221385D01*
X216865D01*
Y226770D01*
D02*
G37*
G36*
X122770Y224365D02*
X117385D01*
Y216980D01*
X122770D01*
Y224365D01*
D02*
G37*
G36*
X116115D02*
X110730D01*
Y216980D01*
X116115D01*
Y224365D01*
D02*
G37*
G36*
X105032Y233782D02*
X91468D01*
Y228367D01*
X70000D01*
X68712Y228110D01*
X67619Y227381D01*
X41459Y201221D01*
X41179Y201382D01*
X38755Y202032D01*
X36245D01*
X33821Y201382D01*
X31647Y200128D01*
X29873Y198353D01*
X28618Y196179D01*
X27968Y193755D01*
Y191245D01*
X28618Y188821D01*
X29873Y186647D01*
X31647Y184872D01*
X33821Y183618D01*
X36245Y182968D01*
X37198D01*
X37724Y181698D01*
X35328Y179303D01*
X34599Y178211D01*
X34342Y176922D01*
Y176632D01*
X27968D01*
Y157568D01*
X34133D01*
Y141611D01*
X31537D01*
X29969Y141299D01*
X28640Y140410D01*
X27751Y139081D01*
X27439Y137513D01*
Y114487D01*
X27751Y112919D01*
X28640Y111590D01*
X29969Y110701D01*
X31537Y110389D01*
X34133D01*
Y59361D01*
X31537D01*
X29969Y59049D01*
X28640Y58160D01*
X27751Y56831D01*
X27439Y55262D01*
Y32238D01*
X27751Y30669D01*
X28640Y29340D01*
X29969Y28451D01*
X31537Y28139D01*
X43463D01*
X45031Y28451D01*
X46360Y29340D01*
X47249Y30669D01*
X47561Y32238D01*
Y55262D01*
X47249Y56831D01*
X46360Y58160D01*
X45031Y59049D01*
X43463Y59361D01*
X40867D01*
Y110389D01*
X43463D01*
X45031Y110701D01*
X46360Y111590D01*
X47249Y112919D01*
X47561Y114487D01*
Y137513D01*
X47249Y139081D01*
X46360Y140410D01*
X45031Y141299D01*
X43463Y141611D01*
X40867D01*
Y157568D01*
X47032D01*
Y163733D01*
X54600D01*
X55888Y163990D01*
X56981Y164719D01*
X66395Y174133D01*
X68968D01*
Y168718D01*
X82532D01*
Y186282D01*
X68968D01*
Y180867D01*
X65000D01*
X63712Y180610D01*
X62619Y179881D01*
X53205Y170467D01*
X47032D01*
Y176632D01*
X43840D01*
X43353Y177805D01*
X62181Y196633D01*
X71468D01*
Y191218D01*
X85032D01*
Y208782D01*
X71468D01*
Y203367D01*
X60787D01*
X59499Y203110D01*
X58406Y202381D01*
X48302Y192276D01*
X47032Y192802D01*
Y193755D01*
X46382Y196179D01*
X46221Y196459D01*
X71395Y221633D01*
X91468D01*
Y216218D01*
X105032D01*
Y233782D01*
D02*
G37*
G36*
X225520Y220115D02*
X218135D01*
Y214730D01*
X225520D01*
Y220115D01*
D02*
G37*
G36*
X216865D02*
X209480D01*
Y214730D01*
X216865D01*
Y220115D01*
D02*
G37*
G36*
X170532Y220532D02*
X160468D01*
Y206968D01*
X170532D01*
Y220532D01*
D02*
G37*
G36*
X881282Y217532D02*
X863718D01*
Y204617D01*
X853782D01*
Y217532D01*
X836218D01*
Y203968D01*
X841633D01*
Y198532D01*
X836218D01*
Y184968D01*
X853782D01*
Y197883D01*
X863718D01*
Y184968D01*
X881282D01*
Y198532D01*
X875867D01*
Y203968D01*
X881282D01*
Y217532D01*
D02*
G37*
G36*
X160020Y203020D02*
X154635D01*
Y195635D01*
X160020D01*
Y203020D01*
D02*
G37*
G36*
X153365D02*
X147980D01*
Y195635D01*
X153365D01*
Y203020D01*
D02*
G37*
G36*
X160020Y194365D02*
X154635D01*
Y186980D01*
X160020D01*
Y194365D01*
D02*
G37*
G36*
X153365D02*
X147980D01*
Y186980D01*
X153365D01*
Y194365D01*
D02*
G37*
G36*
X207532Y161282D02*
X193968D01*
Y155867D01*
X191032D01*
Y161282D01*
X177468D01*
Y143718D01*
X191032D01*
Y149133D01*
X193968D01*
Y143718D01*
X207532D01*
Y161282D01*
D02*
G37*
G36*
X171770Y160520D02*
X166385D01*
Y153135D01*
X171770D01*
Y160520D01*
D02*
G37*
G36*
X165115D02*
X159730D01*
Y153135D01*
X165115D01*
Y160520D01*
D02*
G37*
G36*
X171770Y151865D02*
X166385D01*
Y144480D01*
X171770D01*
Y151865D01*
D02*
G37*
G36*
X165115D02*
X159730D01*
Y144480D01*
X165115D01*
Y151865D01*
D02*
G37*
G36*
X83462Y140834D02*
X78135D01*
Y126635D01*
X86784D01*
Y137513D01*
X86531Y138784D01*
X85811Y139861D01*
X84733Y140581D01*
X83462Y140834D01*
D02*
G37*
G36*
X76865D02*
X71537D01*
X70266Y140581D01*
X69189Y139861D01*
X68469Y138784D01*
X68216Y137513D01*
Y126635D01*
X76865D01*
Y140834D01*
D02*
G37*
G36*
X488020Y124270D02*
X480635D01*
Y118885D01*
X488020D01*
Y124270D01*
D02*
G37*
G36*
X479365D02*
X471980D01*
Y118885D01*
X479365D01*
Y124270D01*
D02*
G37*
G36*
X167365Y124770D02*
X163730D01*
Y118885D01*
X167365D01*
Y124770D01*
D02*
G37*
G36*
X223020Y122770D02*
X215635D01*
Y117385D01*
X223020D01*
Y122770D01*
D02*
G37*
G36*
X214365D02*
X206980D01*
Y117385D01*
X214365D01*
Y122770D01*
D02*
G37*
G36*
X126155Y120870D02*
X125635D01*
Y112735D01*
X133770D01*
Y113255D01*
X133172Y115485D01*
X132018Y117485D01*
X130385Y119118D01*
X128385Y120272D01*
X126155Y120870D01*
D02*
G37*
G36*
X124365D02*
X123845D01*
X121615Y120272D01*
X119615Y119118D01*
X117982Y117485D01*
X116828Y115485D01*
X116230Y113255D01*
Y112735D01*
X124365D01*
Y120870D01*
D02*
G37*
G36*
X488020Y117615D02*
X480635D01*
Y112230D01*
X488020D01*
Y117615D01*
D02*
G37*
G36*
X479365D02*
X471980D01*
Y112230D01*
X479365D01*
Y117615D01*
D02*
G37*
G36*
X167365Y117615D02*
X163730D01*
Y111730D01*
X167365D01*
Y117615D01*
D02*
G37*
G36*
X173230Y124770D02*
X172270D01*
X171960Y124770D01*
X168635D01*
Y118250D01*
Y111730D01*
X171960D01*
X172270Y111730D01*
X173230D01*
X173540Y111730D01*
X176865D01*
Y118250D01*
Y124770D01*
X173540D01*
X173230Y124770D01*
D02*
G37*
G36*
X86784Y125365D02*
X78135D01*
Y111166D01*
X83462D01*
X84733Y111419D01*
X85811Y112139D01*
X86531Y113216D01*
X86784Y114487D01*
Y125365D01*
D02*
G37*
G36*
X76865D02*
X68216D01*
Y114487D01*
X68469Y113216D01*
X69189Y112139D01*
X70266Y111419D01*
X71537Y111166D01*
X76865D01*
Y125365D01*
D02*
G37*
G36*
X223020Y116115D02*
X215635D01*
Y110730D01*
X223020D01*
Y116115D01*
D02*
G37*
G36*
X214365D02*
X206980D01*
Y110730D01*
X214365D01*
Y116115D01*
D02*
G37*
G36*
X557032Y300532D02*
X546968D01*
Y286968D01*
X548383D01*
Y276282D01*
X544968D01*
Y258718D01*
X548383D01*
Y238250D01*
X548640Y236962D01*
X549369Y235869D01*
X561369Y223869D01*
X624133Y161105D01*
Y133032D01*
X613968D01*
Y110468D01*
X641032D01*
Y133032D01*
X630867D01*
Y162500D01*
X630610Y163788D01*
X629881Y164881D01*
X568511Y226250D01*
X580231Y237969D01*
X580960Y239062D01*
X581217Y240350D01*
Y258748D01*
X581298Y258802D01*
X582355Y260384D01*
X582726Y262250D01*
Y272750D01*
X582355Y274616D01*
X581298Y276198D01*
X579716Y277255D01*
X577850Y277626D01*
X575984Y277255D01*
X574402Y276198D01*
X573345Y274616D01*
X572974Y272750D01*
Y262250D01*
X573345Y260384D01*
X574402Y258802D01*
X574483Y258748D01*
Y241745D01*
X563750Y231011D01*
X555117Y239645D01*
Y258718D01*
X558532D01*
Y276282D01*
X555117D01*
Y286968D01*
X557032D01*
Y300532D01*
D02*
G37*
G36*
X133770Y111465D02*
X125635D01*
Y103330D01*
X126155D01*
X128385Y103928D01*
X130385Y105082D01*
X132018Y106715D01*
X133172Y108715D01*
X133770Y110945D01*
Y111465D01*
D02*
G37*
G36*
X124365D02*
X116230D01*
Y110945D01*
X116828Y108715D01*
X117982Y106715D01*
X119615Y105082D01*
X121615Y103928D01*
X123845Y103330D01*
X124365D01*
Y111465D01*
D02*
G37*
G36*
X178551Y110282D02*
X176449D01*
X174508Y109478D01*
X173022Y107992D01*
X172218Y106051D01*
Y103949D01*
X173022Y102008D01*
X174508Y100522D01*
X176449Y99718D01*
X178551D01*
X180492Y100522D01*
X181978Y102008D01*
X182782Y103949D01*
Y106051D01*
X181978Y107992D01*
X180492Y109478D01*
X178551Y110282D01*
D02*
G37*
G36*
X546051Y127782D02*
X543949D01*
X542008Y126978D01*
X540522Y125492D01*
X539718Y123551D01*
Y121979D01*
X520869Y103131D01*
X520140Y102038D01*
X519883Y100750D01*
Y99732D01*
X518613Y99053D01*
X518226Y99312D01*
X516750Y99606D01*
X515274Y99312D01*
X514023Y98477D01*
X512977D01*
X511726Y99312D01*
X510250Y99606D01*
X508774Y99312D01*
X507523Y98477D01*
X506688Y97226D01*
X506394Y95750D01*
Y85250D01*
X506688Y83774D01*
X506883Y83481D01*
Y81645D01*
X504351Y79112D01*
X503621Y78020D01*
X503365Y76732D01*
Y75038D01*
X503122Y74990D01*
X502350Y74474D01*
X501835Y73703D01*
X501654Y72793D01*
Y62393D01*
X501835Y61483D01*
X502350Y60712D01*
X503122Y60196D01*
X503365Y60148D01*
Y55409D01*
X503052Y55193D01*
X501782Y55859D01*
Y56282D01*
X488218D01*
Y38718D01*
X501782D01*
Y44286D01*
X502300Y44390D01*
X503393Y45119D01*
X509112Y50839D01*
X509842Y51931D01*
X510098Y53220D01*
Y60148D01*
X510342Y60196D01*
X511113Y60712D01*
X511628Y61483D01*
X511809Y62393D01*
Y72793D01*
X511628Y73703D01*
X511113Y74474D01*
X511064Y74507D01*
X510847Y76086D01*
X512631Y77869D01*
X512979Y78390D01*
X514458Y78463D01*
X514553Y78320D01*
X516733Y76141D01*
X516754Y76078D01*
X516521Y74588D01*
X516351Y74474D01*
X515835Y73703D01*
X515654Y72793D01*
Y62393D01*
X515835Y61483D01*
X516351Y60712D01*
X517122Y60196D01*
X517365Y60148D01*
Y51768D01*
X517621Y50480D01*
X518351Y49388D01*
X522619Y45119D01*
X523712Y44390D01*
X525000Y44133D01*
X525718D01*
Y38718D01*
X539282D01*
Y56282D01*
X525718D01*
Y54310D01*
X524448Y53657D01*
X524098Y53906D01*
Y60148D01*
X524342Y60196D01*
X525113Y60712D01*
X525628Y61483D01*
X525809Y62393D01*
Y72793D01*
X525628Y73703D01*
X525113Y74474D01*
X524342Y74990D01*
X524098Y75038D01*
Y76903D01*
X524098Y76903D01*
X523842Y78191D01*
X523112Y79284D01*
X522061Y80336D01*
X522686Y81506D01*
X523250Y81394D01*
X524726Y81687D01*
X525977Y82523D01*
X526195Y82849D01*
X527573Y83073D01*
X528572Y82405D01*
X529115Y82297D01*
Y90500D01*
Y98703D01*
X528572Y98595D01*
X528504Y98549D01*
X527114Y99093D01*
X527010Y99545D01*
X527055Y99794D01*
X544479Y117218D01*
X546051D01*
X547992Y118022D01*
X549478Y119508D01*
X550282Y121449D01*
Y123551D01*
X549478Y125492D01*
X547992Y126978D01*
X546051Y127782D01*
D02*
G37*
G36*
X530385Y98703D02*
Y91135D01*
X532829D01*
Y95750D01*
X532595Y96928D01*
X531927Y97927D01*
X530928Y98595D01*
X530385Y98703D01*
D02*
G37*
G36*
X798532Y177032D02*
X771468D01*
Y154468D01*
X781633D01*
Y91725D01*
X777205Y87297D01*
X776032Y87783D01*
Y104532D01*
X748968D01*
Y81968D01*
X759133D01*
Y68008D01*
X757867Y68000D01*
X757610Y69288D01*
X756881Y70381D01*
X743367Y83895D01*
Y154468D01*
X753532D01*
Y177032D01*
X726468D01*
Y154468D01*
X736633D01*
Y82500D01*
X736890Y81212D01*
X737619Y80119D01*
X751133Y66606D01*
Y64282D01*
X750218D01*
Y50718D01*
X782782D01*
Y64282D01*
X781867D01*
Y67105D01*
X786395Y71633D01*
X802500D01*
X803788Y71890D01*
X804881Y72619D01*
X809881Y77619D01*
X810610Y78712D01*
X810867Y80000D01*
Y81968D01*
X821032D01*
Y104532D01*
X793968D01*
Y81968D01*
X802911D01*
X803437Y80698D01*
X801105Y78367D01*
X785000D01*
X783712Y78110D01*
X782619Y77381D01*
X776119Y70881D01*
X775390Y69788D01*
X775133Y68500D01*
X773867Y68508D01*
Y74436D01*
X787381Y87950D01*
X788110Y89042D01*
X788367Y90330D01*
Y154468D01*
X798532D01*
Y177032D01*
D02*
G37*
G36*
X309532Y93532D02*
X286968D01*
Y83367D01*
X278532D01*
Y88782D01*
X264968D01*
Y71218D01*
X278532D01*
Y76633D01*
X286968D01*
Y66468D01*
X309532D01*
Y93532D01*
D02*
G37*
G36*
X532829Y89865D02*
X530385D01*
Y82297D01*
X530928Y82405D01*
X531927Y83073D01*
X532595Y84072D01*
X532829Y85250D01*
Y89865D01*
D02*
G37*
G36*
X259270Y88020D02*
X253885D01*
Y80635D01*
X259270D01*
Y88020D01*
D02*
G37*
G36*
X252615D02*
X247230D01*
Y80635D01*
X252615D01*
Y88020D01*
D02*
G37*
G36*
X398020Y80020D02*
X390635D01*
Y74635D01*
X398020D01*
Y80020D01*
D02*
G37*
G36*
X389365D02*
X381980D01*
Y74635D01*
X389365D01*
Y80020D01*
D02*
G37*
G36*
X259270Y79365D02*
X253885D01*
Y71980D01*
X259270D01*
Y79365D01*
D02*
G37*
G36*
X252615D02*
X247230D01*
Y71980D01*
X252615D01*
Y79365D01*
D02*
G37*
G36*
X398020Y73365D02*
X390635D01*
Y67980D01*
X398020D01*
Y73365D01*
D02*
G37*
G36*
X389365D02*
X381980D01*
Y67980D01*
X389365D01*
Y73365D01*
D02*
G37*
G36*
X708532Y177032D02*
X681468D01*
Y154468D01*
X691633D01*
Y81395D01*
X678119Y67881D01*
X677390Y66788D01*
X677133Y65500D01*
X675867Y65508D01*
Y81968D01*
X686032D01*
Y104532D01*
X658968D01*
Y81968D01*
X669133D01*
Y68008D01*
X667867Y68000D01*
X667610Y69288D01*
X666881Y70381D01*
X653367Y83895D01*
Y154468D01*
X663532D01*
Y177032D01*
X636468D01*
Y154468D01*
X646633D01*
Y82500D01*
X646890Y81212D01*
X647619Y80119D01*
X661133Y66606D01*
Y64282D01*
X660218D01*
Y50718D01*
X692782D01*
Y64282D01*
X692782D01*
X692804Y65543D01*
X696395Y69133D01*
X712500D01*
X713788Y69390D01*
X714881Y70119D01*
X719881Y75119D01*
X720610Y76212D01*
X720867Y77500D01*
Y81968D01*
X731032D01*
Y104532D01*
X703968D01*
Y81968D01*
X714133D01*
Y78895D01*
X711105Y75867D01*
X697287D01*
X696801Y77040D01*
X697381Y77619D01*
X698110Y78712D01*
X698367Y80000D01*
Y154468D01*
X708532D01*
Y177032D01*
D02*
G37*
G36*
X641032Y104532D02*
X613968D01*
Y81968D01*
X624133D01*
Y68532D01*
X618718D01*
Y54968D01*
X636282D01*
Y68532D01*
X630867D01*
Y81968D01*
X641032D01*
Y104532D01*
D02*
G37*
G36*
X482520Y55520D02*
X477135D01*
Y48135D01*
X482520D01*
Y55520D01*
D02*
G37*
G36*
X557020D02*
X551635D01*
Y48135D01*
X557020D01*
Y55520D01*
D02*
G37*
G36*
X550365D02*
X544980D01*
Y48135D01*
X550365D01*
Y55520D01*
D02*
G37*
G36*
X475865D02*
X470480D01*
Y48135D01*
X475865D01*
Y55520D01*
D02*
G37*
G36*
X774980Y45520D02*
X774020D01*
X773710Y45520D01*
X771135D01*
Y39500D01*
Y33480D01*
X773710D01*
X774020Y33480D01*
X774980D01*
X775290Y33480D01*
X777865D01*
Y39500D01*
Y45520D01*
X775290D01*
X774980Y45520D01*
D02*
G37*
G36*
X766980D02*
X766020D01*
X765710Y45520D01*
X763135D01*
Y39500D01*
Y33480D01*
X765710D01*
X766020Y33480D01*
X766980D01*
X767290Y33480D01*
X769865D01*
Y39500D01*
Y45520D01*
X767290D01*
X766980Y45520D01*
D02*
G37*
G36*
X684980D02*
X684020D01*
X683710Y45520D01*
X681135D01*
Y39500D01*
Y33480D01*
X683710D01*
X684020Y33480D01*
X684980D01*
X685290Y33480D01*
X687865D01*
Y39500D01*
Y45520D01*
X685290D01*
X684980Y45520D01*
D02*
G37*
G36*
X676980D02*
X676020D01*
X675710Y45520D01*
X673135D01*
Y39500D01*
Y33480D01*
X675710D01*
X676020Y33480D01*
X676980D01*
X677290Y33480D01*
X679865D01*
Y39500D01*
Y45520D01*
X677290D01*
X676980Y45520D01*
D02*
G37*
G36*
X83462Y58584D02*
X78135D01*
Y44385D01*
X86784D01*
Y55262D01*
X86531Y56533D01*
X85811Y57611D01*
X84733Y58331D01*
X83462Y58584D01*
D02*
G37*
G36*
X76865D02*
X71537D01*
X70266Y58331D01*
X69189Y57611D01*
X68469Y56533D01*
X68216Y55262D01*
Y44385D01*
X76865D01*
Y58584D01*
D02*
G37*
G36*
X635520Y49270D02*
X628135D01*
Y43885D01*
X635520D01*
Y49270D01*
D02*
G37*
G36*
X626865D02*
X619480D01*
Y43885D01*
X626865D01*
Y49270D01*
D02*
G37*
G36*
X779135Y45520D02*
Y40135D01*
X782020D01*
Y45520D01*
X779135D01*
D02*
G37*
G36*
X689135D02*
Y40135D01*
X692020D01*
Y45520D01*
X689135D01*
D02*
G37*
G36*
X663865D02*
X660980D01*
Y40135D01*
X663865D01*
Y45520D01*
D02*
G37*
G36*
X753865D02*
X750980D01*
Y40135D01*
X753865D01*
Y45520D01*
D02*
G37*
G36*
X557020Y46865D02*
X551635D01*
Y39480D01*
X557020D01*
Y46865D01*
D02*
G37*
G36*
X550365D02*
X544980D01*
Y39480D01*
X550365D01*
Y46865D01*
D02*
G37*
G36*
X482520D02*
X477135D01*
Y39480D01*
X482520D01*
Y46865D01*
D02*
G37*
G36*
X475865D02*
X470480D01*
Y39480D01*
X475865D01*
Y46865D01*
D02*
G37*
G36*
X397355Y46270D02*
X396835D01*
Y38135D01*
X404970D01*
Y38655D01*
X404372Y40885D01*
X403218Y42885D01*
X401585Y44518D01*
X399585Y45672D01*
X397355Y46270D01*
D02*
G37*
G36*
X395565D02*
X395045D01*
X392815Y45672D01*
X390815Y44518D01*
X389182Y42885D01*
X388028Y40885D01*
X387430Y38655D01*
Y38135D01*
X395565D01*
Y46270D01*
D02*
G37*
G36*
X219555D02*
X219035D01*
Y38135D01*
X227170D01*
Y38655D01*
X226572Y40885D01*
X225418Y42885D01*
X223785Y44518D01*
X221785Y45672D01*
X219555Y46270D01*
D02*
G37*
G36*
X217765D02*
X217245D01*
X215015Y45672D01*
X213015Y44518D01*
X211382Y42885D01*
X210228Y40885D01*
X209630Y38655D01*
Y38135D01*
X217765D01*
Y46270D01*
D02*
G37*
G36*
X635520Y42615D02*
X628135D01*
Y37230D01*
X635520D01*
Y42615D01*
D02*
G37*
G36*
X626865D02*
X619480D01*
Y37230D01*
X626865D01*
Y42615D01*
D02*
G37*
G36*
X782020Y38865D02*
X779135D01*
Y33480D01*
X782020D01*
Y38865D01*
D02*
G37*
G36*
X692020D02*
X689135D01*
Y33480D01*
X692020D01*
Y38865D01*
D02*
G37*
G36*
X668980Y45520D02*
X668020D01*
X667710Y45520D01*
X665135D01*
Y39500D01*
Y33480D01*
X667710D01*
X668020Y33480D01*
X668980D01*
X669290Y33480D01*
X671865D01*
Y39500D01*
Y45520D01*
X669290D01*
X668980Y45520D01*
D02*
G37*
G36*
X758980D02*
X758020D01*
X757710Y45520D01*
X755135D01*
Y39500D01*
Y33480D01*
X757710D01*
X758020Y33480D01*
X758980D01*
X759290Y33480D01*
X761865D01*
Y39500D01*
Y45520D01*
X759290D01*
X758980Y45520D01*
D02*
G37*
G36*
X663865Y38865D02*
X660980D01*
Y33480D01*
X663865D01*
Y38865D01*
D02*
G37*
G36*
X753865D02*
X750980D01*
Y33480D01*
X753865D01*
Y38865D01*
D02*
G37*
G36*
X86784Y43115D02*
X78135D01*
Y28916D01*
X83462D01*
X84733Y29169D01*
X85811Y29889D01*
X86531Y30966D01*
X86784Y32238D01*
Y43115D01*
D02*
G37*
G36*
X76865D02*
X68216D01*
Y32238D01*
X68469Y30966D01*
X69189Y29889D01*
X70266Y29169D01*
X71537Y28916D01*
X76865D01*
Y43115D01*
D02*
G37*
G36*
X404970Y36865D02*
X396835D01*
Y28730D01*
X397355D01*
X399585Y29328D01*
X401585Y30482D01*
X403218Y32115D01*
X404372Y34115D01*
X404970Y36345D01*
Y36865D01*
D02*
G37*
G36*
X395565D02*
X387430D01*
Y36345D01*
X388028Y34115D01*
X389182Y32115D01*
X390815Y30482D01*
X392815Y29328D01*
X395045Y28730D01*
X395565D01*
Y36865D01*
D02*
G37*
G36*
X227170D02*
X219035D01*
Y28730D01*
X219555D01*
X221785Y29328D01*
X223785Y30482D01*
X225418Y32115D01*
X226572Y34115D01*
X227170Y36345D01*
Y36865D01*
D02*
G37*
G36*
X217765D02*
X209630D01*
Y36345D01*
X210228Y34115D01*
X211382Y32115D01*
X213015Y30482D01*
X215015Y29328D01*
X217245Y28730D01*
X217765D01*
Y36865D01*
D02*
G37*
G36*
X958782Y180032D02*
X941218D01*
Y166468D01*
X946633D01*
Y165000D01*
X946890Y163712D01*
X947619Y162619D01*
X959133Y151105D01*
Y141861D01*
X956537D01*
X954969Y141549D01*
X953640Y140660D01*
X952751Y139331D01*
X952439Y137762D01*
Y114738D01*
X952751Y113169D01*
X953640Y111840D01*
X954969Y110951D01*
X956537Y110639D01*
X959133D01*
Y59611D01*
X956537D01*
X954969Y59299D01*
X953640Y58410D01*
X952751Y57081D01*
X952439Y55512D01*
Y32487D01*
X952751Y30919D01*
X953640Y29590D01*
X954969Y28701D01*
X956537Y28389D01*
X968463D01*
X970031Y28701D01*
X971360Y29590D01*
X972249Y30919D01*
X972561Y32487D01*
Y55512D01*
X972249Y57081D01*
X971360Y58410D01*
X970031Y59299D01*
X968463Y59611D01*
X965867D01*
Y110639D01*
X968463D01*
X970031Y110951D01*
X971360Y111840D01*
X972249Y113169D01*
X972561Y114738D01*
Y137762D01*
X972249Y139331D01*
X971360Y140660D01*
X970031Y141549D01*
X968463Y141861D01*
X965867D01*
Y152500D01*
X965610Y153788D01*
X964881Y154881D01*
X954563Y165198D01*
X955089Y166468D01*
X958782D01*
Y180032D01*
D02*
G37*
G36*
X881282D02*
X863718D01*
Y166468D01*
X869133D01*
Y165000D01*
X869390Y163712D01*
X870119Y162619D01*
X884133Y148605D01*
Y141861D01*
X881537D01*
X879969Y141549D01*
X878640Y140660D01*
X877751Y139331D01*
X877439Y137762D01*
Y114738D01*
X877751Y113169D01*
X878640Y111840D01*
X879969Y110951D01*
X881537Y110639D01*
X884133D01*
Y59611D01*
X881537D01*
X879969Y59299D01*
X878640Y58410D01*
X877751Y57081D01*
X877439Y55512D01*
Y32487D01*
X877751Y30919D01*
X878640Y29590D01*
X879969Y28701D01*
X881537Y28389D01*
X893463D01*
X895031Y28701D01*
X896360Y29590D01*
X897249Y30919D01*
X897561Y32487D01*
Y55512D01*
X897249Y57081D01*
X896360Y58410D01*
X895031Y59299D01*
X893463Y59611D01*
X890867D01*
Y110639D01*
X893463D01*
X895031Y110951D01*
X896360Y111840D01*
X897249Y113169D01*
X897561Y114738D01*
Y137762D01*
X897249Y139331D01*
X896360Y140660D01*
X895031Y141549D01*
X893463Y141861D01*
X890867D01*
Y150000D01*
X890611Y151288D01*
X889881Y152381D01*
X877063Y165198D01*
X877589Y166468D01*
X881282D01*
Y180032D01*
D02*
G37*
G36*
X422855Y47032D02*
X420345D01*
X417921Y46382D01*
X415747Y45128D01*
X413973Y43353D01*
X412718Y41179D01*
X412068Y38755D01*
Y36245D01*
X412718Y33821D01*
X413973Y31647D01*
X415747Y29873D01*
X417921Y28618D01*
X420345Y27968D01*
X422855D01*
X425279Y28618D01*
X427453Y29873D01*
X429227Y31647D01*
X430482Y33821D01*
X431132Y36245D01*
Y38755D01*
X430482Y41179D01*
X429227Y43353D01*
X427453Y45128D01*
X425279Y46382D01*
X422855Y47032D01*
D02*
G37*
G36*
X295855D02*
X293345D01*
X290921Y46382D01*
X288747Y45128D01*
X286973Y43353D01*
X285718Y41179D01*
X285068Y38755D01*
Y36245D01*
X285718Y33821D01*
X286973Y31647D01*
X288747Y29873D01*
X290921Y28618D01*
X293345Y27968D01*
X295855D01*
X298279Y28618D01*
X300453Y29873D01*
X302227Y31647D01*
X303482Y33821D01*
X304132Y36245D01*
Y38755D01*
X303482Y41179D01*
X302227Y43353D01*
X300453Y45128D01*
X298279Y46382D01*
X295855Y47032D01*
D02*
G37*
G36*
X270455D02*
X267945D01*
X265521Y46382D01*
X263347Y45128D01*
X261572Y43353D01*
X260318Y41179D01*
X259668Y38755D01*
Y36245D01*
X260318Y33821D01*
X261572Y31647D01*
X263347Y29873D01*
X265521Y28618D01*
X267945Y27968D01*
X270455D01*
X272879Y28618D01*
X275053Y29873D01*
X276828Y31647D01*
X278082Y33821D01*
X278732Y36245D01*
Y38755D01*
X278082Y41179D01*
X276828Y43353D01*
X275053Y45128D01*
X272879Y46382D01*
X270455Y47032D01*
D02*
G37*
G36*
X245055D02*
X242545D01*
X240121Y46382D01*
X237947Y45128D01*
X236173Y43353D01*
X234918Y41179D01*
X234268Y38755D01*
Y36245D01*
X234918Y33821D01*
X236173Y31647D01*
X237947Y29873D01*
X240121Y28618D01*
X242545Y27968D01*
X245055D01*
X247479Y28618D01*
X249653Y29873D01*
X251427Y31647D01*
X252682Y33821D01*
X253332Y36245D01*
Y38755D01*
X252682Y41179D01*
X251427Y43353D01*
X249653Y45128D01*
X247479Y46382D01*
X245055Y47032D01*
D02*
G37*
G36*
X202532D02*
X183468D01*
Y27968D01*
X202532D01*
Y47032D01*
D02*
G37*
G36*
X126255Y45432D02*
X123745D01*
X121321Y44782D01*
X119147Y43527D01*
X117373Y41753D01*
X116118Y39579D01*
X115468Y37155D01*
Y34645D01*
X116118Y32221D01*
X117373Y30047D01*
X119147Y28273D01*
X121321Y27018D01*
X123745Y26368D01*
X126255D01*
X128679Y27018D01*
X130853Y28273D01*
X132627Y30047D01*
X133882Y32221D01*
X134532Y34645D01*
Y37155D01*
X133882Y39579D01*
X132627Y41753D01*
X130853Y43527D01*
X128679Y44782D01*
X126255Y45432D01*
D02*
G37*
G36*
X928463Y141861D02*
X916537D01*
X914969Y141549D01*
X913640Y140660D01*
X912751Y139331D01*
X912439Y137762D01*
Y114738D01*
X912751Y113169D01*
X913640Y111840D01*
X914969Y110951D01*
X916537Y110639D01*
X919133D01*
Y59611D01*
X916537D01*
X914969Y59299D01*
X913640Y58410D01*
X912751Y57081D01*
X912439Y55512D01*
Y32487D01*
X912751Y30919D01*
X913640Y29590D01*
X914969Y28701D01*
X916537Y28389D01*
X919133D01*
Y26395D01*
X911105Y18367D01*
X858895D01*
X850867Y26395D01*
Y28389D01*
X853463D01*
X855031Y28701D01*
X856360Y29590D01*
X857249Y30919D01*
X857561Y32487D01*
Y55512D01*
X857249Y57081D01*
X856360Y58410D01*
X855031Y59299D01*
X853463Y59611D01*
X850867D01*
Y73397D01*
X851978Y74508D01*
X852782Y76449D01*
Y78551D01*
X851978Y80492D01*
X850867Y81603D01*
Y110639D01*
X853463D01*
X855031Y110951D01*
X856360Y111840D01*
X857249Y113169D01*
X857561Y114738D01*
Y137762D01*
X857249Y139331D01*
X856360Y140660D01*
X855031Y141549D01*
X853463Y141861D01*
X841537D01*
X839969Y141549D01*
X838640Y140660D01*
X837751Y139331D01*
X837439Y137762D01*
Y114738D01*
X837751Y113169D01*
X838640Y111840D01*
X839969Y110951D01*
X841537Y110639D01*
X844133D01*
Y81603D01*
X843022Y80492D01*
X842218Y78551D01*
Y76449D01*
X843022Y74508D01*
X844133Y73397D01*
Y59611D01*
X841537D01*
X839969Y59299D01*
X838640Y58410D01*
X837751Y57081D01*
X837439Y55512D01*
Y32487D01*
X837751Y30919D01*
X838640Y29590D01*
X839969Y28701D01*
X841537Y28389D01*
X844133D01*
Y25000D01*
X844390Y23712D01*
X845119Y22619D01*
X855119Y12619D01*
X856212Y11890D01*
X857500Y11633D01*
X912500D01*
X913788Y11890D01*
X914881Y12619D01*
X924881Y22619D01*
X925610Y23712D01*
X925867Y25000D01*
Y28389D01*
X928463D01*
X930031Y28701D01*
X931360Y29590D01*
X932249Y30919D01*
X932561Y32487D01*
Y55512D01*
X932249Y57081D01*
X931360Y58410D01*
X930031Y59299D01*
X928463Y59611D01*
X925867D01*
Y110639D01*
X928463D01*
X930031Y110951D01*
X931360Y111840D01*
X932249Y113169D01*
X932561Y114738D01*
Y137762D01*
X932249Y139331D01*
X931360Y140660D01*
X930031Y141549D01*
X928463Y141861D01*
D02*
G37*
%LPD*%
G36*
X144492Y404945D02*
X119761Y408730D01*
Y411270D01*
X144492Y415055D01*
Y404945D01*
D02*
G37*
G36*
X61332Y411270D02*
Y408730D01*
X42881Y406209D01*
Y413791D01*
X61332Y411270D01*
D02*
G37*
%LPC*%
G36*
X974290Y495250D02*
X966035D01*
Y478795D01*
X974290D01*
Y495250D01*
D02*
G37*
G36*
X964765D02*
X956510D01*
Y478795D01*
X964765D01*
Y495250D01*
D02*
G37*
G36*
X923490D02*
X915235D01*
Y478795D01*
X923490D01*
Y495250D01*
D02*
G37*
G36*
X913965D02*
X905710D01*
Y478795D01*
X913965D01*
Y495250D01*
D02*
G37*
G36*
X707770Y470520D02*
X702385D01*
Y463135D01*
X707770D01*
Y470520D01*
D02*
G37*
G36*
X701115D02*
X695730D01*
Y463135D01*
X701115D01*
Y470520D01*
D02*
G37*
G36*
X974290Y477525D02*
X966035D01*
Y461070D01*
X974290D01*
Y477525D01*
D02*
G37*
G36*
X964765D02*
X956510D01*
Y461070D01*
X964765D01*
Y477525D01*
D02*
G37*
G36*
X923490D02*
X915235D01*
Y461070D01*
X923490D01*
Y477525D01*
D02*
G37*
G36*
X913965D02*
X905710D01*
Y461070D01*
X913965D01*
Y477525D01*
D02*
G37*
G36*
X707770Y461865D02*
X702385D01*
Y454480D01*
X707770D01*
Y461865D01*
D02*
G37*
G36*
X701115D02*
X695730D01*
Y454480D01*
X701115D01*
Y461865D01*
D02*
G37*
G36*
X768020Y454270D02*
X760635D01*
Y448885D01*
X768020D01*
Y454270D01*
D02*
G37*
G36*
X759365D02*
X751980D01*
Y448885D01*
X759365D01*
Y454270D01*
D02*
G37*
G36*
X926270Y453770D02*
X920635D01*
Y443135D01*
X926270D01*
Y453770D01*
D02*
G37*
G36*
X919365D02*
X913730D01*
Y443135D01*
X919365D01*
Y453770D01*
D02*
G37*
G36*
X768020Y447615D02*
X760635D01*
Y442230D01*
X768020D01*
Y447615D01*
D02*
G37*
G36*
X759365D02*
X751980D01*
Y442230D01*
X759365D01*
Y447615D01*
D02*
G37*
G36*
X926270Y441865D02*
X920635D01*
Y431230D01*
X926270D01*
Y441865D01*
D02*
G37*
G36*
X919365D02*
X913730D01*
Y431230D01*
X919365D01*
Y441865D01*
D02*
G37*
G36*
X947112Y484692D02*
X932888D01*
Y460308D01*
X932907D01*
Y442500D01*
X932968Y442039D01*
Y430468D01*
X947032D01*
Y442039D01*
X947093Y442500D01*
Y460308D01*
X947112D01*
Y484692D01*
D02*
G37*
G36*
X847032Y454532D02*
X832968D01*
Y430468D01*
X836633D01*
Y426603D01*
X835522Y425492D01*
X834718Y423551D01*
Y421449D01*
X835522Y419508D01*
X837008Y418022D01*
X838949Y417218D01*
X841051D01*
X842992Y418022D01*
X844478Y419508D01*
X845282Y421449D01*
Y423551D01*
X844478Y425492D01*
X843367Y426603D01*
Y430468D01*
X847032D01*
Y454532D01*
D02*
G37*
G36*
X807032D02*
X792968D01*
Y430468D01*
X796633D01*
Y423895D01*
X789006Y416267D01*
X769532D01*
Y422432D01*
X750468D01*
Y403368D01*
X769532D01*
Y409533D01*
X790400D01*
X791688Y409790D01*
X792781Y410519D01*
X802381Y420119D01*
X803110Y421212D01*
X803367Y422500D01*
Y430468D01*
X807032D01*
Y454532D01*
D02*
G37*
G36*
X715532Y425532D02*
X701968D01*
Y415468D01*
X715532D01*
Y425532D01*
D02*
G37*
G36*
X827032Y454532D02*
X812968D01*
Y430468D01*
X816634D01*
Y421395D01*
X786105Y390867D01*
X768966D01*
X768882Y391179D01*
X767627Y393353D01*
X765853Y395127D01*
X763679Y396382D01*
X761255Y397032D01*
X758745D01*
X756321Y396382D01*
X754147Y395127D01*
X752373Y393353D01*
X751118Y391179D01*
X750468Y388755D01*
Y386245D01*
X751118Y383821D01*
X752373Y381647D01*
X754147Y379873D01*
X756321Y378618D01*
X758745Y377968D01*
X761255D01*
X763679Y378618D01*
X765853Y379873D01*
X767627Y381647D01*
X768882Y383821D01*
X768966Y384133D01*
X787500D01*
X788788Y384390D01*
X789881Y385119D01*
X822381Y417620D01*
X823111Y418712D01*
X823367Y420000D01*
Y430468D01*
X827032D01*
Y454532D01*
D02*
G37*
G36*
X728020Y376770D02*
X720635D01*
Y371385D01*
X728020D01*
Y376770D01*
D02*
G37*
G36*
X719365D02*
X711980D01*
Y371385D01*
X719365D01*
Y376770D01*
D02*
G37*
G36*
X887032Y454532D02*
X872968D01*
Y430468D01*
X876633D01*
Y426395D01*
X815705Y365467D01*
X768966D01*
X768882Y365779D01*
X767627Y367953D01*
X765853Y369728D01*
X763679Y370982D01*
X761255Y371632D01*
X758745D01*
X756321Y370982D01*
X754147Y369728D01*
X752373Y367953D01*
X751118Y365779D01*
X750468Y363355D01*
Y360845D01*
X751118Y358421D01*
X752373Y356247D01*
X754147Y354473D01*
X756321Y353218D01*
X758745Y352568D01*
X761255D01*
X763679Y353218D01*
X765853Y354473D01*
X767627Y356247D01*
X768882Y358421D01*
X768966Y358733D01*
X817100D01*
X818388Y358990D01*
X819481Y359719D01*
X882381Y422619D01*
X883110Y423712D01*
X883367Y425000D01*
Y430468D01*
X887032D01*
Y454532D01*
D02*
G37*
G36*
X728020Y370115D02*
X720635D01*
Y364730D01*
X728020D01*
Y370115D01*
D02*
G37*
G36*
X719365D02*
X711980D01*
Y364730D01*
X719365D01*
Y370115D01*
D02*
G37*
G36*
X907032Y454532D02*
X892968D01*
Y430468D01*
X896633D01*
Y421395D01*
X815305Y340067D01*
X768966D01*
X768882Y340379D01*
X767627Y342553D01*
X765853Y344328D01*
X763679Y345582D01*
X761255Y346232D01*
X758745D01*
X756321Y345582D01*
X754147Y344328D01*
X752373Y342553D01*
X751118Y340379D01*
X750468Y337955D01*
Y335445D01*
X751118Y333021D01*
X752373Y330847D01*
X754147Y329072D01*
X756321Y327818D01*
X758745Y327168D01*
X761255D01*
X763679Y327818D01*
X765853Y329072D01*
X767627Y330847D01*
X768882Y333021D01*
X768966Y333333D01*
X816700D01*
X817988Y333590D01*
X819081Y334319D01*
X902381Y417619D01*
X903110Y418712D01*
X903367Y420000D01*
Y430468D01*
X907032D01*
Y454532D01*
D02*
G37*
G36*
X946270Y291769D02*
X940635D01*
Y281134D01*
X946270D01*
Y291769D01*
D02*
G37*
G36*
X806270D02*
X800635D01*
Y281134D01*
X806270D01*
Y291769D01*
D02*
G37*
G36*
X939365D02*
X933730D01*
Y281134D01*
X939365D01*
Y291769D01*
D02*
G37*
G36*
X799365D02*
X793730D01*
Y281134D01*
X799365D01*
Y291769D01*
D02*
G37*
G36*
X770770Y290520D02*
X763385D01*
Y280635D01*
X770770D01*
Y290520D01*
D02*
G37*
G36*
X762115D02*
X754730D01*
Y280635D01*
X762115D01*
Y290520D01*
D02*
G37*
G36*
X770770Y279365D02*
X763385D01*
Y269480D01*
X770770D01*
Y279365D01*
D02*
G37*
G36*
X762115D02*
X754730D01*
Y269480D01*
X762115D01*
Y279365D01*
D02*
G37*
G36*
X946270Y279864D02*
X940635D01*
Y269229D01*
X946270D01*
Y279864D01*
D02*
G37*
G36*
X939365D02*
X933730D01*
Y269229D01*
X939365D01*
Y279864D01*
D02*
G37*
G36*
X806270D02*
X800635D01*
Y269229D01*
X806270D01*
Y279864D01*
D02*
G37*
G36*
X799365D02*
X793730D01*
Y269229D01*
X799365D01*
Y279864D01*
D02*
G37*
G36*
X761255Y320832D02*
X758745D01*
X756321Y320182D01*
X754147Y318927D01*
X752373Y317153D01*
X751118Y314979D01*
X750468Y312555D01*
Y310045D01*
X751118Y307621D01*
X752373Y305447D01*
X754147Y303673D01*
X756321Y302418D01*
X758745Y301768D01*
X761255D01*
X763679Y302418D01*
X765853Y303673D01*
X767627Y305447D01*
X768882Y307621D01*
X768966Y307933D01*
X907305D01*
X916633Y298605D01*
Y292531D01*
X912968D01*
Y268467D01*
X927032D01*
Y292531D01*
X923367D01*
Y300000D01*
X923110Y301288D01*
X922381Y302381D01*
X911081Y313681D01*
X909988Y314410D01*
X908700Y314667D01*
X768966D01*
X768882Y314979D01*
X767627Y317153D01*
X765853Y318927D01*
X763679Y320182D01*
X761255Y320832D01*
D02*
G37*
G36*
X907032Y292531D02*
X892968D01*
Y268467D01*
X896633D01*
Y261603D01*
X895522Y260492D01*
X894718Y258551D01*
Y256449D01*
X895522Y254508D01*
X897008Y253022D01*
X898949Y252218D01*
X901051D01*
X902992Y253022D01*
X904478Y254508D01*
X905282Y256449D01*
Y258551D01*
X904478Y260492D01*
X903367Y261603D01*
Y268467D01*
X907032D01*
Y292531D01*
D02*
G37*
G36*
X887032D02*
X872968D01*
Y268467D01*
X876633D01*
Y261603D01*
X875522Y260492D01*
X874718Y258551D01*
Y256449D01*
X875522Y254508D01*
X877008Y253022D01*
X878949Y252218D01*
X881051D01*
X882992Y253022D01*
X884478Y254508D01*
X885282Y256449D01*
Y258551D01*
X884478Y260492D01*
X883367Y261603D01*
Y268467D01*
X887032D01*
Y292531D01*
D02*
G37*
G36*
X867032D02*
X852968D01*
Y268467D01*
X856633D01*
Y261603D01*
X855522Y260492D01*
X854718Y258551D01*
Y256449D01*
X855522Y254508D01*
X857008Y253022D01*
X858949Y252218D01*
X861051D01*
X862992Y253022D01*
X864478Y254508D01*
X865282Y256449D01*
Y258551D01*
X864478Y260492D01*
X863367Y261603D01*
Y268467D01*
X867032D01*
Y292531D01*
D02*
G37*
G36*
X847032D02*
X832968D01*
Y268467D01*
X836633D01*
Y261603D01*
X835522Y260492D01*
X834718Y258551D01*
Y256449D01*
X835522Y254508D01*
X837008Y253022D01*
X838949Y252218D01*
X841051D01*
X842992Y253022D01*
X844478Y254508D01*
X845282Y256449D01*
Y258551D01*
X844478Y260492D01*
X843367Y261603D01*
Y268467D01*
X847032D01*
Y292531D01*
D02*
G37*
G36*
X827032D02*
X812968D01*
Y268467D01*
X816633D01*
Y261603D01*
X815522Y260492D01*
X814718Y258551D01*
Y256449D01*
X815522Y254508D01*
X817008Y253022D01*
X818949Y252218D01*
X821051D01*
X822992Y253022D01*
X824478Y254508D01*
X825282Y256449D01*
Y258551D01*
X824478Y260492D01*
X823367Y261603D01*
Y268467D01*
X827032D01*
Y292531D01*
D02*
G37*
G36*
X502454Y418770D02*
X501935D01*
Y410635D01*
X510070D01*
Y411155D01*
X509472Y413385D01*
X508318Y415385D01*
X506685Y417018D01*
X504685Y418172D01*
X502454Y418770D01*
D02*
G37*
G36*
X553255D02*
X552735D01*
Y410635D01*
X560870D01*
Y411155D01*
X560272Y413385D01*
X559118Y415385D01*
X557485Y417018D01*
X555485Y418172D01*
X553255Y418770D01*
D02*
G37*
G36*
X500665D02*
X500145D01*
X497915Y418172D01*
X495915Y417018D01*
X494282Y415385D01*
X493128Y413385D01*
X492530Y411155D01*
Y410635D01*
X500665D01*
Y418770D01*
D02*
G37*
G36*
X602265D02*
X601745D01*
X599515Y418172D01*
X597515Y417018D01*
X595882Y415385D01*
X594728Y413385D01*
X594130Y411155D01*
Y410635D01*
X602265D01*
Y418770D01*
D02*
G37*
G36*
X551465D02*
X550945D01*
X548715Y418172D01*
X546715Y417018D01*
X545082Y415385D01*
X543928Y413385D01*
X543330Y411155D01*
Y410635D01*
X551465D01*
Y418770D01*
D02*
G37*
G36*
X501300Y410000D02*
D01*
D01*
D01*
D02*
G37*
G36*
X602265Y409365D02*
X594130D01*
Y408845D01*
X594728Y406615D01*
X595882Y404615D01*
X597515Y402982D01*
X599515Y401828D01*
X601745Y401230D01*
X602265D01*
Y409365D01*
D02*
G37*
G36*
X560870D02*
X552735D01*
Y401230D01*
X553255D01*
X555485Y401828D01*
X557485Y402982D01*
X559118Y404615D01*
X560272Y406615D01*
X560870Y408845D01*
Y409365D01*
D02*
G37*
G36*
X551465D02*
X543330D01*
Y408845D01*
X543928Y406615D01*
X545082Y404615D01*
X546715Y402982D01*
X548715Y401828D01*
X550945Y401230D01*
X551465D01*
Y409365D01*
D02*
G37*
G36*
X510070D02*
X501935D01*
Y401230D01*
X502454D01*
X504685Y401828D01*
X506685Y402982D01*
X508318Y404615D01*
X509472Y406615D01*
X510070Y408845D01*
Y409365D01*
D02*
G37*
G36*
X500665D02*
X492530D01*
Y408845D01*
X493128Y406615D01*
X494282Y404615D01*
X495915Y402982D01*
X497915Y401828D01*
X500145Y401230D01*
X500665D01*
Y409365D01*
D02*
G37*
G36*
X372828Y483365D02*
X366635D01*
Y471755D01*
X367767Y471904D01*
X369414Y472586D01*
X370828Y473672D01*
X371914Y475086D01*
X372596Y476733D01*
X372828Y478500D01*
Y483365D01*
D02*
G37*
G36*
X366635Y454245D02*
Y444635D01*
X372828D01*
Y447500D01*
X372596Y449267D01*
X371914Y450914D01*
X370828Y452328D01*
X369414Y453414D01*
X367767Y454096D01*
X366635Y454245D01*
D02*
G37*
G36*
X553255Y448770D02*
X552735D01*
Y440635D01*
X560870D01*
Y441155D01*
X560272Y443385D01*
X559118Y445385D01*
X557485Y447018D01*
X555485Y448172D01*
X553255Y448770D01*
D02*
G37*
G36*
X551465D02*
X550945D01*
X548715Y448172D01*
X546715Y447018D01*
X545082Y445385D01*
X543928Y443385D01*
X543330Y441155D01*
Y440635D01*
X551465D01*
Y448770D01*
D02*
G37*
G36*
X502454D02*
X501935D01*
Y440635D01*
X510070D01*
Y441155D01*
X509472Y443385D01*
X508318Y445385D01*
X506685Y447018D01*
X504685Y448172D01*
X502454Y448770D01*
D02*
G37*
G36*
X500665D02*
X500145D01*
X497915Y448172D01*
X495915Y447018D01*
X494282Y445385D01*
X493128Y443385D01*
X492530Y441155D01*
Y440635D01*
X500665D01*
Y448770D01*
D02*
G37*
G36*
X451655D02*
X451135D01*
Y440635D01*
X459270D01*
Y441155D01*
X458672Y443385D01*
X457518Y445385D01*
X455885Y447018D01*
X453885Y448172D01*
X451655Y448770D01*
D02*
G37*
G36*
X449865D02*
X449345D01*
X447115Y448172D01*
X445115Y447018D01*
X443482Y445385D01*
X442328Y443385D01*
X441730Y441155D01*
Y440635D01*
X449865D01*
Y448770D01*
D02*
G37*
G36*
X372828Y443365D02*
X366635D01*
Y433755D01*
X367767Y433904D01*
X369414Y434586D01*
X370828Y435672D01*
X371914Y437086D01*
X372596Y438733D01*
X372828Y440500D01*
Y443365D01*
D02*
G37*
G36*
X560870Y439365D02*
X552735D01*
Y431230D01*
X553255D01*
X555485Y431828D01*
X557485Y432982D01*
X559118Y434615D01*
X560272Y436615D01*
X560870Y438845D01*
Y439365D01*
D02*
G37*
G36*
X551465D02*
X543330D01*
Y438845D01*
X543928Y436615D01*
X545082Y434615D01*
X546715Y432982D01*
X548715Y431828D01*
X550945Y431230D01*
X551465D01*
Y439365D01*
D02*
G37*
G36*
X510070D02*
X501935D01*
Y431230D01*
X502454D01*
X504685Y431828D01*
X506685Y432982D01*
X508318Y434615D01*
X509472Y436615D01*
X510070Y438845D01*
Y439365D01*
D02*
G37*
G36*
X500665D02*
X492530D01*
Y438845D01*
X493128Y436615D01*
X494282Y434615D01*
X495915Y432982D01*
X497915Y431828D01*
X500145Y431230D01*
X500665D01*
Y439365D01*
D02*
G37*
G36*
X459270D02*
X451135D01*
Y431230D01*
X451655D01*
X453885Y431828D01*
X455885Y432982D01*
X457518Y434615D01*
X458672Y436615D01*
X459270Y438845D01*
Y439365D01*
D02*
G37*
G36*
X449865D02*
X441730D01*
Y438845D01*
X442328Y436615D01*
X443482Y434615D01*
X445115Y432982D01*
X447115Y431828D01*
X449345Y431230D01*
X449865D01*
Y439365D01*
D02*
G37*
G36*
X345607Y430865D02*
X342435D01*
Y423693D01*
X343675D01*
X344414Y423840D01*
X345041Y424259D01*
X345460Y424886D01*
X345607Y425625D01*
Y430865D01*
D02*
G37*
G36*
X375385Y416270D02*
Y410635D01*
X381270D01*
Y416270D01*
X375385D01*
D02*
G37*
G36*
X381270Y409365D02*
X375385D01*
Y403730D01*
X381270D01*
Y409365D01*
D02*
G37*
G36*
X397770Y395520D02*
X392385D01*
Y388135D01*
X397770D01*
Y395520D01*
D02*
G37*
G36*
X391115D02*
X385730D01*
Y388135D01*
X391115D01*
Y395520D01*
D02*
G37*
G36*
X397770Y386865D02*
X392385D01*
Y379480D01*
X397770D01*
Y386865D01*
D02*
G37*
G36*
X391115D02*
X385730D01*
Y379480D01*
X391115D01*
Y386865D01*
D02*
G37*
G36*
X368520Y369020D02*
X363885D01*
Y365635D01*
X368520D01*
Y369020D01*
D02*
G37*
G36*
X362615D02*
X357980D01*
Y365635D01*
X362615D01*
Y369020D01*
D02*
G37*
G36*
X368520Y364365D02*
X363885D01*
Y360980D01*
X368520D01*
Y364365D01*
D02*
G37*
G36*
X362615D02*
X357980D01*
Y360980D01*
X362615D01*
Y364365D01*
D02*
G37*
G36*
X384270Y358020D02*
X378885D01*
Y350635D01*
X384270D01*
Y358020D01*
D02*
G37*
G36*
X377615D02*
X372230D01*
Y350635D01*
X377615D01*
Y358020D01*
D02*
G37*
G36*
X384270Y349365D02*
X378885D01*
Y341980D01*
X384270D01*
Y349365D01*
D02*
G37*
G36*
X377615D02*
X372230D01*
Y341980D01*
X377615D01*
Y349365D01*
D02*
G37*
G36*
X388020Y327770D02*
X380635D01*
Y322385D01*
X388020D01*
Y327770D01*
D02*
G37*
G36*
X379365D02*
X371980D01*
Y322385D01*
X379365D01*
Y327770D01*
D02*
G37*
G36*
X388020Y321115D02*
X380635D01*
Y315730D01*
X388020D01*
Y321115D01*
D02*
G37*
G36*
X379365D02*
X371980D01*
Y315730D01*
X379365D01*
Y321115D01*
D02*
G37*
G36*
X450385Y318706D02*
Y311135D01*
X452982D01*
Y315600D01*
X452736Y316837D01*
X452035Y317885D01*
X450987Y318586D01*
X450385Y318706D01*
D02*
G37*
G36*
X452982Y309865D02*
X450385D01*
Y302294D01*
X450987Y302414D01*
X452035Y303115D01*
X452736Y304163D01*
X452982Y305400D01*
Y309865D01*
D02*
G37*
G36*
X492770Y243020D02*
X487385D01*
Y235635D01*
X492770D01*
Y243020D01*
D02*
G37*
G36*
X486115D02*
X480730D01*
Y235635D01*
X486115D01*
Y243020D01*
D02*
G37*
G36*
X492770Y234365D02*
X487385D01*
Y226980D01*
X492770D01*
Y234365D01*
D02*
G37*
G36*
X486115D02*
X480730D01*
Y226980D01*
X486115D01*
Y234365D01*
D02*
G37*
%LPD*%
D14*
X28750Y403750D02*
X35000Y410000D01*
X22500Y397500D02*
X28750Y403750D01*
X22500Y388750D02*
Y397500D01*
Y380000D02*
Y388750D01*
Y380000D02*
X28750Y373750D01*
X35000Y367500D01*
X77100D01*
X35000Y410000D02*
X42500D01*
D16*
X561750Y467500D02*
X570000D01*
X577500Y460000D01*
X535000Y467500D02*
X543250D01*
X526700Y459200D02*
X535000Y467500D01*
X431178Y466178D02*
X439428D01*
X425100Y440000D02*
Y460100D01*
X431178Y466178D01*
X439428D02*
X440750Y467500D01*
X459250D02*
X467500D01*
X475900Y459100D01*
X75750Y177500D02*
X78250D01*
X65000D02*
X75750D01*
X54600Y167100D02*
X65000Y177500D01*
X37500Y167100D02*
X54600D01*
X37500D02*
X37709Y167309D01*
Y176922D01*
X60787Y200000D01*
X78250D01*
X70000Y225000D02*
X94777D01*
X37500Y192500D02*
X70000Y225000D01*
X40000Y287900D02*
X50400Y277500D01*
X78250D01*
X562500Y395000D02*
X577500Y410000D01*
X520000Y395000D02*
X562500D01*
X515000Y390000D02*
X520000Y395000D01*
X515000Y200000D02*
Y390000D01*
X300000Y377500D02*
X358500Y319000D01*
X300000Y377500D02*
Y392500D01*
X455948Y257500D02*
X477500Y279052D01*
X439200Y257500D02*
X455948D01*
X477500Y279052D02*
Y370000D01*
X295000Y225000D02*
X311500Y241500D01*
X325800D01*
X320000Y387500D02*
X322500Y385000D01*
X315000Y387500D02*
X320000D01*
X322500Y370000D02*
Y385000D01*
X315000Y370000D02*
X366500Y318500D01*
X315000Y370000D02*
Y387500D01*
X407500Y246796D02*
Y247500D01*
X412140Y240360D02*
Y242156D01*
X407500Y246796D02*
X412140Y242156D01*
Y240360D02*
X419000Y233500D01*
X412140Y252860D02*
X423500Y241500D01*
X407500Y259296D02*
Y260000D01*
Y259296D02*
X412140Y254656D01*
Y252860D02*
Y254656D01*
X419000Y233500D02*
X439200D01*
X414750Y145250D02*
Y160550D01*
X414500Y160800D02*
X414750Y160550D01*
Y145250D02*
X415000Y145000D01*
X422500Y160800D02*
X422500Y160800D01*
Y135000D02*
Y160800D01*
X405948Y137624D02*
Y160248D01*
Y137624D02*
X407500Y136072D01*
X405948Y160248D02*
X406500Y160800D01*
X407500Y135000D02*
Y136072D01*
X398500Y134000D02*
X405000Y127500D01*
X432500D02*
X457500Y152500D01*
X405000Y127500D02*
X432500D01*
X872500Y165000D02*
X887500Y150000D01*
Y126250D02*
Y150000D01*
X872500Y165000D02*
Y173250D01*
X603250Y236750D02*
Y267500D01*
Y236750D02*
X627500Y212500D01*
X645000D01*
X615950Y231550D02*
X630000Y217500D01*
X657500D01*
X615950Y231550D02*
Y267500D01*
X632500Y222500D02*
X680000D01*
X628650Y226350D02*
Y267500D01*
Y226350D02*
X632500Y222500D01*
X661397Y233603D02*
X662500Y232500D01*
X657432Y237441D02*
X661270Y233603D01*
X661397D01*
X662500Y232500D02*
X720000D01*
X654050Y240950D02*
X657432Y237568D01*
X654050Y240950D02*
Y267500D01*
X657432Y237441D02*
Y237568D01*
X666750Y248011D02*
Y267500D01*
X677689Y237072D02*
X727928D01*
X666750Y248011D02*
X677689Y237072D01*
X680000Y255000D02*
Y266950D01*
X693356Y241644D02*
X753356D01*
X680000Y255000D02*
X693356Y241644D01*
X439200Y177500D02*
X517500D01*
X540000Y200000D02*
Y222500D01*
X517500Y177500D02*
X540000Y200000D01*
X652928Y289572D02*
X696894D01*
X731106Y255360D02*
X762241D01*
X696894Y289572D02*
X731106Y255360D01*
X729212Y250788D02*
X760348D01*
X650000Y285000D02*
X695000D01*
X729212Y250788D01*
X762241Y255360D02*
X772601Y245000D01*
X892500D01*
X905000Y232500D01*
Y190000D02*
Y232500D01*
X912500Y182500D02*
X922500D01*
X905000Y190000D02*
X912500Y182500D01*
X922500D02*
X925000Y180000D01*
Y173250D02*
Y180000D01*
X950000Y201250D02*
Y210750D01*
Y191750D02*
Y201250D01*
X925000Y201250D02*
Y210750D01*
Y191750D02*
Y201250D01*
X950000D01*
X950000Y201250D01*
X950000Y191750D02*
X950000Y191750D01*
X872500Y201250D02*
Y210750D01*
Y191750D02*
Y201250D01*
X845000D02*
Y210750D01*
Y191750D02*
Y201250D01*
X872500D01*
X812072Y165428D02*
X817500Y160000D01*
X812072Y165428D02*
Y199063D01*
X817500Y160000D02*
X840000D01*
X760348Y250788D02*
X812072Y199063D01*
X840000Y160000D02*
X845000Y165000D01*
Y173250D01*
X962500Y126250D02*
Y152500D01*
X950000Y165000D02*
X962500Y152500D01*
X950000Y165000D02*
Y173250D01*
X925000Y155000D02*
Y173250D01*
X962500Y44000D02*
Y126250D01*
X887500Y44000D02*
Y126250D01*
X847500Y25000D02*
Y126250D01*
X950000Y210750D02*
X950000Y210750D01*
X603250Y339250D02*
X652928Y289572D01*
X590550Y344450D02*
X650000Y285000D01*
X603250Y339250D02*
Y367500D01*
X462500Y385000D02*
X477500Y370000D01*
X110000Y152500D02*
X125000Y137500D01*
X110000Y152500D02*
Y170000D01*
X102500Y177500D02*
X110000Y170000D01*
X96750Y177500D02*
X102500D01*
X112500Y200000D02*
X125000Y187500D01*
X96750Y200000D02*
X112500D01*
X125000Y162900D02*
Y187500D01*
X65000Y250000D02*
X98250D01*
X52100Y237100D02*
X65000Y250000D01*
X40000Y237100D02*
X52100D01*
X847500Y25000D02*
X857500Y15000D01*
X912500D01*
X922500Y25000D01*
Y44000D01*
X177500Y70000D02*
X210000D01*
X168322Y79178D02*
Y91428D01*
Y79178D02*
X177500Y70000D01*
X215856Y60856D02*
X240000Y85000D01*
Y122069D02*
X295431Y177500D01*
X240000Y85000D02*
Y122069D01*
X212928Y65428D02*
X235000Y87500D01*
Y123534D01*
X295736Y184270D01*
X230000Y125000D02*
X297270Y192270D01*
X230000Y90000D02*
Y125000D01*
X210000Y70000D02*
X230000Y90000D01*
X158750Y456250D02*
X161678Y459178D01*
X158750Y410000D02*
Y427500D01*
Y456250D01*
X172428Y459178D02*
X173250Y460000D01*
X161678Y459178D02*
X172428D01*
X225000Y465000D02*
X230000Y460000D01*
Y451750D02*
Y460000D01*
X206750Y465000D02*
X225000D01*
X201750Y460000D02*
X206750Y465000D01*
X277500Y305000D02*
Y315000D01*
Y300000D02*
Y305000D01*
X40000Y392500D02*
X50750D01*
X60400Y465000D02*
X80750D01*
X28750Y403750D02*
X40000Y392500D01*
X582500Y387500D02*
X590550Y379450D01*
Y367500D02*
Y379450D01*
X459500Y249500D02*
X472500Y262500D01*
Y262500D01*
X439200Y249500D02*
X459500D01*
X382500Y115000D02*
X390000Y107500D01*
X382500Y115000D02*
Y160800D01*
Y202500D01*
X325800Y217500D02*
X340000D01*
X270000D02*
X325800D01*
X340000D02*
X355000Y202500D01*
X382500D02*
Y217500D01*
X355000Y202500D02*
X382500D01*
X443009Y310259D02*
X443250Y310500D01*
X443009Y295509D02*
Y310259D01*
X315000Y257500D02*
X325800D01*
X310000Y262500D02*
X315000Y257500D01*
X437500Y400000D02*
X470000Y367500D01*
Y287500D02*
Y367500D01*
X427500Y287500D02*
X470000D01*
X413258Y343258D02*
X418258D01*
X412500Y342500D02*
X413258Y343258D01*
X418258D02*
X436577Y361577D01*
Y369328D02*
X436750Y369500D01*
X436577Y361577D02*
Y369328D01*
X309250Y295000D02*
X325000D01*
X332500Y287500D01*
X462500Y170000D02*
X513966D01*
X410000Y380000D02*
X414900Y384900D01*
X405000Y350000D02*
X410000Y355000D01*
Y380000D01*
X396750Y350000D02*
X405000D01*
X414900Y384900D02*
X425100D01*
Y410000D01*
Y384900D02*
X430250Y379750D01*
Y369500D02*
Y379750D01*
X308000Y249500D02*
X325800D01*
X302500Y255000D02*
X308000Y249500D01*
X423500Y241500D02*
X439200D01*
X900000Y280499D02*
X900000Y280499D01*
X900000Y257500D02*
Y280499D01*
X880000Y257500D02*
Y280499D01*
X860000Y257500D02*
Y280499D01*
X457500Y152500D02*
X510000D01*
X460000Y147500D02*
X480000D01*
X447500Y135000D02*
X460000Y147500D01*
X447500Y120000D02*
Y135000D01*
X398500Y134000D02*
Y160800D01*
X342500Y242500D02*
X367500Y217500D01*
X342500Y242500D02*
Y274200D01*
X435000Y107500D02*
X447500Y120000D01*
X390000Y107500D02*
X435000D01*
X390000Y92500D02*
Y107500D01*
X439200Y225500D02*
X449777D01*
X523250Y90500D02*
Y100750D01*
X545000Y122500D01*
X607500Y387500D02*
X615950Y379050D01*
Y367500D02*
Y379050D01*
X628351Y367799D02*
X628650Y367500D01*
X628351Y367799D02*
Y376649D01*
X592500Y395000D02*
X610000D01*
X628351Y376649D01*
X577500Y410000D02*
X592500Y395000D01*
X443009Y369741D02*
X443250Y369500D01*
X443009Y369741D02*
Y384491D01*
X442500Y385000D02*
X443009Y384491D01*
X660000Y387500D02*
Y432500D01*
X667500Y440000D01*
X660000Y387500D02*
X666750Y380750D01*
Y367500D02*
Y380750D01*
X628300Y410000D02*
X642500D01*
X654050Y398450D01*
Y367500D02*
Y398450D01*
X590550Y344450D02*
Y367500D01*
X840000Y257500D02*
Y280499D01*
X820000Y257500D02*
Y280499D01*
X641350Y367500D02*
Y383650D01*
X630000Y395000D02*
X641350Y383650D01*
X620000Y395000D02*
X630000D01*
X615000Y400000D02*
X620000Y395000D01*
X615000Y400000D02*
Y417500D01*
X607500Y425000D02*
X615000Y417500D01*
X541700Y425000D02*
X607500D01*
X526700Y440000D02*
X541700Y425000D01*
X673000Y420500D02*
X681250D01*
X667500Y415000D02*
X673000Y420500D01*
X667500Y397500D02*
Y415000D01*
X533000Y321250D02*
Y332000D01*
X525000Y340000D02*
X533000Y332000D01*
X452500Y162500D02*
X515000D01*
X521762Y155738D02*
X523250Y154250D01*
X515000Y162500D02*
X521762Y155738D01*
X521762D01*
X529750Y134500D02*
Y154216D01*
X513966Y170000D02*
X529750Y154216D01*
X523250Y134500D02*
Y154250D01*
X515500Y185500D02*
X522500Y192500D01*
X439200Y185500D02*
X515500D01*
X439200Y193500D02*
X508500D01*
X515000Y200000D01*
X501500Y201500D02*
X507500Y207500D01*
Y390800D01*
X439200Y201500D02*
X501500D01*
X507500Y390800D02*
X526700Y410000D01*
X500000Y215000D02*
Y385900D01*
X439200Y209500D02*
X494500D01*
X475900Y410000D02*
X500000Y385900D01*
X494500Y209500D02*
X500000Y215000D01*
X840000Y442500D02*
X840000Y442500D01*
X840000Y422500D02*
Y442500D01*
X920000Y280499D02*
Y300000D01*
X908700Y311300D02*
X920000Y300000D01*
X760000Y311300D02*
X908700D01*
X900000Y420000D02*
Y442500D01*
X816700Y336700D02*
X900000Y420000D01*
X760000Y336700D02*
X816700D01*
X760000Y362100D02*
X817100D01*
X880000Y425000D02*
Y442500D01*
X817100Y362100D02*
X880000Y425000D01*
X900000Y442500D02*
X900000Y442500D01*
X880000Y442500D02*
X880000Y442500D01*
X820000Y420000D02*
Y442500D01*
X787500Y387500D02*
X820000Y420000D01*
X760000Y387500D02*
X787500D01*
X800000Y422500D02*
Y442500D01*
X800000Y442500D01*
X760000Y412900D02*
X790400D01*
X800000Y422500D01*
X462500Y385000D02*
Y415000D01*
X471250Y423750D01*
X511250D01*
X526700Y439200D01*
Y440000D01*
X475900Y438400D02*
Y440000D01*
X462500Y425000D02*
X475900Y438400D01*
X445000Y425000D02*
X462500D01*
X437500Y417500D02*
X445000Y425000D01*
X437500Y400000D02*
Y417500D01*
X422500Y282500D02*
X427500Y287500D01*
X422500Y274200D02*
Y282500D01*
X422500Y274200D02*
X422500Y274200D01*
X432500Y295000D02*
X436750Y299250D01*
Y310500D01*
X420000Y295000D02*
X432500D01*
X414500Y289500D02*
X420000Y295000D01*
X414500Y274200D02*
Y289500D01*
X430009Y310741D02*
Y319991D01*
X427500Y322500D02*
X430009Y319991D01*
Y310741D02*
X430250Y310500D01*
X420000Y322500D02*
X427500D01*
X406500Y309000D02*
X420000Y322500D01*
X406500Y274200D02*
Y309000D01*
X449750Y359750D02*
Y369500D01*
X398500Y274200D02*
Y308500D01*
X449750Y359750D01*
X443250Y360750D02*
Y369500D01*
X390500Y274200D02*
Y308000D01*
X443250Y360750D01*
X563750Y226250D02*
X627500Y162500D01*
X577850Y240350D02*
Y267500D01*
X551750Y238250D02*
X563750Y226250D01*
X577850Y240350D01*
X627500Y121750D02*
Y162500D01*
X551750Y238250D02*
Y267500D01*
Y293500D01*
X552000Y293750D01*
X612500Y440000D02*
X628300Y424200D01*
Y410000D02*
Y424200D01*
X785000Y194250D02*
Y210000D01*
X753356Y241644D02*
X785000Y210000D01*
X727928Y237072D02*
X762500Y202500D01*
Y121750D02*
Y202500D01*
X692150Y255350D02*
X701284Y246216D01*
X758454D01*
X807500Y197170D01*
Y121750D02*
Y197170D01*
X692150Y255350D02*
Y267500D01*
X679450D02*
X680000Y266950D01*
X720000Y232500D02*
X740000Y212500D01*
X647500Y227500D02*
X697500D01*
X641350Y233650D02*
Y267500D01*
Y233650D02*
X647500Y227500D01*
X697500D02*
X717500Y207500D01*
X680000Y222500D02*
X695000Y207500D01*
X657500Y217500D02*
X672500Y202500D01*
X740000Y194250D02*
Y212500D01*
X717500Y121750D02*
X717500Y121750D01*
Y207500D01*
X695000Y194250D02*
Y207500D01*
X672500Y121750D02*
Y202500D01*
X645000Y212500D02*
X650000Y207500D01*
Y194250D02*
Y207500D01*
X712500Y72500D02*
X717500Y77500D01*
X695000Y72500D02*
X712500D01*
X717500Y77500D02*
Y93250D01*
X688500Y66000D02*
X695000Y72500D01*
X802500Y75000D02*
X807500Y80000D01*
Y93250D01*
X785000Y75000D02*
X802500D01*
X778500Y68500D02*
X785000Y75000D01*
X778500Y57500D02*
Y68500D01*
X785000Y90330D02*
Y165750D01*
X770500Y57500D02*
Y75830D01*
X785000Y90330D01*
X740000Y82500D02*
Y165750D01*
X754500Y57500D02*
Y68000D01*
X740000Y82500D02*
X754500Y68000D01*
X762500Y57500D02*
Y93250D01*
X762500Y93250D02*
X762500Y93250D01*
X688500Y57500D02*
Y66000D01*
X695000Y80000D02*
Y165750D01*
X680500Y65500D02*
X695000Y80000D01*
X680500Y57500D02*
Y65500D01*
X650000Y82500D02*
X664500Y68000D01*
Y57500D02*
Y68000D01*
X672500Y57500D02*
Y93250D01*
X650000Y82500D02*
Y165750D01*
X627500Y61750D02*
Y93250D01*
X374500Y286660D02*
X380000Y292160D01*
X374500Y274200D02*
Y286660D01*
X380000Y292160D02*
Y303250D01*
X459277Y235000D02*
X468250D01*
X449777Y225500D02*
X459277Y235000D01*
X412000Y225500D02*
X439200D01*
X382500Y247500D02*
X390000D01*
X412000Y225500D01*
X277500Y300000D02*
X282500Y295000D01*
X290750D01*
X277500Y315000D02*
X282500Y320000D01*
X290750D01*
X358500Y274200D02*
Y319000D01*
X366500Y274200D02*
Y318500D01*
X334000Y358500D02*
X341750D01*
X322500Y370000D02*
X334000Y358500D01*
X330000Y375000D02*
Y387500D01*
X332928Y372072D02*
X341178D01*
X330000Y375000D02*
X332928Y372072D01*
X341178D02*
X341750Y371500D01*
X382500Y217500D02*
X382500Y217500D01*
Y247500D01*
X362500D02*
X382500D01*
X350500Y259500D02*
X362500Y247500D01*
X880000Y280499D02*
X880000Y280499D01*
X860000Y280499D02*
X860000Y280499D01*
X840000Y280499D02*
X840000Y280499D01*
X820000Y280499D02*
X820000Y280499D01*
X510250Y134500D02*
Y144750D01*
X157500Y275000D02*
Y284000D01*
X152500Y270000D02*
X157500Y275000D01*
X142500Y270000D02*
X152500D01*
X202500Y275000D02*
Y283250D01*
X197500Y270000D02*
X202500Y275000D01*
X187500Y270000D02*
X197500D01*
X242500D02*
X247500Y275000D01*
X235000Y270000D02*
X242500D01*
X247500Y275000D02*
Y283250D01*
X215000Y377500D02*
X242500D01*
X247500Y359250D02*
Y372500D01*
X242500Y377500D02*
X247500Y372500D01*
X162500Y377500D02*
X202500D01*
X157500Y359250D02*
Y372500D01*
X162500Y377500D01*
X194500Y392500D02*
X210000D01*
X215000Y377500D02*
Y387500D01*
X210000Y392500D02*
X215000Y387500D01*
X202500Y377500D02*
X215000D01*
X202500Y359250D02*
Y377500D01*
X157500Y302500D02*
Y330750D01*
X247500Y301750D02*
Y330750D01*
X202500Y301750D02*
Y330750D01*
X480000Y136750D02*
Y147500D01*
X172500Y195000D02*
X185000D01*
Y213250D01*
X184500Y213750D02*
X185000Y213250D01*
X242500Y145000D02*
X299000Y201500D01*
X232500Y135000D02*
X242500Y145000D01*
X235000Y152500D02*
X242500Y145000D01*
X219250Y152500D02*
X235000D01*
X184250D02*
X200750D01*
X195000Y135000D02*
X232500D01*
X187000Y127000D02*
X195000Y135000D01*
X187000Y118250D02*
Y127000D01*
X207500Y77500D02*
X215000Y85000D01*
Y98250D01*
X187500Y77500D02*
X207500D01*
X146272Y65428D02*
X212928D01*
X125444Y60856D02*
X215856D01*
X217500Y255356D02*
X217857Y255713D01*
X322500Y395000D02*
X330000Y387500D01*
X510250Y80250D02*
Y90500D01*
X506732Y76732D02*
X510250Y80250D01*
X506732Y53220D02*
Y76732D01*
X516934Y80701D02*
X520732Y76903D01*
Y67593D02*
Y76903D01*
X516934Y80701D02*
Y90316D01*
X516750Y90500D02*
X516934Y90316D01*
X501012Y47500D02*
X506732Y53220D01*
X495000Y47500D02*
X501012D01*
X525000D02*
X532500D01*
X520732Y51768D02*
Y67593D01*
Y51768D02*
X525000Y47500D01*
X425100Y410000D02*
Y440000D01*
X480000Y147500D02*
X507500D01*
X510250Y144750D01*
X516750Y134500D02*
Y145750D01*
X510000Y152500D02*
X516750Y145750D01*
X439200Y249500D02*
X439450Y249750D01*
X577500Y440000D02*
X612500D01*
X577500D02*
Y460000D01*
X526700Y440000D02*
Y459200D01*
X475900Y440000D02*
Y459100D01*
X342500Y145000D02*
Y160800D01*
X342500Y160800D02*
X342500Y160800D01*
X307500Y227500D02*
X313500Y233500D01*
X325800D01*
X370800Y40872D02*
X374500Y44572D01*
X370800Y37500D02*
Y40872D01*
X374500Y44572D02*
Y160800D01*
X366500Y58600D02*
Y160800D01*
X345400Y37500D02*
X366500Y58600D01*
X320000Y37500D02*
X358500Y76000D01*
Y160800D01*
X326750Y80000D02*
X342500D01*
X350500Y88000D02*
Y160800D01*
X342500Y80000D02*
X350500Y88000D01*
X271750Y80000D02*
X298250D01*
X150400Y162900D02*
X162500Y175000D01*
X125000Y162900D02*
X150400D01*
X162500Y175000D02*
X265000D01*
X299448Y209448D01*
X325748D01*
X299000Y201500D02*
X325800D01*
X125000Y86700D02*
X146272Y65428D01*
X295431Y177500D02*
X325800D01*
X125000Y61300D02*
X125444Y60856D01*
X295736Y184270D02*
X324570D01*
X325800Y185500D01*
X185000Y195000D02*
X232500D01*
X187250Y77750D02*
X187500Y77500D01*
X187000Y91750D02*
X187250Y91500D01*
Y77750D02*
Y91500D01*
X168000Y91750D02*
X168322Y91428D01*
X297270Y192270D02*
X324570D01*
X325800Y193500D01*
X255000Y217500D02*
X270000D01*
X232500Y195000D02*
X255000Y217500D01*
X325748Y209448D02*
X325800Y209500D01*
X37500Y126000D02*
Y167100D01*
X21250Y390000D02*
X22500Y388750D01*
X109500Y410000D02*
X145000D01*
X42500D02*
X65500D01*
X152000Y409500D02*
X152500Y410000D01*
X350500Y259500D02*
Y274200D01*
X922500Y44000D02*
Y126250D01*
X37500Y43750D02*
Y126000D01*
X940000Y442500D02*
X940000Y442500D01*
D17*
X48025Y424359D02*
Y424359D01*
X52553Y420416D02*
X55602Y420000D01*
X51391Y420993D02*
X51875Y420509D01*
X52553Y420416D01*
X48025Y424359D02*
X51391Y420993D01*
X44297Y428088D02*
Y429297D01*
Y428088D02*
X48025Y424359D01*
X42500Y440000D02*
X52500Y430000D01*
X129572Y428106D02*
Y440428D01*
X120000Y450000D02*
X129572Y440428D01*
X35000Y427500D02*
Y465000D01*
X109500Y420000D02*
X121466D01*
X129572Y428106D01*
X52500Y430000D02*
X65500D01*
X44992Y417508D02*
X45446Y417112D01*
X45809Y416960D02*
X46651Y416609D01*
X35000Y427500D02*
X44992Y417508D01*
X45446Y417112D02*
X45809Y416960D01*
X46651Y416609D02*
X58424Y415000D01*
X55602Y420000D02*
X65500D01*
X58424Y415000D02*
X65500D01*
X134342Y416842D02*
X140000Y422500D01*
X122307Y415000D02*
X134342Y416842D01*
X140000Y422500D02*
Y440000D01*
X110000Y442500D02*
X120000D01*
X125000Y437500D01*
Y430000D02*
Y437500D01*
X120000Y425000D02*
X125000Y430000D01*
X109500Y425000D02*
X120000D01*
X109500Y415000D02*
X122307D01*
D19*
X77500Y126000D02*
D03*
Y43750D02*
D03*
X37500D02*
D03*
Y126000D02*
D03*
X922500Y44000D02*
D03*
Y126250D02*
D03*
X962500D02*
D03*
Y44000D02*
D03*
X847500D02*
D03*
Y126250D02*
D03*
X887500D02*
D03*
Y44000D02*
D03*
D20*
X422500Y160800D02*
D03*
X414500D02*
D03*
X406500D02*
D03*
X398500D02*
D03*
X390500D02*
D03*
X382500D02*
D03*
X374500D02*
D03*
X366500D02*
D03*
X358500D02*
D03*
X350500D02*
D03*
X342500D02*
D03*
Y274200D02*
D03*
X350500D02*
D03*
X358500D02*
D03*
X366500D02*
D03*
X374500D02*
D03*
X382500D02*
D03*
X390500D02*
D03*
X398500D02*
D03*
X406500D02*
D03*
X414500D02*
D03*
X422500D02*
D03*
D21*
X439200Y257500D02*
D03*
Y249500D02*
D03*
Y241500D02*
D03*
Y233500D02*
D03*
Y225500D02*
D03*
Y217500D02*
D03*
Y209500D02*
D03*
Y201500D02*
D03*
Y193500D02*
D03*
Y185500D02*
D03*
Y177500D02*
D03*
X325800D02*
D03*
Y185500D02*
D03*
Y193500D02*
D03*
Y201500D02*
D03*
Y209500D02*
D03*
Y217500D02*
D03*
Y225500D02*
D03*
Y233500D02*
D03*
Y241500D02*
D03*
Y249500D02*
D03*
Y257500D02*
D03*
D22*
X109500Y410000D02*
D03*
Y415000D02*
D03*
Y420000D02*
D03*
Y425000D02*
D03*
Y430000D02*
D03*
X65500Y410000D02*
D03*
Y415000D02*
D03*
Y420000D02*
D03*
Y425000D02*
D03*
Y430000D02*
D03*
D23*
X520732Y67593D02*
D03*
X506732D02*
D03*
D24*
X529750Y90500D02*
D03*
X523250D02*
D03*
X516750D02*
D03*
X510250D02*
D03*
X529750Y134500D02*
D03*
X523250D02*
D03*
X516750D02*
D03*
X510250D02*
D03*
D25*
X577850Y267500D02*
D03*
X590550D02*
D03*
X603250D02*
D03*
X615950D02*
D03*
X628650D02*
D03*
X641350D02*
D03*
X654050D02*
D03*
X666750D02*
D03*
X679450D02*
D03*
X692150D02*
D03*
X577850Y367500D02*
D03*
X590550D02*
D03*
X603250D02*
D03*
X615950D02*
D03*
X628650D02*
D03*
X641350D02*
D03*
X654050D02*
D03*
X666750D02*
D03*
X679450D02*
D03*
X692150D02*
D03*
D26*
X449750Y369500D02*
D03*
X443250D02*
D03*
X436750D02*
D03*
X430250D02*
D03*
X449750Y310500D02*
D03*
X443250D02*
D03*
X436750D02*
D03*
X430250D02*
D03*
D27*
X840000Y280499D02*
D03*
X860000D02*
D03*
X880000D02*
D03*
X900000D02*
D03*
X920000D02*
D03*
X940000D02*
D03*
Y442500D02*
D03*
X920000D02*
D03*
X900000D02*
D03*
X880000D02*
D03*
X860000D02*
D03*
X840000D02*
D03*
X820000D02*
D03*
X800000D02*
D03*
X820000Y280499D02*
D03*
X800000D02*
D03*
D28*
X708750Y420500D02*
D03*
X681250D02*
D03*
Y430000D02*
D03*
Y439500D02*
D03*
X708750D02*
D03*
D29*
X341750Y371500D02*
D03*
Y358500D02*
D03*
X363250Y365000D02*
D03*
D30*
X187000Y91750D02*
D03*
X177500D02*
D03*
X168000D02*
D03*
Y118250D02*
D03*
X177500D02*
D03*
X187000D02*
D03*
D31*
X533000Y293750D02*
D03*
Y321250D02*
D03*
X542500D02*
D03*
X552000D02*
D03*
Y293750D02*
D03*
X165500Y213750D02*
D03*
Y241250D02*
D03*
X175000D02*
D03*
X184500D02*
D03*
Y213750D02*
D03*
D32*
X688500Y57500D02*
D03*
X680500D02*
D03*
X672500D02*
D03*
X664500D02*
D03*
X688500Y39500D02*
D03*
X680500D02*
D03*
X672500D02*
D03*
X664500D02*
D03*
X778500Y57500D02*
D03*
X770500D02*
D03*
X762500D02*
D03*
X754500D02*
D03*
X778500Y39500D02*
D03*
X770500D02*
D03*
X762500D02*
D03*
X754500D02*
D03*
D33*
X627500Y43250D02*
D03*
Y61750D02*
D03*
X925000Y210750D02*
D03*
Y229250D02*
D03*
X845000Y210750D02*
D03*
Y229250D02*
D03*
X925000Y173250D02*
D03*
Y191750D02*
D03*
X950000D02*
D03*
Y173250D02*
D03*
X845000Y191750D02*
D03*
Y173250D02*
D03*
X872500Y191750D02*
D03*
Y173250D02*
D03*
X202500Y283250D02*
D03*
Y301750D02*
D03*
X157500Y284000D02*
D03*
Y302500D02*
D03*
X247500Y283250D02*
D03*
Y301750D02*
D03*
X230000Y451750D02*
D03*
Y433250D02*
D03*
X480000Y118250D02*
D03*
Y136750D02*
D03*
X950000Y210750D02*
D03*
Y229250D02*
D03*
X872500Y210750D02*
D03*
Y229250D02*
D03*
X760000Y448250D02*
D03*
Y466750D02*
D03*
X720000Y370750D02*
D03*
Y389250D02*
D03*
X380000Y321750D02*
D03*
Y303250D02*
D03*
X215000Y98250D02*
D03*
Y116750D02*
D03*
X390000Y74000D02*
D03*
Y92500D02*
D03*
X270000Y217500D02*
D03*
Y236000D02*
D03*
X140000Y458500D02*
D03*
Y440000D02*
D03*
X552500Y366750D02*
D03*
Y348250D02*
D03*
X217500Y220750D02*
D03*
Y239250D02*
D03*
D34*
X253250Y80000D02*
D03*
X271750D02*
D03*
X561750Y467500D02*
D03*
X543250D02*
D03*
X440750D02*
D03*
X459250D02*
D03*
X200750Y152500D02*
D03*
X219250D02*
D03*
X391750Y387500D02*
D03*
X373250D02*
D03*
X290750Y345000D02*
D03*
X309250D02*
D03*
X290750Y320000D02*
D03*
X309250D02*
D03*
Y295000D02*
D03*
X290750D02*
D03*
X78250Y277500D02*
D03*
X96750D02*
D03*
X98250Y250000D02*
D03*
X116750D02*
D03*
X96750Y200000D02*
D03*
X78250D02*
D03*
X99250Y465000D02*
D03*
X80750D02*
D03*
X75750Y177500D02*
D03*
X94250D02*
D03*
X551000Y47500D02*
D03*
X532500D02*
D03*
X476500D02*
D03*
X495000D02*
D03*
X378250Y350000D02*
D03*
X396750D02*
D03*
X701750Y462500D02*
D03*
X683250D02*
D03*
X184250Y152500D02*
D03*
X165750D02*
D03*
X468250Y235000D02*
D03*
X486750D02*
D03*
X116750Y225000D02*
D03*
X98250D02*
D03*
X69250Y392500D02*
D03*
X50750D02*
D03*
X177250Y427500D02*
D03*
X158750D02*
D03*
X533250Y267500D02*
D03*
X551750D02*
D03*
X154000Y195000D02*
D03*
X172500D02*
D03*
D35*
X374750Y410000D02*
D03*
X360250D02*
D03*
D36*
X341800Y431500D02*
D03*
X333800D02*
D03*
X285800D02*
D03*
X277800D02*
D03*
D37*
X317300D02*
D03*
X312300D02*
D03*
X302300D02*
D03*
X292300D02*
D03*
X327300D02*
D03*
X322300D02*
D03*
X307300D02*
D03*
X297300D02*
D03*
D38*
X732250Y280000D02*
D03*
X762750D02*
D03*
X222000Y410000D02*
D03*
X252500D02*
D03*
X42250Y330000D02*
D03*
X72750D02*
D03*
D39*
X965400Y478160D02*
D03*
X914600D02*
D03*
D40*
X940000Y472500D02*
D03*
D41*
X807500Y121750D02*
D03*
Y93250D02*
D03*
X785000Y194250D02*
D03*
Y165750D02*
D03*
X762500Y121750D02*
D03*
Y93250D02*
D03*
X740000Y194250D02*
D03*
Y165750D02*
D03*
X717500Y121750D02*
D03*
Y93250D02*
D03*
X627500Y121750D02*
D03*
Y93250D02*
D03*
X695000Y194250D02*
D03*
Y165750D02*
D03*
X672500Y121750D02*
D03*
Y93250D02*
D03*
X650000Y194250D02*
D03*
Y165750D02*
D03*
X202500Y359250D02*
D03*
Y330750D02*
D03*
X157500Y359250D02*
D03*
Y330750D02*
D03*
X247500Y359250D02*
D03*
Y330750D02*
D03*
D42*
X326750Y80000D02*
D03*
X298250D02*
D03*
X173250Y460000D02*
D03*
X201750D02*
D03*
D43*
X194500Y392500D02*
D03*
X171500D02*
D03*
X114500Y330000D02*
D03*
X91500D02*
D03*
D44*
X130000Y358000D02*
D03*
Y381000D02*
D03*
D79*
X307300Y399800D02*
Y431500D01*
X300000Y392500D02*
X307300Y399800D01*
X302300Y404770D02*
Y431500D01*
X288022Y390492D02*
X302300Y404770D01*
X322300Y410200D02*
Y431500D01*
X345000Y387500D02*
X373250D01*
X322300Y410200D02*
X345000Y387500D01*
X275000D02*
X292300Y404800D01*
X275000Y350000D02*
Y387500D01*
X292300Y404800D02*
Y431500D01*
X315000Y387500D02*
Y388640D01*
X312300Y391340D02*
X315000Y388640D01*
X312300Y391340D02*
Y431500D01*
X280000Y345000D02*
X290750D01*
X275000Y350000D02*
X280000Y345000D01*
X317300Y400200D02*
Y431500D01*
Y400200D02*
X322500Y395000D01*
D80*
X737500Y467500D02*
X855000D01*
X860000Y462500D01*
X730000Y415000D02*
Y439500D01*
X720000Y405000D02*
X730000Y415000D01*
X690000Y405000D02*
X720000D01*
Y389250D02*
Y405000D01*
X679450Y367500D02*
Y394450D01*
X690000Y405000D01*
X730000Y460000D02*
X737500Y467500D01*
X730000Y439500D02*
Y460000D01*
X860000Y442500D02*
Y462500D01*
X708750Y439500D02*
X730000D01*
D81*
X217857Y255713D02*
X258213D01*
X272500Y270000D01*
X165000Y255713D02*
X184500D01*
X217857D01*
X20000Y337500D02*
X27500Y330000D01*
X552500Y335000D02*
Y348250D01*
Y324420D02*
Y335000D01*
X667500Y440384D02*
Y457500D01*
X672500Y462500D01*
X667500Y440000D02*
X667884D01*
X668384Y439500D01*
X681250D01*
X672500Y462500D02*
X683250D01*
X157000Y392500D02*
X171500D01*
X152000Y397500D02*
X157000Y392500D01*
X333800Y416200D02*
X340000Y410000D01*
X333800Y416200D02*
Y431500D01*
X217500Y239250D02*
Y255356D01*
X130000Y387500D02*
X140000Y397500D01*
X152000D01*
Y409500D01*
X184500Y241250D02*
Y255213D01*
X165000Y255713D02*
X165500Y255213D01*
Y241250D02*
Y255213D01*
X139287Y255713D02*
X165000D01*
X130000Y265000D02*
X139287Y255713D01*
X130000Y265000D02*
Y330000D01*
X20000Y337500D02*
Y365000D01*
X27500Y330000D02*
X42250D01*
X20000Y365000D02*
X28750Y373750D01*
X72750Y330000D02*
X91500D01*
X130000D02*
Y358000D01*
X114500Y330000D02*
X130000D01*
Y381000D02*
Y387500D01*
X280000Y410000D02*
X285800Y415800D01*
Y431500D01*
D82*
X340000Y410000D02*
X357500D01*
D83*
X158750Y410000D02*
X158750Y410000D01*
X200000D01*
X222000D01*
X145000Y410000D02*
X152500D01*
X158750D01*
X252500Y410000D02*
X280000D01*
D84*
X940000Y442500D02*
Y472500D01*
D85*
X57500Y67500D02*
D03*
X927500Y412500D02*
D03*
X942500Y42500D02*
D03*
D86*
X37500Y167100D02*
D03*
X40000Y237100D02*
D03*
X760000Y412900D02*
D03*
X125000Y162900D02*
D03*
D87*
X37500Y192500D02*
D03*
X40000Y262500D02*
D03*
Y287900D02*
D03*
X60400Y465000D02*
D03*
X760000Y311300D02*
D03*
Y336700D02*
D03*
Y362100D02*
D03*
Y387500D02*
D03*
X243800Y37500D02*
D03*
X421600D02*
D03*
X396200D02*
D03*
X370800D02*
D03*
X345400D02*
D03*
X320000D02*
D03*
X294600D02*
D03*
X269200D02*
D03*
X218400D02*
D03*
X577500Y410000D02*
D03*
X552100D02*
D03*
X526700D02*
D03*
X501300D02*
D03*
X475900D02*
D03*
X450500D02*
D03*
X425100D02*
D03*
X602900D02*
D03*
X577500Y440000D02*
D03*
X552100D02*
D03*
X526700D02*
D03*
X501300D02*
D03*
X450500D02*
D03*
X475900D02*
D03*
X102500Y367500D02*
D03*
X125000Y137500D02*
D03*
Y112100D02*
D03*
Y86700D02*
D03*
Y61300D02*
D03*
Y35900D02*
D03*
D88*
X35000Y465000D02*
D03*
X193000Y37500D02*
D03*
X628300Y410000D02*
D03*
X425100Y440000D02*
D03*
X77100Y367500D02*
D03*
D89*
X366000Y444000D02*
D03*
X253600D02*
D03*
D90*
X366000Y484000D02*
D03*
X253600D02*
D03*
D91*
X300000Y392500D02*
D03*
X288022Y390492D02*
D03*
X455000Y257500D02*
D03*
X295000Y225000D02*
D03*
X315000Y387500D02*
D03*
X44297Y429297D02*
D03*
X42500Y440000D02*
D03*
X407500Y247500D02*
D03*
Y260000D02*
D03*
X415000Y145000D02*
D03*
X422500Y135000D02*
D03*
X407500D02*
D03*
X894997Y70560D02*
D03*
X915000Y90000D02*
D03*
X629781Y179590D02*
D03*
X593878Y179887D02*
D03*
X527152Y171731D02*
D03*
X497161Y138446D02*
D03*
X635872Y229929D02*
D03*
X650285Y234963D02*
D03*
X663984Y240155D02*
D03*
X677619Y247619D02*
D03*
X624498Y290370D02*
D03*
X180113Y332888D02*
D03*
X405377Y390777D02*
D03*
X419636Y372334D02*
D03*
X365413Y332604D02*
D03*
X396399Y329567D02*
D03*
X791730Y142291D02*
D03*
X643377Y138075D02*
D03*
X149815Y387392D02*
D03*
X177275Y368646D02*
D03*
X222362Y311268D02*
D03*
X275000Y290000D02*
D03*
X291352Y270376D02*
D03*
X282500Y250000D02*
D03*
X435000Y277500D02*
D03*
X982500Y232500D02*
D03*
X858594Y237675D02*
D03*
X822733Y201300D02*
D03*
X858844Y164290D02*
D03*
X858855Y193242D02*
D03*
X357500Y425000D02*
D03*
X265000Y427500D02*
D03*
X390000Y487500D02*
D03*
X462500Y490000D02*
D03*
X557500D02*
D03*
X630000D02*
D03*
X660000Y487500D02*
D03*
X577500Y347500D02*
D03*
X530000Y357500D02*
D03*
X542500Y282500D02*
D03*
X575000Y320000D02*
D03*
X525000Y382500D02*
D03*
X490000Y265000D02*
D03*
X472500Y217500D02*
D03*
X775000Y257500D02*
D03*
X392192Y119853D02*
D03*
X424692Y117353D02*
D03*
X827500Y147500D02*
D03*
X897500Y202500D02*
D03*
X545000Y122500D02*
D03*
X925000Y155000D02*
D03*
X847500Y77500D02*
D03*
X972500Y267500D02*
D03*
X781625Y324045D02*
D03*
X732500Y337500D02*
D03*
X680000Y482500D02*
D03*
X695000Y430000D02*
D03*
X177500Y105000D02*
D03*
X318759Y332389D02*
D03*
X365000Y350000D02*
D03*
X520000Y112500D02*
D03*
X87500Y420000D02*
D03*
X175000Y227500D02*
D03*
X450000Y332500D02*
D03*
X487500Y462500D02*
D03*
X517500D02*
D03*
X615000D02*
D03*
X642500Y447500D02*
D03*
X740000Y367500D02*
D03*
Y397500D02*
D03*
X702500Y395000D02*
D03*
X707500Y482500D02*
D03*
X720000Y450000D02*
D03*
X742500Y445000D02*
D03*
X737500Y482500D02*
D03*
X782500D02*
D03*
X815000D02*
D03*
X855000D02*
D03*
X890000D02*
D03*
X880000Y467500D02*
D03*
X780000Y437500D02*
D03*
X782500Y372500D02*
D03*
Y400000D02*
D03*
X810000Y425000D02*
D03*
X872500Y405000D02*
D03*
X805000Y347500D02*
D03*
X817500Y390000D02*
D03*
X877500Y375000D02*
D03*
X907500Y390000D02*
D03*
X967500Y415000D02*
D03*
X847500Y340000D02*
D03*
X927500Y362500D02*
D03*
X965000Y375000D02*
D03*
X930000Y335000D02*
D03*
X967500D02*
D03*
X972500Y300000D02*
D03*
X935000Y307500D02*
D03*
X900000Y335000D02*
D03*
X810000Y300000D02*
D03*
X902500D02*
D03*
X860000D02*
D03*
X865000Y325000D02*
D03*
X807500Y322500D02*
D03*
X782500Y292500D02*
D03*
X982500Y165000D02*
D03*
Y20000D02*
D03*
X942004Y126697D02*
D03*
X942615Y88189D02*
D03*
X867648Y119450D02*
D03*
X867500Y40000D02*
D03*
X805000Y15000D02*
D03*
X827500Y42500D02*
D03*
X805000Y65000D02*
D03*
X737500Y35000D02*
D03*
X717500D02*
D03*
X720000Y65000D02*
D03*
X740000D02*
D03*
X647500Y62500D02*
D03*
X640000Y27500D02*
D03*
X730000Y50000D02*
D03*
X597500Y77500D02*
D03*
X552500Y70000D02*
D03*
X570000Y35000D02*
D03*
X512500Y30000D02*
D03*
X452500Y37500D02*
D03*
X460000Y97500D02*
D03*
X487500Y67500D02*
D03*
X457500Y72500D02*
D03*
X487500Y95000D02*
D03*
X545000Y87500D02*
D03*
X597500Y30000D02*
D03*
X600000Y145000D02*
D03*
X547500Y155000D02*
D03*
X707500Y255000D02*
D03*
X692500Y320000D02*
D03*
X647500Y335000D02*
D03*
X590000Y297500D02*
D03*
Y235000D02*
D03*
X565000Y245000D02*
D03*
X532500Y240000D02*
D03*
X290000Y370000D02*
D03*
X275000Y330000D02*
D03*
X342500Y305000D02*
D03*
X377500Y257500D02*
D03*
X352500Y245000D02*
D03*
X345000Y190000D02*
D03*
X370000Y185000D02*
D03*
X402500Y182500D02*
D03*
X412500Y207500D02*
D03*
X420000Y80000D02*
D03*
X212500Y427500D02*
D03*
X265000Y390000D02*
D03*
X225000Y482500D02*
D03*
X130000D02*
D03*
X400000Y440000D02*
D03*
X490000Y327500D02*
D03*
X482500Y382500D02*
D03*
X84768Y237378D02*
D03*
X145000Y237500D02*
D03*
X137500Y212500D02*
D03*
X145000Y177500D02*
D03*
X170000Y132500D02*
D03*
X152500Y82500D02*
D03*
Y37500D02*
D03*
X240000Y60000D02*
D03*
X337500Y112500D02*
D03*
X242500Y165000D02*
D03*
Y217500D02*
D03*
X225000Y185000D02*
D03*
X255000Y195000D02*
D03*
X260000Y122500D02*
D03*
X287500Y145000D02*
D03*
X102500Y115000D02*
D03*
Y50000D02*
D03*
X57500Y42500D02*
D03*
X55000Y122500D02*
D03*
X77500Y82500D02*
D03*
X102500Y15000D02*
D03*
X17500Y17500D02*
D03*
X15000Y95000D02*
D03*
Y177500D02*
D03*
Y245000D02*
D03*
Y322500D02*
D03*
Y422500D02*
D03*
Y485000D02*
D03*
X35000Y382500D02*
D03*
X72500Y310000D02*
D03*
X115000Y385000D02*
D03*
X117500Y352500D02*
D03*
X77500Y350000D02*
D03*
X35000D02*
D03*
X117500Y305000D02*
D03*
X272500Y270000D02*
D03*
X582500Y387500D02*
D03*
X472500Y262500D02*
D03*
X442500Y295000D02*
D03*
X310000Y262500D02*
D03*
X470000Y287500D02*
D03*
X412500Y342500D02*
D03*
X332500Y287500D02*
D03*
X462500Y170000D02*
D03*
X302500Y255000D02*
D03*
X880000Y257500D02*
D03*
X900000D02*
D03*
X860000D02*
D03*
X367500Y217500D02*
D03*
X435000Y107500D02*
D03*
X607500Y387500D02*
D03*
X442500Y385000D02*
D03*
X840000Y257500D02*
D03*
X820000D02*
D03*
X667500Y397500D02*
D03*
X525000Y340000D02*
D03*
X452500Y162500D02*
D03*
X522500Y192500D02*
D03*
X515000Y200000D02*
D03*
X507500Y207500D02*
D03*
X540000Y222500D02*
D03*
X500000Y215000D02*
D03*
X840000Y422500D02*
D03*
X552500Y335000D02*
D03*
X667500Y440000D02*
D03*
X277500Y305000D02*
D03*
X382500Y247500D02*
D03*
X142500Y270000D02*
D03*
X187500D02*
D03*
X235000D02*
D03*
X120000Y450000D02*
D03*
X342500Y145000D02*
D03*
X307500Y227500D02*
D03*
X185000Y195000D02*
D03*
X187500Y77500D02*
D03*
X110000Y442500D02*
D03*
X322500Y395000D02*
D03*
D92*
X340000Y410000D02*
D03*
X200000D02*
D03*
X280000D02*
D03*
M02*
