G04*
G04 #@! TF.GenerationSoftware,Altium Limited,Altium Designer,21.6.1 (37)*
G04*
G04 Layer_Color=8388736*
%FSLAX44Y44*%
%MOMM*%
G71*
G04*
G04 #@! TF.SameCoordinates,E457EF80-1144-4942-8A44-04504F566FFE*
G04*
G04*
G04 #@! TF.FilePolarity,Negative*
G04*
G01*
G75*
G04:AMPARAMS|DCode=45|XSize=2.85mm|YSize=1.74mm|CornerRadius=0.2737mm|HoleSize=0mm|Usage=FLASHONLY|Rotation=90.000|XOffset=0mm|YOffset=0mm|HoleType=Round|Shape=RoundedRectangle|*
%AMROUNDEDRECTD45*
21,1,2.8500,1.1925,0,0,90.0*
21,1,2.3025,1.7400,0,0,90.0*
1,1,0.5475,0.5963,1.1513*
1,1,0.5475,0.5963,-1.1513*
1,1,0.5475,-0.5963,-1.1513*
1,1,0.5475,-0.5963,1.1513*
%
%ADD45ROUNDEDRECTD45*%
G04:AMPARAMS|DCode=46|XSize=1.62mm|YSize=0.6mm|CornerRadius=0.1313mm|HoleSize=0mm|Usage=FLASHONLY|Rotation=270.000|XOffset=0mm|YOffset=0mm|HoleType=Round|Shape=RoundedRectangle|*
%AMROUNDEDRECTD46*
21,1,1.6200,0.3375,0,0,270.0*
21,1,1.3575,0.6000,0,0,270.0*
1,1,0.2625,-0.1688,-0.6788*
1,1,0.2625,-0.1688,0.6788*
1,1,0.2625,0.1688,0.6788*
1,1,0.2625,0.1688,-0.6788*
%
%ADD46ROUNDEDRECTD46*%
G04:AMPARAMS|DCode=47|XSize=1.62mm|YSize=0.6mm|CornerRadius=0.1313mm|HoleSize=0mm|Usage=FLASHONLY|Rotation=0.000|XOffset=0mm|YOffset=0mm|HoleType=Round|Shape=RoundedRectangle|*
%AMROUNDEDRECTD47*
21,1,1.6200,0.3375,0,0,0.0*
21,1,1.3575,0.6000,0,0,0.0*
1,1,0.2625,0.6788,-0.1688*
1,1,0.2625,-0.6788,-0.1688*
1,1,0.2625,-0.6788,0.1688*
1,1,0.2625,0.6788,0.1688*
%
%ADD47ROUNDEDRECTD47*%
%ADD48O,1.5500X0.3950*%
G04:AMPARAMS|DCode=49|XSize=1.25mm|YSize=0.75mm|CornerRadius=0.105mm|HoleSize=0mm|Usage=FLASHONLY|Rotation=270.000|XOffset=0mm|YOffset=0mm|HoleType=Round|Shape=RoundedRectangle|*
%AMROUNDEDRECTD49*
21,1,1.2500,0.5400,0,0,270.0*
21,1,1.0400,0.7500,0,0,270.0*
1,1,0.2100,-0.2700,-0.5200*
1,1,0.2100,-0.2700,0.5200*
1,1,0.2100,0.2700,0.5200*
1,1,0.2100,0.2700,-0.5200*
%
%ADD49ROUNDEDRECTD49*%
%ADD50O,0.5000X1.5500*%
%ADD51O,0.7000X1.7500*%
%ADD52O,0.5300X1.5500*%
%ADD53R,1.1500X2.1500*%
%ADD54R,1.1000X0.7500*%
%ADD55R,0.9500X0.7000*%
%ADD56R,0.7500X1.2000*%
%ADD57R,0.7500X1.1000*%
%ADD58R,0.6000X1.1000*%
%ADD59R,1.5000X1.1000*%
%ADD60R,1.1000X1.5000*%
%ADD61R,1.2000X1.1500*%
G04:AMPARAMS|DCode=62|XSize=1.45mm|YSize=0.65mm|CornerRadius=0.1375mm|HoleSize=0mm|Usage=FLASHONLY|Rotation=270.000|XOffset=0mm|YOffset=0mm|HoleType=Round|Shape=RoundedRectangle|*
%AMROUNDEDRECTD62*
21,1,1.4500,0.3750,0,0,270.0*
21,1,1.1750,0.6500,0,0,270.0*
1,1,0.2750,-0.1875,-0.5875*
1,1,0.2750,-0.1875,0.5875*
1,1,0.2750,0.1875,0.5875*
1,1,0.2750,0.1875,-0.5875*
%
%ADD62ROUNDEDRECTD62*%
G04:AMPARAMS|DCode=63|XSize=1.45mm|YSize=0.38mm|CornerRadius=0.1038mm|HoleSize=0mm|Usage=FLASHONLY|Rotation=270.000|XOffset=0mm|YOffset=0mm|HoleType=Round|Shape=RoundedRectangle|*
%AMROUNDEDRECTD63*
21,1,1.4500,0.1725,0,0,270.0*
21,1,1.2425,0.3800,0,0,270.0*
1,1,0.2075,-0.0863,-0.6213*
1,1,0.2075,-0.0863,0.6213*
1,1,0.2075,0.0863,0.6213*
1,1,0.2075,0.0863,-0.6213*
%
%ADD63ROUNDEDRECTD63*%
%ADD64R,1.5000X2.0000*%
%ADD65R,1.6740X3.3140*%
%ADD66R,1.1660X2.1820*%
%ADD67R,2.4500X2.0000*%
%ADD68R,2.0000X2.4500*%
G04:AMPARAMS|DCode=69|XSize=0.95mm|YSize=1.05mm|CornerRadius=0.115mm|HoleSize=0mm|Usage=FLASHONLY|Rotation=180.000|XOffset=0mm|YOffset=0mm|HoleType=Round|Shape=RoundedRectangle|*
%AMROUNDEDRECTD69*
21,1,0.9500,0.8200,0,0,180.0*
21,1,0.7200,1.0500,0,0,180.0*
1,1,0.2300,-0.3600,0.4100*
1,1,0.2300,0.3600,0.4100*
1,1,0.2300,0.3600,-0.4100*
1,1,0.2300,-0.3600,-0.4100*
%
%ADD69ROUNDEDRECTD69*%
G04:AMPARAMS|DCode=70|XSize=0.95mm|YSize=1.05mm|CornerRadius=0.115mm|HoleSize=0mm|Usage=FLASHONLY|Rotation=90.000|XOffset=0mm|YOffset=0mm|HoleType=Round|Shape=RoundedRectangle|*
%AMROUNDEDRECTD70*
21,1,0.9500,0.8200,0,0,90.0*
21,1,0.7200,1.0500,0,0,90.0*
1,1,0.2300,0.4100,0.3600*
1,1,0.2300,0.4100,-0.3600*
1,1,0.2300,-0.4100,-0.3600*
1,1,0.2300,-0.4100,0.3600*
%
%ADD70ROUNDEDRECTD70*%
%ADD71C,1.6740*%
%ADD72R,1.6500X1.6500*%
%ADD73C,1.6500*%
%ADD74R,1.6500X1.6500*%
G04:AMPARAMS|DCode=75|XSize=1.95mm|YSize=1.25mm|CornerRadius=0.625mm|HoleSize=0mm|Usage=FLASHONLY|Rotation=270.000|XOffset=0mm|YOffset=0mm|HoleType=Round|Shape=RoundedRectangle|*
%AMROUNDEDRECTD75*
21,1,1.9500,0.0000,0,0,270.0*
21,1,0.7000,1.2500,0,0,270.0*
1,1,1.2500,0.0000,-0.3500*
1,1,1.2500,0.0000,0.3500*
1,1,1.2500,0.0000,0.3500*
1,1,1.2500,0.0000,-0.3500*
%
%ADD75ROUNDEDRECTD75*%
G04:AMPARAMS|DCode=76|XSize=2.35mm|YSize=1.25mm|CornerRadius=0.625mm|HoleSize=0mm|Usage=FLASHONLY|Rotation=270.000|XOffset=0mm|YOffset=0mm|HoleType=Round|Shape=RoundedRectangle|*
%AMROUNDEDRECTD76*
21,1,2.3500,0.0000,0,0,270.0*
21,1,1.1000,1.2500,0,0,270.0*
1,1,1.2500,0.0000,-0.5500*
1,1,1.2500,0.0000,0.5500*
1,1,1.2500,0.0000,0.5500*
1,1,1.2500,0.0000,-0.5500*
%
%ADD76ROUNDEDRECTD76*%
%ADD77C,0.8000*%
%ADD78C,1.4500*%
D45*
X77500Y126000D02*
D03*
Y43750D02*
D03*
X37500D02*
D03*
Y126000D02*
D03*
X922500Y44000D02*
D03*
Y126250D02*
D03*
X962500D02*
D03*
Y44000D02*
D03*
X847500D02*
D03*
Y126250D02*
D03*
X887500D02*
D03*
Y44000D02*
D03*
D46*
X422500Y160800D02*
D03*
X414500D02*
D03*
X406500D02*
D03*
X398500D02*
D03*
X390500D02*
D03*
X382500D02*
D03*
X374500D02*
D03*
X366500D02*
D03*
X358500D02*
D03*
X350500D02*
D03*
X342500D02*
D03*
Y274200D02*
D03*
X350500D02*
D03*
X358500D02*
D03*
X366500D02*
D03*
X374500D02*
D03*
X382500D02*
D03*
X390500D02*
D03*
X398500D02*
D03*
X406500D02*
D03*
X414500D02*
D03*
X422500D02*
D03*
D47*
X439200Y257500D02*
D03*
Y249500D02*
D03*
Y241500D02*
D03*
Y233500D02*
D03*
Y225500D02*
D03*
Y217500D02*
D03*
Y209500D02*
D03*
Y201500D02*
D03*
Y193500D02*
D03*
Y185500D02*
D03*
Y177500D02*
D03*
X325800D02*
D03*
Y185500D02*
D03*
Y193500D02*
D03*
Y201500D02*
D03*
Y209500D02*
D03*
Y217500D02*
D03*
Y225500D02*
D03*
Y233500D02*
D03*
Y241500D02*
D03*
Y249500D02*
D03*
Y257500D02*
D03*
D48*
X109500Y410000D02*
D03*
Y415000D02*
D03*
Y420000D02*
D03*
Y425000D02*
D03*
Y430000D02*
D03*
X65500Y410000D02*
D03*
Y415000D02*
D03*
Y420000D02*
D03*
Y425000D02*
D03*
Y430000D02*
D03*
D49*
X520732Y67593D02*
D03*
X506732D02*
D03*
D50*
X529750Y90500D02*
D03*
X523250D02*
D03*
X516750D02*
D03*
X510250D02*
D03*
X529750Y134500D02*
D03*
X523250D02*
D03*
X516750D02*
D03*
X510250D02*
D03*
D51*
X577850Y267500D02*
D03*
X590550D02*
D03*
X603250D02*
D03*
X615950D02*
D03*
X628650D02*
D03*
X641350D02*
D03*
X654050D02*
D03*
X666750D02*
D03*
X679450D02*
D03*
X692150D02*
D03*
X577850Y367500D02*
D03*
X590550D02*
D03*
X603250D02*
D03*
X615950D02*
D03*
X628650D02*
D03*
X641350D02*
D03*
X654050D02*
D03*
X666750D02*
D03*
X679450D02*
D03*
X692150D02*
D03*
D52*
X449750Y369500D02*
D03*
X443250D02*
D03*
X436750D02*
D03*
X430250D02*
D03*
X449750Y310500D02*
D03*
X443250D02*
D03*
X436750D02*
D03*
X430250D02*
D03*
D53*
X840000Y280499D02*
D03*
X860000D02*
D03*
X880000D02*
D03*
X900000D02*
D03*
X920000D02*
D03*
X940000D02*
D03*
Y442500D02*
D03*
X920000D02*
D03*
X900000D02*
D03*
X880000D02*
D03*
X860000D02*
D03*
X840000D02*
D03*
X820000D02*
D03*
X800000D02*
D03*
X820000Y280499D02*
D03*
X800000D02*
D03*
D54*
X708750Y420500D02*
D03*
X681250D02*
D03*
Y430000D02*
D03*
Y439500D02*
D03*
X708750D02*
D03*
D55*
X341750Y371500D02*
D03*
Y358500D02*
D03*
X363250Y365000D02*
D03*
D56*
X187000Y91750D02*
D03*
X177500D02*
D03*
X168000D02*
D03*
Y118250D02*
D03*
X177500D02*
D03*
X187000D02*
D03*
D57*
X533000Y293750D02*
D03*
Y321250D02*
D03*
X542500D02*
D03*
X552000D02*
D03*
Y293750D02*
D03*
X165500Y213750D02*
D03*
Y241250D02*
D03*
X175000D02*
D03*
X184500D02*
D03*
Y213750D02*
D03*
D58*
X688500Y57500D02*
D03*
X680500D02*
D03*
X672500D02*
D03*
X664500D02*
D03*
X688500Y39500D02*
D03*
X680500D02*
D03*
X672500D02*
D03*
X664500D02*
D03*
X778500Y57500D02*
D03*
X770500D02*
D03*
X762500D02*
D03*
X754500D02*
D03*
X778500Y39500D02*
D03*
X770500D02*
D03*
X762500D02*
D03*
X754500D02*
D03*
D59*
X627500Y43250D02*
D03*
Y61750D02*
D03*
X925000Y210750D02*
D03*
Y229250D02*
D03*
X845000Y210750D02*
D03*
Y229250D02*
D03*
X925000Y173250D02*
D03*
Y191750D02*
D03*
X950000D02*
D03*
Y173250D02*
D03*
X845000Y191750D02*
D03*
Y173250D02*
D03*
X872500Y191750D02*
D03*
Y173250D02*
D03*
X202500Y283250D02*
D03*
Y301750D02*
D03*
X157500Y284000D02*
D03*
Y302500D02*
D03*
X247500Y283250D02*
D03*
Y301750D02*
D03*
X230000Y451750D02*
D03*
Y433250D02*
D03*
X480000Y118250D02*
D03*
Y136750D02*
D03*
X950000Y210750D02*
D03*
Y229250D02*
D03*
X872500Y210750D02*
D03*
Y229250D02*
D03*
X760000Y448250D02*
D03*
Y466750D02*
D03*
X720000Y370750D02*
D03*
Y389250D02*
D03*
X380000Y321750D02*
D03*
Y303250D02*
D03*
X215000Y98250D02*
D03*
Y116750D02*
D03*
X390000Y74000D02*
D03*
Y92500D02*
D03*
X270000Y217500D02*
D03*
Y236000D02*
D03*
X140000Y458500D02*
D03*
Y440000D02*
D03*
X552500Y366750D02*
D03*
Y348250D02*
D03*
X217500Y220750D02*
D03*
Y239250D02*
D03*
D60*
X253250Y80000D02*
D03*
X271750D02*
D03*
X561750Y467500D02*
D03*
X543250D02*
D03*
X440750D02*
D03*
X459250D02*
D03*
X200750Y152500D02*
D03*
X219250D02*
D03*
X391750Y387500D02*
D03*
X373250D02*
D03*
X290750Y345000D02*
D03*
X309250D02*
D03*
X290750Y320000D02*
D03*
X309250D02*
D03*
Y295000D02*
D03*
X290750D02*
D03*
X78250Y277500D02*
D03*
X96750D02*
D03*
X98250Y250000D02*
D03*
X116750D02*
D03*
X96750Y200000D02*
D03*
X78250D02*
D03*
X99250Y465000D02*
D03*
X80750D02*
D03*
X75750Y177500D02*
D03*
X94250D02*
D03*
X551000Y47500D02*
D03*
X532500D02*
D03*
X476500D02*
D03*
X495000D02*
D03*
X378250Y350000D02*
D03*
X396750D02*
D03*
X701750Y462500D02*
D03*
X683250D02*
D03*
X184250Y152500D02*
D03*
X165750D02*
D03*
X468250Y235000D02*
D03*
X486750D02*
D03*
X116750Y225000D02*
D03*
X98250D02*
D03*
X69250Y392500D02*
D03*
X50750D02*
D03*
X177250Y427500D02*
D03*
X158750D02*
D03*
X533250Y267500D02*
D03*
X551750D02*
D03*
X154000Y195000D02*
D03*
X172500D02*
D03*
D61*
X374750Y410000D02*
D03*
X360250D02*
D03*
D62*
X341800Y431500D02*
D03*
X333800D02*
D03*
X285800D02*
D03*
X277800D02*
D03*
D63*
X317300D02*
D03*
X312300D02*
D03*
X302300D02*
D03*
X292300D02*
D03*
X327300D02*
D03*
X322300D02*
D03*
X307300D02*
D03*
X297300D02*
D03*
D64*
X732250Y280000D02*
D03*
X762750D02*
D03*
X222000Y410000D02*
D03*
X252500D02*
D03*
X42250Y330000D02*
D03*
X72750D02*
D03*
D65*
X965400Y478160D02*
D03*
X914600D02*
D03*
D66*
X940000Y472500D02*
D03*
D67*
X807500Y121750D02*
D03*
Y93250D02*
D03*
X785000Y194250D02*
D03*
Y165750D02*
D03*
X762500Y121750D02*
D03*
Y93250D02*
D03*
X740000Y194250D02*
D03*
Y165750D02*
D03*
X717500Y121750D02*
D03*
Y93250D02*
D03*
X627500Y121750D02*
D03*
Y93250D02*
D03*
X695000Y194250D02*
D03*
Y165750D02*
D03*
X672500Y121750D02*
D03*
Y93250D02*
D03*
X650000Y194250D02*
D03*
Y165750D02*
D03*
X202500Y359250D02*
D03*
Y330750D02*
D03*
X157500Y359250D02*
D03*
Y330750D02*
D03*
X247500Y359250D02*
D03*
Y330750D02*
D03*
D68*
X326750Y80000D02*
D03*
X298250D02*
D03*
X173250Y460000D02*
D03*
X201750D02*
D03*
D69*
X194500Y392500D02*
D03*
X171500D02*
D03*
X114500Y330000D02*
D03*
X91500D02*
D03*
D70*
X130000Y358000D02*
D03*
Y381000D02*
D03*
D71*
X57500Y67500D02*
D03*
X927500Y412500D02*
D03*
X942500Y42500D02*
D03*
D72*
X37500Y167100D02*
D03*
X40000Y237100D02*
D03*
X760000Y412900D02*
D03*
X125000Y162900D02*
D03*
D73*
X37500Y192500D02*
D03*
X40000Y262500D02*
D03*
Y287900D02*
D03*
X60400Y465000D02*
D03*
X760000Y311300D02*
D03*
Y336700D02*
D03*
Y362100D02*
D03*
Y387500D02*
D03*
X243800Y37500D02*
D03*
X421600D02*
D03*
X396200D02*
D03*
X370800D02*
D03*
X345400D02*
D03*
X320000D02*
D03*
X294600D02*
D03*
X269200D02*
D03*
X218400D02*
D03*
X577500Y410000D02*
D03*
X552100D02*
D03*
X526700D02*
D03*
X501300D02*
D03*
X475900D02*
D03*
X450500D02*
D03*
X425100D02*
D03*
X602900D02*
D03*
X577500Y440000D02*
D03*
X552100D02*
D03*
X526700D02*
D03*
X501300D02*
D03*
X450500D02*
D03*
X475900D02*
D03*
X102500Y367500D02*
D03*
X125000Y137500D02*
D03*
Y112100D02*
D03*
Y86700D02*
D03*
Y61300D02*
D03*
Y35900D02*
D03*
D74*
X35000Y465000D02*
D03*
X193000Y37500D02*
D03*
X628300Y410000D02*
D03*
X425100Y440000D02*
D03*
X77100Y367500D02*
D03*
D75*
X366000Y444000D02*
D03*
X253600D02*
D03*
D76*
X366000Y484000D02*
D03*
X253600D02*
D03*
D77*
X300000Y392500D02*
D03*
X288022Y390492D02*
D03*
X455000Y257500D02*
D03*
X295000Y225000D02*
D03*
X315000Y387500D02*
D03*
X44297Y429297D02*
D03*
X42500Y440000D02*
D03*
X407500Y247500D02*
D03*
Y260000D02*
D03*
X415000Y145000D02*
D03*
X422500Y135000D02*
D03*
X407500D02*
D03*
X894997Y70560D02*
D03*
X915000Y90000D02*
D03*
X629781Y179590D02*
D03*
X593878Y179887D02*
D03*
X527152Y171731D02*
D03*
X497161Y138446D02*
D03*
X635872Y229929D02*
D03*
X650285Y234963D02*
D03*
X663984Y240155D02*
D03*
X677619Y247619D02*
D03*
X624498Y290370D02*
D03*
X180113Y332888D02*
D03*
X405377Y390777D02*
D03*
X419636Y372334D02*
D03*
X365413Y332604D02*
D03*
X396399Y329567D02*
D03*
X791730Y142291D02*
D03*
X643377Y138075D02*
D03*
X149815Y387392D02*
D03*
X177275Y368646D02*
D03*
X222362Y311268D02*
D03*
X275000Y290000D02*
D03*
X291352Y270376D02*
D03*
X282500Y250000D02*
D03*
X435000Y277500D02*
D03*
X982500Y232500D02*
D03*
X858594Y237675D02*
D03*
X822733Y201300D02*
D03*
X858844Y164290D02*
D03*
X858855Y193242D02*
D03*
X357500Y425000D02*
D03*
X265000Y427500D02*
D03*
X390000Y487500D02*
D03*
X462500Y490000D02*
D03*
X557500D02*
D03*
X630000D02*
D03*
X660000Y487500D02*
D03*
X577500Y347500D02*
D03*
X530000Y357500D02*
D03*
X542500Y282500D02*
D03*
X575000Y320000D02*
D03*
X525000Y382500D02*
D03*
X490000Y265000D02*
D03*
X472500Y217500D02*
D03*
X775000Y257500D02*
D03*
X392192Y119853D02*
D03*
X424692Y117353D02*
D03*
X827500Y147500D02*
D03*
X897500Y202500D02*
D03*
X545000Y122500D02*
D03*
X925000Y155000D02*
D03*
X847500Y77500D02*
D03*
X972500Y267500D02*
D03*
X781625Y324045D02*
D03*
X732500Y337500D02*
D03*
X680000Y482500D02*
D03*
X695000Y430000D02*
D03*
X177500Y105000D02*
D03*
X318759Y332389D02*
D03*
X365000Y350000D02*
D03*
X520000Y112500D02*
D03*
X87500Y420000D02*
D03*
X175000Y227500D02*
D03*
X450000Y332500D02*
D03*
X487500Y462500D02*
D03*
X517500D02*
D03*
X615000D02*
D03*
X642500Y447500D02*
D03*
X740000Y367500D02*
D03*
Y397500D02*
D03*
X702500Y395000D02*
D03*
X707500Y482500D02*
D03*
X720000Y450000D02*
D03*
X742500Y445000D02*
D03*
X737500Y482500D02*
D03*
X782500D02*
D03*
X815000D02*
D03*
X855000D02*
D03*
X890000D02*
D03*
X880000Y467500D02*
D03*
X780000Y437500D02*
D03*
X782500Y372500D02*
D03*
Y400000D02*
D03*
X810000Y425000D02*
D03*
X872500Y405000D02*
D03*
X805000Y347500D02*
D03*
X817500Y390000D02*
D03*
X877500Y375000D02*
D03*
X907500Y390000D02*
D03*
X967500Y415000D02*
D03*
X847500Y340000D02*
D03*
X927500Y362500D02*
D03*
X965000Y375000D02*
D03*
X930000Y335000D02*
D03*
X967500D02*
D03*
X972500Y300000D02*
D03*
X935000Y307500D02*
D03*
X900000Y335000D02*
D03*
X810000Y300000D02*
D03*
X902500D02*
D03*
X860000D02*
D03*
X865000Y325000D02*
D03*
X807500Y322500D02*
D03*
X782500Y292500D02*
D03*
X982500Y165000D02*
D03*
Y20000D02*
D03*
X942004Y126697D02*
D03*
X942615Y88189D02*
D03*
X867648Y119450D02*
D03*
X867500Y40000D02*
D03*
X805000Y15000D02*
D03*
X827500Y42500D02*
D03*
X805000Y65000D02*
D03*
X737500Y35000D02*
D03*
X717500D02*
D03*
X720000Y65000D02*
D03*
X740000D02*
D03*
X647500Y62500D02*
D03*
X640000Y27500D02*
D03*
X730000Y50000D02*
D03*
X597500Y77500D02*
D03*
X552500Y70000D02*
D03*
X570000Y35000D02*
D03*
X512500Y30000D02*
D03*
X452500Y37500D02*
D03*
X460000Y97500D02*
D03*
X487500Y67500D02*
D03*
X457500Y72500D02*
D03*
X487500Y95000D02*
D03*
X545000Y87500D02*
D03*
X597500Y30000D02*
D03*
X600000Y145000D02*
D03*
X547500Y155000D02*
D03*
X707500Y255000D02*
D03*
X692500Y320000D02*
D03*
X647500Y335000D02*
D03*
X590000Y297500D02*
D03*
Y235000D02*
D03*
X565000Y245000D02*
D03*
X532500Y240000D02*
D03*
X290000Y370000D02*
D03*
X275000Y330000D02*
D03*
X342500Y305000D02*
D03*
X377500Y257500D02*
D03*
X352500Y245000D02*
D03*
X345000Y190000D02*
D03*
X370000Y185000D02*
D03*
X402500Y182500D02*
D03*
X412500Y207500D02*
D03*
X420000Y80000D02*
D03*
X212500Y427500D02*
D03*
X265000Y390000D02*
D03*
X225000Y482500D02*
D03*
X130000D02*
D03*
X400000Y440000D02*
D03*
X490000Y327500D02*
D03*
X482500Y382500D02*
D03*
X84768Y237378D02*
D03*
X145000Y237500D02*
D03*
X137500Y212500D02*
D03*
X145000Y177500D02*
D03*
X170000Y132500D02*
D03*
X152500Y82500D02*
D03*
Y37500D02*
D03*
X240000Y60000D02*
D03*
X337500Y112500D02*
D03*
X242500Y165000D02*
D03*
Y217500D02*
D03*
X225000Y185000D02*
D03*
X255000Y195000D02*
D03*
X260000Y122500D02*
D03*
X287500Y145000D02*
D03*
X102500Y115000D02*
D03*
Y50000D02*
D03*
X57500Y42500D02*
D03*
X55000Y122500D02*
D03*
X77500Y82500D02*
D03*
X102500Y15000D02*
D03*
X17500Y17500D02*
D03*
X15000Y95000D02*
D03*
Y177500D02*
D03*
Y245000D02*
D03*
Y322500D02*
D03*
Y422500D02*
D03*
Y485000D02*
D03*
X35000Y382500D02*
D03*
X72500Y310000D02*
D03*
X115000Y385000D02*
D03*
X117500Y352500D02*
D03*
X77500Y350000D02*
D03*
X35000D02*
D03*
X117500Y305000D02*
D03*
X272500Y270000D02*
D03*
X582500Y387500D02*
D03*
X472500Y262500D02*
D03*
X442500Y295000D02*
D03*
X310000Y262500D02*
D03*
X470000Y287500D02*
D03*
X412500Y342500D02*
D03*
X332500Y287500D02*
D03*
X462500Y170000D02*
D03*
X302500Y255000D02*
D03*
X880000Y257500D02*
D03*
X900000D02*
D03*
X860000D02*
D03*
X367500Y217500D02*
D03*
X435000Y107500D02*
D03*
X607500Y387500D02*
D03*
X442500Y385000D02*
D03*
X840000Y257500D02*
D03*
X820000D02*
D03*
X667500Y397500D02*
D03*
X525000Y340000D02*
D03*
X452500Y162500D02*
D03*
X522500Y192500D02*
D03*
X515000Y200000D02*
D03*
X507500Y207500D02*
D03*
X540000Y222500D02*
D03*
X500000Y215000D02*
D03*
X840000Y422500D02*
D03*
X552500Y335000D02*
D03*
X667500Y440000D02*
D03*
X277500Y305000D02*
D03*
X382500Y247500D02*
D03*
X142500Y270000D02*
D03*
X187500D02*
D03*
X235000D02*
D03*
X120000Y450000D02*
D03*
X342500Y145000D02*
D03*
X307500Y227500D02*
D03*
X185000Y195000D02*
D03*
X187500Y77500D02*
D03*
X110000Y442500D02*
D03*
X322500Y395000D02*
D03*
D78*
X340000Y410000D02*
D03*
X200000D02*
D03*
X280000D02*
D03*
M02*
