M48
;Layer_Color=9474304
;FILE_FORMAT=4:4
METRIC,TZ
;TYPE=PLATED
T1F00S00C0.3500
T2F00S00C0.9000
%
T01
X-7500Y22500
X55000Y-5000
X70000Y40000
X102500Y55000
X115000Y80000
X140000Y50000
X162500Y10000
X215000Y22500
X272500Y17500
X275000Y80000
X182500Y72500
X365000Y25000
X395000Y52500
T02
X0Y0
X25400
X120000Y12100
Y37500
X348000Y72500
X373400
X398800
X424200
X449600
X475000
X500400
M30
