G04*
G04 #@! TF.GenerationSoftware,Altium Limited,Altium Designer,21.6.1 (37)*
G04*
G04 Layer_Physical_Order=1*
G04 Layer_Color=255*
%FSLAX44Y44*%
%MOMM*%
G71*
G04*
G04 #@! TF.SameCoordinates,8FA0FE45-4E21-4971-ACDA-AA948B80C5BB*
G04*
G04*
G04 #@! TF.FilePolarity,Positive*
G04*
G01*
G75*
%ADD12C,0.2540*%
%ADD21R,1.2000X0.6500*%
%ADD22R,1.3500X1.8500*%
%ADD23R,1.1500X0.6500*%
%ADD24C,1.0160*%
%ADD25C,1.5000*%
%ADD26R,1.5000X1.5000*%
%ADD27R,1.5000X1.5000*%
%ADD28C,0.6500*%
G36*
X517410Y83927D02*
Y61073D01*
X511427Y55090D01*
X455000D01*
X454009Y54893D01*
X453169Y54331D01*
X403927Y5090D01*
X185000D01*
X184009Y4893D01*
X183169Y4331D01*
X158927Y-19910D01*
X-11427D01*
X-17410Y-13927D01*
Y23927D01*
X-8927Y32410D01*
X52500D01*
X53491Y32608D01*
X54331Y33169D01*
X111073Y89910D01*
X511427D01*
X517410Y83927D01*
D02*
G37*
%LPC*%
G36*
X483770Y71865D02*
X475635D01*
Y63730D01*
X476155D01*
X478385Y64328D01*
X480385Y65482D01*
X482018Y67115D01*
X483172Y69115D01*
X483770Y71345D01*
Y71865D01*
D02*
G37*
G36*
X474365D02*
X466230D01*
Y71345D01*
X466828Y69115D01*
X467982Y67115D01*
X469615Y65482D01*
X471615Y64328D01*
X473845Y63730D01*
X474365D01*
Y71865D01*
D02*
G37*
G36*
X432970D02*
X424835D01*
Y63730D01*
X425355D01*
X427585Y64328D01*
X429585Y65482D01*
X431218Y67115D01*
X432372Y69115D01*
X432970Y71345D01*
Y71865D01*
D02*
G37*
G36*
X423565D02*
X415430D01*
Y71345D01*
X416028Y69115D01*
X417182Y67115D01*
X418815Y65482D01*
X420815Y64328D01*
X423045Y63730D01*
X423565D01*
Y71865D01*
D02*
G37*
G36*
X382170D02*
X374035D01*
Y63730D01*
X374555D01*
X376785Y64328D01*
X378785Y65482D01*
X380418Y67115D01*
X381572Y69115D01*
X382170Y71345D01*
Y71865D01*
D02*
G37*
G36*
X372765D02*
X364630D01*
Y71345D01*
X365228Y69115D01*
X366382Y67115D01*
X368015Y65482D01*
X370015Y64328D01*
X372245Y63730D01*
X372765D01*
Y71865D01*
D02*
G37*
G36*
X487900Y88367D02*
X350000D01*
X348712Y88110D01*
X347619Y87381D01*
X345619Y85381D01*
X344890Y84288D01*
X344633Y83000D01*
Y82032D01*
X338468D01*
Y75867D01*
X296000D01*
X294712Y75610D01*
X293619Y74881D01*
X278000Y59261D01*
X270381Y66881D01*
X269288Y67610D01*
X268000Y67867D01*
X265032D01*
Y69782D01*
X249468D01*
Y59218D01*
X265032D01*
Y61133D01*
X266605D01*
X275619Y52119D01*
X285619Y42119D01*
X286712Y41390D01*
X288000Y41133D01*
X289718D01*
Y39218D01*
X290480D01*
Y35635D01*
X297750D01*
X305020D01*
Y39218D01*
X305782D01*
Y49782D01*
X289718D01*
Y49339D01*
X288448Y48813D01*
X282761Y54500D01*
X297395Y69133D01*
X338468D01*
Y62968D01*
X357532D01*
Y81633D01*
X369139D01*
X369480Y80363D01*
X368015Y79518D01*
X366382Y77885D01*
X365228Y75885D01*
X364630Y73655D01*
Y73135D01*
X382170D01*
Y73655D01*
X381572Y75885D01*
X380418Y77885D01*
X378785Y79518D01*
X377320Y80363D01*
X377661Y81633D01*
X393015D01*
X393356Y80363D01*
X392947Y80127D01*
X391172Y78353D01*
X389918Y76179D01*
X389268Y73755D01*
Y71245D01*
X389918Y68821D01*
X390079Y68541D01*
X382406Y60867D01*
X320000D01*
X318712Y60610D01*
X317619Y59881D01*
X310119Y52381D01*
X309390Y51288D01*
X309133Y50000D01*
Y32500D01*
X309390Y31212D01*
X310119Y30119D01*
X317619Y22619D01*
X318712Y21890D01*
X319218Y21789D01*
Y20218D01*
X335282D01*
Y30782D01*
X319218D01*
X319218Y30782D01*
Y30782D01*
X318274Y31487D01*
X315867Y33895D01*
Y48605D01*
X321395Y54133D01*
X383800D01*
X385088Y54390D01*
X386181Y55119D01*
X394841Y63779D01*
X395121Y63618D01*
X397545Y62968D01*
X400055D01*
X402479Y63618D01*
X404653Y64872D01*
X406427Y66647D01*
X407682Y68821D01*
X408332Y71245D01*
Y73755D01*
X407682Y76179D01*
X406427Y78353D01*
X404653Y80127D01*
X404244Y80363D01*
X404585Y81633D01*
X419939D01*
X420280Y80363D01*
X418815Y79518D01*
X417182Y77885D01*
X416028Y75885D01*
X415430Y73655D01*
Y73135D01*
X432970D01*
Y73655D01*
X432372Y75885D01*
X431218Y77885D01*
X429585Y79518D01*
X428120Y80363D01*
X428461Y81633D01*
X443815D01*
X444156Y80363D01*
X443747Y80127D01*
X441973Y78353D01*
X440718Y76179D01*
X440068Y73755D01*
Y71245D01*
X440718Y68821D01*
X440879Y68541D01*
X420205Y47867D01*
X335282D01*
Y49782D01*
X319218D01*
Y39218D01*
X335282D01*
Y41133D01*
X421600D01*
X422888Y41390D01*
X423981Y42119D01*
X445641Y63779D01*
X445921Y63618D01*
X448345Y62968D01*
X450855D01*
X453279Y63618D01*
X455453Y64872D01*
X457228Y66647D01*
X458482Y68821D01*
X459132Y71245D01*
Y73755D01*
X458482Y76179D01*
X457228Y78353D01*
X455453Y80127D01*
X455044Y80363D01*
X455385Y81633D01*
X470739D01*
X471080Y80363D01*
X469615Y79518D01*
X467982Y77885D01*
X466828Y75885D01*
X466230Y73655D01*
Y73135D01*
X483770D01*
Y73655D01*
X483172Y75885D01*
X482018Y77885D01*
X480385Y79518D01*
X478920Y80363D01*
X479261Y81633D01*
X486506D01*
X491679Y76459D01*
X491518Y76179D01*
X490868Y73755D01*
Y71245D01*
X491518Y68821D01*
X492772Y66647D01*
X494547Y64872D01*
X496721Y63618D01*
X499145Y62968D01*
X501655D01*
X504079Y63618D01*
X506253Y64872D01*
X508027Y66647D01*
X509282Y68821D01*
X509932Y71245D01*
Y73755D01*
X509282Y76179D01*
X508027Y78353D01*
X506253Y80127D01*
X504079Y81382D01*
X501655Y82032D01*
X499145D01*
X496721Y81382D01*
X496441Y81221D01*
X490281Y87381D01*
X489188Y88110D01*
X487900Y88367D01*
D02*
G37*
G36*
X176032Y83782D02*
X158468D01*
Y79673D01*
X135000D01*
X133143Y79429D01*
X131413Y78712D01*
X129928Y77572D01*
X114928Y62572D01*
X113788Y61087D01*
X113071Y59357D01*
X112827Y57500D01*
Y47032D01*
X110468D01*
Y44673D01*
X90000D01*
X88143Y44429D01*
X87130Y44009D01*
X86413Y43712D01*
X84928Y42572D01*
X69529Y27173D01*
X10000D01*
X8143Y26929D01*
X6413Y26212D01*
X4928Y25072D01*
X-5072Y15072D01*
X-6212Y13587D01*
X-6929Y11857D01*
X-7173Y10000D01*
Y9532D01*
X-9532D01*
Y-9532D01*
X9532D01*
Y9387D01*
X12971Y12827D01*
X72500D01*
X74357Y13071D01*
X76087Y13788D01*
X77572Y14928D01*
X92971Y30327D01*
X110468D01*
Y27968D01*
X129532D01*
Y47032D01*
X127173D01*
Y54529D01*
X137971Y65327D01*
X158468D01*
Y61218D01*
X176032D01*
Y83782D01*
D02*
G37*
G36*
X206532D02*
X188968D01*
Y61218D01*
X206532D01*
Y67047D01*
X207705Y67533D01*
X209633Y65606D01*
Y48867D01*
X206532D01*
Y56282D01*
X188968D01*
Y33718D01*
X206532D01*
Y42133D01*
X219968D01*
Y40218D01*
X235532D01*
Y50782D01*
X234770D01*
Y54365D01*
X227750D01*
X220730D01*
Y50782D01*
X219968D01*
Y48867D01*
X216367D01*
Y67000D01*
X216110Y68288D01*
X215381Y69381D01*
X209881Y74881D01*
X208788Y75610D01*
X207500Y75867D01*
X206532D01*
Y83782D01*
D02*
G37*
G36*
X175270Y55520D02*
X167885D01*
Y45635D01*
X175270D01*
Y55520D01*
D02*
G37*
G36*
X166615D02*
X159230D01*
Y45635D01*
X166615D01*
Y55520D01*
D02*
G37*
G36*
X175270Y44365D02*
X167885D01*
Y34480D01*
X175270D01*
Y44365D01*
D02*
G37*
G36*
X166615D02*
X159230D01*
Y34480D01*
X166615D01*
Y44365D01*
D02*
G37*
G36*
X235532Y69782D02*
X219968D01*
Y59218D01*
X220730D01*
Y55635D01*
X227750D01*
X234770D01*
Y59218D01*
X235532D01*
Y60659D01*
X236802Y60937D01*
X239133Y58605D01*
Y50000D01*
X239390Y48712D01*
X240119Y47619D01*
X244619Y43119D01*
X245712Y42390D01*
X247000Y42133D01*
X249468D01*
Y40218D01*
X265032D01*
Y40911D01*
X266302Y41437D01*
X284619Y23119D01*
X285712Y22390D01*
X287000Y22133D01*
X289718D01*
Y20218D01*
X305782D01*
Y30782D01*
X305020D01*
Y34365D01*
X297750D01*
X290480D01*
Y30782D01*
X289718D01*
Y28867D01*
X288395D01*
X269381Y47881D01*
X268288Y48610D01*
X267000Y48867D01*
X265032D01*
Y50782D01*
X249468D01*
Y49341D01*
X248198Y49063D01*
X245867Y51395D01*
Y60000D01*
X245610Y61288D01*
X244881Y62381D01*
X240381Y66881D01*
X239288Y67610D01*
X238000Y67867D01*
X235532D01*
Y69782D01*
D02*
G37*
G36*
X121154Y20870D02*
X120635D01*
Y12735D01*
X128770D01*
Y13255D01*
X128172Y15485D01*
X127018Y17485D01*
X125385Y19118D01*
X123385Y20272D01*
X121154Y20870D01*
D02*
G37*
G36*
X119365D02*
X118845D01*
X116615Y20272D01*
X114615Y19118D01*
X112982Y17485D01*
X111828Y15485D01*
X111230Y13255D01*
Y12735D01*
X119365D01*
Y20870D01*
D02*
G37*
G36*
X128770Y11465D02*
X120635D01*
Y3330D01*
X121154D01*
X123385Y3928D01*
X125385Y5082D01*
X127018Y6715D01*
X128172Y8715D01*
X128770Y10945D01*
Y11465D01*
D02*
G37*
G36*
X119365D02*
X111230D01*
Y10945D01*
X111828Y8715D01*
X112982Y6715D01*
X114615Y5082D01*
X116615Y3928D01*
X118845Y3330D01*
X119365D01*
Y11465D01*
D02*
G37*
G36*
X26555Y8770D02*
X26035D01*
Y635D01*
X34170D01*
Y1155D01*
X33572Y3385D01*
X32418Y5385D01*
X30785Y7018D01*
X28785Y8172D01*
X26555Y8770D01*
D02*
G37*
G36*
X24765D02*
X24245D01*
X22015Y8172D01*
X20015Y7018D01*
X18382Y5385D01*
X17228Y3385D01*
X16630Y1155D01*
Y635D01*
X24765D01*
Y8770D01*
D02*
G37*
G36*
X34170Y-635D02*
X26035D01*
Y-8770D01*
X26555D01*
X28785Y-8172D01*
X30785Y-7018D01*
X32418Y-5385D01*
X33572Y-3385D01*
X34170Y-1155D01*
Y-635D01*
D02*
G37*
G36*
X24765D02*
X16630D01*
Y-1155D01*
X17228Y-3385D01*
X18382Y-5385D01*
X20015Y-7018D01*
X22015Y-8172D01*
X24245Y-8770D01*
X24765D01*
Y-635D01*
D02*
G37*
%LPD*%
D12*
X320000Y57500D02*
X383800D01*
X327250Y44500D02*
X421600D01*
X312500Y32500D02*
X320000Y25000D01*
X326750D01*
X327250Y25500D01*
X197750Y45000D02*
X198250Y45500D01*
X242500Y50000D02*
X247000Y45500D01*
X227750Y64500D02*
X238000D01*
X213000Y45500D02*
X227750D01*
X242500Y50000D02*
Y60000D01*
X238000Y64500D02*
X242500Y60000D01*
X198250Y45500D02*
X213000D01*
X197750Y72500D02*
X207500D01*
X213000Y45500D02*
Y67000D01*
X207500Y72500D02*
X213000Y67000D01*
X257250Y64500D02*
X268000D01*
X247000Y45500D02*
X257250D01*
X267000D01*
X268000Y64500D02*
X278000Y54500D01*
X267000Y45500D02*
X287000Y25500D01*
X278000Y54500D02*
X288000Y44500D01*
X278000Y54500D02*
X296000Y72500D01*
X287000Y25500D02*
X295250D01*
X288000Y44500D02*
X297750D01*
X383800Y57500D02*
X398800Y72500D01*
X312500Y32500D02*
Y50000D01*
X320000Y57500D01*
X296000Y72500D02*
X348000D01*
X421600Y44500D02*
X449600Y72500D01*
X487900Y85000D02*
X500400Y72500D01*
X350000Y85000D02*
X487900D01*
X348000Y72500D02*
Y83000D01*
X350000Y85000D01*
D21*
X327250Y44500D02*
D03*
Y25500D02*
D03*
X297750D02*
D03*
Y35000D02*
D03*
Y44500D02*
D03*
D22*
X167250Y72500D02*
D03*
X197750D02*
D03*
X197750Y45000D02*
D03*
X167250D02*
D03*
D23*
X257250Y64500D02*
D03*
Y45500D02*
D03*
X227750D02*
D03*
Y55000D02*
D03*
Y64500D02*
D03*
D24*
X0Y0D02*
Y10000D01*
X10000Y20000D02*
X72500D01*
X0Y0D02*
X1866Y1866D01*
X0Y10000D02*
X10000Y20000D01*
X135000Y72500D02*
X167250D01*
X120000Y57500D02*
X135000Y72500D01*
X120000Y37500D02*
Y57500D01*
X72500Y20000D02*
X90000Y37500D01*
X120000D01*
D25*
X500400Y72500D02*
D03*
X475000D02*
D03*
X449600D02*
D03*
X424200D02*
D03*
X373400D02*
D03*
X398800D02*
D03*
X120000Y12100D02*
D03*
X25400Y0D02*
D03*
D26*
X348000Y72500D02*
D03*
X0Y0D02*
D03*
D27*
X120000Y37500D02*
D03*
D28*
X182500Y72500D02*
D03*
X395000Y52500D02*
D03*
X55000Y-5000D02*
D03*
X70000Y40000D02*
D03*
X102500Y55000D02*
D03*
X115000Y80000D02*
D03*
X140000Y50000D02*
D03*
X275000Y80000D02*
D03*
X365000Y25000D02*
D03*
X-7500Y22500D02*
D03*
X162500Y10000D02*
D03*
X215000Y22500D02*
D03*
X272500Y17500D02*
D03*
M02*
