G04*
G04 #@! TF.GenerationSoftware,Altium Limited,Altium Designer,21.6.1 (37)*
G04*
G04 Layer_Physical_Order=2*
G04 Layer_Color=16711680*
%FSLAX44Y44*%
%MOMM*%
G71*
G04*
G04 #@! TF.SameCoordinates,8FA0FE45-4E21-4971-ACDA-AA948B80C5BB*
G04*
G04*
G04 #@! TF.FilePolarity,Positive*
G04*
G01*
G75*
%ADD25C,1.5000*%
%ADD26R,1.5000X1.5000*%
%ADD27R,1.5000X1.5000*%
%ADD28C,0.6500*%
G36*
X517410Y83927D02*
Y61073D01*
X511427Y55090D01*
X455000D01*
X454009Y54893D01*
X453169Y54331D01*
X403927Y5090D01*
X185000D01*
X184009Y4893D01*
X183169Y4331D01*
X158927Y-19910D01*
X-11427D01*
X-17410Y-13927D01*
Y23927D01*
X-8927Y32410D01*
X52500D01*
X53491Y32608D01*
X54331Y33169D01*
X111073Y89910D01*
X511427D01*
X517410Y83927D01*
D02*
G37*
%LPC*%
G36*
X476155Y81270D02*
X475635D01*
Y73135D01*
X483770D01*
Y73655D01*
X483172Y75885D01*
X482018Y77885D01*
X480385Y79518D01*
X478385Y80672D01*
X476155Y81270D01*
D02*
G37*
G36*
X474365D02*
X473845D01*
X471615Y80672D01*
X469615Y79518D01*
X467982Y77885D01*
X466828Y75885D01*
X466230Y73655D01*
Y73135D01*
X474365D01*
Y81270D01*
D02*
G37*
G36*
X425355D02*
X424835D01*
Y73135D01*
X432970D01*
Y73655D01*
X432372Y75885D01*
X431218Y77885D01*
X429585Y79518D01*
X427585Y80672D01*
X425355Y81270D01*
D02*
G37*
G36*
X423565D02*
X423045D01*
X420815Y80672D01*
X418815Y79518D01*
X417182Y77885D01*
X416028Y75885D01*
X415430Y73655D01*
Y73135D01*
X423565D01*
Y81270D01*
D02*
G37*
G36*
X374555D02*
X374035D01*
Y73135D01*
X382170D01*
Y73655D01*
X381572Y75885D01*
X380418Y77885D01*
X378785Y79518D01*
X376785Y80672D01*
X374555Y81270D01*
D02*
G37*
G36*
X372765D02*
X372245D01*
X370015Y80672D01*
X368015Y79518D01*
X366382Y77885D01*
X365228Y75885D01*
X364630Y73655D01*
Y73135D01*
X372765D01*
Y81270D01*
D02*
G37*
G36*
X483770Y71865D02*
X475635D01*
Y63730D01*
X476155D01*
X478385Y64328D01*
X480385Y65482D01*
X482018Y67115D01*
X483172Y69115D01*
X483770Y71345D01*
Y71865D01*
D02*
G37*
G36*
X474365D02*
X466230D01*
Y71345D01*
X466828Y69115D01*
X467982Y67115D01*
X469615Y65482D01*
X471615Y64328D01*
X473845Y63730D01*
X474365D01*
Y71865D01*
D02*
G37*
G36*
X432970D02*
X424835D01*
Y63730D01*
X425355D01*
X427585Y64328D01*
X429585Y65482D01*
X431218Y67115D01*
X432372Y69115D01*
X432970Y71345D01*
Y71865D01*
D02*
G37*
G36*
X423565D02*
X415430D01*
Y71345D01*
X416028Y69115D01*
X417182Y67115D01*
X418815Y65482D01*
X420815Y64328D01*
X423045Y63730D01*
X423565D01*
Y71865D01*
D02*
G37*
G36*
X382170D02*
X374035D01*
Y63730D01*
X374555D01*
X376785Y64328D01*
X378785Y65482D01*
X380418Y67115D01*
X381572Y69115D01*
X382170Y71345D01*
Y71865D01*
D02*
G37*
G36*
X372765D02*
X364630D01*
Y71345D01*
X365228Y69115D01*
X366382Y67115D01*
X368015Y65482D01*
X370015Y64328D01*
X372245Y63730D01*
X372765D01*
Y71865D01*
D02*
G37*
G36*
X501655Y82032D02*
X499145D01*
X496721Y81382D01*
X494547Y80127D01*
X492772Y78353D01*
X491518Y76179D01*
X490868Y73755D01*
Y71245D01*
X491518Y68821D01*
X492772Y66647D01*
X494547Y64872D01*
X496721Y63618D01*
X499145Y62968D01*
X501655D01*
X504079Y63618D01*
X506253Y64872D01*
X508027Y66647D01*
X509282Y68821D01*
X509932Y71245D01*
Y73755D01*
X509282Y76179D01*
X508027Y78353D01*
X506253Y80127D01*
X504079Y81382D01*
X501655Y82032D01*
D02*
G37*
G36*
X450855D02*
X448345D01*
X445921Y81382D01*
X443747Y80127D01*
X441973Y78353D01*
X440718Y76179D01*
X440068Y73755D01*
Y71245D01*
X440718Y68821D01*
X441973Y66647D01*
X443747Y64872D01*
X445921Y63618D01*
X448345Y62968D01*
X450855D01*
X453279Y63618D01*
X455453Y64872D01*
X457228Y66647D01*
X458482Y68821D01*
X459132Y71245D01*
Y73755D01*
X458482Y76179D01*
X457228Y78353D01*
X455453Y80127D01*
X453279Y81382D01*
X450855Y82032D01*
D02*
G37*
G36*
X400055D02*
X397545D01*
X395121Y81382D01*
X392947Y80127D01*
X391172Y78353D01*
X389918Y76179D01*
X389268Y73755D01*
Y71245D01*
X389918Y68821D01*
X391172Y66647D01*
X392947Y64872D01*
X395121Y63618D01*
X397545Y62968D01*
X400055D01*
X402479Y63618D01*
X404653Y64872D01*
X406427Y66647D01*
X407682Y68821D01*
X408332Y71245D01*
Y73755D01*
X407682Y76179D01*
X406427Y78353D01*
X404653Y80127D01*
X402479Y81382D01*
X400055Y82032D01*
D02*
G37*
G36*
X357532D02*
X338468D01*
Y62968D01*
X357532D01*
Y82032D01*
D02*
G37*
G36*
X129532Y47032D02*
X110468D01*
Y27968D01*
X129532D01*
Y47032D01*
D02*
G37*
G36*
X121154Y20870D02*
X120635D01*
Y12735D01*
X128770D01*
Y13255D01*
X128172Y15485D01*
X127018Y17485D01*
X125385Y19118D01*
X123385Y20272D01*
X121154Y20870D01*
D02*
G37*
G36*
X119365D02*
X118845D01*
X116615Y20272D01*
X114615Y19118D01*
X112982Y17485D01*
X111828Y15485D01*
X111230Y13255D01*
Y12735D01*
X119365D01*
Y20870D01*
D02*
G37*
G36*
X128770Y11465D02*
X120635D01*
Y3330D01*
X121154D01*
X123385Y3928D01*
X125385Y5082D01*
X127018Y6715D01*
X128172Y8715D01*
X128770Y10945D01*
Y11465D01*
D02*
G37*
G36*
X119365D02*
X111230D01*
Y10945D01*
X111828Y8715D01*
X112982Y6715D01*
X114615Y5082D01*
X116615Y3928D01*
X118845Y3330D01*
X119365D01*
Y11465D01*
D02*
G37*
G36*
X26555Y8770D02*
X26035D01*
Y635D01*
X34170D01*
Y1155D01*
X33572Y3385D01*
X32418Y5385D01*
X30785Y7018D01*
X28785Y8172D01*
X26555Y8770D01*
D02*
G37*
G36*
X24765D02*
X24245D01*
X22015Y8172D01*
X20015Y7018D01*
X18382Y5385D01*
X17228Y3385D01*
X16630Y1155D01*
Y635D01*
X24765D01*
Y8770D01*
D02*
G37*
G36*
X34170Y-635D02*
X26035D01*
Y-8770D01*
X26555D01*
X28785Y-8172D01*
X30785Y-7018D01*
X32418Y-5385D01*
X33572Y-3385D01*
X34170Y-1155D01*
Y-635D01*
D02*
G37*
G36*
X24765D02*
X16630D01*
Y-1155D01*
X17228Y-3385D01*
X18382Y-5385D01*
X20015Y-7018D01*
X22015Y-8172D01*
X24245Y-8770D01*
X24765D01*
Y-635D01*
D02*
G37*
G36*
X9532Y9532D02*
X-9532D01*
Y-9532D01*
X9532D01*
Y9532D01*
D02*
G37*
%LPD*%
D25*
X500400Y72500D02*
D03*
X475000D02*
D03*
X449600D02*
D03*
X424200D02*
D03*
X373400D02*
D03*
X398800D02*
D03*
X120000Y12100D02*
D03*
X25400Y0D02*
D03*
D26*
X348000Y72500D02*
D03*
X0Y0D02*
D03*
D27*
X120000Y37500D02*
D03*
D28*
X182500Y72500D02*
D03*
X395000Y52500D02*
D03*
X55000Y-5000D02*
D03*
X70000Y40000D02*
D03*
X102500Y55000D02*
D03*
X115000Y80000D02*
D03*
X140000Y50000D02*
D03*
X275000Y80000D02*
D03*
X365000Y25000D02*
D03*
X-7500Y22500D02*
D03*
X162500Y10000D02*
D03*
X215000Y22500D02*
D03*
X272500Y17500D02*
D03*
M02*
