G04*
G04 #@! TF.GenerationSoftware,Altium Limited,Altium Designer,21.6.1 (37)*
G04*
G04 Layer_Color=8388736*
%FSLAX44Y44*%
%MOMM*%
G71*
G04*
G04 #@! TF.SameCoordinates,8FA0FE45-4E21-4971-ACDA-AA948B80C5BB*
G04*
G04*
G04 #@! TF.FilePolarity,Negative*
G04*
G01*
G75*
%ADD14R,1.3500X0.8000*%
%ADD15R,1.5000X2.0000*%
%ADD16R,1.3000X0.8000*%
%ADD17C,1.6500*%
%ADD18R,1.6500X1.6500*%
%ADD19R,1.6500X1.6500*%
%ADD20C,0.8000*%
D14*
X327250Y44500D02*
D03*
Y25500D02*
D03*
X297750D02*
D03*
Y35000D02*
D03*
Y44500D02*
D03*
D15*
X167250Y72500D02*
D03*
X197750D02*
D03*
X197750Y45000D02*
D03*
X167250D02*
D03*
D16*
X257250Y64500D02*
D03*
Y45500D02*
D03*
X227750D02*
D03*
Y55000D02*
D03*
Y64500D02*
D03*
D17*
X500400Y72500D02*
D03*
X475000D02*
D03*
X449600D02*
D03*
X424200D02*
D03*
X373400D02*
D03*
X398800D02*
D03*
X120000Y12100D02*
D03*
X25400Y0D02*
D03*
D18*
X348000Y72500D02*
D03*
X0Y0D02*
D03*
D19*
X120000Y37500D02*
D03*
D20*
X182500Y72500D02*
D03*
X395000Y52500D02*
D03*
X55000Y-5000D02*
D03*
X70000Y40000D02*
D03*
X102500Y55000D02*
D03*
X115000Y80000D02*
D03*
X140000Y50000D02*
D03*
X275000Y80000D02*
D03*
X365000Y25000D02*
D03*
X-7500Y22500D02*
D03*
X162500Y10000D02*
D03*
X215000Y22500D02*
D03*
X272500Y17500D02*
D03*
M02*
