G04*
G04 #@! TF.GenerationSoftware,Altium Limited,Altium Designer,21.6.1 (37)*
G04*
G04 Layer_Color=65535*
%FSLAX44Y44*%
%MOMM*%
G71*
G04*
G04 #@! TF.SameCoordinates,8FA0FE45-4E21-4971-ACDA-AA948B80C5BB*
G04*
G04*
G04 #@! TF.FilePolarity,Positive*
G04*
G01*
G75*
%ADD10C,0.2500*%
%ADD11C,0.2000*%
%ADD12C,0.2540*%
%ADD13C,0.2032*%
D10*
X299000Y53250D02*
G03*
X299000Y53250I-1250J0D01*
G01*
X229000Y73250D02*
G03*
X229000Y73250I-1250J0D01*
G01*
D11*
X335300Y85200D02*
X513100D01*
X335300Y59800D02*
Y85200D01*
Y59800D02*
X513100D01*
Y85200D01*
X38100Y-12700D02*
Y12700D01*
X-12700Y-12700D02*
X38100D01*
X-12700D02*
Y12700D01*
X38100D01*
X317500Y19500D02*
Y50500D01*
X307500Y19500D02*
Y50500D01*
Y19500D02*
X317500D01*
X307500Y50500D02*
X317500D01*
X247500Y39500D02*
Y70500D01*
X237500Y39500D02*
Y70500D01*
Y39500D02*
X247500D01*
X237500Y70500D02*
X247500D01*
D12*
X178000Y80750D02*
X187000D01*
X178000Y64250D02*
X187000D01*
X178000Y36750D02*
X187000D01*
X178000Y53250D02*
X187000D01*
D13*
X302978Y70713D02*
Y61191D01*
X304883Y59287D01*
X308691D01*
X310596Y61191D01*
Y70713D01*
X322022Y59287D02*
X314404D01*
X322022Y66904D01*
Y68809D01*
X320117Y70713D01*
X316309D01*
X314404Y68809D01*
X234883Y30713D02*
Y21191D01*
X236787Y19287D01*
X240596D01*
X242500Y21191D01*
Y30713D01*
X246309Y19287D02*
X250118D01*
X248213D01*
Y30713D01*
X246309Y28809D01*
M02*
